<svg width="1002" height="526" viewBox="0 0 1002 526" fill="none" xmlns="http://www.w3.org/2000/svg">
<rect x="313" y="461.94" width="381" height="64.0596" fill="#61CAD1"/>
<rect x="2" y="2" width="998" height="348.936" fill="white" stroke="#61CAD1" stroke-width="4"/>
<rect x="25" y="373.574" width="951" height="64.0596" fill="#61CAD1"/>
<rect x="26" y="113.395" width="246" height="126.148" fill="#61CAD1"/>
<rect x="287" y="114.379" width="246" height="126.148" fill="#61CAD1"/>
<rect x="548" y="114.379" width="246" height="126.148" fill="#61CAD1"/>
<rect x="25" y="25.6816" width="951" height="64.0596" fill="#61CAD1"/>
<rect x="26" y="263.195" width="768" height="64.0596" fill="#61CAD1"/>
<rect x="809" y="114.379" width="167" height="212.875" fill="#61CAD1"/>
<path d="M336.736 61.8457H330.092L328.492 67H325.963L332.389 47.0938H334.508L340.824 67H338.309L336.736 61.8457ZM330.775 59.6445H336.066L333.441 51.0039L330.775 59.6445ZM353.648 64.9629C353.156 65.6921 352.541 66.2617 351.803 66.6719C351.064 67.0729 350.212 67.2734 349.246 67.2734C348.471 67.2734 347.77 67.1549 347.141 66.918C346.512 66.6719 345.974 66.2936 345.527 65.7832C345.081 65.2728 344.734 64.6257 344.488 63.8418C344.251 63.0488 344.133 62.1009 344.133 60.998V52.207H346.662V61.0254C346.662 61.8275 346.726 62.4928 346.854 63.0215C346.981 63.5501 347.173 63.974 347.428 64.293C347.683 64.6029 347.993 64.8216 348.357 64.9492C348.731 65.0768 349.16 65.1406 349.643 65.1406C350.673 65.1406 351.502 64.931 352.131 64.5117C352.769 64.0924 353.243 63.5273 353.553 62.8164V52.207H356.096V67H353.799L353.648 64.9629ZM366.855 48.625V52.207H372.488V54.1621H366.855V62.2012C366.855 62.7754 366.928 63.2493 367.074 63.623C367.22 63.9967 367.421 64.2975 367.676 64.5254C367.931 64.7441 368.223 64.8991 368.551 64.9902C368.888 65.0814 369.243 65.127 369.617 65.127C369.891 65.127 370.173 65.1133 370.465 65.0859C370.757 65.0495 371.039 65.0085 371.312 64.9629C371.595 64.9173 371.855 64.8717 372.092 64.8262C372.338 64.7715 372.538 64.7259 372.693 64.6895L373.049 66.4805C372.839 66.6081 372.584 66.722 372.283 66.8223C371.982 66.9134 371.654 66.9909 371.299 67.0547C370.943 67.1276 370.565 67.1823 370.164 67.2188C369.772 67.2552 369.38 67.2734 368.988 67.2734C368.332 67.2734 367.717 67.1823 367.143 67C366.577 66.8086 366.085 66.5124 365.666 66.1113C365.247 65.7012 364.914 65.1771 364.668 64.5391C364.431 63.8919 364.312 63.1126 364.312 62.2012V54.1621H360.43V52.207H364.312V48.625H366.855ZM380.213 54.4082C380.742 53.6335 381.393 53.0319 382.168 52.6035C382.943 52.166 383.813 51.9427 384.779 51.9336C385.554 51.9336 386.256 52.0475 386.885 52.2754C387.523 52.4941 388.065 52.8405 388.512 53.3145C388.958 53.7884 389.3 54.39 389.537 55.1191C389.783 55.8392 389.906 56.696 389.906 57.6895V67H387.377V57.6621C387.377 56.4499 387.085 55.5475 386.502 54.9551C385.928 54.3626 385.103 54.071 384.027 54.0801C383.216 54.0801 382.478 54.2806 381.812 54.6816C381.156 55.0736 380.623 55.5977 380.213 56.2539V67H377.684V46H380.213V54.4082ZM401.035 67.2734C399.996 67.2734 399.039 67.0957 398.164 66.7402C397.298 66.3848 396.555 65.888 395.936 65.25C395.316 64.612 394.833 63.8555 394.486 62.9805C394.14 62.1055 393.967 61.153 393.967 60.123V59.5488C393.967 58.3548 394.158 57.2884 394.541 56.3496C394.924 55.4017 395.43 54.6042 396.059 53.957C396.697 53.3008 397.417 52.7995 398.219 52.4531C399.03 52.1068 399.859 51.9336 400.707 51.9336C401.773 51.9336 402.703 52.1204 403.496 52.4941C404.298 52.8587 404.964 53.3691 405.492 54.0254C406.021 54.6725 406.413 55.4382 406.668 56.3223C406.932 57.2064 407.064 58.1634 407.064 59.1934V60.3281H396.496C396.523 61.0026 396.651 61.6361 396.879 62.2285C397.116 62.821 397.435 63.3405 397.836 63.7871C398.246 64.2246 398.734 64.571 399.299 64.8262C399.864 65.0814 400.488 65.209 401.172 65.209C402.074 65.209 402.876 65.0267 403.578 64.6621C404.28 64.2975 404.863 63.8145 405.328 63.2129L406.873 64.416C406.627 64.7897 406.317 65.1497 405.943 65.4961C405.579 65.8333 405.155 66.1341 404.672 66.3984C404.189 66.6628 403.642 66.8724 403.031 67.0273C402.421 67.1914 401.755 67.2734 401.035 67.2734ZM400.707 54.0117C400.197 54.0117 399.714 54.1074 399.258 54.2988C398.802 54.4811 398.392 54.7546 398.027 55.1191C397.663 55.4746 397.353 55.9167 397.098 56.4453C396.852 56.9648 396.678 57.5664 396.578 58.25H404.535V58.0586C404.508 57.5664 404.412 57.0788 404.248 56.5957C404.093 56.1126 403.861 55.6797 403.551 55.2969C403.241 54.9141 402.849 54.6042 402.375 54.3672C401.91 54.1302 401.354 54.0117 400.707 54.0117ZM413.586 52.207L413.764 54.3945C414.301 53.6289 414.962 53.0319 415.746 52.6035C416.53 52.166 417.405 51.9427 418.371 51.9336C419.146 51.9336 419.848 52.043 420.477 52.2617C421.115 52.4805 421.657 52.8223 422.104 53.2871C422.55 53.752 422.892 54.3444 423.129 55.0645C423.375 55.7754 423.498 56.623 423.498 57.6074V67H420.969V57.6621C420.969 57.0059 420.896 56.4499 420.75 55.9941C420.604 55.5384 420.385 55.1693 420.094 54.8867C419.811 54.6042 419.46 54.3991 419.041 54.2715C418.631 54.1439 418.157 54.0801 417.619 54.0801C416.771 54.0801 416.024 54.2943 415.377 54.7227C414.739 55.1419 414.229 55.6979 413.846 56.3906V67H411.316V52.207H413.586ZM434.121 48.625V52.207H439.754V54.1621H434.121V62.2012C434.121 62.7754 434.194 63.2493 434.34 63.623C434.486 63.9967 434.686 64.2975 434.941 64.5254C435.197 64.7441 435.488 64.8991 435.816 64.9902C436.154 65.0814 436.509 65.127 436.883 65.127C437.156 65.127 437.439 65.1133 437.73 65.0859C438.022 65.0495 438.305 65.0085 438.578 64.9629C438.861 64.9173 439.12 64.8717 439.357 64.8262C439.604 64.7715 439.804 64.7259 439.959 64.6895L440.314 66.4805C440.105 66.6081 439.85 66.722 439.549 66.8223C439.248 66.9134 438.92 66.9909 438.564 67.0547C438.209 67.1276 437.831 67.1823 437.43 67.2188C437.038 67.2552 436.646 67.2734 436.254 67.2734C435.598 67.2734 434.982 67.1823 434.408 67C433.843 66.8086 433.351 66.5124 432.932 66.1113C432.512 65.7012 432.18 65.1771 431.934 64.5391C431.697 63.8919 431.578 63.1126 431.578 62.2012V54.1621H427.695V52.207H431.578V48.625H434.121ZM445.346 52.207H452.906V64.8125H457.732V67H445.346V64.8125H450.377V54.4082H445.346V52.207ZM450.049 48.3242C450.049 47.9049 450.172 47.554 450.418 47.2715C450.673 46.9798 451.056 46.834 451.566 46.834C452.068 46.834 452.446 46.9798 452.701 47.2715C452.956 47.554 453.084 47.9049 453.084 48.3242C453.084 48.7344 452.956 49.0762 452.701 49.3496C452.446 49.623 452.068 49.7598 451.566 49.7598C451.056 49.7598 450.673 49.623 450.418 49.3496C450.172 49.0762 450.049 48.7344 450.049 48.3242ZM468.068 65.2227C468.524 65.2227 468.966 65.1497 469.395 65.0039C469.832 64.8581 470.219 64.6576 470.557 64.4023C470.894 64.138 471.163 63.8327 471.363 63.4863C471.573 63.1309 471.682 62.748 471.691 62.3379H474.084C474.075 62.9941 473.902 63.623 473.564 64.2246C473.236 64.8171 472.794 65.3411 472.238 65.7969C471.682 66.2435 471.044 66.6035 470.324 66.877C469.604 67.1413 468.852 67.2734 468.068 67.2734C466.947 67.2734 465.967 67.0729 465.129 66.6719C464.29 66.2708 463.589 65.7331 463.023 65.0586C462.467 64.375 462.048 63.5911 461.766 62.707C461.483 61.8138 461.342 60.875 461.342 59.8906V59.3164C461.342 58.3411 461.483 57.4069 461.766 56.5137C462.048 55.6204 462.467 54.8366 463.023 54.1621C463.589 53.4785 464.29 52.9362 465.129 52.5352C465.967 52.1341 466.947 51.9336 468.068 51.9336C468.943 51.9336 469.745 52.0749 470.475 52.3574C471.213 52.6309 471.846 53.0091 472.375 53.4922C472.913 53.9661 473.332 54.5312 473.633 55.1875C473.934 55.8438 474.084 56.5456 474.084 57.293H471.691C471.682 56.8464 471.582 56.4271 471.391 56.0352C471.208 55.6341 470.958 55.2832 470.639 54.9824C470.32 54.6816 469.937 54.4447 469.49 54.2715C469.053 54.0983 468.579 54.0117 468.068 54.0117C467.285 54.0117 466.624 54.1712 466.086 54.4902C465.557 54.8001 465.129 55.2103 464.801 55.7207C464.473 56.222 464.236 56.7871 464.09 57.416C463.953 58.0449 463.885 58.6784 463.885 59.3164V59.8906C463.885 60.5378 463.953 61.1803 464.09 61.8184C464.236 62.4473 464.468 63.0169 464.787 63.5273C465.115 64.0286 465.544 64.4388 466.072 64.7578C466.61 65.0677 467.275 65.2227 468.068 65.2227ZM488.303 67C488.202 66.8086 488.12 66.5716 488.057 66.2891C488.002 65.9974 487.961 65.6966 487.934 65.3867C487.678 65.6419 487.391 65.8835 487.072 66.1113C486.762 66.3392 486.416 66.5397 486.033 66.7129C485.66 66.8861 485.258 67.0228 484.83 67.123C484.402 67.2233 483.946 67.2734 483.463 67.2734C482.679 67.2734 481.968 67.1595 481.33 66.9316C480.701 66.7038 480.163 66.3984 479.717 66.0156C479.279 65.6237 478.938 65.1634 478.691 64.6348C478.454 64.097 478.336 63.5182 478.336 62.8984C478.336 62.0872 478.495 61.3763 478.814 60.7656C479.143 60.1549 479.603 59.6491 480.195 59.248C480.788 58.8379 481.499 58.5326 482.328 58.332C483.167 58.1315 484.101 58.0312 485.131 58.0312H487.893V56.8691C487.893 56.4225 487.811 56.0215 487.646 55.666C487.482 55.3105 487.25 55.0098 486.949 54.7637C486.648 54.5085 486.279 54.3125 485.842 54.1758C485.413 54.0391 484.93 53.9707 484.393 53.9707C483.891 53.9707 483.44 54.0345 483.039 54.1621C482.647 54.2897 482.314 54.4583 482.041 54.668C481.768 54.8776 481.553 55.1283 481.398 55.4199C481.253 55.7025 481.18 55.9987 481.18 56.3086H478.637C478.646 55.7708 478.783 55.2422 479.047 54.7227C479.32 54.2031 479.708 53.7383 480.209 53.3281C480.719 52.9089 481.335 52.5716 482.055 52.3164C482.784 52.0612 483.609 51.9336 484.529 51.9336C485.368 51.9336 486.147 52.0384 486.867 52.248C487.587 52.4486 488.207 52.7585 488.727 53.1777C489.255 53.5879 489.67 54.1029 489.971 54.7227C490.271 55.3424 490.422 56.0671 490.422 56.8965V63.7734C490.422 64.2656 490.467 64.7897 490.559 65.3457C490.65 65.8926 490.777 66.3711 490.941 66.7812V67H488.303ZM483.832 65.0723C484.324 65.0723 484.785 65.0085 485.213 64.8809C485.641 64.7533 486.029 64.5846 486.375 64.375C486.73 64.1654 487.036 63.9284 487.291 63.6641C487.546 63.3906 487.747 63.1081 487.893 62.8164V59.8223H485.541C484.064 59.8223 482.916 60.041 482.096 60.4785C481.275 60.916 480.865 61.6042 480.865 62.543C480.865 62.9076 480.924 63.2448 481.043 63.5547C481.171 63.8646 481.357 64.1335 481.604 64.3613C481.85 64.5801 482.16 64.7533 482.533 64.8809C482.907 65.0085 483.34 65.0723 483.832 65.0723ZM501.387 48.625V52.207H507.02V54.1621H501.387V62.2012C501.387 62.7754 501.46 63.2493 501.605 63.623C501.751 63.9967 501.952 64.2975 502.207 64.5254C502.462 64.7441 502.754 64.8991 503.082 64.9902C503.419 65.0814 503.775 65.127 504.148 65.127C504.422 65.127 504.704 65.1133 504.996 65.0859C505.288 65.0495 505.57 65.0085 505.844 64.9629C506.126 64.9173 506.386 64.8717 506.623 64.8262C506.869 64.7715 507.07 64.7259 507.225 64.6895L507.58 66.4805C507.37 66.6081 507.115 66.722 506.814 66.8223C506.514 66.9134 506.186 66.9909 505.83 67.0547C505.475 67.1276 505.096 67.1823 504.695 67.2188C504.303 67.2552 503.911 67.2734 503.52 67.2734C502.863 67.2734 502.248 67.1823 501.674 67C501.109 66.8086 500.617 66.5124 500.197 66.1113C499.778 65.7012 499.445 65.1771 499.199 64.5391C498.962 63.8919 498.844 63.1126 498.844 62.2012V54.1621H494.961V52.207H498.844V48.625H501.387ZM512.611 52.207H520.172V64.8125H524.998V67H512.611V64.8125H517.643V54.4082H512.611V52.207ZM517.314 48.3242C517.314 47.9049 517.438 47.554 517.684 47.2715C517.939 46.9798 518.322 46.834 518.832 46.834C519.333 46.834 519.712 46.9798 519.967 47.2715C520.222 47.554 520.35 47.9049 520.35 48.3242C520.35 48.7344 520.222 49.0762 519.967 49.3496C519.712 49.623 519.333 49.7598 518.832 49.7598C518.322 49.7598 517.939 49.623 517.684 49.3496C517.438 49.0762 517.314 48.7344 517.314 48.3242ZM528.32 59.4668C528.32 58.4004 528.475 57.4115 528.785 56.5C529.095 55.5794 529.537 54.7819 530.111 54.1074C530.695 53.4329 531.401 52.9043 532.23 52.5215C533.06 52.1296 533.994 51.9336 535.033 51.9336C536.081 51.9336 537.02 52.1296 537.85 52.5215C538.688 52.9043 539.395 53.4329 539.969 54.1074C540.552 54.7819 540.999 55.5794 541.309 56.5C541.618 57.4115 541.773 58.4004 541.773 59.4668V59.7676C541.773 60.834 541.618 61.8229 541.309 62.7344C540.999 63.6458 540.552 64.4388 539.969 65.1133C539.395 65.7878 538.693 66.3164 537.863 66.6992C537.034 67.082 536.1 67.2734 535.061 67.2734C534.012 67.2734 533.069 67.082 532.23 66.6992C531.401 66.3164 530.695 65.7878 530.111 65.1133C529.537 64.4388 529.095 63.6458 528.785 62.7344C528.475 61.8229 528.32 60.834 528.32 59.7676V59.4668ZM530.85 59.7676C530.85 60.4967 530.936 61.194 531.109 61.8594C531.283 62.5156 531.542 63.0944 531.889 63.5957C532.244 64.097 532.686 64.4935 533.215 64.7852C533.743 65.0768 534.359 65.2227 535.061 65.2227C535.753 65.2227 536.359 65.0768 536.879 64.7852C537.408 64.4935 537.845 64.097 538.191 63.5957C538.547 63.0944 538.811 62.5156 538.984 61.8594C539.158 61.194 539.244 60.4967 539.244 59.7676V59.4668C539.244 58.7467 539.153 58.0586 538.971 57.4023C538.798 56.737 538.533 56.1536 538.178 55.6523C537.831 55.151 537.394 54.7546 536.865 54.4629C536.346 54.1621 535.735 54.0117 535.033 54.0117C534.331 54.0117 533.721 54.1621 533.201 54.4629C532.682 54.7546 532.244 55.151 531.889 55.6523C531.542 56.1536 531.283 56.737 531.109 57.4023C530.936 58.0586 530.85 58.7467 530.85 59.4668V59.7676ZM548.117 52.207L548.295 54.3945C548.833 53.6289 549.493 53.0319 550.277 52.6035C551.061 52.166 551.936 51.9427 552.902 51.9336C553.677 51.9336 554.379 52.043 555.008 52.2617C555.646 52.4805 556.188 52.8223 556.635 53.2871C557.081 53.752 557.423 54.3444 557.66 55.0645C557.906 55.7754 558.029 56.623 558.029 57.6074V67H555.5V57.6621C555.5 57.0059 555.427 56.4499 555.281 55.9941C555.135 55.5384 554.917 55.1693 554.625 54.8867C554.342 54.6042 553.992 54.3991 553.572 54.2715C553.162 54.1439 552.688 54.0801 552.15 54.0801C551.303 54.0801 550.555 54.2943 549.908 54.7227C549.27 55.1419 548.76 55.6979 548.377 56.3906V67H545.848V52.207H548.117ZM589.898 61.9688C589.898 61.3581 589.757 60.8431 589.475 60.4238C589.201 60.0046 588.846 59.6536 588.408 59.3711C587.971 59.0794 587.488 58.8379 586.959 58.6465C586.439 58.4551 585.938 58.2819 585.455 58.127C584.753 57.8991 584.038 57.6257 583.309 57.3066C582.589 56.9876 581.928 56.5957 581.326 56.1309C580.734 55.666 580.246 55.1191 579.863 54.4902C579.49 53.8522 579.303 53.1048 579.303 52.248C579.303 51.3913 579.49 50.6257 579.863 49.9512C580.246 49.2767 580.743 48.707 581.354 48.2422C581.964 47.7773 582.657 47.4264 583.432 47.1895C584.206 46.9434 584.986 46.8203 585.77 46.8203C586.635 46.8203 587.469 46.9661 588.271 47.2578C589.074 47.5404 589.785 47.9414 590.404 48.4609C591.024 48.9805 591.521 49.6094 591.895 50.3477C592.268 51.0859 592.464 51.9108 592.482 52.8223H589.885C589.812 52.248 589.671 51.7285 589.461 51.2637C589.251 50.7897 588.973 50.3841 588.627 50.0469C588.281 49.7096 587.866 49.4499 587.383 49.2676C586.909 49.0762 586.371 48.9805 585.77 48.9805C585.286 48.9805 584.812 49.0488 584.348 49.1855C583.892 49.3223 583.482 49.5273 583.117 49.8008C582.762 50.0742 582.475 50.4115 582.256 50.8125C582.046 51.2135 581.941 51.6784 581.941 52.207C581.951 52.7812 582.096 53.2689 582.379 53.6699C582.661 54.0618 583.017 54.3945 583.445 54.668C583.883 54.9414 584.352 55.1693 584.854 55.3516C585.364 55.5339 585.842 55.6934 586.289 55.8301C586.781 55.985 587.278 56.1628 587.779 56.3633C588.281 56.5547 588.764 56.778 589.229 57.0332C589.693 57.2884 590.126 57.5755 590.527 57.8945C590.928 58.2135 591.279 58.5781 591.58 58.9883C591.881 59.3893 592.113 59.8359 592.277 60.3281C592.451 60.8112 592.537 61.349 592.537 61.9414C592.537 62.8346 592.337 63.6139 591.936 64.2793C591.544 64.9447 591.033 65.5007 590.404 65.9473C589.775 66.3848 589.064 66.7174 588.271 66.9453C587.479 67.1641 586.686 67.2734 585.893 67.2734C585.008 67.2734 584.143 67.1367 583.295 66.8633C582.447 66.5898 581.686 66.1979 581.012 65.6875C580.346 65.168 579.804 64.5391 579.385 63.8008C578.965 63.0534 578.742 62.2057 578.715 61.2578H581.299C581.381 61.8776 581.549 62.429 581.805 62.9121C582.06 63.3861 582.388 63.7917 582.789 64.1289C583.19 64.457 583.65 64.7077 584.17 64.8809C584.699 65.0449 585.273 65.127 585.893 65.127C586.385 65.127 586.868 65.0677 587.342 64.9492C587.825 64.8216 588.253 64.6302 588.627 64.375C589.001 64.1107 589.306 63.7826 589.543 63.3906C589.78 62.9896 589.898 62.5156 589.898 61.9688ZM601.738 61.75L602.395 63.541L606.906 52.207H609.736L602.23 69.2832C602.057 69.666 601.834 70.0716 601.561 70.5C601.296 70.9284 600.973 71.3249 600.59 71.6895C600.207 72.054 599.76 72.3594 599.25 72.6055C598.74 72.8516 598.152 72.9746 597.486 72.9746C597.368 72.9746 597.236 72.9655 597.09 72.9473C596.944 72.9382 596.798 72.9199 596.652 72.8926C596.507 72.8743 596.37 72.8516 596.242 72.8242C596.115 72.7969 596.01 72.7741 595.928 72.7559L596.338 70.6914C596.402 70.6914 596.488 70.696 596.598 70.7051C596.707 70.7142 596.821 70.7233 596.939 70.7324C597.058 70.7415 597.172 70.7461 597.281 70.7461C597.391 70.7552 597.477 70.7598 597.541 70.7598C597.887 70.7598 598.202 70.6641 598.484 70.4727C598.776 70.2812 599.031 70.0534 599.25 69.7891C599.478 69.5247 599.669 69.2513 599.824 68.9688C599.988 68.6862 600.116 68.4538 600.207 68.2715L601.219 66.3027L594.848 52.207H597.678L601.738 61.75ZM622.943 63.0762C622.943 62.7754 622.884 62.5065 622.766 62.2695C622.647 62.0234 622.447 61.8001 622.164 61.5996C621.882 61.3991 621.508 61.2168 621.043 61.0527C620.578 60.8796 619.999 60.7246 619.307 60.5879C618.459 60.4147 617.684 60.2051 616.982 59.959C616.29 59.7129 615.693 59.4212 615.191 59.084C614.699 58.7376 614.316 58.3366 614.043 57.8809C613.77 57.416 613.633 56.8783 613.633 56.2676C613.633 55.666 613.774 55.1055 614.057 54.5859C614.339 54.0573 614.736 53.597 615.246 53.2051C615.757 52.8132 616.363 52.5033 617.064 52.2754C617.775 52.0475 618.555 51.9336 619.402 51.9336C620.314 51.9336 621.134 52.0521 621.863 52.2891C622.592 52.526 623.212 52.8542 623.723 53.2734C624.233 53.6927 624.625 54.1849 624.898 54.75C625.181 55.306 625.322 55.9076 625.322 56.5547H622.793C622.793 56.2357 622.711 55.9258 622.547 55.625C622.383 55.3151 622.155 55.0417 621.863 54.8047C621.572 54.5677 621.216 54.3763 620.797 54.2305C620.387 54.0846 619.922 54.0117 619.402 54.0117C618.865 54.0117 618.391 54.071 617.98 54.1895C617.579 54.3079 617.242 54.4674 616.969 54.668C616.704 54.8685 616.504 55.1009 616.367 55.3652C616.23 55.6296 616.162 55.903 616.162 56.1855C616.162 56.4772 616.217 56.737 616.326 56.9648C616.436 57.1927 616.622 57.3978 616.887 57.5801C617.16 57.7624 617.52 57.9264 617.967 58.0723C618.423 58.2181 618.997 58.3594 619.689 58.4961C620.601 58.6875 621.417 58.9108 622.137 59.166C622.857 59.4121 623.463 59.7129 623.955 60.0684C624.447 60.4147 624.821 60.8203 625.076 61.2852C625.34 61.75 625.473 62.2878 625.473 62.8984C625.473 63.5547 625.322 64.1517 625.021 64.6895C624.73 65.2272 624.32 65.6875 623.791 66.0703C623.262 66.4531 622.629 66.7493 621.891 66.959C621.152 67.1686 620.346 67.2734 619.471 67.2734C618.468 67.2734 617.575 67.1413 616.791 66.877C616.007 66.6035 615.342 66.248 614.795 65.8105C614.257 65.3639 613.842 64.849 613.551 64.2656C613.268 63.6823 613.127 63.0762 613.127 62.4473H615.656C615.693 62.9668 615.829 63.4043 616.066 63.7598C616.312 64.1152 616.613 64.4023 616.969 64.6211C617.333 64.8398 617.734 64.9948 618.172 65.0859C618.609 65.1771 619.042 65.2227 619.471 65.2227C620.537 65.2227 621.38 65.0267 622 64.6348C622.62 64.2428 622.934 63.7233 622.943 63.0762ZM635.918 48.625V52.207H641.551V54.1621H635.918V62.2012C635.918 62.7754 635.991 63.2493 636.137 63.623C636.283 63.9967 636.483 64.2975 636.738 64.5254C636.993 64.7441 637.285 64.8991 637.613 64.9902C637.951 65.0814 638.306 65.127 638.68 65.127C638.953 65.127 639.236 65.1133 639.527 65.0859C639.819 65.0495 640.102 65.0085 640.375 64.9629C640.658 64.9173 640.917 64.8717 641.154 64.8262C641.4 64.7715 641.601 64.7259 641.756 64.6895L642.111 66.4805C641.902 66.6081 641.646 66.722 641.346 66.8223C641.045 66.9134 640.717 66.9909 640.361 67.0547C640.006 67.1276 639.628 67.1823 639.227 67.2188C638.835 67.2552 638.443 67.2734 638.051 67.2734C637.395 67.2734 636.779 67.1823 636.205 67C635.64 66.8086 635.148 66.5124 634.729 66.1113C634.309 65.7012 633.977 65.1771 633.73 64.5391C633.493 63.8919 633.375 63.1126 633.375 62.2012V54.1621H629.492V52.207H633.375V48.625H635.918ZM653.281 67.2734C652.242 67.2734 651.285 67.0957 650.41 66.7402C649.544 66.3848 648.801 65.888 648.182 65.25C647.562 64.612 647.079 63.8555 646.732 62.9805C646.386 62.1055 646.213 61.153 646.213 60.123V59.5488C646.213 58.3548 646.404 57.2884 646.787 56.3496C647.17 55.4017 647.676 54.6042 648.305 53.957C648.943 53.3008 649.663 52.7995 650.465 52.4531C651.276 52.1068 652.105 51.9336 652.953 51.9336C654.02 51.9336 654.949 52.1204 655.742 52.4941C656.544 52.8587 657.21 53.3691 657.738 54.0254C658.267 54.6725 658.659 55.4382 658.914 56.3223C659.178 57.2064 659.311 58.1634 659.311 59.1934V60.3281H648.742C648.77 61.0026 648.897 61.6361 649.125 62.2285C649.362 62.821 649.681 63.3405 650.082 63.7871C650.492 64.2246 650.98 64.571 651.545 64.8262C652.11 65.0814 652.734 65.209 653.418 65.209C654.32 65.209 655.122 65.0267 655.824 64.6621C656.526 64.2975 657.109 63.8145 657.574 63.2129L659.119 64.416C658.873 64.7897 658.563 65.1497 658.189 65.4961C657.825 65.8333 657.401 66.1341 656.918 66.3984C656.435 66.6628 655.888 66.8724 655.277 67.0273C654.667 67.1914 654.001 67.2734 653.281 67.2734ZM652.953 54.0117C652.443 54.0117 651.96 54.1074 651.504 54.2988C651.048 54.4811 650.638 54.7546 650.273 55.1191C649.909 55.4746 649.599 55.9167 649.344 56.4453C649.098 56.9648 648.924 57.5664 648.824 58.25H656.781V58.0586C656.754 57.5664 656.658 57.0788 656.494 56.5957C656.339 56.1126 656.107 55.6797 655.797 55.2969C655.487 54.9141 655.095 54.6042 654.621 54.3672C654.156 54.1302 653.6 54.0117 652.953 54.0117ZM664.725 52.207L664.793 53.6016C665.094 53.082 665.486 52.6764 665.969 52.3848C666.461 52.0931 667.053 51.9427 667.746 51.9336C669.104 51.9336 670.011 52.4622 670.467 53.5195C670.758 53.0456 671.141 52.6673 671.615 52.3848C672.098 52.0931 672.682 51.9427 673.365 51.9336C674.45 51.9336 675.284 52.2663 675.867 52.9316C676.451 53.597 676.742 54.6042 676.742 55.9531V67H674.336V55.9258C674.336 54.6862 673.766 54.071 672.627 54.0801C672.326 54.0801 672.066 54.1211 671.848 54.2031C671.629 54.2852 671.447 54.3991 671.301 54.5449C671.155 54.6816 671.041 54.8457 670.959 55.0371C670.877 55.2194 670.822 55.4108 670.795 55.6113V67H668.389V55.9121C668.389 55.3197 668.257 54.8639 667.992 54.5449C667.728 54.2259 667.309 54.071 666.734 54.0801C666.206 54.0801 665.796 54.1849 665.504 54.3945C665.212 54.6042 664.998 54.8822 664.861 55.2285V67H662.455V52.207H664.725Z" fill="white"/>
<path d="M347.717 299.846H341.072L339.473 305H336.943L343.369 285.094H345.488L351.805 305H349.289L347.717 299.846ZM341.756 297.645H347.047L344.422 289.004L341.756 297.645ZM357.793 297.016V305H355.264V285.094H361.717C362.61 285.112 363.453 285.253 364.246 285.518C365.048 285.782 365.75 286.165 366.352 286.666C366.953 287.167 367.427 287.787 367.773 288.525C368.129 289.264 368.307 290.111 368.307 291.068C368.307 292.025 368.129 292.873 367.773 293.611C367.427 294.34 366.953 294.956 366.352 295.457C365.75 295.958 365.048 296.341 364.246 296.605C363.453 296.87 362.61 297.007 361.717 297.016H357.793ZM357.793 294.938H361.717C362.3 294.928 362.838 294.837 363.33 294.664C363.822 294.482 364.251 294.227 364.615 293.898C364.98 293.57 365.262 293.174 365.463 292.709C365.673 292.235 365.777 291.697 365.777 291.096C365.777 290.494 365.673 289.952 365.463 289.469C365.262 288.986 364.98 288.576 364.615 288.238C364.26 287.901 363.831 287.641 363.33 287.459C362.838 287.277 362.3 287.181 361.717 287.172H357.793V294.938ZM371.848 285.094H383.879V287.295H379.107V302.812H383.879V305H371.848V302.812H376.51V287.295H371.848V285.094ZM418.373 299.012C418.255 299.932 418.018 300.78 417.662 301.555C417.307 302.32 416.842 302.981 416.268 303.537C415.702 304.084 415.028 304.512 414.244 304.822C413.469 305.123 412.604 305.273 411.646 305.273C410.826 305.273 410.079 305.16 409.404 304.932C408.739 304.695 408.142 304.371 407.613 303.961C407.094 303.551 406.643 303.068 406.26 302.512C405.886 301.956 405.572 301.35 405.316 300.693C405.07 300.037 404.883 299.349 404.756 298.629C404.637 297.909 404.574 297.18 404.564 296.441V293.666C404.574 292.928 404.637 292.199 404.756 291.479C404.883 290.758 405.07 290.07 405.316 289.414C405.572 288.758 405.886 288.152 406.26 287.596C406.643 287.031 407.094 286.543 407.613 286.133C408.142 285.723 408.739 285.404 409.404 285.176C410.07 284.939 410.817 284.82 411.646 284.82C412.64 284.82 413.529 284.975 414.312 285.285C415.096 285.586 415.771 286.019 416.336 286.584C416.901 287.14 417.352 287.81 417.689 288.594C418.036 289.378 418.264 290.243 418.373 291.191H415.844C415.762 290.59 415.62 290.029 415.42 289.51C415.219 288.99 414.951 288.535 414.613 288.143C414.276 287.751 413.861 287.445 413.369 287.227C412.886 286.999 412.312 286.885 411.646 286.885C411.045 286.885 410.512 286.985 410.047 287.186C409.591 287.377 409.195 287.641 408.857 287.979C408.529 288.316 408.251 288.708 408.023 289.154C407.805 289.601 407.627 290.075 407.49 290.576C407.354 291.077 407.253 291.592 407.189 292.121C407.135 292.641 407.107 293.146 407.107 293.639V296.441C407.107 296.934 407.135 297.444 407.189 297.973C407.253 298.492 407.354 299.007 407.49 299.518C407.627 300.019 407.805 300.493 408.023 300.939C408.242 301.386 408.52 301.783 408.857 302.129C409.195 302.466 409.591 302.735 410.047 302.936C410.503 303.127 411.036 303.223 411.646 303.223C412.312 303.223 412.886 303.118 413.369 302.908C413.861 302.699 414.276 302.407 414.613 302.033C414.951 301.65 415.219 301.204 415.42 300.693C415.62 300.174 415.762 299.613 415.844 299.012H418.373ZM422.693 284H430.254V302.812H435.08V305H422.693V302.812H427.725V286.201H422.693V284ZM439.51 290.207H447.07V302.812H451.896V305H439.51V302.812H444.541V292.408H439.51V290.207ZM444.213 286.324C444.213 285.905 444.336 285.554 444.582 285.271C444.837 284.98 445.22 284.834 445.73 284.834C446.232 284.834 446.61 284.98 446.865 285.271C447.12 285.554 447.248 285.905 447.248 286.324C447.248 286.734 447.12 287.076 446.865 287.35C446.61 287.623 446.232 287.76 445.73 287.76C445.22 287.76 444.837 287.623 444.582 287.35C444.336 287.076 444.213 286.734 444.213 286.324ZM462.465 305.273C461.426 305.273 460.469 305.096 459.594 304.74C458.728 304.385 457.985 303.888 457.365 303.25C456.745 302.612 456.262 301.855 455.916 300.98C455.57 300.105 455.396 299.153 455.396 298.123V297.549C455.396 296.355 455.588 295.288 455.971 294.35C456.354 293.402 456.859 292.604 457.488 291.957C458.126 291.301 458.846 290.799 459.648 290.453C460.46 290.107 461.289 289.934 462.137 289.934C463.203 289.934 464.133 290.12 464.926 290.494C465.728 290.859 466.393 291.369 466.922 292.025C467.451 292.673 467.842 293.438 468.098 294.322C468.362 295.206 468.494 296.163 468.494 297.193V298.328H457.926C457.953 299.003 458.081 299.636 458.309 300.229C458.546 300.821 458.865 301.34 459.266 301.787C459.676 302.225 460.163 302.571 460.729 302.826C461.294 303.081 461.918 303.209 462.602 303.209C463.504 303.209 464.306 303.027 465.008 302.662C465.71 302.298 466.293 301.814 466.758 301.213L468.303 302.416C468.057 302.79 467.747 303.15 467.373 303.496C467.008 303.833 466.585 304.134 466.102 304.398C465.618 304.663 465.072 304.872 464.461 305.027C463.85 305.191 463.185 305.273 462.465 305.273ZM462.137 292.012C461.626 292.012 461.143 292.107 460.688 292.299C460.232 292.481 459.822 292.755 459.457 293.119C459.092 293.475 458.783 293.917 458.527 294.445C458.281 294.965 458.108 295.566 458.008 296.25H465.965V296.059C465.938 295.566 465.842 295.079 465.678 294.596C465.523 294.113 465.29 293.68 464.98 293.297C464.671 292.914 464.279 292.604 463.805 292.367C463.34 292.13 462.784 292.012 462.137 292.012ZM475.016 290.207L475.193 292.395C475.731 291.629 476.392 291.032 477.176 290.604C477.96 290.166 478.835 289.943 479.801 289.934C480.576 289.934 481.277 290.043 481.906 290.262C482.544 290.48 483.087 290.822 483.533 291.287C483.98 291.752 484.322 292.344 484.559 293.064C484.805 293.775 484.928 294.623 484.928 295.607V305H482.398V295.662C482.398 295.006 482.326 294.45 482.18 293.994C482.034 293.538 481.815 293.169 481.523 292.887C481.241 292.604 480.89 292.399 480.471 292.271C480.061 292.144 479.587 292.08 479.049 292.08C478.201 292.08 477.454 292.294 476.807 292.723C476.169 293.142 475.658 293.698 475.275 294.391V305H472.746V290.207H475.016ZM495.551 286.625V290.207H501.184V292.162H495.551V300.201C495.551 300.775 495.624 301.249 495.77 301.623C495.915 301.997 496.116 302.298 496.371 302.525C496.626 302.744 496.918 302.899 497.246 302.99C497.583 303.081 497.939 303.127 498.312 303.127C498.586 303.127 498.868 303.113 499.16 303.086C499.452 303.049 499.734 303.008 500.008 302.963C500.29 302.917 500.55 302.872 500.787 302.826C501.033 302.771 501.234 302.726 501.389 302.689L501.744 304.48C501.535 304.608 501.279 304.722 500.979 304.822C500.678 304.913 500.35 304.991 499.994 305.055C499.639 305.128 499.26 305.182 498.859 305.219C498.467 305.255 498.076 305.273 497.684 305.273C497.027 305.273 496.412 305.182 495.838 305C495.273 304.809 494.781 304.512 494.361 304.111C493.942 303.701 493.609 303.177 493.363 302.539C493.126 301.892 493.008 301.113 493.008 300.201V292.162H489.125V290.207H493.008V286.625H495.551Z" fill="white"/>
<path d="M467.963 416H465.57V406.799H457.408V416H455.029V396.094H457.408V404.652H465.57V396.094H467.963V416ZM478.832 416.273C477.793 416.273 476.836 416.096 475.961 415.74C475.095 415.385 474.352 414.888 473.732 414.25C473.113 413.612 472.63 412.855 472.283 411.98C471.937 411.105 471.764 410.153 471.764 409.123V408.549C471.764 407.355 471.955 406.288 472.338 405.35C472.721 404.402 473.227 403.604 473.855 402.957C474.493 402.301 475.214 401.799 476.016 401.453C476.827 401.107 477.656 400.934 478.504 400.934C479.57 400.934 480.5 401.12 481.293 401.494C482.095 401.859 482.76 402.369 483.289 403.025C483.818 403.673 484.21 404.438 484.465 405.322C484.729 406.206 484.861 407.163 484.861 408.193V409.328H474.293C474.32 410.003 474.448 410.636 474.676 411.229C474.913 411.821 475.232 412.34 475.633 412.787C476.043 413.225 476.531 413.571 477.096 413.826C477.661 414.081 478.285 414.209 478.969 414.209C479.871 414.209 480.673 414.027 481.375 413.662C482.077 413.298 482.66 412.814 483.125 412.213L484.67 413.416C484.424 413.79 484.114 414.15 483.74 414.496C483.376 414.833 482.952 415.134 482.469 415.398C481.986 415.663 481.439 415.872 480.828 416.027C480.217 416.191 479.552 416.273 478.832 416.273ZM478.504 403.012C477.993 403.012 477.51 403.107 477.055 403.299C476.599 403.481 476.189 403.755 475.824 404.119C475.46 404.475 475.15 404.917 474.895 405.445C474.648 405.965 474.475 406.566 474.375 407.25H482.332V407.059C482.305 406.566 482.209 406.079 482.045 405.596C481.89 405.113 481.658 404.68 481.348 404.297C481.038 403.914 480.646 403.604 480.172 403.367C479.707 403.13 479.151 403.012 478.504 403.012ZM498.807 400.934C499.044 400.934 499.29 400.943 499.545 400.961C499.8 400.97 500.042 400.993 500.27 401.029C500.507 401.057 500.721 401.093 500.912 401.139C501.113 401.184 501.277 401.234 501.404 401.289L501.062 403.764C500.57 403.654 500.101 403.577 499.654 403.531C499.217 403.477 498.757 403.449 498.273 403.449C497.089 403.449 496.127 403.718 495.389 404.256C494.66 404.794 494.122 405.546 493.775 406.512V416H491.232V401.207H493.639L493.762 403.559C494.363 402.747 495.083 402.109 495.922 401.645C496.77 401.171 497.731 400.934 498.807 400.934ZM505.219 408.467C505.219 407.4 505.374 406.411 505.684 405.5C505.993 404.579 506.436 403.782 507.01 403.107C507.593 402.433 508.299 401.904 509.129 401.521C509.958 401.13 510.893 400.934 511.932 400.934C512.98 400.934 513.919 401.13 514.748 401.521C515.587 401.904 516.293 402.433 516.867 403.107C517.451 403.782 517.897 404.579 518.207 405.5C518.517 406.411 518.672 407.4 518.672 408.467V408.768C518.672 409.834 518.517 410.823 518.207 411.734C517.897 412.646 517.451 413.439 516.867 414.113C516.293 414.788 515.591 415.316 514.762 415.699C513.932 416.082 512.998 416.273 511.959 416.273C510.911 416.273 509.967 416.082 509.129 415.699C508.299 415.316 507.593 414.788 507.01 414.113C506.436 413.439 505.993 412.646 505.684 411.734C505.374 410.823 505.219 409.834 505.219 408.768V408.467ZM507.748 408.768C507.748 409.497 507.835 410.194 508.008 410.859C508.181 411.516 508.441 412.094 508.787 412.596C509.143 413.097 509.585 413.493 510.113 413.785C510.642 414.077 511.257 414.223 511.959 414.223C512.652 414.223 513.258 414.077 513.777 413.785C514.306 413.493 514.743 413.097 515.09 412.596C515.445 412.094 515.71 411.516 515.883 410.859C516.056 410.194 516.143 409.497 516.143 408.768V408.467C516.143 407.747 516.051 407.059 515.869 406.402C515.696 405.737 515.432 405.154 515.076 404.652C514.73 404.151 514.292 403.755 513.764 403.463C513.244 403.162 512.633 403.012 511.932 403.012C511.23 403.012 510.619 403.162 510.1 403.463C509.58 403.755 509.143 404.151 508.787 404.652C508.441 405.154 508.181 405.737 508.008 406.402C507.835 407.059 507.748 407.747 507.748 408.467V408.768ZM527.176 409.096L525.316 410.887V416H522.773V395H525.316V407.852L526.971 406.074L531.824 401.207H534.9L528.912 407.373L535.816 416H532.604L527.176 409.096ZM549.16 413.963C548.668 414.692 548.053 415.262 547.314 415.672C546.576 416.073 545.724 416.273 544.758 416.273C543.983 416.273 543.281 416.155 542.652 415.918C542.023 415.672 541.486 415.294 541.039 414.783C540.592 414.273 540.246 413.626 540 412.842C539.763 412.049 539.645 411.101 539.645 409.998V401.207H542.174V410.025C542.174 410.827 542.238 411.493 542.365 412.021C542.493 412.55 542.684 412.974 542.939 413.293C543.195 413.603 543.505 413.822 543.869 413.949C544.243 414.077 544.671 414.141 545.154 414.141C546.184 414.141 547.014 413.931 547.643 413.512C548.281 413.092 548.755 412.527 549.064 411.816V401.207H551.607V416H549.311L549.16 413.963Z" fill="white"/>
<path d="M844.453 226V206.094H850.373C851.193 206.103 851.995 206.212 852.779 206.422C853.563 206.622 854.26 206.937 854.871 207.365C855.482 207.794 855.969 208.34 856.334 209.006C856.699 209.671 856.876 210.469 856.867 211.398C856.858 211.918 856.771 212.392 856.607 212.82C856.452 213.249 856.234 213.636 855.951 213.982C855.678 214.32 855.354 214.616 854.98 214.871C854.607 215.126 854.21 215.345 853.791 215.527C854.32 215.682 854.803 215.906 855.24 216.197C855.687 216.48 856.07 216.826 856.389 217.236C856.708 217.637 856.954 218.093 857.127 218.604C857.309 219.114 857.4 219.665 857.4 220.258C857.41 221.188 857.232 222.008 856.867 222.719C856.503 223.43 856.015 224.027 855.404 224.51C854.794 224.984 854.087 225.348 853.285 225.604C852.492 225.859 851.672 225.991 850.824 226H844.453ZM846.996 216.689V223.854H850.893C851.421 223.844 851.923 223.758 852.396 223.594C852.87 223.421 853.29 223.184 853.654 222.883C854.019 222.582 854.306 222.213 854.516 221.775C854.734 221.338 854.844 220.841 854.844 220.285C854.853 219.72 854.757 219.219 854.557 218.781C854.365 218.344 854.096 217.975 853.75 217.674C853.404 217.364 852.998 217.127 852.533 216.963C852.068 216.799 851.567 216.708 851.029 216.689H846.996ZM846.996 214.584H850.523C850.997 214.575 851.462 214.502 851.918 214.365C852.374 214.219 852.779 214.014 853.135 213.75C853.49 213.477 853.777 213.144 853.996 212.752C854.215 212.36 854.324 211.904 854.324 211.385C854.324 210.829 854.215 210.355 853.996 209.963C853.786 209.571 853.499 209.252 853.135 209.006C852.779 208.751 852.365 208.564 851.891 208.445C851.426 208.327 850.947 208.263 850.455 208.254H846.996V214.584ZM871.018 226C870.917 225.809 870.835 225.572 870.771 225.289C870.717 224.997 870.676 224.697 870.648 224.387C870.393 224.642 870.106 224.883 869.787 225.111C869.477 225.339 869.131 225.54 868.748 225.713C868.374 225.886 867.973 226.023 867.545 226.123C867.117 226.223 866.661 226.273 866.178 226.273C865.394 226.273 864.683 226.16 864.045 225.932C863.416 225.704 862.878 225.398 862.432 225.016C861.994 224.624 861.652 224.163 861.406 223.635C861.169 223.097 861.051 222.518 861.051 221.898C861.051 221.087 861.21 220.376 861.529 219.766C861.857 219.155 862.318 218.649 862.91 218.248C863.503 217.838 864.214 217.533 865.043 217.332C865.882 217.132 866.816 217.031 867.846 217.031H870.607V215.869C870.607 215.423 870.525 215.021 870.361 214.666C870.197 214.311 869.965 214.01 869.664 213.764C869.363 213.508 868.994 213.312 868.557 213.176C868.128 213.039 867.645 212.971 867.107 212.971C866.606 212.971 866.155 213.035 865.754 213.162C865.362 213.29 865.029 213.458 864.756 213.668C864.482 213.878 864.268 214.128 864.113 214.42C863.967 214.702 863.895 214.999 863.895 215.309H861.352C861.361 214.771 861.497 214.242 861.762 213.723C862.035 213.203 862.423 212.738 862.924 212.328C863.434 211.909 864.049 211.572 864.77 211.316C865.499 211.061 866.324 210.934 867.244 210.934C868.083 210.934 868.862 211.038 869.582 211.248C870.302 211.449 870.922 211.758 871.441 212.178C871.97 212.588 872.385 213.103 872.686 213.723C872.986 214.342 873.137 215.067 873.137 215.896V222.773C873.137 223.266 873.182 223.79 873.273 224.346C873.365 224.893 873.492 225.371 873.656 225.781V226H871.018ZM866.547 224.072C867.039 224.072 867.499 224.008 867.928 223.881C868.356 223.753 868.743 223.585 869.09 223.375C869.445 223.165 869.751 222.928 870.006 222.664C870.261 222.391 870.462 222.108 870.607 221.816V218.822H868.256C866.779 218.822 865.631 219.041 864.811 219.479C863.99 219.916 863.58 220.604 863.58 221.543C863.58 221.908 863.639 222.245 863.758 222.555C863.885 222.865 864.072 223.133 864.318 223.361C864.564 223.58 864.874 223.753 865.248 223.881C865.622 224.008 866.055 224.072 866.547 224.072ZM887.943 222.076C887.943 221.775 887.884 221.507 887.766 221.27C887.647 221.023 887.447 220.8 887.164 220.6C886.882 220.399 886.508 220.217 886.043 220.053C885.578 219.88 884.999 219.725 884.307 219.588C883.459 219.415 882.684 219.205 881.982 218.959C881.29 218.713 880.693 218.421 880.191 218.084C879.699 217.738 879.316 217.337 879.043 216.881C878.77 216.416 878.633 215.878 878.633 215.268C878.633 214.666 878.774 214.105 879.057 213.586C879.339 213.057 879.736 212.597 880.246 212.205C880.757 211.813 881.363 211.503 882.064 211.275C882.775 211.048 883.555 210.934 884.402 210.934C885.314 210.934 886.134 211.052 886.863 211.289C887.592 211.526 888.212 211.854 888.723 212.273C889.233 212.693 889.625 213.185 889.898 213.75C890.181 214.306 890.322 214.908 890.322 215.555H887.793C887.793 215.236 887.711 214.926 887.547 214.625C887.383 214.315 887.155 214.042 886.863 213.805C886.572 213.568 886.216 213.376 885.797 213.23C885.387 213.085 884.922 213.012 884.402 213.012C883.865 213.012 883.391 213.071 882.98 213.189C882.579 213.308 882.242 213.467 881.969 213.668C881.704 213.868 881.504 214.101 881.367 214.365C881.23 214.63 881.162 214.903 881.162 215.186C881.162 215.477 881.217 215.737 881.326 215.965C881.436 216.193 881.622 216.398 881.887 216.58C882.16 216.762 882.52 216.926 882.967 217.072C883.423 217.218 883.997 217.359 884.689 217.496C885.601 217.688 886.417 217.911 887.137 218.166C887.857 218.412 888.463 218.713 888.955 219.068C889.447 219.415 889.821 219.82 890.076 220.285C890.34 220.75 890.473 221.288 890.473 221.898C890.473 222.555 890.322 223.152 890.021 223.689C889.73 224.227 889.32 224.688 888.791 225.07C888.262 225.453 887.629 225.749 886.891 225.959C886.152 226.169 885.346 226.273 884.471 226.273C883.468 226.273 882.575 226.141 881.791 225.877C881.007 225.604 880.342 225.248 879.795 224.811C879.257 224.364 878.842 223.849 878.551 223.266C878.268 222.682 878.127 222.076 878.127 221.447H880.656C880.693 221.967 880.829 222.404 881.066 222.76C881.312 223.115 881.613 223.402 881.969 223.621C882.333 223.84 882.734 223.995 883.172 224.086C883.609 224.177 884.042 224.223 884.471 224.223C885.537 224.223 886.38 224.027 887 223.635C887.62 223.243 887.934 222.723 887.943 222.076ZM899.359 219.096L897.5 220.887V226H894.957V205H897.5V217.852L899.154 216.074L904.008 211.207H907.084L901.096 217.373L908 226H904.787L899.359 219.096ZM918.281 226.273C917.242 226.273 916.285 226.096 915.41 225.74C914.544 225.385 913.801 224.888 913.182 224.25C912.562 223.612 912.079 222.855 911.732 221.98C911.386 221.105 911.213 220.153 911.213 219.123V218.549C911.213 217.355 911.404 216.288 911.787 215.35C912.17 214.402 912.676 213.604 913.305 212.957C913.943 212.301 914.663 211.799 915.465 211.453C916.276 211.107 917.105 210.934 917.953 210.934C919.02 210.934 919.949 211.12 920.742 211.494C921.544 211.859 922.21 212.369 922.738 213.025C923.267 213.673 923.659 214.438 923.914 215.322C924.178 216.206 924.311 217.163 924.311 218.193V219.328H913.742C913.77 220.003 913.897 220.636 914.125 221.229C914.362 221.821 914.681 222.34 915.082 222.787C915.492 223.225 915.98 223.571 916.545 223.826C917.11 224.081 917.734 224.209 918.418 224.209C919.32 224.209 920.122 224.027 920.824 223.662C921.526 223.298 922.109 222.814 922.574 222.213L924.119 223.416C923.873 223.79 923.563 224.15 923.189 224.496C922.825 224.833 922.401 225.134 921.918 225.398C921.435 225.663 920.888 225.872 920.277 226.027C919.667 226.191 919.001 226.273 918.281 226.273ZM917.953 213.012C917.443 213.012 916.96 213.107 916.504 213.299C916.048 213.481 915.638 213.755 915.273 214.119C914.909 214.475 914.599 214.917 914.344 215.445C914.098 215.965 913.924 216.566 913.824 217.25H921.781V217.059C921.754 216.566 921.658 216.079 921.494 215.596C921.339 215.113 921.107 214.68 920.797 214.297C920.487 213.914 920.095 213.604 919.621 213.367C919.156 213.13 918.6 213.012 917.953 213.012ZM934.551 207.625V211.207H940.184V213.162H934.551V221.201C934.551 221.775 934.624 222.249 934.77 222.623C934.915 222.997 935.116 223.298 935.371 223.525C935.626 223.744 935.918 223.899 936.246 223.99C936.583 224.081 936.939 224.127 937.312 224.127C937.586 224.127 937.868 224.113 938.16 224.086C938.452 224.049 938.734 224.008 939.008 223.963C939.29 223.917 939.55 223.872 939.787 223.826C940.033 223.771 940.234 223.726 940.389 223.689L940.744 225.48C940.535 225.608 940.279 225.722 939.979 225.822C939.678 225.913 939.35 225.991 938.994 226.055C938.639 226.128 938.26 226.182 937.859 226.219C937.467 226.255 937.076 226.273 936.684 226.273C936.027 226.273 935.412 226.182 934.838 226C934.273 225.809 933.781 225.512 933.361 225.111C932.942 224.701 932.609 224.177 932.363 223.539C932.126 222.892 932.008 222.113 932.008 221.201V213.162H928.125V211.207H932.008V207.625H934.551Z" fill="white"/>
<path d="M82.2773 166.938L85.0547 175.469L88.0547 166.938H90.75V184H88.6406V177.191L88.8164 170.066L85.6641 179.254H84.4219L81.5273 170.312L81.7031 177.191V184H79.5938V166.938H82.2773ZM98.9766 179.5L99.5391 181.035L103.406 171.32H105.832L99.3984 185.957C99.25 186.285 99.0586 186.633 98.8242 187C98.5977 187.367 98.3203 187.707 97.9922 188.02C97.6641 188.332 97.2812 188.594 96.8438 188.805C96.4062 189.016 95.9023 189.121 95.332 189.121C95.2305 189.121 95.1172 189.113 94.9922 189.098C94.8672 189.09 94.7422 189.074 94.6172 189.051C94.4922 189.035 94.375 189.016 94.2656 188.992C94.1562 188.969 94.0664 188.949 93.9961 188.934L94.3477 187.164C94.4023 187.164 94.4766 187.168 94.5703 187.176C94.6641 187.184 94.7617 187.191 94.8633 187.199C94.9648 187.207 95.0625 187.211 95.1562 187.211C95.25 187.219 95.3242 187.223 95.3789 187.223C95.6758 187.223 95.9453 187.141 96.1875 186.977C96.4375 186.812 96.6562 186.617 96.8438 186.391C97.0391 186.164 97.2031 185.93 97.3359 185.688C97.4766 185.445 97.5859 185.246 97.6641 185.09L98.5312 183.402L93.0703 171.32H95.4961L98.9766 179.5ZM131.285 179.582H125.59L124.219 184H122.051L127.559 166.938H129.375L134.789 184H132.633L131.285 179.582ZM126.176 177.695H130.711L128.461 170.289L126.176 177.695ZM142.957 182.477C143.348 182.477 143.727 182.414 144.094 182.289C144.469 182.164 144.801 181.992 145.09 181.773C145.379 181.547 145.609 181.285 145.781 180.988C145.961 180.684 146.055 180.355 146.062 180.004H148.113C148.105 180.566 147.957 181.105 147.668 181.621C147.387 182.129 147.008 182.578 146.531 182.969C146.055 183.352 145.508 183.66 144.891 183.895C144.273 184.121 143.629 184.234 142.957 184.234C141.996 184.234 141.156 184.062 140.438 183.719C139.719 183.375 139.117 182.914 138.633 182.336C138.156 181.75 137.797 181.078 137.555 180.32C137.312 179.555 137.191 178.75 137.191 177.906V177.414C137.191 176.578 137.312 175.777 137.555 175.012C137.797 174.246 138.156 173.574 138.633 172.996C139.117 172.41 139.719 171.945 140.438 171.602C141.156 171.258 141.996 171.086 142.957 171.086C143.707 171.086 144.395 171.207 145.02 171.449C145.652 171.684 146.195 172.008 146.648 172.422C147.109 172.828 147.469 173.312 147.727 173.875C147.984 174.438 148.113 175.039 148.113 175.68H146.062C146.055 175.297 145.969 174.938 145.805 174.602C145.648 174.258 145.434 173.957 145.16 173.699C144.887 173.441 144.559 173.238 144.176 173.09C143.801 172.941 143.395 172.867 142.957 172.867C142.285 172.867 141.719 173.004 141.258 173.277C140.805 173.543 140.438 173.895 140.156 174.332C139.875 174.762 139.672 175.246 139.547 175.785C139.43 176.324 139.371 176.867 139.371 177.414V177.906C139.371 178.461 139.43 179.012 139.547 179.559C139.672 180.098 139.871 180.586 140.145 181.023C140.426 181.453 140.793 181.805 141.246 182.078C141.707 182.344 142.277 182.477 142.957 182.477ZM157.371 182.477C157.762 182.477 158.141 182.414 158.508 182.289C158.883 182.164 159.215 181.992 159.504 181.773C159.793 181.547 160.023 181.285 160.195 180.988C160.375 180.684 160.469 180.355 160.477 180.004H162.527C162.52 180.566 162.371 181.105 162.082 181.621C161.801 182.129 161.422 182.578 160.945 182.969C160.469 183.352 159.922 183.66 159.305 183.895C158.688 184.121 158.043 184.234 157.371 184.234C156.41 184.234 155.57 184.062 154.852 183.719C154.133 183.375 153.531 182.914 153.047 182.336C152.57 181.75 152.211 181.078 151.969 180.32C151.727 179.555 151.605 178.75 151.605 177.906V177.414C151.605 176.578 151.727 175.777 151.969 175.012C152.211 174.246 152.57 173.574 153.047 172.996C153.531 172.41 154.133 171.945 154.852 171.602C155.57 171.258 156.41 171.086 157.371 171.086C158.121 171.086 158.809 171.207 159.434 171.449C160.066 171.684 160.609 172.008 161.062 172.422C161.523 172.828 161.883 173.312 162.141 173.875C162.398 174.438 162.527 175.039 162.527 175.68H160.477C160.469 175.297 160.383 174.938 160.219 174.602C160.062 174.258 159.848 173.957 159.574 173.699C159.301 173.441 158.973 173.238 158.59 173.09C158.215 172.941 157.809 172.867 157.371 172.867C156.699 172.867 156.133 173.004 155.672 173.277C155.219 173.543 154.852 173.895 154.57 174.332C154.289 174.762 154.086 175.246 153.961 175.785C153.844 176.324 153.785 176.867 153.785 177.414V177.906C153.785 178.461 153.844 179.012 153.961 179.559C154.086 180.098 154.285 180.586 154.559 181.023C154.84 181.453 155.207 181.805 155.66 182.078C156.121 182.344 156.691 182.477 157.371 182.477ZM165.773 177.543C165.773 176.629 165.906 175.781 166.172 175C166.438 174.211 166.816 173.527 167.309 172.949C167.809 172.371 168.414 171.918 169.125 171.59C169.836 171.254 170.637 171.086 171.527 171.086C172.426 171.086 173.23 171.254 173.941 171.59C174.66 171.918 175.266 172.371 175.758 172.949C176.258 173.527 176.641 174.211 176.906 175C177.172 175.781 177.305 176.629 177.305 177.543V177.801C177.305 178.715 177.172 179.562 176.906 180.344C176.641 181.125 176.258 181.805 175.758 182.383C175.266 182.961 174.664 183.414 173.953 183.742C173.242 184.07 172.441 184.234 171.551 184.234C170.652 184.234 169.844 184.07 169.125 183.742C168.414 183.414 167.809 182.961 167.309 182.383C166.816 181.805 166.438 181.125 166.172 180.344C165.906 179.562 165.773 178.715 165.773 177.801V177.543ZM167.941 177.801C167.941 178.426 168.016 179.023 168.164 179.594C168.312 180.156 168.535 180.652 168.832 181.082C169.137 181.512 169.516 181.852 169.969 182.102C170.422 182.352 170.949 182.477 171.551 182.477C172.145 182.477 172.664 182.352 173.109 182.102C173.562 181.852 173.938 181.512 174.234 181.082C174.539 180.652 174.766 180.156 174.914 179.594C175.062 179.023 175.137 178.426 175.137 177.801V177.543C175.137 176.926 175.059 176.336 174.902 175.773C174.754 175.203 174.527 174.703 174.223 174.273C173.926 173.844 173.551 173.504 173.098 173.254C172.652 172.996 172.129 172.867 171.527 172.867C170.926 172.867 170.402 172.996 169.957 173.254C169.512 173.504 169.137 173.844 168.832 174.273C168.535 174.703 168.312 175.203 168.164 175.773C168.016 176.336 167.941 176.926 167.941 177.543V177.801ZM189.023 182.254C188.602 182.879 188.074 183.367 187.441 183.719C186.809 184.062 186.078 184.234 185.25 184.234C184.586 184.234 183.984 184.133 183.445 183.93C182.906 183.719 182.445 183.395 182.062 182.957C181.68 182.52 181.383 181.965 181.172 181.293C180.969 180.613 180.867 179.801 180.867 178.855V171.32H183.035V178.879C183.035 179.566 183.09 180.137 183.199 180.59C183.309 181.043 183.473 181.406 183.691 181.68C183.91 181.945 184.176 182.133 184.488 182.242C184.809 182.352 185.176 182.406 185.59 182.406C186.473 182.406 187.184 182.227 187.723 181.867C188.27 181.508 188.676 181.023 188.941 180.414V171.32H191.121V184H189.152L189.023 182.254ZM197.156 171.32L197.309 173.195C197.77 172.539 198.336 172.027 199.008 171.66C199.68 171.285 200.43 171.094 201.258 171.086C201.922 171.086 202.523 171.18 203.062 171.367C203.609 171.555 204.074 171.848 204.457 172.246C204.84 172.645 205.133 173.152 205.336 173.77C205.547 174.379 205.652 175.105 205.652 175.949V184H203.484V175.996C203.484 175.434 203.422 174.957 203.297 174.566C203.172 174.176 202.984 173.859 202.734 173.617C202.492 173.375 202.191 173.199 201.832 173.09C201.48 172.98 201.074 172.926 200.613 172.926C199.887 172.926 199.246 173.109 198.691 173.477C198.145 173.836 197.707 174.312 197.379 174.906V184H195.211V171.32H197.156ZM214.758 168.25V171.32H219.586V172.996H214.758V179.887C214.758 180.379 214.82 180.785 214.945 181.105C215.07 181.426 215.242 181.684 215.461 181.879C215.68 182.066 215.93 182.199 216.211 182.277C216.5 182.355 216.805 182.395 217.125 182.395C217.359 182.395 217.602 182.383 217.852 182.359C218.102 182.328 218.344 182.293 218.578 182.254C218.82 182.215 219.043 182.176 219.246 182.137C219.457 182.09 219.629 182.051 219.762 182.02L220.066 183.555C219.887 183.664 219.668 183.762 219.41 183.848C219.152 183.926 218.871 183.992 218.566 184.047C218.262 184.109 217.938 184.156 217.594 184.188C217.258 184.219 216.922 184.234 216.586 184.234C216.023 184.234 215.496 184.156 215.004 184C214.52 183.836 214.098 183.582 213.738 183.238C213.379 182.887 213.094 182.438 212.883 181.891C212.68 181.336 212.578 180.668 212.578 179.887V172.996H209.25V171.32H212.578V168.25H214.758Z" fill="white"/>
<path d="M315.879 177.867C315.777 178.656 315.574 179.383 315.27 180.047C314.965 180.703 314.566 181.27 314.074 181.746C313.59 182.215 313.012 182.582 312.34 182.848C311.676 183.105 310.934 183.234 310.113 183.234C309.41 183.234 308.77 183.137 308.191 182.941C307.621 182.738 307.109 182.461 306.656 182.109C306.211 181.758 305.824 181.344 305.496 180.867C305.176 180.391 304.906 179.871 304.688 179.309C304.477 178.746 304.316 178.156 304.207 177.539C304.105 176.922 304.051 176.297 304.043 175.664V173.285C304.051 172.652 304.105 172.027 304.207 171.41C304.316 170.793 304.477 170.203 304.688 169.641C304.906 169.078 305.176 168.559 305.496 168.082C305.824 167.598 306.211 167.18 306.656 166.828C307.109 166.477 307.621 166.203 308.191 166.008C308.762 165.805 309.402 165.703 310.113 165.703C310.965 165.703 311.727 165.836 312.398 166.102C313.07 166.359 313.648 166.73 314.133 167.215C314.617 167.691 315.004 168.266 315.293 168.938C315.59 169.609 315.785 170.352 315.879 171.164H313.711C313.641 170.648 313.52 170.168 313.348 169.723C313.176 169.277 312.945 168.887 312.656 168.551C312.367 168.215 312.012 167.953 311.59 167.766C311.176 167.57 310.684 167.473 310.113 167.473C309.598 167.473 309.141 167.559 308.742 167.73C308.352 167.895 308.012 168.121 307.723 168.41C307.441 168.699 307.203 169.035 307.008 169.418C306.82 169.801 306.668 170.207 306.551 170.637C306.434 171.066 306.348 171.508 306.293 171.961C306.246 172.406 306.223 172.84 306.223 173.262V175.664C306.223 176.086 306.246 176.523 306.293 176.977C306.348 177.422 306.434 177.863 306.551 178.301C306.668 178.73 306.82 179.137 307.008 179.52C307.195 179.902 307.434 180.242 307.723 180.539C308.012 180.828 308.352 181.059 308.742 181.23C309.133 181.395 309.59 181.477 310.113 181.477C310.684 181.477 311.176 181.387 311.59 181.207C312.012 181.027 312.367 180.777 312.656 180.457C312.945 180.129 313.176 179.746 313.348 179.309C313.52 178.863 313.641 178.383 313.711 177.867H315.879ZM318.633 176.543C318.633 175.629 318.766 174.781 319.031 174C319.297 173.211 319.676 172.527 320.168 171.949C320.668 171.371 321.273 170.918 321.984 170.59C322.695 170.254 323.496 170.086 324.387 170.086C325.285 170.086 326.09 170.254 326.801 170.59C327.52 170.918 328.125 171.371 328.617 171.949C329.117 172.527 329.5 173.211 329.766 174C330.031 174.781 330.164 175.629 330.164 176.543V176.801C330.164 177.715 330.031 178.562 329.766 179.344C329.5 180.125 329.117 180.805 328.617 181.383C328.125 181.961 327.523 182.414 326.812 182.742C326.102 183.07 325.301 183.234 324.41 183.234C323.512 183.234 322.703 183.07 321.984 182.742C321.273 182.414 320.668 181.961 320.168 181.383C319.676 180.805 319.297 180.125 319.031 179.344C318.766 178.562 318.633 177.715 318.633 176.801V176.543ZM320.801 176.801C320.801 177.426 320.875 178.023 321.023 178.594C321.172 179.156 321.395 179.652 321.691 180.082C321.996 180.512 322.375 180.852 322.828 181.102C323.281 181.352 323.809 181.477 324.41 181.477C325.004 181.477 325.523 181.352 325.969 181.102C326.422 180.852 326.797 180.512 327.094 180.082C327.398 179.652 327.625 179.156 327.773 178.594C327.922 178.023 327.996 177.426 327.996 176.801V176.543C327.996 175.926 327.918 175.336 327.762 174.773C327.613 174.203 327.387 173.703 327.082 173.273C326.785 172.844 326.41 172.504 325.957 172.254C325.512 171.996 324.988 171.867 324.387 171.867C323.785 171.867 323.262 171.996 322.816 172.254C322.371 172.504 321.996 172.844 321.691 173.273C321.395 173.703 321.172 174.203 321.023 174.773C320.875 175.336 320.801 175.926 320.801 176.543V176.801ZM339.059 181.477C339.449 181.477 339.828 181.414 340.195 181.289C340.57 181.164 340.902 180.992 341.191 180.773C341.48 180.547 341.711 180.285 341.883 179.988C342.062 179.684 342.156 179.355 342.164 179.004H344.215C344.207 179.566 344.059 180.105 343.77 180.621C343.488 181.129 343.109 181.578 342.633 181.969C342.156 182.352 341.609 182.66 340.992 182.895C340.375 183.121 339.73 183.234 339.059 183.234C338.098 183.234 337.258 183.062 336.539 182.719C335.82 182.375 335.219 181.914 334.734 181.336C334.258 180.75 333.898 180.078 333.656 179.32C333.414 178.555 333.293 177.75 333.293 176.906V176.414C333.293 175.578 333.414 174.777 333.656 174.012C333.898 173.246 334.258 172.574 334.734 171.996C335.219 171.41 335.82 170.945 336.539 170.602C337.258 170.258 338.098 170.086 339.059 170.086C339.809 170.086 340.496 170.207 341.121 170.449C341.754 170.684 342.297 171.008 342.75 171.422C343.211 171.828 343.57 172.312 343.828 172.875C344.086 173.438 344.215 174.039 344.215 174.68H342.164C342.156 174.297 342.07 173.938 341.906 173.602C341.75 173.258 341.535 172.957 341.262 172.699C340.988 172.441 340.66 172.238 340.277 172.09C339.902 171.941 339.496 171.867 339.059 171.867C338.387 171.867 337.82 172.004 337.359 172.277C336.906 172.543 336.539 172.895 336.258 173.332C335.977 173.762 335.773 174.246 335.648 174.785C335.531 175.324 335.473 175.867 335.473 176.414V176.906C335.473 177.461 335.531 178.012 335.648 178.559C335.773 179.098 335.973 179.586 336.246 180.023C336.527 180.453 336.895 180.805 337.348 181.078C337.809 181.344 338.379 181.477 339.059 181.477ZM351.867 177.082L350.273 178.617V183H348.094V165H350.273V176.016L351.691 174.492L355.852 170.32H358.488L353.355 175.605L359.273 183H356.52L351.867 177.082ZM367.617 167.25V170.32H372.445V171.996H367.617V178.887C367.617 179.379 367.68 179.785 367.805 180.105C367.93 180.426 368.102 180.684 368.32 180.879C368.539 181.066 368.789 181.199 369.07 181.277C369.359 181.355 369.664 181.395 369.984 181.395C370.219 181.395 370.461 181.383 370.711 181.359C370.961 181.328 371.203 181.293 371.438 181.254C371.68 181.215 371.902 181.176 372.105 181.137C372.316 181.09 372.488 181.051 372.621 181.02L372.926 182.555C372.746 182.664 372.527 182.762 372.27 182.848C372.012 182.926 371.73 182.992 371.426 183.047C371.121 183.109 370.797 183.156 370.453 183.188C370.117 183.219 369.781 183.234 369.445 183.234C368.883 183.234 368.355 183.156 367.863 183C367.379 182.836 366.957 182.582 366.598 182.238C366.238 181.887 365.953 181.438 365.742 180.891C365.539 180.336 365.438 179.668 365.438 178.887V171.996H362.109V170.32H365.438V167.25H367.617ZM385.23 183C385.145 182.836 385.074 182.633 385.02 182.391C384.973 182.141 384.938 181.883 384.914 181.617C384.695 181.836 384.449 182.043 384.176 182.238C383.91 182.434 383.613 182.605 383.285 182.754C382.965 182.902 382.621 183.02 382.254 183.105C381.887 183.191 381.496 183.234 381.082 183.234C380.41 183.234 379.801 183.137 379.254 182.941C378.715 182.746 378.254 182.484 377.871 182.156C377.496 181.82 377.203 181.426 376.992 180.973C376.789 180.512 376.688 180.016 376.688 179.484C376.688 178.789 376.824 178.18 377.098 177.656C377.379 177.133 377.773 176.699 378.281 176.355C378.789 176.004 379.398 175.742 380.109 175.57C380.828 175.398 381.629 175.312 382.512 175.312H384.879V174.316C384.879 173.934 384.809 173.59 384.668 173.285C384.527 172.98 384.328 172.723 384.07 172.512C383.812 172.293 383.496 172.125 383.121 172.008C382.754 171.891 382.34 171.832 381.879 171.832C381.449 171.832 381.062 171.887 380.719 171.996C380.383 172.105 380.098 172.25 379.863 172.43C379.629 172.609 379.445 172.824 379.312 173.074C379.188 173.316 379.125 173.57 379.125 173.836H376.945C376.953 173.375 377.07 172.922 377.297 172.477C377.531 172.031 377.863 171.633 378.293 171.281C378.73 170.922 379.258 170.633 379.875 170.414C380.5 170.195 381.207 170.086 381.996 170.086C382.715 170.086 383.383 170.176 384 170.355C384.617 170.527 385.148 170.793 385.594 171.152C386.047 171.504 386.402 171.945 386.66 172.477C386.918 173.008 387.047 173.629 387.047 174.34V180.234C387.047 180.656 387.086 181.105 387.164 181.582C387.242 182.051 387.352 182.461 387.492 182.812V183H385.23ZM381.398 181.348C381.82 181.348 382.215 181.293 382.582 181.184C382.949 181.074 383.281 180.93 383.578 180.75C383.883 180.57 384.145 180.367 384.363 180.141C384.582 179.906 384.754 179.664 384.879 179.414V176.848H382.863C381.598 176.848 380.613 177.035 379.91 177.41C379.207 177.785 378.855 178.375 378.855 179.18C378.855 179.492 378.906 179.781 379.008 180.047C379.117 180.312 379.277 180.543 379.488 180.738C379.699 180.926 379.965 181.074 380.285 181.184C380.605 181.293 380.977 181.348 381.398 181.348ZM391.652 170.32H398.133V181.125H402.27V183H391.652V181.125H395.965V172.207H391.652V170.32ZM395.684 166.992C395.684 166.633 395.789 166.332 396 166.09C396.219 165.84 396.547 165.715 396.984 165.715C397.414 165.715 397.738 165.84 397.957 166.09C398.176 166.332 398.285 166.633 398.285 166.992C398.285 167.344 398.176 167.637 397.957 167.871C397.738 168.105 397.414 168.223 396.984 168.223C396.547 168.223 396.219 168.105 396 167.871C395.789 167.637 395.684 167.344 395.684 166.992ZM406.066 165H412.547V181.125H416.684V183H406.066V181.125H410.379V166.887H406.066V165ZM443.016 178.383L444.316 165.938H446.367L444.293 183H442.078L439.887 170.145L437.672 183H435.445L433.371 165.938H435.434L436.734 178.383L438.926 165.938H440.812L443.016 178.383ZM449.309 170.32H455.789V181.125H459.926V183H449.309V181.125H453.621V172.207H449.309V170.32ZM453.34 166.992C453.34 166.633 453.445 166.332 453.656 166.09C453.875 165.84 454.203 165.715 454.641 165.715C455.07 165.715 455.395 165.84 455.613 166.09C455.832 166.332 455.941 166.633 455.941 166.992C455.941 167.344 455.832 167.637 455.613 167.871C455.395 168.105 455.07 168.223 454.641 168.223C454.203 168.223 453.875 168.105 453.656 167.871C453.445 167.637 453.34 167.344 453.34 166.992ZM465.984 181.23H474.059V183H463.219V181.406L470.789 172.113H463.324V170.32H473.637V171.855L465.984 181.23ZM486.129 183C486.043 182.836 485.973 182.633 485.918 182.391C485.871 182.141 485.836 181.883 485.812 181.617C485.594 181.836 485.348 182.043 485.074 182.238C484.809 182.434 484.512 182.605 484.184 182.754C483.863 182.902 483.52 183.02 483.152 183.105C482.785 183.191 482.395 183.234 481.98 183.234C481.309 183.234 480.699 183.137 480.152 182.941C479.613 182.746 479.152 182.484 478.77 182.156C478.395 181.82 478.102 181.426 477.891 180.973C477.688 180.512 477.586 180.016 477.586 179.484C477.586 178.789 477.723 178.18 477.996 177.656C478.277 177.133 478.672 176.699 479.18 176.355C479.688 176.004 480.297 175.742 481.008 175.57C481.727 175.398 482.527 175.312 483.41 175.312H485.777V174.316C485.777 173.934 485.707 173.59 485.566 173.285C485.426 172.98 485.227 172.723 484.969 172.512C484.711 172.293 484.395 172.125 484.02 172.008C483.652 171.891 483.238 171.832 482.777 171.832C482.348 171.832 481.961 171.887 481.617 171.996C481.281 172.105 480.996 172.25 480.762 172.43C480.527 172.609 480.344 172.824 480.211 173.074C480.086 173.316 480.023 173.57 480.023 173.836H477.844C477.852 173.375 477.969 172.922 478.195 172.477C478.43 172.031 478.762 171.633 479.191 171.281C479.629 170.922 480.156 170.633 480.773 170.414C481.398 170.195 482.105 170.086 482.895 170.086C483.613 170.086 484.281 170.176 484.898 170.355C485.516 170.527 486.047 170.793 486.492 171.152C486.945 171.504 487.301 171.945 487.559 172.477C487.816 173.008 487.945 173.629 487.945 174.34V180.234C487.945 180.656 487.984 181.105 488.062 181.582C488.141 182.051 488.25 182.461 488.391 182.812V183H486.129ZM482.297 181.348C482.719 181.348 483.113 181.293 483.48 181.184C483.848 181.074 484.18 180.93 484.477 180.75C484.781 180.57 485.043 180.367 485.262 180.141C485.48 179.906 485.652 179.664 485.777 179.414V176.848H483.762C482.496 176.848 481.512 177.035 480.809 177.41C480.105 177.785 479.754 178.375 479.754 179.18C479.754 179.492 479.805 179.781 479.906 180.047C480.016 180.312 480.176 180.543 480.387 180.738C480.598 180.926 480.863 181.074 481.184 181.184C481.504 181.293 481.875 181.348 482.297 181.348ZM500.52 170.086C500.723 170.086 500.934 170.094 501.152 170.109C501.371 170.117 501.578 170.137 501.773 170.168C501.977 170.191 502.16 170.223 502.324 170.262C502.496 170.301 502.637 170.344 502.746 170.391L502.453 172.512C502.031 172.418 501.629 172.352 501.246 172.312C500.871 172.266 500.477 172.242 500.062 172.242C499.047 172.242 498.223 172.473 497.59 172.934C496.965 173.395 496.504 174.039 496.207 174.867V183H494.027V170.32H496.09L496.195 172.336C496.711 171.641 497.328 171.094 498.047 170.695C498.773 170.289 499.598 170.086 500.52 170.086ZM506.215 176.555C506.215 175.609 506.332 174.742 506.566 173.953C506.809 173.156 507.148 172.473 507.586 171.902C508.031 171.332 508.566 170.887 509.191 170.566C509.816 170.246 510.516 170.086 511.289 170.086C512.047 170.086 512.707 170.215 513.27 170.473C513.84 170.723 514.332 171.09 514.746 171.574V165H516.914V183H514.922L514.828 181.664C514.406 182.18 513.902 182.57 513.316 182.836C512.73 183.102 512.047 183.234 511.266 183.234C510.5 183.234 509.805 183.07 509.18 182.742C508.562 182.414 508.035 181.961 507.598 181.383C507.16 180.805 506.82 180.125 506.578 179.344C506.336 178.555 506.215 177.707 506.215 176.801V176.555ZM508.383 176.801C508.383 177.418 508.449 178.004 508.582 178.559C508.715 179.113 508.918 179.602 509.191 180.023C509.473 180.445 509.828 180.781 510.258 181.031C510.688 181.273 511.203 181.395 511.805 181.395C512.172 181.395 512.504 181.352 512.801 181.266C513.098 181.18 513.367 181.059 513.609 180.902C513.852 180.738 514.066 180.547 514.254 180.328C514.441 180.102 514.605 179.852 514.746 179.578V173.695C514.465 173.18 514.086 172.758 513.609 172.43C513.133 172.094 512.539 171.926 511.828 171.926C511.219 171.926 510.695 172.051 510.258 172.301C509.828 172.551 509.473 172.891 509.191 173.32C508.918 173.742 508.715 174.234 508.582 174.797C508.449 175.352 508.383 175.938 508.383 176.555V176.801Z" fill="white"/>
<path d="M577.879 178.867C577.777 179.656 577.574 180.383 577.27 181.047C576.965 181.703 576.566 182.27 576.074 182.746C575.59 183.215 575.012 183.582 574.34 183.848C573.676 184.105 572.934 184.234 572.113 184.234C571.41 184.234 570.77 184.137 570.191 183.941C569.621 183.738 569.109 183.461 568.656 183.109C568.211 182.758 567.824 182.344 567.496 181.867C567.176 181.391 566.906 180.871 566.688 180.309C566.477 179.746 566.316 179.156 566.207 178.539C566.105 177.922 566.051 177.297 566.043 176.664V174.285C566.051 173.652 566.105 173.027 566.207 172.41C566.316 171.793 566.477 171.203 566.688 170.641C566.906 170.078 567.176 169.559 567.496 169.082C567.824 168.598 568.211 168.18 568.656 167.828C569.109 167.477 569.621 167.203 570.191 167.008C570.762 166.805 571.402 166.703 572.113 166.703C572.965 166.703 573.727 166.836 574.398 167.102C575.07 167.359 575.648 167.73 576.133 168.215C576.617 168.691 577.004 169.266 577.293 169.938C577.59 170.609 577.785 171.352 577.879 172.164H575.711C575.641 171.648 575.52 171.168 575.348 170.723C575.176 170.277 574.945 169.887 574.656 169.551C574.367 169.215 574.012 168.953 573.59 168.766C573.176 168.57 572.684 168.473 572.113 168.473C571.598 168.473 571.141 168.559 570.742 168.73C570.352 168.895 570.012 169.121 569.723 169.41C569.441 169.699 569.203 170.035 569.008 170.418C568.82 170.801 568.668 171.207 568.551 171.637C568.434 172.066 568.348 172.508 568.293 172.961C568.246 173.406 568.223 173.84 568.223 174.262V176.664C568.223 177.086 568.246 177.523 568.293 177.977C568.348 178.422 568.434 178.863 568.551 179.301C568.668 179.73 568.82 180.137 569.008 180.52C569.195 180.902 569.434 181.242 569.723 181.539C570.012 181.828 570.352 182.059 570.742 182.23C571.133 182.395 571.59 182.477 572.113 182.477C572.684 182.477 573.176 182.387 573.59 182.207C574.012 182.027 574.367 181.777 574.656 181.457C574.945 181.129 575.176 180.746 575.348 180.309C575.52 179.863 575.641 179.383 575.711 178.867H577.879ZM583.41 173.207C583.863 172.543 584.422 172.027 585.086 171.66C585.75 171.285 586.496 171.094 587.324 171.086C587.988 171.086 588.59 171.184 589.129 171.379C589.676 171.566 590.141 171.863 590.523 172.27C590.906 172.676 591.199 173.191 591.402 173.816C591.613 174.434 591.719 175.168 591.719 176.02V184H589.551V175.996C589.551 174.957 589.301 174.184 588.801 173.676C588.309 173.168 587.602 172.918 586.68 172.926C585.984 172.926 585.352 173.098 584.781 173.441C584.219 173.777 583.762 174.227 583.41 174.789V184H581.242V166H583.41V173.207ZM601.258 184.234C600.367 184.234 599.547 184.082 598.797 183.777C598.055 183.473 597.418 183.047 596.887 182.5C596.355 181.953 595.941 181.305 595.645 180.555C595.348 179.805 595.199 178.988 595.199 178.105V177.613C595.199 176.59 595.363 175.676 595.691 174.871C596.02 174.059 596.453 173.375 596.992 172.82C597.539 172.258 598.156 171.828 598.844 171.531C599.539 171.234 600.25 171.086 600.977 171.086C601.891 171.086 602.688 171.246 603.367 171.566C604.055 171.879 604.625 172.316 605.078 172.879C605.531 173.434 605.867 174.09 606.086 174.848C606.312 175.605 606.426 176.426 606.426 177.309V178.281H597.367C597.391 178.859 597.5 179.402 597.695 179.91C597.898 180.418 598.172 180.863 598.516 181.246C598.867 181.621 599.285 181.918 599.77 182.137C600.254 182.355 600.789 182.465 601.375 182.465C602.148 182.465 602.836 182.309 603.438 181.996C604.039 181.684 604.539 181.27 604.938 180.754L606.262 181.785C606.051 182.105 605.785 182.414 605.465 182.711C605.152 183 604.789 183.258 604.375 183.484C603.961 183.711 603.492 183.891 602.969 184.023C602.445 184.164 601.875 184.234 601.258 184.234ZM600.977 172.867C600.539 172.867 600.125 172.949 599.734 173.113C599.344 173.27 598.992 173.504 598.68 173.816C598.367 174.121 598.102 174.5 597.883 174.953C597.672 175.398 597.523 175.914 597.438 176.5H604.258V176.336C604.234 175.914 604.152 175.496 604.012 175.082C603.879 174.668 603.68 174.297 603.414 173.969C603.148 173.641 602.812 173.375 602.406 173.172C602.008 172.969 601.531 172.867 600.977 172.867ZM615.473 182.477C615.863 182.477 616.242 182.414 616.609 182.289C616.984 182.164 617.316 181.992 617.605 181.773C617.895 181.547 618.125 181.285 618.297 180.988C618.477 180.684 618.57 180.355 618.578 180.004H620.629C620.621 180.566 620.473 181.105 620.184 181.621C619.902 182.129 619.523 182.578 619.047 182.969C618.57 183.352 618.023 183.66 617.406 183.895C616.789 184.121 616.145 184.234 615.473 184.234C614.512 184.234 613.672 184.062 612.953 183.719C612.234 183.375 611.633 182.914 611.148 182.336C610.672 181.75 610.312 181.078 610.07 180.32C609.828 179.555 609.707 178.75 609.707 177.906V177.414C609.707 176.578 609.828 175.777 610.07 175.012C610.312 174.246 610.672 173.574 611.148 172.996C611.633 172.41 612.234 171.945 612.953 171.602C613.672 171.258 614.512 171.086 615.473 171.086C616.223 171.086 616.91 171.207 617.535 171.449C618.168 171.684 618.711 172.008 619.164 172.422C619.625 172.828 619.984 173.312 620.242 173.875C620.5 174.438 620.629 175.039 620.629 175.68H618.578C618.57 175.297 618.484 174.938 618.32 174.602C618.164 174.258 617.949 173.957 617.676 173.699C617.402 173.441 617.074 173.238 616.691 173.09C616.316 172.941 615.91 172.867 615.473 172.867C614.801 172.867 614.234 173.004 613.773 173.277C613.32 173.543 612.953 173.895 612.672 174.332C612.391 174.762 612.188 175.246 612.062 175.785C611.945 176.324 611.887 176.867 611.887 177.414V177.906C611.887 178.461 611.945 179.012 612.062 179.559C612.188 180.098 612.387 180.586 612.66 181.023C612.941 181.453 613.309 181.805 613.762 182.078C614.223 182.344 614.793 182.477 615.473 182.477ZM628.281 178.082L626.688 179.617V184H624.508V166H626.688V177.016L628.105 175.492L632.266 171.32H634.902L629.77 176.605L635.688 184H632.934L628.281 178.082ZM638.289 177.543C638.289 176.629 638.422 175.781 638.688 175C638.953 174.211 639.332 173.527 639.824 172.949C640.324 172.371 640.93 171.918 641.641 171.59C642.352 171.254 643.152 171.086 644.043 171.086C644.941 171.086 645.746 171.254 646.457 171.59C647.176 171.918 647.781 172.371 648.273 172.949C648.773 173.527 649.156 174.211 649.422 175C649.688 175.781 649.82 176.629 649.82 177.543V177.801C649.82 178.715 649.688 179.562 649.422 180.344C649.156 181.125 648.773 181.805 648.273 182.383C647.781 182.961 647.18 183.414 646.469 183.742C645.758 184.07 644.957 184.234 644.066 184.234C643.168 184.234 642.359 184.07 641.641 183.742C640.93 183.414 640.324 182.961 639.824 182.383C639.332 181.805 638.953 181.125 638.688 180.344C638.422 179.562 638.289 178.715 638.289 177.801V177.543ZM640.457 177.801C640.457 178.426 640.531 179.023 640.68 179.594C640.828 180.156 641.051 180.652 641.348 181.082C641.652 181.512 642.031 181.852 642.484 182.102C642.938 182.352 643.465 182.477 644.066 182.477C644.66 182.477 645.18 182.352 645.625 182.102C646.078 181.852 646.453 181.512 646.75 181.082C647.055 180.652 647.281 180.156 647.43 179.594C647.578 179.023 647.652 178.426 647.652 177.801V177.543C647.652 176.926 647.574 176.336 647.418 175.773C647.27 175.203 647.043 174.703 646.738 174.273C646.441 173.844 646.066 173.504 645.613 173.254C645.168 172.996 644.645 172.867 644.043 172.867C643.441 172.867 642.918 172.996 642.473 173.254C642.027 173.504 641.652 173.844 641.348 174.273C641.051 174.703 640.828 175.203 640.68 175.773C640.531 176.336 640.457 176.926 640.457 177.543V177.801ZM661.539 182.254C661.117 182.879 660.59 183.367 659.957 183.719C659.324 184.062 658.594 184.234 657.766 184.234C657.102 184.234 656.5 184.133 655.961 183.93C655.422 183.719 654.961 183.395 654.578 182.957C654.195 182.52 653.898 181.965 653.688 181.293C653.484 180.613 653.383 179.801 653.383 178.855V171.32H655.551V178.879C655.551 179.566 655.605 180.137 655.715 180.59C655.824 181.043 655.988 181.406 656.207 181.68C656.426 181.945 656.691 182.133 657.004 182.242C657.324 182.352 657.691 182.406 658.105 182.406C658.988 182.406 659.699 182.227 660.238 181.867C660.785 181.508 661.191 181.023 661.457 180.414V171.32H663.637V184H661.668L661.539 182.254ZM672.859 168.25V171.32H677.688V172.996H672.859V179.887C672.859 180.379 672.922 180.785 673.047 181.105C673.172 181.426 673.344 181.684 673.562 181.879C673.781 182.066 674.031 182.199 674.312 182.277C674.602 182.355 674.906 182.395 675.227 182.395C675.461 182.395 675.703 182.383 675.953 182.359C676.203 182.328 676.445 182.293 676.68 182.254C676.922 182.215 677.145 182.176 677.348 182.137C677.559 182.09 677.73 182.051 677.863 182.02L678.168 183.555C677.988 183.664 677.77 183.762 677.512 183.848C677.254 183.926 676.973 183.992 676.668 184.047C676.363 184.109 676.039 184.156 675.695 184.188C675.359 184.219 675.023 184.234 674.688 184.234C674.125 184.234 673.598 184.156 673.105 184C672.621 183.836 672.199 183.582 671.84 183.238C671.48 182.887 671.195 182.438 670.984 181.891C670.781 181.336 670.68 180.668 670.68 179.887V172.996H667.352V171.32H670.68V168.25H672.859ZM705.484 179.688C705.484 179.164 705.363 178.723 705.121 178.363C704.887 178.004 704.582 177.703 704.207 177.461C703.832 177.211 703.418 177.004 702.965 176.84C702.52 176.676 702.09 176.527 701.676 176.395C701.074 176.199 700.461 175.965 699.836 175.691C699.219 175.418 698.652 175.082 698.137 174.684C697.629 174.285 697.211 173.816 696.883 173.277C696.562 172.73 696.402 172.09 696.402 171.355C696.402 170.621 696.562 169.965 696.883 169.387C697.211 168.809 697.637 168.32 698.16 167.922C698.684 167.523 699.277 167.223 699.941 167.02C700.605 166.809 701.273 166.703 701.945 166.703C702.688 166.703 703.402 166.828 704.09 167.078C704.777 167.32 705.387 167.664 705.918 168.109C706.449 168.555 706.875 169.094 707.195 169.727C707.516 170.359 707.684 171.066 707.699 171.848H705.473C705.41 171.355 705.289 170.91 705.109 170.512C704.93 170.105 704.691 169.758 704.395 169.469C704.098 169.18 703.742 168.957 703.328 168.801C702.922 168.637 702.461 168.555 701.945 168.555C701.531 168.555 701.125 168.613 700.727 168.73C700.336 168.848 699.984 169.023 699.672 169.258C699.367 169.492 699.121 169.781 698.934 170.125C698.754 170.469 698.664 170.867 698.664 171.32C698.672 171.812 698.797 172.23 699.039 172.574C699.281 172.91 699.586 173.195 699.953 173.43C700.328 173.664 700.73 173.859 701.16 174.016C701.598 174.172 702.008 174.309 702.391 174.426C702.812 174.559 703.238 174.711 703.668 174.883C704.098 175.047 704.512 175.238 704.91 175.457C705.309 175.676 705.68 175.922 706.023 176.195C706.367 176.469 706.668 176.781 706.926 177.133C707.184 177.477 707.383 177.859 707.523 178.281C707.672 178.695 707.746 179.156 707.746 179.664C707.746 180.43 707.574 181.098 707.23 181.668C706.895 182.238 706.457 182.715 705.918 183.098C705.379 183.473 704.77 183.758 704.09 183.953C703.41 184.141 702.73 184.234 702.051 184.234C701.293 184.234 700.551 184.117 699.824 183.883C699.098 183.648 698.445 183.312 697.867 182.875C697.297 182.43 696.832 181.891 696.473 181.258C696.113 180.617 695.922 179.891 695.898 179.078H698.113C698.184 179.609 698.328 180.082 698.547 180.496C698.766 180.902 699.047 181.25 699.391 181.539C699.734 181.82 700.129 182.035 700.574 182.184C701.027 182.324 701.52 182.395 702.051 182.395C702.473 182.395 702.887 182.344 703.293 182.242C703.707 182.133 704.074 181.969 704.395 181.75C704.715 181.523 704.977 181.242 705.18 180.906C705.383 180.562 705.484 180.156 705.484 179.688ZM715.633 179.5L716.195 181.035L720.062 171.32H722.488L716.055 185.957C715.906 186.285 715.715 186.633 715.48 187C715.254 187.367 714.977 187.707 714.648 188.02C714.32 188.332 713.938 188.594 713.5 188.805C713.062 189.016 712.559 189.121 711.988 189.121C711.887 189.121 711.773 189.113 711.648 189.098C711.523 189.09 711.398 189.074 711.273 189.051C711.148 189.035 711.031 189.016 710.922 188.992C710.812 188.969 710.723 188.949 710.652 188.934L711.004 187.164C711.059 187.164 711.133 187.168 711.227 187.176C711.32 187.184 711.418 187.191 711.52 187.199C711.621 187.207 711.719 187.211 711.812 187.211C711.906 187.219 711.98 187.223 712.035 187.223C712.332 187.223 712.602 187.141 712.844 186.977C713.094 186.812 713.312 186.617 713.5 186.391C713.695 186.164 713.859 185.93 713.992 185.688C714.133 185.445 714.242 185.246 714.32 185.09L715.188 183.402L709.727 171.32H712.152L715.633 179.5ZM733.809 180.637C733.809 180.379 733.758 180.148 733.656 179.945C733.555 179.734 733.383 179.543 733.141 179.371C732.898 179.199 732.578 179.043 732.18 178.902C731.781 178.754 731.285 178.621 730.691 178.504C729.965 178.355 729.301 178.176 728.699 177.965C728.105 177.754 727.594 177.504 727.164 177.215C726.742 176.918 726.414 176.574 726.18 176.184C725.945 175.785 725.828 175.324 725.828 174.801C725.828 174.285 725.949 173.805 726.191 173.359C726.434 172.906 726.773 172.512 727.211 172.176C727.648 171.84 728.168 171.574 728.77 171.379C729.379 171.184 730.047 171.086 730.773 171.086C731.555 171.086 732.258 171.188 732.883 171.391C733.508 171.594 734.039 171.875 734.477 172.234C734.914 172.594 735.25 173.016 735.484 173.5C735.727 173.977 735.848 174.492 735.848 175.047H733.68C733.68 174.773 733.609 174.508 733.469 174.25C733.328 173.984 733.133 173.75 732.883 173.547C732.633 173.344 732.328 173.18 731.969 173.055C731.617 172.93 731.219 172.867 730.773 172.867C730.312 172.867 729.906 172.918 729.555 173.02C729.211 173.121 728.922 173.258 728.688 173.43C728.461 173.602 728.289 173.801 728.172 174.027C728.055 174.254 727.996 174.488 727.996 174.73C727.996 174.98 728.043 175.203 728.137 175.398C728.23 175.594 728.391 175.77 728.617 175.926C728.852 176.082 729.16 176.223 729.543 176.348C729.934 176.473 730.426 176.594 731.02 176.711C731.801 176.875 732.5 177.066 733.117 177.285C733.734 177.496 734.254 177.754 734.676 178.059C735.098 178.355 735.418 178.703 735.637 179.102C735.863 179.5 735.977 179.961 735.977 180.484C735.977 181.047 735.848 181.559 735.59 182.02C735.34 182.48 734.988 182.875 734.535 183.203C734.082 183.531 733.539 183.785 732.906 183.965C732.273 184.145 731.582 184.234 730.832 184.234C729.973 184.234 729.207 184.121 728.535 183.895C727.863 183.66 727.293 183.355 726.824 182.98C726.363 182.598 726.008 182.156 725.758 181.656C725.516 181.156 725.395 180.637 725.395 180.098H727.562C727.594 180.543 727.711 180.918 727.914 181.223C728.125 181.527 728.383 181.773 728.688 181.961C729 182.148 729.344 182.281 729.719 182.359C730.094 182.438 730.465 182.477 730.832 182.477C731.746 182.477 732.469 182.309 733 181.973C733.531 181.637 733.801 181.191 733.809 180.637ZM744.93 168.25V171.32H749.758V172.996H744.93V179.887C744.93 180.379 744.992 180.785 745.117 181.105C745.242 181.426 745.414 181.684 745.633 181.879C745.852 182.066 746.102 182.199 746.383 182.277C746.672 182.355 746.977 182.395 747.297 182.395C747.531 182.395 747.773 182.383 748.023 182.359C748.273 182.328 748.516 182.293 748.75 182.254C748.992 182.215 749.215 182.176 749.418 182.137C749.629 182.09 749.801 182.051 749.934 182.02L750.238 183.555C750.059 183.664 749.84 183.762 749.582 183.848C749.324 183.926 749.043 183.992 748.738 184.047C748.434 184.109 748.109 184.156 747.766 184.188C747.43 184.219 747.094 184.234 746.758 184.234C746.195 184.234 745.668 184.156 745.176 184C744.691 183.836 744.27 183.582 743.91 183.238C743.551 182.887 743.266 182.438 743.055 181.891C742.852 181.336 742.75 180.668 742.75 179.887V172.996H739.422V171.32H742.75V168.25H744.93ZM759.812 184.234C758.922 184.234 758.102 184.082 757.352 183.777C756.609 183.473 755.973 183.047 755.441 182.5C754.91 181.953 754.496 181.305 754.199 180.555C753.902 179.805 753.754 178.988 753.754 178.105V177.613C753.754 176.59 753.918 175.676 754.246 174.871C754.574 174.059 755.008 173.375 755.547 172.82C756.094 172.258 756.711 171.828 757.398 171.531C758.094 171.234 758.805 171.086 759.531 171.086C760.445 171.086 761.242 171.246 761.922 171.566C762.609 171.879 763.18 172.316 763.633 172.879C764.086 173.434 764.422 174.09 764.641 174.848C764.867 175.605 764.98 176.426 764.98 177.309V178.281H755.922C755.945 178.859 756.055 179.402 756.25 179.91C756.453 180.418 756.727 180.863 757.07 181.246C757.422 181.621 757.84 181.918 758.324 182.137C758.809 182.355 759.344 182.465 759.93 182.465C760.703 182.465 761.391 182.309 761.992 181.996C762.594 181.684 763.094 181.27 763.492 180.754L764.816 181.785C764.605 182.105 764.34 182.414 764.02 182.711C763.707 183 763.344 183.258 762.93 183.484C762.516 183.711 762.047 183.891 761.523 184.023C761 184.164 760.43 184.234 759.812 184.234ZM759.531 172.867C759.094 172.867 758.68 172.949 758.289 173.113C757.898 173.27 757.547 173.504 757.234 173.816C756.922 174.121 756.656 174.5 756.438 174.953C756.227 175.398 756.078 175.914 755.992 176.5H762.812V176.336C762.789 175.914 762.707 175.496 762.566 175.082C762.434 174.668 762.234 174.297 761.969 173.969C761.703 173.641 761.367 173.375 760.961 173.172C760.562 172.969 760.086 172.867 759.531 172.867ZM769.621 171.32L769.68 172.516C769.938 172.07 770.273 171.723 770.688 171.473C771.109 171.223 771.617 171.094 772.211 171.086C773.375 171.086 774.152 171.539 774.543 172.445C774.793 172.039 775.121 171.715 775.527 171.473C775.941 171.223 776.441 171.094 777.027 171.086C777.957 171.086 778.672 171.371 779.172 171.941C779.672 172.512 779.922 173.375 779.922 174.531V184H777.859V174.508C777.859 173.445 777.371 172.918 776.395 172.926C776.137 172.926 775.914 172.961 775.727 173.031C775.539 173.102 775.383 173.199 775.258 173.324C775.133 173.441 775.035 173.582 774.965 173.746C774.895 173.902 774.848 174.066 774.824 174.238V184H772.762V174.496C772.762 173.988 772.648 173.598 772.422 173.324C772.195 173.051 771.836 172.918 771.344 172.926C770.891 172.926 770.539 173.016 770.289 173.195C770.039 173.375 769.855 173.613 769.738 173.91V184H767.676V171.32H769.621Z" fill="white"/>
<path d="M365.473 503V483.094H371.393C372.213 483.103 373.015 483.212 373.799 483.422C374.583 483.622 375.28 483.937 375.891 484.365C376.501 484.794 376.989 485.34 377.354 486.006C377.718 486.671 377.896 487.469 377.887 488.398C377.878 488.918 377.791 489.392 377.627 489.82C377.472 490.249 377.253 490.636 376.971 490.982C376.697 491.32 376.374 491.616 376 491.871C375.626 492.126 375.23 492.345 374.811 492.527C375.339 492.682 375.822 492.906 376.26 493.197C376.706 493.48 377.089 493.826 377.408 494.236C377.727 494.637 377.973 495.093 378.146 495.604C378.329 496.114 378.42 496.665 378.42 497.258C378.429 498.188 378.251 499.008 377.887 499.719C377.522 500.43 377.035 501.027 376.424 501.51C375.813 501.984 375.107 502.348 374.305 502.604C373.512 502.859 372.691 502.991 371.844 503H365.473ZM368.016 493.689V500.854H371.912C372.441 500.844 372.942 500.758 373.416 500.594C373.89 500.421 374.309 500.184 374.674 499.883C375.038 499.582 375.326 499.213 375.535 498.775C375.754 498.338 375.863 497.841 375.863 497.285C375.872 496.72 375.777 496.219 375.576 495.781C375.385 495.344 375.116 494.975 374.77 494.674C374.423 494.364 374.018 494.127 373.553 493.963C373.088 493.799 372.587 493.708 372.049 493.689H368.016ZM368.016 491.584H371.543C372.017 491.575 372.482 491.502 372.938 491.365C373.393 491.219 373.799 491.014 374.154 490.75C374.51 490.477 374.797 490.144 375.016 489.752C375.234 489.36 375.344 488.904 375.344 488.385C375.344 487.829 375.234 487.355 375.016 486.963C374.806 486.571 374.519 486.252 374.154 486.006C373.799 485.751 373.384 485.564 372.91 485.445C372.445 485.327 371.967 485.263 371.475 485.254H368.016V491.584ZM392.037 503C391.937 502.809 391.855 502.572 391.791 502.289C391.736 501.997 391.695 501.697 391.668 501.387C391.413 501.642 391.126 501.883 390.807 502.111C390.497 502.339 390.15 502.54 389.768 502.713C389.394 502.886 388.993 503.023 388.564 503.123C388.136 503.223 387.68 503.273 387.197 503.273C386.413 503.273 385.702 503.16 385.064 502.932C384.436 502.704 383.898 502.398 383.451 502.016C383.014 501.624 382.672 501.163 382.426 500.635C382.189 500.097 382.07 499.518 382.07 498.898C382.07 498.087 382.23 497.376 382.549 496.766C382.877 496.155 383.337 495.649 383.93 495.248C384.522 494.838 385.233 494.533 386.062 494.332C386.901 494.132 387.835 494.031 388.865 494.031H391.627V492.869C391.627 492.423 391.545 492.021 391.381 491.666C391.217 491.311 390.984 491.01 390.684 490.764C390.383 490.508 390.014 490.312 389.576 490.176C389.148 490.039 388.665 489.971 388.127 489.971C387.626 489.971 387.174 490.035 386.773 490.162C386.382 490.29 386.049 490.458 385.775 490.668C385.502 490.878 385.288 491.128 385.133 491.42C384.987 491.702 384.914 491.999 384.914 492.309H382.371C382.38 491.771 382.517 491.242 382.781 490.723C383.055 490.203 383.442 489.738 383.943 489.328C384.454 488.909 385.069 488.572 385.789 488.316C386.518 488.061 387.343 487.934 388.264 487.934C389.102 487.934 389.882 488.038 390.602 488.248C391.322 488.449 391.941 488.758 392.461 489.178C392.99 489.588 393.404 490.103 393.705 490.723C394.006 491.342 394.156 492.067 394.156 492.896V499.773C394.156 500.266 394.202 500.79 394.293 501.346C394.384 501.893 394.512 502.371 394.676 502.781V503H392.037ZM387.566 501.072C388.059 501.072 388.519 501.008 388.947 500.881C389.376 500.753 389.763 500.585 390.109 500.375C390.465 500.165 390.77 499.928 391.025 499.664C391.281 499.391 391.481 499.108 391.627 498.816V495.822H389.275C387.799 495.822 386.65 496.041 385.83 496.479C385.01 496.916 384.6 497.604 384.6 498.543C384.6 498.908 384.659 499.245 384.777 499.555C384.905 499.865 385.092 500.133 385.338 500.361C385.584 500.58 385.894 500.753 386.268 500.881C386.641 501.008 387.074 501.072 387.566 501.072ZM405.436 501.223C405.891 501.223 406.333 501.15 406.762 501.004C407.199 500.858 407.587 500.658 407.924 500.402C408.261 500.138 408.53 499.833 408.73 499.486C408.94 499.131 409.049 498.748 409.059 498.338H411.451C411.442 498.994 411.269 499.623 410.932 500.225C410.604 500.817 410.161 501.341 409.605 501.797C409.049 502.243 408.411 502.604 407.691 502.877C406.971 503.141 406.219 503.273 405.436 503.273C404.314 503.273 403.335 503.073 402.496 502.672C401.658 502.271 400.956 501.733 400.391 501.059C399.835 500.375 399.415 499.591 399.133 498.707C398.85 497.814 398.709 496.875 398.709 495.891V495.316C398.709 494.341 398.85 493.407 399.133 492.514C399.415 491.62 399.835 490.837 400.391 490.162C400.956 489.479 401.658 488.936 402.496 488.535C403.335 488.134 404.314 487.934 405.436 487.934C406.311 487.934 407.113 488.075 407.842 488.357C408.58 488.631 409.214 489.009 409.742 489.492C410.28 489.966 410.699 490.531 411 491.188C411.301 491.844 411.451 492.546 411.451 493.293H409.059C409.049 492.846 408.949 492.427 408.758 492.035C408.576 491.634 408.325 491.283 408.006 490.982C407.687 490.682 407.304 490.445 406.857 490.271C406.42 490.098 405.946 490.012 405.436 490.012C404.652 490.012 403.991 490.171 403.453 490.49C402.924 490.8 402.496 491.21 402.168 491.721C401.84 492.222 401.603 492.787 401.457 493.416C401.32 494.045 401.252 494.678 401.252 495.316V495.891C401.252 496.538 401.32 497.18 401.457 497.818C401.603 498.447 401.835 499.017 402.154 499.527C402.482 500.029 402.911 500.439 403.439 500.758C403.977 501.068 404.643 501.223 405.436 501.223ZM420.379 496.096L418.52 497.887V503H415.977V482H418.52V494.852L420.174 493.074L425.027 488.207H428.104L422.115 494.373L429.02 503H425.807L420.379 496.096ZM439.301 503.273C438.262 503.273 437.305 503.096 436.43 502.74C435.564 502.385 434.821 501.888 434.201 501.25C433.581 500.612 433.098 499.855 432.752 498.98C432.406 498.105 432.232 497.153 432.232 496.123V495.549C432.232 494.355 432.424 493.288 432.807 492.35C433.189 491.402 433.695 490.604 434.324 489.957C434.962 489.301 435.682 488.799 436.484 488.453C437.296 488.107 438.125 487.934 438.973 487.934C440.039 487.934 440.969 488.12 441.762 488.494C442.564 488.859 443.229 489.369 443.758 490.025C444.286 490.673 444.678 491.438 444.934 492.322C445.198 493.206 445.33 494.163 445.33 495.193V496.328H434.762C434.789 497.003 434.917 497.636 435.145 498.229C435.382 498.821 435.701 499.34 436.102 499.787C436.512 500.225 436.999 500.571 437.564 500.826C438.13 501.081 438.754 501.209 439.438 501.209C440.34 501.209 441.142 501.027 441.844 500.662C442.546 500.298 443.129 499.814 443.594 499.213L445.139 500.416C444.893 500.79 444.583 501.15 444.209 501.496C443.844 501.833 443.421 502.134 442.938 502.398C442.454 502.663 441.908 502.872 441.297 503.027C440.686 503.191 440.021 503.273 439.301 503.273ZM438.973 490.012C438.462 490.012 437.979 490.107 437.523 490.299C437.068 490.481 436.658 490.755 436.293 491.119C435.928 491.475 435.618 491.917 435.363 492.445C435.117 492.965 434.944 493.566 434.844 494.25H442.801V494.059C442.773 493.566 442.678 493.079 442.514 492.596C442.359 492.113 442.126 491.68 441.816 491.297C441.507 490.914 441.115 490.604 440.641 490.367C440.176 490.13 439.62 490.012 438.973 490.012ZM451.852 488.207L452.029 490.395C452.567 489.629 453.228 489.032 454.012 488.604C454.796 488.166 455.671 487.943 456.637 487.934C457.411 487.934 458.113 488.043 458.742 488.262C459.38 488.48 459.923 488.822 460.369 489.287C460.816 489.752 461.158 490.344 461.395 491.064C461.641 491.775 461.764 492.623 461.764 493.607V503H459.234V493.662C459.234 493.006 459.161 492.45 459.016 491.994C458.87 491.538 458.651 491.169 458.359 490.887C458.077 490.604 457.726 490.399 457.307 490.271C456.896 490.144 456.423 490.08 455.885 490.08C455.037 490.08 454.29 490.294 453.643 490.723C453.005 491.142 452.494 491.698 452.111 492.391V503H449.582V488.207H451.852ZM465.92 495.48C465.92 494.378 466.057 493.366 466.33 492.445C466.613 491.516 467.009 490.718 467.52 490.053C468.039 489.387 468.663 488.868 469.393 488.494C470.122 488.12 470.938 487.934 471.84 487.934C472.724 487.934 473.494 488.084 474.15 488.385C474.816 488.676 475.39 489.105 475.873 489.67V482H478.402V503H476.078L475.969 501.441C475.477 502.043 474.889 502.499 474.205 502.809C473.521 503.118 472.724 503.273 471.812 503.273C470.919 503.273 470.108 503.082 469.379 502.699C468.659 502.316 468.044 501.788 467.533 501.113C467.023 500.439 466.626 499.646 466.344 498.734C466.061 497.814 465.92 496.825 465.92 495.768V495.48ZM468.449 495.768C468.449 496.488 468.527 497.171 468.682 497.818C468.837 498.465 469.074 499.035 469.393 499.527C469.721 500.02 470.135 500.411 470.637 500.703C471.138 500.986 471.74 501.127 472.441 501.127C472.87 501.127 473.257 501.077 473.604 500.977C473.95 500.876 474.264 500.735 474.547 500.553C474.829 500.361 475.08 500.138 475.299 499.883C475.518 499.618 475.709 499.327 475.873 499.008V492.145C475.545 491.543 475.103 491.051 474.547 490.668C473.991 490.276 473.298 490.08 472.469 490.08C471.758 490.08 471.147 490.226 470.637 490.518C470.135 490.809 469.721 491.206 469.393 491.707C469.074 492.199 468.837 492.773 468.682 493.43C468.527 494.077 468.449 494.76 468.449 495.48V495.768ZM506.621 494.879H502.643V503H500.127V483.094H505.965C506.895 483.112 507.77 483.244 508.59 483.49C509.41 483.736 510.126 484.105 510.736 484.598C511.356 485.09 511.839 485.71 512.186 486.457C512.541 487.195 512.719 488.066 512.719 489.068C512.719 489.715 512.623 490.308 512.432 490.846C512.249 491.383 511.994 491.871 511.666 492.309C511.338 492.746 510.946 493.133 510.49 493.471C510.035 493.808 509.533 494.095 508.986 494.332L513.211 502.836L513.197 503H510.531L506.621 494.879ZM502.643 492.801H506.033C506.598 492.792 507.132 492.705 507.633 492.541C508.134 492.368 508.572 492.122 508.945 491.803C509.328 491.484 509.629 491.096 509.848 490.641C510.066 490.176 510.176 489.643 510.176 489.041C510.176 488.403 510.071 487.847 509.861 487.373C509.652 486.89 509.36 486.489 508.986 486.17C508.613 485.842 508.166 485.596 507.646 485.432C507.136 485.268 506.576 485.181 505.965 485.172H502.643V492.801ZM527.799 493.799H519.486V500.854H529.18V503H516.957V483.094H529.057V485.254H519.486V491.652H527.799V493.799ZM544.082 497.969C544.082 497.358 543.941 496.843 543.658 496.424C543.385 496.005 543.029 495.654 542.592 495.371C542.154 495.079 541.671 494.838 541.143 494.646C540.623 494.455 540.122 494.282 539.639 494.127C538.937 493.899 538.221 493.626 537.492 493.307C536.772 492.988 536.111 492.596 535.51 492.131C534.917 491.666 534.43 491.119 534.047 490.49C533.673 489.852 533.486 489.105 533.486 488.248C533.486 487.391 533.673 486.626 534.047 485.951C534.43 485.277 534.926 484.707 535.537 484.242C536.148 483.777 536.84 483.426 537.615 483.189C538.39 482.943 539.169 482.82 539.953 482.82C540.819 482.82 541.653 482.966 542.455 483.258C543.257 483.54 543.968 483.941 544.588 484.461C545.208 484.98 545.704 485.609 546.078 486.348C546.452 487.086 546.648 487.911 546.666 488.822H544.068C543.995 488.248 543.854 487.729 543.645 487.264C543.435 486.79 543.157 486.384 542.811 486.047C542.464 485.71 542.049 485.45 541.566 485.268C541.092 485.076 540.555 484.98 539.953 484.98C539.47 484.98 538.996 485.049 538.531 485.186C538.076 485.322 537.665 485.527 537.301 485.801C536.945 486.074 536.658 486.411 536.439 486.812C536.23 487.214 536.125 487.678 536.125 488.207C536.134 488.781 536.28 489.269 536.562 489.67C536.845 490.062 537.201 490.395 537.629 490.668C538.066 490.941 538.536 491.169 539.037 491.352C539.548 491.534 540.026 491.693 540.473 491.83C540.965 491.985 541.462 492.163 541.963 492.363C542.464 492.555 542.947 492.778 543.412 493.033C543.877 493.288 544.31 493.576 544.711 493.895C545.112 494.214 545.463 494.578 545.764 494.988C546.064 495.389 546.297 495.836 546.461 496.328C546.634 496.811 546.721 497.349 546.721 497.941C546.721 498.835 546.52 499.614 546.119 500.279C545.727 500.945 545.217 501.501 544.588 501.947C543.959 502.385 543.248 502.717 542.455 502.945C541.662 503.164 540.869 503.273 540.076 503.273C539.192 503.273 538.326 503.137 537.479 502.863C536.631 502.59 535.87 502.198 535.195 501.688C534.53 501.168 533.988 500.539 533.568 499.801C533.149 499.053 532.926 498.206 532.898 497.258H535.482C535.564 497.878 535.733 498.429 535.988 498.912C536.243 499.386 536.572 499.792 536.973 500.129C537.374 500.457 537.834 500.708 538.354 500.881C538.882 501.045 539.456 501.127 540.076 501.127C540.568 501.127 541.051 501.068 541.525 500.949C542.008 500.822 542.437 500.63 542.811 500.375C543.184 500.111 543.49 499.783 543.727 499.391C543.964 498.99 544.082 498.516 544.082 497.969ZM563.906 485.254H557.754V503H555.293V485.254H549.141V483.094H563.906V485.254ZM593.615 497.846H586.971L585.371 503H582.842L589.268 483.094H591.387L597.703 503H595.188L593.615 497.846ZM587.654 495.645H592.945L590.32 487.004L587.654 495.645ZM603.691 495.016V503H601.162V483.094H607.615C608.508 483.112 609.352 483.253 610.145 483.518C610.947 483.782 611.648 484.165 612.25 484.666C612.852 485.167 613.326 485.787 613.672 486.525C614.027 487.264 614.205 488.111 614.205 489.068C614.205 490.025 614.027 490.873 613.672 491.611C613.326 492.34 612.852 492.956 612.25 493.457C611.648 493.958 610.947 494.341 610.145 494.605C609.352 494.87 608.508 495.007 607.615 495.016H603.691ZM603.691 492.938H607.615C608.199 492.928 608.736 492.837 609.229 492.664C609.721 492.482 610.149 492.227 610.514 491.898C610.878 491.57 611.161 491.174 611.361 490.709C611.571 490.235 611.676 489.697 611.676 489.096C611.676 488.494 611.571 487.952 611.361 487.469C611.161 486.986 610.878 486.576 610.514 486.238C610.158 485.901 609.73 485.641 609.229 485.459C608.736 485.277 608.199 485.181 607.615 485.172H603.691V492.938ZM617.746 483.094H629.777V485.295H625.006V500.812H629.777V503H617.746V500.812H622.408V485.295H617.746V483.094ZM644.393 499.076C644.393 498.775 644.333 498.507 644.215 498.27C644.096 498.023 643.896 497.8 643.613 497.6C643.331 497.399 642.957 497.217 642.492 497.053C642.027 496.88 641.449 496.725 640.756 496.588C639.908 496.415 639.133 496.205 638.432 495.959C637.739 495.713 637.142 495.421 636.641 495.084C636.148 494.738 635.766 494.337 635.492 493.881C635.219 493.416 635.082 492.878 635.082 492.268C635.082 491.666 635.223 491.105 635.506 490.586C635.788 490.057 636.185 489.597 636.695 489.205C637.206 488.813 637.812 488.503 638.514 488.275C639.225 488.048 640.004 487.934 640.852 487.934C641.763 487.934 642.583 488.052 643.312 488.289C644.042 488.526 644.661 488.854 645.172 489.273C645.682 489.693 646.074 490.185 646.348 490.75C646.63 491.306 646.771 491.908 646.771 492.555H644.242C644.242 492.236 644.16 491.926 643.996 491.625C643.832 491.315 643.604 491.042 643.312 490.805C643.021 490.568 642.665 490.376 642.246 490.23C641.836 490.085 641.371 490.012 640.852 490.012C640.314 490.012 639.84 490.071 639.43 490.189C639.029 490.308 638.691 490.467 638.418 490.668C638.154 490.868 637.953 491.101 637.816 491.365C637.68 491.63 637.611 491.903 637.611 492.186C637.611 492.477 637.666 492.737 637.775 492.965C637.885 493.193 638.072 493.398 638.336 493.58C638.609 493.762 638.969 493.926 639.416 494.072C639.872 494.218 640.446 494.359 641.139 494.496C642.05 494.688 642.866 494.911 643.586 495.166C644.306 495.412 644.912 495.713 645.404 496.068C645.896 496.415 646.27 496.82 646.525 497.285C646.79 497.75 646.922 498.288 646.922 498.898C646.922 499.555 646.771 500.152 646.471 500.689C646.179 501.227 645.769 501.688 645.24 502.07C644.712 502.453 644.078 502.749 643.34 502.959C642.602 503.169 641.795 503.273 640.92 503.273C639.917 503.273 639.024 503.141 638.24 502.877C637.456 502.604 636.791 502.248 636.244 501.811C635.706 501.364 635.292 500.849 635 500.266C634.717 499.682 634.576 499.076 634.576 498.447H637.105C637.142 498.967 637.279 499.404 637.516 499.76C637.762 500.115 638.062 500.402 638.418 500.621C638.783 500.84 639.184 500.995 639.621 501.086C640.059 501.177 640.492 501.223 640.92 501.223C641.986 501.223 642.829 501.027 643.449 500.635C644.069 500.243 644.383 499.723 644.393 499.076Z" fill="white"/>
</svg>
