<svg width="1035" height="536" viewBox="0 0 1035 536" fill="none" xmlns="http://www.w3.org/2000/svg">
<rect x="336" y="472" width="381" height="64" fill="#73CA75"/>
<rect x="2" y="2" width="1031" height="358" fill="white" stroke="#73CA75" stroke-width="4"/>
<rect x="28" y="383" width="978" height="64" fill="#73CA75"/>
<rect x="29" y="118" width="250" height="126" fill="#73CA75"/>
<rect x="304" y="118" width="250" height="126" fill="#73CA75"/>
<rect x="579" y="118" width="250" height="126" fill="#73CA75"/>
<rect x="28" y="29" width="978" height="64" fill="#73CA75"/>
<rect x="29" y="269" width="800" height="64" fill="#73CA75"/>
<rect x="854" y="118" width="152" height="215" fill="#73CA75"/>
<path d="M362.736 63.8457H356.092L354.492 69H351.963L358.389 49.0938H360.508L366.824 69H364.309L362.736 63.8457ZM356.775 61.6445H362.066L359.441 53.0039L356.775 61.6445ZM379.648 66.9629C379.156 67.6921 378.541 68.2617 377.803 68.6719C377.064 69.0729 376.212 69.2734 375.246 69.2734C374.471 69.2734 373.77 69.1549 373.141 68.918C372.512 68.6719 371.974 68.2936 371.527 67.7832C371.081 67.2728 370.734 66.6257 370.488 65.8418C370.251 65.0488 370.133 64.1009 370.133 62.998V54.207H372.662V63.0254C372.662 63.8275 372.726 64.4928 372.854 65.0215C372.981 65.5501 373.173 65.974 373.428 66.293C373.683 66.6029 373.993 66.8216 374.357 66.9492C374.731 67.0768 375.16 67.1406 375.643 67.1406C376.673 67.1406 377.502 66.931 378.131 66.5117C378.769 66.0924 379.243 65.5273 379.553 64.8164V54.207H382.096V69H379.799L379.648 66.9629ZM392.855 50.625V54.207H398.488V56.1621H392.855V64.2012C392.855 64.7754 392.928 65.2493 393.074 65.623C393.22 65.9967 393.421 66.2975 393.676 66.5254C393.931 66.7441 394.223 66.8991 394.551 66.9902C394.888 67.0814 395.243 67.127 395.617 67.127C395.891 67.127 396.173 67.1133 396.465 67.0859C396.757 67.0495 397.039 67.0085 397.312 66.9629C397.595 66.9173 397.855 66.8717 398.092 66.8262C398.338 66.7715 398.538 66.7259 398.693 66.6895L399.049 68.4805C398.839 68.6081 398.584 68.722 398.283 68.8223C397.982 68.9134 397.654 68.9909 397.299 69.0547C396.943 69.1276 396.565 69.1823 396.164 69.2188C395.772 69.2552 395.38 69.2734 394.988 69.2734C394.332 69.2734 393.717 69.1823 393.143 69C392.577 68.8086 392.085 68.5124 391.666 68.1113C391.247 67.7012 390.914 67.1771 390.668 66.5391C390.431 65.8919 390.312 65.1126 390.312 64.2012V56.1621H386.43V54.207H390.312V50.625H392.855ZM406.213 56.4082C406.742 55.6335 407.393 55.0319 408.168 54.6035C408.943 54.166 409.813 53.9427 410.779 53.9336C411.554 53.9336 412.256 54.0475 412.885 54.2754C413.523 54.4941 414.065 54.8405 414.512 55.3145C414.958 55.7884 415.3 56.39 415.537 57.1191C415.783 57.8392 415.906 58.696 415.906 59.6895V69H413.377V59.6621C413.377 58.4499 413.085 57.5475 412.502 56.9551C411.928 56.3626 411.103 56.071 410.027 56.0801C409.216 56.0801 408.478 56.2806 407.812 56.6816C407.156 57.0736 406.623 57.5977 406.213 58.2539V69H403.684V48H406.213V56.4082ZM427.035 69.2734C425.996 69.2734 425.039 69.0957 424.164 68.7402C423.298 68.3848 422.555 67.888 421.936 67.25C421.316 66.612 420.833 65.8555 420.486 64.9805C420.14 64.1055 419.967 63.153 419.967 62.123V61.5488C419.967 60.3548 420.158 59.2884 420.541 58.3496C420.924 57.4017 421.43 56.6042 422.059 55.957C422.697 55.3008 423.417 54.7995 424.219 54.4531C425.03 54.1068 425.859 53.9336 426.707 53.9336C427.773 53.9336 428.703 54.1204 429.496 54.4941C430.298 54.8587 430.964 55.3691 431.492 56.0254C432.021 56.6725 432.413 57.4382 432.668 58.3223C432.932 59.2064 433.064 60.1634 433.064 61.1934V62.3281H422.496C422.523 63.0026 422.651 63.6361 422.879 64.2285C423.116 64.821 423.435 65.3405 423.836 65.7871C424.246 66.2246 424.734 66.571 425.299 66.8262C425.864 67.0814 426.488 67.209 427.172 67.209C428.074 67.209 428.876 67.0267 429.578 66.6621C430.28 66.2975 430.863 65.8145 431.328 65.2129L432.873 66.416C432.627 66.7897 432.317 67.1497 431.943 67.4961C431.579 67.8333 431.155 68.1341 430.672 68.3984C430.189 68.6628 429.642 68.8724 429.031 69.0273C428.421 69.1914 427.755 69.2734 427.035 69.2734ZM426.707 56.0117C426.197 56.0117 425.714 56.1074 425.258 56.2988C424.802 56.4811 424.392 56.7546 424.027 57.1191C423.663 57.4746 423.353 57.9167 423.098 58.4453C422.852 58.9648 422.678 59.5664 422.578 60.25H430.535V60.0586C430.508 59.5664 430.412 59.0788 430.248 58.5957C430.093 58.1126 429.861 57.6797 429.551 57.2969C429.241 56.9141 428.849 56.6042 428.375 56.3672C427.91 56.1302 427.354 56.0117 426.707 56.0117ZM439.586 54.207L439.764 56.3945C440.301 55.6289 440.962 55.0319 441.746 54.6035C442.53 54.166 443.405 53.9427 444.371 53.9336C445.146 53.9336 445.848 54.043 446.477 54.2617C447.115 54.4805 447.657 54.8223 448.104 55.2871C448.55 55.752 448.892 56.3444 449.129 57.0645C449.375 57.7754 449.498 58.623 449.498 59.6074V69H446.969V59.6621C446.969 59.0059 446.896 58.4499 446.75 57.9941C446.604 57.5384 446.385 57.1693 446.094 56.8867C445.811 56.6042 445.46 56.3991 445.041 56.2715C444.631 56.1439 444.157 56.0801 443.619 56.0801C442.771 56.0801 442.024 56.2943 441.377 56.7227C440.739 57.1419 440.229 57.6979 439.846 58.3906V69H437.316V54.207H439.586ZM460.121 50.625V54.207H465.754V56.1621H460.121V64.2012C460.121 64.7754 460.194 65.2493 460.34 65.623C460.486 65.9967 460.686 66.2975 460.941 66.5254C461.197 66.7441 461.488 66.8991 461.816 66.9902C462.154 67.0814 462.509 67.127 462.883 67.127C463.156 67.127 463.439 67.1133 463.73 67.0859C464.022 67.0495 464.305 67.0085 464.578 66.9629C464.861 66.9173 465.12 66.8717 465.357 66.8262C465.604 66.7715 465.804 66.7259 465.959 66.6895L466.314 68.4805C466.105 68.6081 465.85 68.722 465.549 68.8223C465.248 68.9134 464.92 68.9909 464.564 69.0547C464.209 69.1276 463.831 69.1823 463.43 69.2188C463.038 69.2552 462.646 69.2734 462.254 69.2734C461.598 69.2734 460.982 69.1823 460.408 69C459.843 68.8086 459.351 68.5124 458.932 68.1113C458.512 67.7012 458.18 67.1771 457.934 66.5391C457.697 65.8919 457.578 65.1126 457.578 64.2012V56.1621H453.695V54.207H457.578V50.625H460.121ZM471.346 54.207H478.906V66.8125H483.732V69H471.346V66.8125H476.377V56.4082H471.346V54.207ZM476.049 50.3242C476.049 49.9049 476.172 49.554 476.418 49.2715C476.673 48.9798 477.056 48.834 477.566 48.834C478.068 48.834 478.446 48.9798 478.701 49.2715C478.956 49.554 479.084 49.9049 479.084 50.3242C479.084 50.7344 478.956 51.0762 478.701 51.3496C478.446 51.623 478.068 51.7598 477.566 51.7598C477.056 51.7598 476.673 51.623 476.418 51.3496C476.172 51.0762 476.049 50.7344 476.049 50.3242ZM494.068 67.2227C494.524 67.2227 494.966 67.1497 495.395 67.0039C495.832 66.8581 496.219 66.6576 496.557 66.4023C496.894 66.138 497.163 65.8327 497.363 65.4863C497.573 65.1309 497.682 64.748 497.691 64.3379H500.084C500.075 64.9941 499.902 65.623 499.564 66.2246C499.236 66.8171 498.794 67.3411 498.238 67.7969C497.682 68.2435 497.044 68.6035 496.324 68.877C495.604 69.1413 494.852 69.2734 494.068 69.2734C492.947 69.2734 491.967 69.0729 491.129 68.6719C490.29 68.2708 489.589 67.7331 489.023 67.0586C488.467 66.375 488.048 65.5911 487.766 64.707C487.483 63.8138 487.342 62.875 487.342 61.8906V61.3164C487.342 60.3411 487.483 59.4069 487.766 58.5137C488.048 57.6204 488.467 56.8366 489.023 56.1621C489.589 55.4785 490.29 54.9362 491.129 54.5352C491.967 54.1341 492.947 53.9336 494.068 53.9336C494.943 53.9336 495.745 54.0749 496.475 54.3574C497.213 54.6309 497.846 55.0091 498.375 55.4922C498.913 55.9661 499.332 56.5312 499.633 57.1875C499.934 57.8438 500.084 58.5456 500.084 59.293H497.691C497.682 58.8464 497.582 58.4271 497.391 58.0352C497.208 57.6341 496.958 57.2832 496.639 56.9824C496.32 56.6816 495.937 56.4447 495.49 56.2715C495.053 56.0983 494.579 56.0117 494.068 56.0117C493.285 56.0117 492.624 56.1712 492.086 56.4902C491.557 56.8001 491.129 57.2103 490.801 57.7207C490.473 58.222 490.236 58.7871 490.09 59.416C489.953 60.0449 489.885 60.6784 489.885 61.3164V61.8906C489.885 62.5378 489.953 63.1803 490.09 63.8184C490.236 64.4473 490.468 65.0169 490.787 65.5273C491.115 66.0286 491.544 66.4388 492.072 66.7578C492.61 67.0677 493.275 67.2227 494.068 67.2227ZM514.303 69C514.202 68.8086 514.12 68.5716 514.057 68.2891C514.002 67.9974 513.961 67.6966 513.934 67.3867C513.678 67.6419 513.391 67.8835 513.072 68.1113C512.762 68.3392 512.416 68.5397 512.033 68.7129C511.66 68.8861 511.258 69.0228 510.83 69.123C510.402 69.2233 509.946 69.2734 509.463 69.2734C508.679 69.2734 507.968 69.1595 507.33 68.9316C506.701 68.7038 506.163 68.3984 505.717 68.0156C505.279 67.6237 504.938 67.1634 504.691 66.6348C504.454 66.097 504.336 65.5182 504.336 64.8984C504.336 64.0872 504.495 63.3763 504.814 62.7656C505.143 62.1549 505.603 61.6491 506.195 61.248C506.788 60.8379 507.499 60.5326 508.328 60.332C509.167 60.1315 510.101 60.0312 511.131 60.0312H513.893V58.8691C513.893 58.4225 513.811 58.0215 513.646 57.666C513.482 57.3105 513.25 57.0098 512.949 56.7637C512.648 56.5085 512.279 56.3125 511.842 56.1758C511.413 56.0391 510.93 55.9707 510.393 55.9707C509.891 55.9707 509.44 56.0345 509.039 56.1621C508.647 56.2897 508.314 56.4583 508.041 56.668C507.768 56.8776 507.553 57.1283 507.398 57.4199C507.253 57.7025 507.18 57.9987 507.18 58.3086H504.637C504.646 57.7708 504.783 57.2422 505.047 56.7227C505.32 56.2031 505.708 55.7383 506.209 55.3281C506.719 54.9089 507.335 54.5716 508.055 54.3164C508.784 54.0612 509.609 53.9336 510.529 53.9336C511.368 53.9336 512.147 54.0384 512.867 54.248C513.587 54.4486 514.207 54.7585 514.727 55.1777C515.255 55.5879 515.67 56.1029 515.971 56.7227C516.271 57.3424 516.422 58.0671 516.422 58.8965V65.7734C516.422 66.2656 516.467 66.7897 516.559 67.3457C516.65 67.8926 516.777 68.3711 516.941 68.7812V69H514.303ZM509.832 67.0723C510.324 67.0723 510.785 67.0085 511.213 66.8809C511.641 66.7533 512.029 66.5846 512.375 66.375C512.73 66.1654 513.036 65.9284 513.291 65.6641C513.546 65.3906 513.747 65.1081 513.893 64.8164V61.8223H511.541C510.064 61.8223 508.916 62.041 508.096 62.4785C507.275 62.916 506.865 63.6042 506.865 64.543C506.865 64.9076 506.924 65.2448 507.043 65.5547C507.171 65.8646 507.357 66.1335 507.604 66.3613C507.85 66.5801 508.16 66.7533 508.533 66.8809C508.907 67.0085 509.34 67.0723 509.832 67.0723ZM527.387 50.625V54.207H533.02V56.1621H527.387V64.2012C527.387 64.7754 527.46 65.2493 527.605 65.623C527.751 65.9967 527.952 66.2975 528.207 66.5254C528.462 66.7441 528.754 66.8991 529.082 66.9902C529.419 67.0814 529.775 67.127 530.148 67.127C530.422 67.127 530.704 67.1133 530.996 67.0859C531.288 67.0495 531.57 67.0085 531.844 66.9629C532.126 66.9173 532.386 66.8717 532.623 66.8262C532.869 66.7715 533.07 66.7259 533.225 66.6895L533.58 68.4805C533.37 68.6081 533.115 68.722 532.814 68.8223C532.514 68.9134 532.186 68.9909 531.83 69.0547C531.475 69.1276 531.096 69.1823 530.695 69.2188C530.303 69.2552 529.911 69.2734 529.52 69.2734C528.863 69.2734 528.248 69.1823 527.674 69C527.109 68.8086 526.617 68.5124 526.197 68.1113C525.778 67.7012 525.445 67.1771 525.199 66.5391C524.962 65.8919 524.844 65.1126 524.844 64.2012V56.1621H520.961V54.207H524.844V50.625H527.387ZM538.611 54.207H546.172V66.8125H550.998V69H538.611V66.8125H543.643V56.4082H538.611V54.207ZM543.314 50.3242C543.314 49.9049 543.438 49.554 543.684 49.2715C543.939 48.9798 544.322 48.834 544.832 48.834C545.333 48.834 545.712 48.9798 545.967 49.2715C546.222 49.554 546.35 49.9049 546.35 50.3242C546.35 50.7344 546.222 51.0762 545.967 51.3496C545.712 51.623 545.333 51.7598 544.832 51.7598C544.322 51.7598 543.939 51.623 543.684 51.3496C543.438 51.0762 543.314 50.7344 543.314 50.3242ZM554.32 61.4668C554.32 60.4004 554.475 59.4115 554.785 58.5C555.095 57.5794 555.537 56.7819 556.111 56.1074C556.695 55.4329 557.401 54.9043 558.23 54.5215C559.06 54.1296 559.994 53.9336 561.033 53.9336C562.081 53.9336 563.02 54.1296 563.85 54.5215C564.688 54.9043 565.395 55.4329 565.969 56.1074C566.552 56.7819 566.999 57.5794 567.309 58.5C567.618 59.4115 567.773 60.4004 567.773 61.4668V61.7676C567.773 62.834 567.618 63.8229 567.309 64.7344C566.999 65.6458 566.552 66.4388 565.969 67.1133C565.395 67.7878 564.693 68.3164 563.863 68.6992C563.034 69.082 562.1 69.2734 561.061 69.2734C560.012 69.2734 559.069 69.082 558.23 68.6992C557.401 68.3164 556.695 67.7878 556.111 67.1133C555.537 66.4388 555.095 65.6458 554.785 64.7344C554.475 63.8229 554.32 62.834 554.32 61.7676V61.4668ZM556.85 61.7676C556.85 62.4967 556.936 63.194 557.109 63.8594C557.283 64.5156 557.542 65.0944 557.889 65.5957C558.244 66.097 558.686 66.4935 559.215 66.7852C559.743 67.0768 560.359 67.2227 561.061 67.2227C561.753 67.2227 562.359 67.0768 562.879 66.7852C563.408 66.4935 563.845 66.097 564.191 65.5957C564.547 65.0944 564.811 64.5156 564.984 63.8594C565.158 63.194 565.244 62.4967 565.244 61.7676V61.4668C565.244 60.7467 565.153 60.0586 564.971 59.4023C564.798 58.737 564.533 58.1536 564.178 57.6523C563.831 57.151 563.394 56.7546 562.865 56.4629C562.346 56.1621 561.735 56.0117 561.033 56.0117C560.331 56.0117 559.721 56.1621 559.201 56.4629C558.682 56.7546 558.244 57.151 557.889 57.6523C557.542 58.1536 557.283 58.737 557.109 59.4023C556.936 60.0586 556.85 60.7467 556.85 61.4668V61.7676ZM574.117 54.207L574.295 56.3945C574.833 55.6289 575.493 55.0319 576.277 54.6035C577.061 54.166 577.936 53.9427 578.902 53.9336C579.677 53.9336 580.379 54.043 581.008 54.2617C581.646 54.4805 582.188 54.8223 582.635 55.2871C583.081 55.752 583.423 56.3444 583.66 57.0645C583.906 57.7754 584.029 58.623 584.029 59.6074V69H581.5V59.6621C581.5 59.0059 581.427 58.4499 581.281 57.9941C581.135 57.5384 580.917 57.1693 580.625 56.8867C580.342 56.6042 579.992 56.3991 579.572 56.2715C579.162 56.1439 578.688 56.0801 578.15 56.0801C577.303 56.0801 576.555 56.2943 575.908 56.7227C575.27 57.1419 574.76 57.6979 574.377 58.3906V69H571.848V54.207H574.117ZM615.898 63.9688C615.898 63.3581 615.757 62.8431 615.475 62.4238C615.201 62.0046 614.846 61.6536 614.408 61.3711C613.971 61.0794 613.488 60.8379 612.959 60.6465C612.439 60.4551 611.938 60.2819 611.455 60.127C610.753 59.8991 610.038 59.6257 609.309 59.3066C608.589 58.9876 607.928 58.5957 607.326 58.1309C606.734 57.666 606.246 57.1191 605.863 56.4902C605.49 55.8522 605.303 55.1048 605.303 54.248C605.303 53.3913 605.49 52.6257 605.863 51.9512C606.246 51.2767 606.743 50.707 607.354 50.2422C607.964 49.7773 608.657 49.4264 609.432 49.1895C610.206 48.9434 610.986 48.8203 611.77 48.8203C612.635 48.8203 613.469 48.9661 614.271 49.2578C615.074 49.5404 615.785 49.9414 616.404 50.4609C617.024 50.9805 617.521 51.6094 617.895 52.3477C618.268 53.0859 618.464 53.9108 618.482 54.8223H615.885C615.812 54.248 615.671 53.7285 615.461 53.2637C615.251 52.7897 614.973 52.3841 614.627 52.0469C614.281 51.7096 613.866 51.4499 613.383 51.2676C612.909 51.0762 612.371 50.9805 611.77 50.9805C611.286 50.9805 610.812 51.0488 610.348 51.1855C609.892 51.3223 609.482 51.5273 609.117 51.8008C608.762 52.0742 608.475 52.4115 608.256 52.8125C608.046 53.2135 607.941 53.6784 607.941 54.207C607.951 54.7812 608.096 55.2689 608.379 55.6699C608.661 56.0618 609.017 56.3945 609.445 56.668C609.883 56.9414 610.352 57.1693 610.854 57.3516C611.364 57.5339 611.842 57.6934 612.289 57.8301C612.781 57.985 613.278 58.1628 613.779 58.3633C614.281 58.5547 614.764 58.778 615.229 59.0332C615.693 59.2884 616.126 59.5755 616.527 59.8945C616.928 60.2135 617.279 60.5781 617.58 60.9883C617.881 61.3893 618.113 61.8359 618.277 62.3281C618.451 62.8112 618.537 63.349 618.537 63.9414C618.537 64.8346 618.337 65.6139 617.936 66.2793C617.544 66.9447 617.033 67.5007 616.404 67.9473C615.775 68.3848 615.064 68.7174 614.271 68.9453C613.479 69.1641 612.686 69.2734 611.893 69.2734C611.008 69.2734 610.143 69.1367 609.295 68.8633C608.447 68.5898 607.686 68.1979 607.012 67.6875C606.346 67.168 605.804 66.5391 605.385 65.8008C604.965 65.0534 604.742 64.2057 604.715 63.2578H607.299C607.381 63.8776 607.549 64.429 607.805 64.9121C608.06 65.3861 608.388 65.7917 608.789 66.1289C609.19 66.457 609.65 66.7077 610.17 66.8809C610.699 67.0449 611.273 67.127 611.893 67.127C612.385 67.127 612.868 67.0677 613.342 66.9492C613.825 66.8216 614.253 66.6302 614.627 66.375C615.001 66.1107 615.306 65.7826 615.543 65.3906C615.78 64.9896 615.898 64.5156 615.898 63.9688ZM627.738 63.75L628.395 65.541L632.906 54.207H635.736L628.23 71.2832C628.057 71.666 627.834 72.0716 627.561 72.5C627.296 72.9284 626.973 73.3249 626.59 73.6895C626.207 74.054 625.76 74.3594 625.25 74.6055C624.74 74.8516 624.152 74.9746 623.486 74.9746C623.368 74.9746 623.236 74.9655 623.09 74.9473C622.944 74.9382 622.798 74.9199 622.652 74.8926C622.507 74.8743 622.37 74.8516 622.242 74.8242C622.115 74.7969 622.01 74.7741 621.928 74.7559L622.338 72.6914C622.402 72.6914 622.488 72.696 622.598 72.7051C622.707 72.7142 622.821 72.7233 622.939 72.7324C623.058 72.7415 623.172 72.7461 623.281 72.7461C623.391 72.7552 623.477 72.7598 623.541 72.7598C623.887 72.7598 624.202 72.6641 624.484 72.4727C624.776 72.2812 625.031 72.0534 625.25 71.7891C625.478 71.5247 625.669 71.2513 625.824 70.9688C625.988 70.6862 626.116 70.4538 626.207 70.2715L627.219 68.3027L620.848 54.207H623.678L627.738 63.75ZM648.943 65.0762C648.943 64.7754 648.884 64.5065 648.766 64.2695C648.647 64.0234 648.447 63.8001 648.164 63.5996C647.882 63.3991 647.508 63.2168 647.043 63.0527C646.578 62.8796 645.999 62.7246 645.307 62.5879C644.459 62.4147 643.684 62.2051 642.982 61.959C642.29 61.7129 641.693 61.4212 641.191 61.084C640.699 60.7376 640.316 60.3366 640.043 59.8809C639.77 59.416 639.633 58.8783 639.633 58.2676C639.633 57.666 639.774 57.1055 640.057 56.5859C640.339 56.0573 640.736 55.597 641.246 55.2051C641.757 54.8132 642.363 54.5033 643.064 54.2754C643.775 54.0475 644.555 53.9336 645.402 53.9336C646.314 53.9336 647.134 54.0521 647.863 54.2891C648.592 54.526 649.212 54.8542 649.723 55.2734C650.233 55.6927 650.625 56.1849 650.898 56.75C651.181 57.306 651.322 57.9076 651.322 58.5547H648.793C648.793 58.2357 648.711 57.9258 648.547 57.625C648.383 57.3151 648.155 57.0417 647.863 56.8047C647.572 56.5677 647.216 56.3763 646.797 56.2305C646.387 56.0846 645.922 56.0117 645.402 56.0117C644.865 56.0117 644.391 56.071 643.98 56.1895C643.579 56.3079 643.242 56.4674 642.969 56.668C642.704 56.8685 642.504 57.1009 642.367 57.3652C642.23 57.6296 642.162 57.903 642.162 58.1855C642.162 58.4772 642.217 58.737 642.326 58.9648C642.436 59.1927 642.622 59.3978 642.887 59.5801C643.16 59.7624 643.52 59.9264 643.967 60.0723C644.423 60.2181 644.997 60.3594 645.689 60.4961C646.601 60.6875 647.417 60.9108 648.137 61.166C648.857 61.4121 649.463 61.7129 649.955 62.0684C650.447 62.4147 650.821 62.8203 651.076 63.2852C651.34 63.75 651.473 64.2878 651.473 64.8984C651.473 65.5547 651.322 66.1517 651.021 66.6895C650.73 67.2272 650.32 67.6875 649.791 68.0703C649.262 68.4531 648.629 68.7493 647.891 68.959C647.152 69.1686 646.346 69.2734 645.471 69.2734C644.468 69.2734 643.575 69.1413 642.791 68.877C642.007 68.6035 641.342 68.248 640.795 67.8105C640.257 67.3639 639.842 66.849 639.551 66.2656C639.268 65.6823 639.127 65.0762 639.127 64.4473H641.656C641.693 64.9668 641.829 65.4043 642.066 65.7598C642.312 66.1152 642.613 66.4023 642.969 66.6211C643.333 66.8398 643.734 66.9948 644.172 67.0859C644.609 67.1771 645.042 67.2227 645.471 67.2227C646.537 67.2227 647.38 67.0267 648 66.6348C648.62 66.2428 648.934 65.7233 648.943 65.0762ZM661.918 50.625V54.207H667.551V56.1621H661.918V64.2012C661.918 64.7754 661.991 65.2493 662.137 65.623C662.283 65.9967 662.483 66.2975 662.738 66.5254C662.993 66.7441 663.285 66.8991 663.613 66.9902C663.951 67.0814 664.306 67.127 664.68 67.127C664.953 67.127 665.236 67.1133 665.527 67.0859C665.819 67.0495 666.102 67.0085 666.375 66.9629C666.658 66.9173 666.917 66.8717 667.154 66.8262C667.4 66.7715 667.601 66.7259 667.756 66.6895L668.111 68.4805C667.902 68.6081 667.646 68.722 667.346 68.8223C667.045 68.9134 666.717 68.9909 666.361 69.0547C666.006 69.1276 665.628 69.1823 665.227 69.2188C664.835 69.2552 664.443 69.2734 664.051 69.2734C663.395 69.2734 662.779 69.1823 662.205 69C661.64 68.8086 661.148 68.5124 660.729 68.1113C660.309 67.7012 659.977 67.1771 659.73 66.5391C659.493 65.8919 659.375 65.1126 659.375 64.2012V56.1621H655.492V54.207H659.375V50.625H661.918ZM679.281 69.2734C678.242 69.2734 677.285 69.0957 676.41 68.7402C675.544 68.3848 674.801 67.888 674.182 67.25C673.562 66.612 673.079 65.8555 672.732 64.9805C672.386 64.1055 672.213 63.153 672.213 62.123V61.5488C672.213 60.3548 672.404 59.2884 672.787 58.3496C673.17 57.4017 673.676 56.6042 674.305 55.957C674.943 55.3008 675.663 54.7995 676.465 54.4531C677.276 54.1068 678.105 53.9336 678.953 53.9336C680.02 53.9336 680.949 54.1204 681.742 54.4941C682.544 54.8587 683.21 55.3691 683.738 56.0254C684.267 56.6725 684.659 57.4382 684.914 58.3223C685.178 59.2064 685.311 60.1634 685.311 61.1934V62.3281H674.742C674.77 63.0026 674.897 63.6361 675.125 64.2285C675.362 64.821 675.681 65.3405 676.082 65.7871C676.492 66.2246 676.98 66.571 677.545 66.8262C678.11 67.0814 678.734 67.209 679.418 67.209C680.32 67.209 681.122 67.0267 681.824 66.6621C682.526 66.2975 683.109 65.8145 683.574 65.2129L685.119 66.416C684.873 66.7897 684.563 67.1497 684.189 67.4961C683.825 67.8333 683.401 68.1341 682.918 68.3984C682.435 68.6628 681.888 68.8724 681.277 69.0273C680.667 69.1914 680.001 69.2734 679.281 69.2734ZM678.953 56.0117C678.443 56.0117 677.96 56.1074 677.504 56.2988C677.048 56.4811 676.638 56.7546 676.273 57.1191C675.909 57.4746 675.599 57.9167 675.344 58.4453C675.098 58.9648 674.924 59.5664 674.824 60.25H682.781V60.0586C682.754 59.5664 682.658 59.0788 682.494 58.5957C682.339 58.1126 682.107 57.6797 681.797 57.2969C681.487 56.9141 681.095 56.6042 680.621 56.3672C680.156 56.1302 679.6 56.0117 678.953 56.0117ZM690.725 54.207L690.793 55.6016C691.094 55.082 691.486 54.6764 691.969 54.3848C692.461 54.0931 693.053 53.9427 693.746 53.9336C695.104 53.9336 696.011 54.4622 696.467 55.5195C696.758 55.0456 697.141 54.6673 697.615 54.3848C698.098 54.0931 698.682 53.9427 699.365 53.9336C700.45 53.9336 701.284 54.2663 701.867 54.9316C702.451 55.597 702.742 56.6042 702.742 57.9531V69H700.336V57.9258C700.336 56.6862 699.766 56.071 698.627 56.0801C698.326 56.0801 698.066 56.1211 697.848 56.2031C697.629 56.2852 697.447 56.3991 697.301 56.5449C697.155 56.6816 697.041 56.8457 696.959 57.0371C696.877 57.2194 696.822 57.4108 696.795 57.6113V69H694.389V57.9121C694.389 57.3197 694.257 56.8639 693.992 56.5449C693.728 56.2259 693.309 56.071 692.734 56.0801C692.206 56.0801 691.796 56.1849 691.504 56.3945C691.212 56.6042 690.998 56.8822 690.861 57.2285V69H688.455V54.207H690.725Z" fill="white"/>
<path d="M379.717 305.846H373.072L371.473 311H368.943L375.369 291.094H377.488L383.805 311H381.289L379.717 305.846ZM373.756 303.645H379.047L376.422 295.004L373.756 303.645ZM389.793 303.016V311H387.264V291.094H393.717C394.61 291.112 395.453 291.253 396.246 291.518C397.048 291.782 397.75 292.165 398.352 292.666C398.953 293.167 399.427 293.787 399.773 294.525C400.129 295.264 400.307 296.111 400.307 297.068C400.307 298.025 400.129 298.873 399.773 299.611C399.427 300.34 398.953 300.956 398.352 301.457C397.75 301.958 397.048 302.341 396.246 302.605C395.453 302.87 394.61 303.007 393.717 303.016H389.793ZM389.793 300.938H393.717C394.3 300.928 394.838 300.837 395.33 300.664C395.822 300.482 396.251 300.227 396.615 299.898C396.98 299.57 397.262 299.174 397.463 298.709C397.673 298.235 397.777 297.697 397.777 297.096C397.777 296.494 397.673 295.952 397.463 295.469C397.262 294.986 396.98 294.576 396.615 294.238C396.26 293.901 395.831 293.641 395.33 293.459C394.838 293.277 394.3 293.181 393.717 293.172H389.793V300.938ZM403.848 291.094H415.879V293.295H411.107V308.812H415.879V311H403.848V308.812H408.51V293.295H403.848V291.094ZM450.373 305.012C450.255 305.932 450.018 306.78 449.662 307.555C449.307 308.32 448.842 308.981 448.268 309.537C447.702 310.084 447.028 310.512 446.244 310.822C445.469 311.123 444.604 311.273 443.646 311.273C442.826 311.273 442.079 311.16 441.404 310.932C440.739 310.695 440.142 310.371 439.613 309.961C439.094 309.551 438.643 309.068 438.26 308.512C437.886 307.956 437.572 307.35 437.316 306.693C437.07 306.037 436.883 305.349 436.756 304.629C436.637 303.909 436.574 303.18 436.564 302.441V299.666C436.574 298.928 436.637 298.199 436.756 297.479C436.883 296.758 437.07 296.07 437.316 295.414C437.572 294.758 437.886 294.152 438.26 293.596C438.643 293.031 439.094 292.543 439.613 292.133C440.142 291.723 440.739 291.404 441.404 291.176C442.07 290.939 442.817 290.82 443.646 290.82C444.64 290.82 445.529 290.975 446.312 291.285C447.096 291.586 447.771 292.019 448.336 292.584C448.901 293.14 449.352 293.81 449.689 294.594C450.036 295.378 450.264 296.243 450.373 297.191H447.844C447.762 296.59 447.62 296.029 447.42 295.51C447.219 294.99 446.951 294.535 446.613 294.143C446.276 293.751 445.861 293.445 445.369 293.227C444.886 292.999 444.312 292.885 443.646 292.885C443.045 292.885 442.512 292.985 442.047 293.186C441.591 293.377 441.195 293.641 440.857 293.979C440.529 294.316 440.251 294.708 440.023 295.154C439.805 295.601 439.627 296.075 439.49 296.576C439.354 297.077 439.253 297.592 439.189 298.121C439.135 298.641 439.107 299.146 439.107 299.639V302.441C439.107 302.934 439.135 303.444 439.189 303.973C439.253 304.492 439.354 305.007 439.49 305.518C439.627 306.019 439.805 306.493 440.023 306.939C440.242 307.386 440.52 307.783 440.857 308.129C441.195 308.466 441.591 308.735 442.047 308.936C442.503 309.127 443.036 309.223 443.646 309.223C444.312 309.223 444.886 309.118 445.369 308.908C445.861 308.699 446.276 308.407 446.613 308.033C446.951 307.65 447.219 307.204 447.42 306.693C447.62 306.174 447.762 305.613 447.844 305.012H450.373ZM454.693 290H462.254V308.812H467.08V311H454.693V308.812H459.725V292.201H454.693V290ZM471.51 296.207H479.07V308.812H483.896V311H471.51V308.812H476.541V298.408H471.51V296.207ZM476.213 292.324C476.213 291.905 476.336 291.554 476.582 291.271C476.837 290.98 477.22 290.834 477.73 290.834C478.232 290.834 478.61 290.98 478.865 291.271C479.12 291.554 479.248 291.905 479.248 292.324C479.248 292.734 479.12 293.076 478.865 293.35C478.61 293.623 478.232 293.76 477.73 293.76C477.22 293.76 476.837 293.623 476.582 293.35C476.336 293.076 476.213 292.734 476.213 292.324ZM494.465 311.273C493.426 311.273 492.469 311.096 491.594 310.74C490.728 310.385 489.985 309.888 489.365 309.25C488.745 308.612 488.262 307.855 487.916 306.98C487.57 306.105 487.396 305.153 487.396 304.123V303.549C487.396 302.355 487.588 301.288 487.971 300.35C488.354 299.402 488.859 298.604 489.488 297.957C490.126 297.301 490.846 296.799 491.648 296.453C492.46 296.107 493.289 295.934 494.137 295.934C495.203 295.934 496.133 296.12 496.926 296.494C497.728 296.859 498.393 297.369 498.922 298.025C499.451 298.673 499.842 299.438 500.098 300.322C500.362 301.206 500.494 302.163 500.494 303.193V304.328H489.926C489.953 305.003 490.081 305.636 490.309 306.229C490.546 306.821 490.865 307.34 491.266 307.787C491.676 308.225 492.163 308.571 492.729 308.826C493.294 309.081 493.918 309.209 494.602 309.209C495.504 309.209 496.306 309.027 497.008 308.662C497.71 308.298 498.293 307.814 498.758 307.213L500.303 308.416C500.057 308.79 499.747 309.15 499.373 309.496C499.008 309.833 498.585 310.134 498.102 310.398C497.618 310.663 497.072 310.872 496.461 311.027C495.85 311.191 495.185 311.273 494.465 311.273ZM494.137 298.012C493.626 298.012 493.143 298.107 492.688 298.299C492.232 298.481 491.822 298.755 491.457 299.119C491.092 299.475 490.783 299.917 490.527 300.445C490.281 300.965 490.108 301.566 490.008 302.25H497.965V302.059C497.938 301.566 497.842 301.079 497.678 300.596C497.523 300.113 497.29 299.68 496.98 299.297C496.671 298.914 496.279 298.604 495.805 298.367C495.34 298.13 494.784 298.012 494.137 298.012ZM507.016 296.207L507.193 298.395C507.731 297.629 508.392 297.032 509.176 296.604C509.96 296.166 510.835 295.943 511.801 295.934C512.576 295.934 513.277 296.043 513.906 296.262C514.544 296.48 515.087 296.822 515.533 297.287C515.98 297.752 516.322 298.344 516.559 299.064C516.805 299.775 516.928 300.623 516.928 301.607V311H514.398V301.662C514.398 301.006 514.326 300.45 514.18 299.994C514.034 299.538 513.815 299.169 513.523 298.887C513.241 298.604 512.89 298.399 512.471 298.271C512.061 298.144 511.587 298.08 511.049 298.08C510.201 298.08 509.454 298.294 508.807 298.723C508.169 299.142 507.658 299.698 507.275 300.391V311H504.746V296.207H507.016ZM527.551 292.625V296.207H533.184V298.162H527.551V306.201C527.551 306.775 527.624 307.249 527.77 307.623C527.915 307.997 528.116 308.298 528.371 308.525C528.626 308.744 528.918 308.899 529.246 308.99C529.583 309.081 529.939 309.127 530.312 309.127C530.586 309.127 530.868 309.113 531.16 309.086C531.452 309.049 531.734 309.008 532.008 308.963C532.29 308.917 532.55 308.872 532.787 308.826C533.033 308.771 533.234 308.726 533.389 308.689L533.744 310.48C533.535 310.608 533.279 310.722 532.979 310.822C532.678 310.913 532.35 310.991 531.994 311.055C531.639 311.128 531.26 311.182 530.859 311.219C530.467 311.255 530.076 311.273 529.684 311.273C529.027 311.273 528.412 311.182 527.838 311C527.273 310.809 526.781 310.512 526.361 310.111C525.942 309.701 525.609 309.177 525.363 308.539C525.126 307.892 525.008 307.113 525.008 306.201V298.162H521.125V296.207H525.008V292.625H527.551Z" fill="white"/>
<path d="M487.963 425H485.57V415.799H477.408V425H475.029V405.094H477.408V413.652H485.57V405.094H487.963V425ZM498.832 425.273C497.793 425.273 496.836 425.096 495.961 424.74C495.095 424.385 494.352 423.888 493.732 423.25C493.113 422.612 492.63 421.855 492.283 420.98C491.937 420.105 491.764 419.153 491.764 418.123V417.549C491.764 416.355 491.955 415.288 492.338 414.35C492.721 413.402 493.227 412.604 493.855 411.957C494.493 411.301 495.214 410.799 496.016 410.453C496.827 410.107 497.656 409.934 498.504 409.934C499.57 409.934 500.5 410.12 501.293 410.494C502.095 410.859 502.76 411.369 503.289 412.025C503.818 412.673 504.21 413.438 504.465 414.322C504.729 415.206 504.861 416.163 504.861 417.193V418.328H494.293C494.32 419.003 494.448 419.636 494.676 420.229C494.913 420.821 495.232 421.34 495.633 421.787C496.043 422.225 496.531 422.571 497.096 422.826C497.661 423.081 498.285 423.209 498.969 423.209C499.871 423.209 500.673 423.027 501.375 422.662C502.077 422.298 502.66 421.814 503.125 421.213L504.67 422.416C504.424 422.79 504.114 423.15 503.74 423.496C503.376 423.833 502.952 424.134 502.469 424.398C501.986 424.663 501.439 424.872 500.828 425.027C500.217 425.191 499.552 425.273 498.832 425.273ZM498.504 412.012C497.993 412.012 497.51 412.107 497.055 412.299C496.599 412.481 496.189 412.755 495.824 413.119C495.46 413.475 495.15 413.917 494.895 414.445C494.648 414.965 494.475 415.566 494.375 416.25H502.332V416.059C502.305 415.566 502.209 415.079 502.045 414.596C501.89 414.113 501.658 413.68 501.348 413.297C501.038 412.914 500.646 412.604 500.172 412.367C499.707 412.13 499.151 412.012 498.504 412.012ZM518.807 409.934C519.044 409.934 519.29 409.943 519.545 409.961C519.8 409.97 520.042 409.993 520.27 410.029C520.507 410.057 520.721 410.093 520.912 410.139C521.113 410.184 521.277 410.234 521.404 410.289L521.062 412.764C520.57 412.654 520.101 412.577 519.654 412.531C519.217 412.477 518.757 412.449 518.273 412.449C517.089 412.449 516.127 412.718 515.389 413.256C514.66 413.794 514.122 414.546 513.775 415.512V425H511.232V410.207H513.639L513.762 412.559C514.363 411.747 515.083 411.109 515.922 410.645C516.77 410.171 517.731 409.934 518.807 409.934ZM525.219 417.467C525.219 416.4 525.374 415.411 525.684 414.5C525.993 413.579 526.436 412.782 527.01 412.107C527.593 411.433 528.299 410.904 529.129 410.521C529.958 410.13 530.893 409.934 531.932 409.934C532.98 409.934 533.919 410.13 534.748 410.521C535.587 410.904 536.293 411.433 536.867 412.107C537.451 412.782 537.897 413.579 538.207 414.5C538.517 415.411 538.672 416.4 538.672 417.467V417.768C538.672 418.834 538.517 419.823 538.207 420.734C537.897 421.646 537.451 422.439 536.867 423.113C536.293 423.788 535.591 424.316 534.762 424.699C533.932 425.082 532.998 425.273 531.959 425.273C530.911 425.273 529.967 425.082 529.129 424.699C528.299 424.316 527.593 423.788 527.01 423.113C526.436 422.439 525.993 421.646 525.684 420.734C525.374 419.823 525.219 418.834 525.219 417.768V417.467ZM527.748 417.768C527.748 418.497 527.835 419.194 528.008 419.859C528.181 420.516 528.441 421.094 528.787 421.596C529.143 422.097 529.585 422.493 530.113 422.785C530.642 423.077 531.257 423.223 531.959 423.223C532.652 423.223 533.258 423.077 533.777 422.785C534.306 422.493 534.743 422.097 535.09 421.596C535.445 421.094 535.71 420.516 535.883 419.859C536.056 419.194 536.143 418.497 536.143 417.768V417.467C536.143 416.747 536.051 416.059 535.869 415.402C535.696 414.737 535.432 414.154 535.076 413.652C534.73 413.151 534.292 412.755 533.764 412.463C533.244 412.162 532.633 412.012 531.932 412.012C531.23 412.012 530.619 412.162 530.1 412.463C529.58 412.755 529.143 413.151 528.787 413.652C528.441 414.154 528.181 414.737 528.008 415.402C527.835 416.059 527.748 416.747 527.748 417.467V417.768ZM547.176 418.096L545.316 419.887V425H542.773V404H545.316V416.852L546.971 415.074L551.824 410.207H554.9L548.912 416.373L555.816 425H552.604L547.176 418.096ZM569.16 422.963C568.668 423.692 568.053 424.262 567.314 424.672C566.576 425.073 565.724 425.273 564.758 425.273C563.983 425.273 563.281 425.155 562.652 424.918C562.023 424.672 561.486 424.294 561.039 423.783C560.592 423.273 560.246 422.626 560 421.842C559.763 421.049 559.645 420.101 559.645 418.998V410.207H562.174V419.025C562.174 419.827 562.238 420.493 562.365 421.021C562.493 421.55 562.684 421.974 562.939 422.293C563.195 422.603 563.505 422.822 563.869 422.949C564.243 423.077 564.671 423.141 565.154 423.141C566.184 423.141 567.014 422.931 567.643 422.512C568.281 422.092 568.755 421.527 569.064 420.816V410.207H571.607V425H569.311L569.16 422.963Z" fill="white"/>
<path d="M881.453 236V216.094H887.373C888.193 216.103 888.995 216.212 889.779 216.422C890.563 216.622 891.26 216.937 891.871 217.365C892.482 217.794 892.969 218.34 893.334 219.006C893.699 219.671 893.876 220.469 893.867 221.398C893.858 221.918 893.771 222.392 893.607 222.82C893.452 223.249 893.234 223.636 892.951 223.982C892.678 224.32 892.354 224.616 891.98 224.871C891.607 225.126 891.21 225.345 890.791 225.527C891.32 225.682 891.803 225.906 892.24 226.197C892.687 226.48 893.07 226.826 893.389 227.236C893.708 227.637 893.954 228.093 894.127 228.604C894.309 229.114 894.4 229.665 894.4 230.258C894.41 231.188 894.232 232.008 893.867 232.719C893.503 233.43 893.015 234.027 892.404 234.51C891.794 234.984 891.087 235.348 890.285 235.604C889.492 235.859 888.672 235.991 887.824 236H881.453ZM883.996 226.689V233.854H887.893C888.421 233.844 888.923 233.758 889.396 233.594C889.87 233.421 890.29 233.184 890.654 232.883C891.019 232.582 891.306 232.213 891.516 231.775C891.734 231.338 891.844 230.841 891.844 230.285C891.853 229.72 891.757 229.219 891.557 228.781C891.365 228.344 891.096 227.975 890.75 227.674C890.404 227.364 889.998 227.127 889.533 226.963C889.068 226.799 888.567 226.708 888.029 226.689H883.996ZM883.996 224.584H887.523C887.997 224.575 888.462 224.502 888.918 224.365C889.374 224.219 889.779 224.014 890.135 223.75C890.49 223.477 890.777 223.144 890.996 222.752C891.215 222.36 891.324 221.904 891.324 221.385C891.324 220.829 891.215 220.355 890.996 219.963C890.786 219.571 890.499 219.252 890.135 219.006C889.779 218.751 889.365 218.564 888.891 218.445C888.426 218.327 887.947 218.263 887.455 218.254H883.996V224.584ZM908.018 236C907.917 235.809 907.835 235.572 907.771 235.289C907.717 234.997 907.676 234.697 907.648 234.387C907.393 234.642 907.106 234.883 906.787 235.111C906.477 235.339 906.131 235.54 905.748 235.713C905.374 235.886 904.973 236.023 904.545 236.123C904.117 236.223 903.661 236.273 903.178 236.273C902.394 236.273 901.683 236.16 901.045 235.932C900.416 235.704 899.878 235.398 899.432 235.016C898.994 234.624 898.652 234.163 898.406 233.635C898.169 233.097 898.051 232.518 898.051 231.898C898.051 231.087 898.21 230.376 898.529 229.766C898.857 229.155 899.318 228.649 899.91 228.248C900.503 227.838 901.214 227.533 902.043 227.332C902.882 227.132 903.816 227.031 904.846 227.031H907.607V225.869C907.607 225.423 907.525 225.021 907.361 224.666C907.197 224.311 906.965 224.01 906.664 223.764C906.363 223.508 905.994 223.312 905.557 223.176C905.128 223.039 904.645 222.971 904.107 222.971C903.606 222.971 903.155 223.035 902.754 223.162C902.362 223.29 902.029 223.458 901.756 223.668C901.482 223.878 901.268 224.128 901.113 224.42C900.967 224.702 900.895 224.999 900.895 225.309H898.352C898.361 224.771 898.497 224.242 898.762 223.723C899.035 223.203 899.423 222.738 899.924 222.328C900.434 221.909 901.049 221.572 901.77 221.316C902.499 221.061 903.324 220.934 904.244 220.934C905.083 220.934 905.862 221.038 906.582 221.248C907.302 221.449 907.922 221.758 908.441 222.178C908.97 222.588 909.385 223.103 909.686 223.723C909.986 224.342 910.137 225.067 910.137 225.896V232.773C910.137 233.266 910.182 233.79 910.273 234.346C910.365 234.893 910.492 235.371 910.656 235.781V236H908.018ZM903.547 234.072C904.039 234.072 904.499 234.008 904.928 233.881C905.356 233.753 905.743 233.585 906.09 233.375C906.445 233.165 906.751 232.928 907.006 232.664C907.261 232.391 907.462 232.108 907.607 231.816V228.822H905.256C903.779 228.822 902.631 229.041 901.811 229.479C900.99 229.916 900.58 230.604 900.58 231.543C900.58 231.908 900.639 232.245 900.758 232.555C900.885 232.865 901.072 233.133 901.318 233.361C901.564 233.58 901.874 233.753 902.248 233.881C902.622 234.008 903.055 234.072 903.547 234.072ZM924.943 232.076C924.943 231.775 924.884 231.507 924.766 231.27C924.647 231.023 924.447 230.8 924.164 230.6C923.882 230.399 923.508 230.217 923.043 230.053C922.578 229.88 921.999 229.725 921.307 229.588C920.459 229.415 919.684 229.205 918.982 228.959C918.29 228.713 917.693 228.421 917.191 228.084C916.699 227.738 916.316 227.337 916.043 226.881C915.77 226.416 915.633 225.878 915.633 225.268C915.633 224.666 915.774 224.105 916.057 223.586C916.339 223.057 916.736 222.597 917.246 222.205C917.757 221.813 918.363 221.503 919.064 221.275C919.775 221.048 920.555 220.934 921.402 220.934C922.314 220.934 923.134 221.052 923.863 221.289C924.592 221.526 925.212 221.854 925.723 222.273C926.233 222.693 926.625 223.185 926.898 223.75C927.181 224.306 927.322 224.908 927.322 225.555H924.793C924.793 225.236 924.711 224.926 924.547 224.625C924.383 224.315 924.155 224.042 923.863 223.805C923.572 223.568 923.216 223.376 922.797 223.23C922.387 223.085 921.922 223.012 921.402 223.012C920.865 223.012 920.391 223.071 919.98 223.189C919.579 223.308 919.242 223.467 918.969 223.668C918.704 223.868 918.504 224.101 918.367 224.365C918.23 224.63 918.162 224.903 918.162 225.186C918.162 225.477 918.217 225.737 918.326 225.965C918.436 226.193 918.622 226.398 918.887 226.58C919.16 226.762 919.52 226.926 919.967 227.072C920.423 227.218 920.997 227.359 921.689 227.496C922.601 227.688 923.417 227.911 924.137 228.166C924.857 228.412 925.463 228.713 925.955 229.068C926.447 229.415 926.821 229.82 927.076 230.285C927.34 230.75 927.473 231.288 927.473 231.898C927.473 232.555 927.322 233.152 927.021 233.689C926.73 234.227 926.32 234.688 925.791 235.07C925.262 235.453 924.629 235.749 923.891 235.959C923.152 236.169 922.346 236.273 921.471 236.273C920.468 236.273 919.575 236.141 918.791 235.877C918.007 235.604 917.342 235.248 916.795 234.811C916.257 234.364 915.842 233.849 915.551 233.266C915.268 232.682 915.127 232.076 915.127 231.447H917.656C917.693 231.967 917.829 232.404 918.066 232.76C918.312 233.115 918.613 233.402 918.969 233.621C919.333 233.84 919.734 233.995 920.172 234.086C920.609 234.177 921.042 234.223 921.471 234.223C922.537 234.223 923.38 234.027 924 233.635C924.62 233.243 924.934 232.723 924.943 232.076ZM936.359 229.096L934.5 230.887V236H931.957V215H934.5V227.852L936.154 226.074L941.008 221.207H944.084L938.096 227.373L945 236H941.787L936.359 229.096ZM955.281 236.273C954.242 236.273 953.285 236.096 952.41 235.74C951.544 235.385 950.801 234.888 950.182 234.25C949.562 233.612 949.079 232.855 948.732 231.98C948.386 231.105 948.213 230.153 948.213 229.123V228.549C948.213 227.355 948.404 226.288 948.787 225.35C949.17 224.402 949.676 223.604 950.305 222.957C950.943 222.301 951.663 221.799 952.465 221.453C953.276 221.107 954.105 220.934 954.953 220.934C956.02 220.934 956.949 221.12 957.742 221.494C958.544 221.859 959.21 222.369 959.738 223.025C960.267 223.673 960.659 224.438 960.914 225.322C961.178 226.206 961.311 227.163 961.311 228.193V229.328H950.742C950.77 230.003 950.897 230.636 951.125 231.229C951.362 231.821 951.681 232.34 952.082 232.787C952.492 233.225 952.98 233.571 953.545 233.826C954.11 234.081 954.734 234.209 955.418 234.209C956.32 234.209 957.122 234.027 957.824 233.662C958.526 233.298 959.109 232.814 959.574 232.213L961.119 233.416C960.873 233.79 960.563 234.15 960.189 234.496C959.825 234.833 959.401 235.134 958.918 235.398C958.435 235.663 957.888 235.872 957.277 236.027C956.667 236.191 956.001 236.273 955.281 236.273ZM954.953 223.012C954.443 223.012 953.96 223.107 953.504 223.299C953.048 223.481 952.638 223.755 952.273 224.119C951.909 224.475 951.599 224.917 951.344 225.445C951.098 225.965 950.924 226.566 950.824 227.25H958.781V227.059C958.754 226.566 958.658 226.079 958.494 225.596C958.339 225.113 958.107 224.68 957.797 224.297C957.487 223.914 957.095 223.604 956.621 223.367C956.156 223.13 955.6 223.012 954.953 223.012ZM971.551 217.625V221.207H977.184V223.162H971.551V231.201C971.551 231.775 971.624 232.249 971.77 232.623C971.915 232.997 972.116 233.298 972.371 233.525C972.626 233.744 972.918 233.899 973.246 233.99C973.583 234.081 973.939 234.127 974.312 234.127C974.586 234.127 974.868 234.113 975.16 234.086C975.452 234.049 975.734 234.008 976.008 233.963C976.29 233.917 976.55 233.872 976.787 233.826C977.033 233.771 977.234 233.726 977.389 233.689L977.744 235.48C977.535 235.608 977.279 235.722 976.979 235.822C976.678 235.913 976.35 235.991 975.994 236.055C975.639 236.128 975.26 236.182 974.859 236.219C974.467 236.255 974.076 236.273 973.684 236.273C973.027 236.273 972.412 236.182 971.838 236C971.273 235.809 970.781 235.512 970.361 235.111C969.942 234.701 969.609 234.177 969.363 233.539C969.126 232.892 969.008 232.113 969.008 231.201V223.162H965.125V221.207H969.008V217.625H971.551Z" fill="white"/>
<path d="M87.2773 170.938L90.0547 179.469L93.0547 170.938H95.75V188H93.6406V181.191L93.8164 174.066L90.6641 183.254H89.4219L86.5273 174.312L86.7031 181.191V188H84.5938V170.938H87.2773ZM103.977 183.5L104.539 185.035L108.406 175.32H110.832L104.398 189.957C104.25 190.285 104.059 190.633 103.824 191C103.598 191.367 103.32 191.707 102.992 192.02C102.664 192.332 102.281 192.594 101.844 192.805C101.406 193.016 100.902 193.121 100.332 193.121C100.23 193.121 100.117 193.113 99.9922 193.098C99.8672 193.09 99.7422 193.074 99.6172 193.051C99.4922 193.035 99.375 193.016 99.2656 192.992C99.1562 192.969 99.0664 192.949 98.9961 192.934L99.3477 191.164C99.4023 191.164 99.4766 191.168 99.5703 191.176C99.6641 191.184 99.7617 191.191 99.8633 191.199C99.9648 191.207 100.062 191.211 100.156 191.211C100.25 191.219 100.324 191.223 100.379 191.223C100.676 191.223 100.945 191.141 101.188 190.977C101.438 190.812 101.656 190.617 101.844 190.391C102.039 190.164 102.203 189.93 102.336 189.688C102.477 189.445 102.586 189.246 102.664 189.09L103.531 187.402L98.0703 175.32H100.496L103.977 183.5ZM136.285 183.582H130.59L129.219 188H127.051L132.559 170.938H134.375L139.789 188H137.633L136.285 183.582ZM131.176 181.695H135.711L133.461 174.289L131.176 181.695ZM147.957 186.477C148.348 186.477 148.727 186.414 149.094 186.289C149.469 186.164 149.801 185.992 150.09 185.773C150.379 185.547 150.609 185.285 150.781 184.988C150.961 184.684 151.055 184.355 151.062 184.004H153.113C153.105 184.566 152.957 185.105 152.668 185.621C152.387 186.129 152.008 186.578 151.531 186.969C151.055 187.352 150.508 187.66 149.891 187.895C149.273 188.121 148.629 188.234 147.957 188.234C146.996 188.234 146.156 188.062 145.438 187.719C144.719 187.375 144.117 186.914 143.633 186.336C143.156 185.75 142.797 185.078 142.555 184.32C142.312 183.555 142.191 182.75 142.191 181.906V181.414C142.191 180.578 142.312 179.777 142.555 179.012C142.797 178.246 143.156 177.574 143.633 176.996C144.117 176.41 144.719 175.945 145.438 175.602C146.156 175.258 146.996 175.086 147.957 175.086C148.707 175.086 149.395 175.207 150.02 175.449C150.652 175.684 151.195 176.008 151.648 176.422C152.109 176.828 152.469 177.312 152.727 177.875C152.984 178.438 153.113 179.039 153.113 179.68H151.062C151.055 179.297 150.969 178.938 150.805 178.602C150.648 178.258 150.434 177.957 150.16 177.699C149.887 177.441 149.559 177.238 149.176 177.09C148.801 176.941 148.395 176.867 147.957 176.867C147.285 176.867 146.719 177.004 146.258 177.277C145.805 177.543 145.438 177.895 145.156 178.332C144.875 178.762 144.672 179.246 144.547 179.785C144.43 180.324 144.371 180.867 144.371 181.414V181.906C144.371 182.461 144.43 183.012 144.547 183.559C144.672 184.098 144.871 184.586 145.145 185.023C145.426 185.453 145.793 185.805 146.246 186.078C146.707 186.344 147.277 186.477 147.957 186.477ZM162.371 186.477C162.762 186.477 163.141 186.414 163.508 186.289C163.883 186.164 164.215 185.992 164.504 185.773C164.793 185.547 165.023 185.285 165.195 184.988C165.375 184.684 165.469 184.355 165.477 184.004H167.527C167.52 184.566 167.371 185.105 167.082 185.621C166.801 186.129 166.422 186.578 165.945 186.969C165.469 187.352 164.922 187.66 164.305 187.895C163.688 188.121 163.043 188.234 162.371 188.234C161.41 188.234 160.57 188.062 159.852 187.719C159.133 187.375 158.531 186.914 158.047 186.336C157.57 185.75 157.211 185.078 156.969 184.32C156.727 183.555 156.605 182.75 156.605 181.906V181.414C156.605 180.578 156.727 179.777 156.969 179.012C157.211 178.246 157.57 177.574 158.047 176.996C158.531 176.41 159.133 175.945 159.852 175.602C160.57 175.258 161.41 175.086 162.371 175.086C163.121 175.086 163.809 175.207 164.434 175.449C165.066 175.684 165.609 176.008 166.062 176.422C166.523 176.828 166.883 177.312 167.141 177.875C167.398 178.438 167.527 179.039 167.527 179.68H165.477C165.469 179.297 165.383 178.938 165.219 178.602C165.062 178.258 164.848 177.957 164.574 177.699C164.301 177.441 163.973 177.238 163.59 177.09C163.215 176.941 162.809 176.867 162.371 176.867C161.699 176.867 161.133 177.004 160.672 177.277C160.219 177.543 159.852 177.895 159.57 178.332C159.289 178.762 159.086 179.246 158.961 179.785C158.844 180.324 158.785 180.867 158.785 181.414V181.906C158.785 182.461 158.844 183.012 158.961 183.559C159.086 184.098 159.285 184.586 159.559 185.023C159.84 185.453 160.207 185.805 160.66 186.078C161.121 186.344 161.691 186.477 162.371 186.477ZM170.773 181.543C170.773 180.629 170.906 179.781 171.172 179C171.438 178.211 171.816 177.527 172.309 176.949C172.809 176.371 173.414 175.918 174.125 175.59C174.836 175.254 175.637 175.086 176.527 175.086C177.426 175.086 178.23 175.254 178.941 175.59C179.66 175.918 180.266 176.371 180.758 176.949C181.258 177.527 181.641 178.211 181.906 179C182.172 179.781 182.305 180.629 182.305 181.543V181.801C182.305 182.715 182.172 183.562 181.906 184.344C181.641 185.125 181.258 185.805 180.758 186.383C180.266 186.961 179.664 187.414 178.953 187.742C178.242 188.07 177.441 188.234 176.551 188.234C175.652 188.234 174.844 188.07 174.125 187.742C173.414 187.414 172.809 186.961 172.309 186.383C171.816 185.805 171.438 185.125 171.172 184.344C170.906 183.562 170.773 182.715 170.773 181.801V181.543ZM172.941 181.801C172.941 182.426 173.016 183.023 173.164 183.594C173.312 184.156 173.535 184.652 173.832 185.082C174.137 185.512 174.516 185.852 174.969 186.102C175.422 186.352 175.949 186.477 176.551 186.477C177.145 186.477 177.664 186.352 178.109 186.102C178.562 185.852 178.938 185.512 179.234 185.082C179.539 184.652 179.766 184.156 179.914 183.594C180.062 183.023 180.137 182.426 180.137 181.801V181.543C180.137 180.926 180.059 180.336 179.902 179.773C179.754 179.203 179.527 178.703 179.223 178.273C178.926 177.844 178.551 177.504 178.098 177.254C177.652 176.996 177.129 176.867 176.527 176.867C175.926 176.867 175.402 176.996 174.957 177.254C174.512 177.504 174.137 177.844 173.832 178.273C173.535 178.703 173.312 179.203 173.164 179.773C173.016 180.336 172.941 180.926 172.941 181.543V181.801ZM194.023 186.254C193.602 186.879 193.074 187.367 192.441 187.719C191.809 188.062 191.078 188.234 190.25 188.234C189.586 188.234 188.984 188.133 188.445 187.93C187.906 187.719 187.445 187.395 187.062 186.957C186.68 186.52 186.383 185.965 186.172 185.293C185.969 184.613 185.867 183.801 185.867 182.855V175.32H188.035V182.879C188.035 183.566 188.09 184.137 188.199 184.59C188.309 185.043 188.473 185.406 188.691 185.68C188.91 185.945 189.176 186.133 189.488 186.242C189.809 186.352 190.176 186.406 190.59 186.406C191.473 186.406 192.184 186.227 192.723 185.867C193.27 185.508 193.676 185.023 193.941 184.414V175.32H196.121V188H194.152L194.023 186.254ZM202.156 175.32L202.309 177.195C202.77 176.539 203.336 176.027 204.008 175.66C204.68 175.285 205.43 175.094 206.258 175.086C206.922 175.086 207.523 175.18 208.062 175.367C208.609 175.555 209.074 175.848 209.457 176.246C209.84 176.645 210.133 177.152 210.336 177.77C210.547 178.379 210.652 179.105 210.652 179.949V188H208.484V179.996C208.484 179.434 208.422 178.957 208.297 178.566C208.172 178.176 207.984 177.859 207.734 177.617C207.492 177.375 207.191 177.199 206.832 177.09C206.48 176.98 206.074 176.926 205.613 176.926C204.887 176.926 204.246 177.109 203.691 177.477C203.145 177.836 202.707 178.312 202.379 178.906V188H200.211V175.32H202.156ZM219.758 172.25V175.32H224.586V176.996H219.758V183.887C219.758 184.379 219.82 184.785 219.945 185.105C220.07 185.426 220.242 185.684 220.461 185.879C220.68 186.066 220.93 186.199 221.211 186.277C221.5 186.355 221.805 186.395 222.125 186.395C222.359 186.395 222.602 186.383 222.852 186.359C223.102 186.328 223.344 186.293 223.578 186.254C223.82 186.215 224.043 186.176 224.246 186.137C224.457 186.09 224.629 186.051 224.762 186.02L225.066 187.555C224.887 187.664 224.668 187.762 224.41 187.848C224.152 187.926 223.871 187.992 223.566 188.047C223.262 188.109 222.938 188.156 222.594 188.188C222.258 188.219 221.922 188.234 221.586 188.234C221.023 188.234 220.496 188.156 220.004 188C219.52 187.836 219.098 187.582 218.738 187.238C218.379 186.887 218.094 186.438 217.883 185.891C217.68 185.336 217.578 184.668 217.578 183.887V176.996H214.25V175.32H217.578V172.25H219.758Z" fill="white"/>
<path d="M335.879 182.867C335.777 183.656 335.574 184.383 335.27 185.047C334.965 185.703 334.566 186.27 334.074 186.746C333.59 187.215 333.012 187.582 332.34 187.848C331.676 188.105 330.934 188.234 330.113 188.234C329.41 188.234 328.77 188.137 328.191 187.941C327.621 187.738 327.109 187.461 326.656 187.109C326.211 186.758 325.824 186.344 325.496 185.867C325.176 185.391 324.906 184.871 324.688 184.309C324.477 183.746 324.316 183.156 324.207 182.539C324.105 181.922 324.051 181.297 324.043 180.664V178.285C324.051 177.652 324.105 177.027 324.207 176.41C324.316 175.793 324.477 175.203 324.688 174.641C324.906 174.078 325.176 173.559 325.496 173.082C325.824 172.598 326.211 172.18 326.656 171.828C327.109 171.477 327.621 171.203 328.191 171.008C328.762 170.805 329.402 170.703 330.113 170.703C330.965 170.703 331.727 170.836 332.398 171.102C333.07 171.359 333.648 171.73 334.133 172.215C334.617 172.691 335.004 173.266 335.293 173.938C335.59 174.609 335.785 175.352 335.879 176.164H333.711C333.641 175.648 333.52 175.168 333.348 174.723C333.176 174.277 332.945 173.887 332.656 173.551C332.367 173.215 332.012 172.953 331.59 172.766C331.176 172.57 330.684 172.473 330.113 172.473C329.598 172.473 329.141 172.559 328.742 172.73C328.352 172.895 328.012 173.121 327.723 173.41C327.441 173.699 327.203 174.035 327.008 174.418C326.82 174.801 326.668 175.207 326.551 175.637C326.434 176.066 326.348 176.508 326.293 176.961C326.246 177.406 326.223 177.84 326.223 178.262V180.664C326.223 181.086 326.246 181.523 326.293 181.977C326.348 182.422 326.434 182.863 326.551 183.301C326.668 183.73 326.82 184.137 327.008 184.52C327.195 184.902 327.434 185.242 327.723 185.539C328.012 185.828 328.352 186.059 328.742 186.23C329.133 186.395 329.59 186.477 330.113 186.477C330.684 186.477 331.176 186.387 331.59 186.207C332.012 186.027 332.367 185.777 332.656 185.457C332.945 185.129 333.176 184.746 333.348 184.309C333.52 183.863 333.641 183.383 333.711 182.867H335.879ZM338.633 181.543C338.633 180.629 338.766 179.781 339.031 179C339.297 178.211 339.676 177.527 340.168 176.949C340.668 176.371 341.273 175.918 341.984 175.59C342.695 175.254 343.496 175.086 344.387 175.086C345.285 175.086 346.09 175.254 346.801 175.59C347.52 175.918 348.125 176.371 348.617 176.949C349.117 177.527 349.5 178.211 349.766 179C350.031 179.781 350.164 180.629 350.164 181.543V181.801C350.164 182.715 350.031 183.562 349.766 184.344C349.5 185.125 349.117 185.805 348.617 186.383C348.125 186.961 347.523 187.414 346.812 187.742C346.102 188.07 345.301 188.234 344.41 188.234C343.512 188.234 342.703 188.07 341.984 187.742C341.273 187.414 340.668 186.961 340.168 186.383C339.676 185.805 339.297 185.125 339.031 184.344C338.766 183.562 338.633 182.715 338.633 181.801V181.543ZM340.801 181.801C340.801 182.426 340.875 183.023 341.023 183.594C341.172 184.156 341.395 184.652 341.691 185.082C341.996 185.512 342.375 185.852 342.828 186.102C343.281 186.352 343.809 186.477 344.41 186.477C345.004 186.477 345.523 186.352 345.969 186.102C346.422 185.852 346.797 185.512 347.094 185.082C347.398 184.652 347.625 184.156 347.773 183.594C347.922 183.023 347.996 182.426 347.996 181.801V181.543C347.996 180.926 347.918 180.336 347.762 179.773C347.613 179.203 347.387 178.703 347.082 178.273C346.785 177.844 346.41 177.504 345.957 177.254C345.512 176.996 344.988 176.867 344.387 176.867C343.785 176.867 343.262 176.996 342.816 177.254C342.371 177.504 341.996 177.844 341.691 178.273C341.395 178.703 341.172 179.203 341.023 179.773C340.875 180.336 340.801 180.926 340.801 181.543V181.801ZM359.059 186.477C359.449 186.477 359.828 186.414 360.195 186.289C360.57 186.164 360.902 185.992 361.191 185.773C361.48 185.547 361.711 185.285 361.883 184.988C362.062 184.684 362.156 184.355 362.164 184.004H364.215C364.207 184.566 364.059 185.105 363.77 185.621C363.488 186.129 363.109 186.578 362.633 186.969C362.156 187.352 361.609 187.66 360.992 187.895C360.375 188.121 359.73 188.234 359.059 188.234C358.098 188.234 357.258 188.062 356.539 187.719C355.82 187.375 355.219 186.914 354.734 186.336C354.258 185.75 353.898 185.078 353.656 184.32C353.414 183.555 353.293 182.75 353.293 181.906V181.414C353.293 180.578 353.414 179.777 353.656 179.012C353.898 178.246 354.258 177.574 354.734 176.996C355.219 176.41 355.82 175.945 356.539 175.602C357.258 175.258 358.098 175.086 359.059 175.086C359.809 175.086 360.496 175.207 361.121 175.449C361.754 175.684 362.297 176.008 362.75 176.422C363.211 176.828 363.57 177.312 363.828 177.875C364.086 178.438 364.215 179.039 364.215 179.68H362.164C362.156 179.297 362.07 178.938 361.906 178.602C361.75 178.258 361.535 177.957 361.262 177.699C360.988 177.441 360.66 177.238 360.277 177.09C359.902 176.941 359.496 176.867 359.059 176.867C358.387 176.867 357.82 177.004 357.359 177.277C356.906 177.543 356.539 177.895 356.258 178.332C355.977 178.762 355.773 179.246 355.648 179.785C355.531 180.324 355.473 180.867 355.473 181.414V181.906C355.473 182.461 355.531 183.012 355.648 183.559C355.773 184.098 355.973 184.586 356.246 185.023C356.527 185.453 356.895 185.805 357.348 186.078C357.809 186.344 358.379 186.477 359.059 186.477ZM371.867 182.082L370.273 183.617V188H368.094V170H370.273V181.016L371.691 179.492L375.852 175.32H378.488L373.355 180.605L379.273 188H376.52L371.867 182.082ZM387.617 172.25V175.32H392.445V176.996H387.617V183.887C387.617 184.379 387.68 184.785 387.805 185.105C387.93 185.426 388.102 185.684 388.32 185.879C388.539 186.066 388.789 186.199 389.07 186.277C389.359 186.355 389.664 186.395 389.984 186.395C390.219 186.395 390.461 186.383 390.711 186.359C390.961 186.328 391.203 186.293 391.438 186.254C391.68 186.215 391.902 186.176 392.105 186.137C392.316 186.09 392.488 186.051 392.621 186.02L392.926 187.555C392.746 187.664 392.527 187.762 392.27 187.848C392.012 187.926 391.73 187.992 391.426 188.047C391.121 188.109 390.797 188.156 390.453 188.188C390.117 188.219 389.781 188.234 389.445 188.234C388.883 188.234 388.355 188.156 387.863 188C387.379 187.836 386.957 187.582 386.598 187.238C386.238 186.887 385.953 186.438 385.742 185.891C385.539 185.336 385.438 184.668 385.438 183.887V176.996H382.109V175.32H385.438V172.25H387.617ZM405.23 188C405.145 187.836 405.074 187.633 405.02 187.391C404.973 187.141 404.938 186.883 404.914 186.617C404.695 186.836 404.449 187.043 404.176 187.238C403.91 187.434 403.613 187.605 403.285 187.754C402.965 187.902 402.621 188.02 402.254 188.105C401.887 188.191 401.496 188.234 401.082 188.234C400.41 188.234 399.801 188.137 399.254 187.941C398.715 187.746 398.254 187.484 397.871 187.156C397.496 186.82 397.203 186.426 396.992 185.973C396.789 185.512 396.688 185.016 396.688 184.484C396.688 183.789 396.824 183.18 397.098 182.656C397.379 182.133 397.773 181.699 398.281 181.355C398.789 181.004 399.398 180.742 400.109 180.57C400.828 180.398 401.629 180.312 402.512 180.312H404.879V179.316C404.879 178.934 404.809 178.59 404.668 178.285C404.527 177.98 404.328 177.723 404.07 177.512C403.812 177.293 403.496 177.125 403.121 177.008C402.754 176.891 402.34 176.832 401.879 176.832C401.449 176.832 401.062 176.887 400.719 176.996C400.383 177.105 400.098 177.25 399.863 177.43C399.629 177.609 399.445 177.824 399.312 178.074C399.188 178.316 399.125 178.57 399.125 178.836H396.945C396.953 178.375 397.07 177.922 397.297 177.477C397.531 177.031 397.863 176.633 398.293 176.281C398.73 175.922 399.258 175.633 399.875 175.414C400.5 175.195 401.207 175.086 401.996 175.086C402.715 175.086 403.383 175.176 404 175.355C404.617 175.527 405.148 175.793 405.594 176.152C406.047 176.504 406.402 176.945 406.66 177.477C406.918 178.008 407.047 178.629 407.047 179.34V185.234C407.047 185.656 407.086 186.105 407.164 186.582C407.242 187.051 407.352 187.461 407.492 187.812V188H405.23ZM401.398 186.348C401.82 186.348 402.215 186.293 402.582 186.184C402.949 186.074 403.281 185.93 403.578 185.75C403.883 185.57 404.145 185.367 404.363 185.141C404.582 184.906 404.754 184.664 404.879 184.414V181.848H402.863C401.598 181.848 400.613 182.035 399.91 182.41C399.207 182.785 398.855 183.375 398.855 184.18C398.855 184.492 398.906 184.781 399.008 185.047C399.117 185.312 399.277 185.543 399.488 185.738C399.699 185.926 399.965 186.074 400.285 186.184C400.605 186.293 400.977 186.348 401.398 186.348ZM411.652 175.32H418.133V186.125H422.27V188H411.652V186.125H415.965V177.207H411.652V175.32ZM415.684 171.992C415.684 171.633 415.789 171.332 416 171.09C416.219 170.84 416.547 170.715 416.984 170.715C417.414 170.715 417.738 170.84 417.957 171.09C418.176 171.332 418.285 171.633 418.285 171.992C418.285 172.344 418.176 172.637 417.957 172.871C417.738 173.105 417.414 173.223 416.984 173.223C416.547 173.223 416.219 173.105 416 172.871C415.789 172.637 415.684 172.344 415.684 171.992ZM426.066 170H432.547V186.125H436.684V188H426.066V186.125H430.379V171.887H426.066V170ZM463.016 183.383L464.316 170.938H466.367L464.293 188H462.078L459.887 175.145L457.672 188H455.445L453.371 170.938H455.434L456.734 183.383L458.926 170.938H460.812L463.016 183.383ZM469.309 175.32H475.789V186.125H479.926V188H469.309V186.125H473.621V177.207H469.309V175.32ZM473.34 171.992C473.34 171.633 473.445 171.332 473.656 171.09C473.875 170.84 474.203 170.715 474.641 170.715C475.07 170.715 475.395 170.84 475.613 171.09C475.832 171.332 475.941 171.633 475.941 171.992C475.941 172.344 475.832 172.637 475.613 172.871C475.395 173.105 475.07 173.223 474.641 173.223C474.203 173.223 473.875 173.105 473.656 172.871C473.445 172.637 473.34 172.344 473.34 171.992ZM485.984 186.23H494.059V188H483.219V186.406L490.789 177.113H483.324V175.32H493.637V176.855L485.984 186.23ZM506.129 188C506.043 187.836 505.973 187.633 505.918 187.391C505.871 187.141 505.836 186.883 505.812 186.617C505.594 186.836 505.348 187.043 505.074 187.238C504.809 187.434 504.512 187.605 504.184 187.754C503.863 187.902 503.52 188.02 503.152 188.105C502.785 188.191 502.395 188.234 501.98 188.234C501.309 188.234 500.699 188.137 500.152 187.941C499.613 187.746 499.152 187.484 498.77 187.156C498.395 186.82 498.102 186.426 497.891 185.973C497.688 185.512 497.586 185.016 497.586 184.484C497.586 183.789 497.723 183.18 497.996 182.656C498.277 182.133 498.672 181.699 499.18 181.355C499.688 181.004 500.297 180.742 501.008 180.57C501.727 180.398 502.527 180.312 503.41 180.312H505.777V179.316C505.777 178.934 505.707 178.59 505.566 178.285C505.426 177.98 505.227 177.723 504.969 177.512C504.711 177.293 504.395 177.125 504.02 177.008C503.652 176.891 503.238 176.832 502.777 176.832C502.348 176.832 501.961 176.887 501.617 176.996C501.281 177.105 500.996 177.25 500.762 177.43C500.527 177.609 500.344 177.824 500.211 178.074C500.086 178.316 500.023 178.57 500.023 178.836H497.844C497.852 178.375 497.969 177.922 498.195 177.477C498.43 177.031 498.762 176.633 499.191 176.281C499.629 175.922 500.156 175.633 500.773 175.414C501.398 175.195 502.105 175.086 502.895 175.086C503.613 175.086 504.281 175.176 504.898 175.355C505.516 175.527 506.047 175.793 506.492 176.152C506.945 176.504 507.301 176.945 507.559 177.477C507.816 178.008 507.945 178.629 507.945 179.34V185.234C507.945 185.656 507.984 186.105 508.062 186.582C508.141 187.051 508.25 187.461 508.391 187.812V188H506.129ZM502.297 186.348C502.719 186.348 503.113 186.293 503.48 186.184C503.848 186.074 504.18 185.93 504.477 185.75C504.781 185.57 505.043 185.367 505.262 185.141C505.48 184.906 505.652 184.664 505.777 184.414V181.848H503.762C502.496 181.848 501.512 182.035 500.809 182.41C500.105 182.785 499.754 183.375 499.754 184.18C499.754 184.492 499.805 184.781 499.906 185.047C500.016 185.312 500.176 185.543 500.387 185.738C500.598 185.926 500.863 186.074 501.184 186.184C501.504 186.293 501.875 186.348 502.297 186.348ZM520.52 175.086C520.723 175.086 520.934 175.094 521.152 175.109C521.371 175.117 521.578 175.137 521.773 175.168C521.977 175.191 522.16 175.223 522.324 175.262C522.496 175.301 522.637 175.344 522.746 175.391L522.453 177.512C522.031 177.418 521.629 177.352 521.246 177.312C520.871 177.266 520.477 177.242 520.062 177.242C519.047 177.242 518.223 177.473 517.59 177.934C516.965 178.395 516.504 179.039 516.207 179.867V188H514.027V175.32H516.09L516.195 177.336C516.711 176.641 517.328 176.094 518.047 175.695C518.773 175.289 519.598 175.086 520.52 175.086ZM526.215 181.555C526.215 180.609 526.332 179.742 526.566 178.953C526.809 178.156 527.148 177.473 527.586 176.902C528.031 176.332 528.566 175.887 529.191 175.566C529.816 175.246 530.516 175.086 531.289 175.086C532.047 175.086 532.707 175.215 533.27 175.473C533.84 175.723 534.332 176.09 534.746 176.574V170H536.914V188H534.922L534.828 186.664C534.406 187.18 533.902 187.57 533.316 187.836C532.73 188.102 532.047 188.234 531.266 188.234C530.5 188.234 529.805 188.07 529.18 187.742C528.562 187.414 528.035 186.961 527.598 186.383C527.16 185.805 526.82 185.125 526.578 184.344C526.336 183.555 526.215 182.707 526.215 181.801V181.555ZM528.383 181.801C528.383 182.418 528.449 183.004 528.582 183.559C528.715 184.113 528.918 184.602 529.191 185.023C529.473 185.445 529.828 185.781 530.258 186.031C530.688 186.273 531.203 186.395 531.805 186.395C532.172 186.395 532.504 186.352 532.801 186.266C533.098 186.18 533.367 186.059 533.609 185.902C533.852 185.738 534.066 185.547 534.254 185.328C534.441 185.102 534.605 184.852 534.746 184.578V178.695C534.465 178.18 534.086 177.758 533.609 177.43C533.133 177.094 532.539 176.926 531.828 176.926C531.219 176.926 530.695 177.051 530.258 177.301C529.828 177.551 529.473 177.891 529.191 178.32C528.918 178.742 528.715 179.234 528.582 179.797C528.449 180.352 528.383 180.938 528.383 181.555V181.801Z" fill="white"/>
<path d="M610.879 182.867C610.777 183.656 610.574 184.383 610.27 185.047C609.965 185.703 609.566 186.27 609.074 186.746C608.59 187.215 608.012 187.582 607.34 187.848C606.676 188.105 605.934 188.234 605.113 188.234C604.41 188.234 603.77 188.137 603.191 187.941C602.621 187.738 602.109 187.461 601.656 187.109C601.211 186.758 600.824 186.344 600.496 185.867C600.176 185.391 599.906 184.871 599.688 184.309C599.477 183.746 599.316 183.156 599.207 182.539C599.105 181.922 599.051 181.297 599.043 180.664V178.285C599.051 177.652 599.105 177.027 599.207 176.41C599.316 175.793 599.477 175.203 599.688 174.641C599.906 174.078 600.176 173.559 600.496 173.082C600.824 172.598 601.211 172.18 601.656 171.828C602.109 171.477 602.621 171.203 603.191 171.008C603.762 170.805 604.402 170.703 605.113 170.703C605.965 170.703 606.727 170.836 607.398 171.102C608.07 171.359 608.648 171.73 609.133 172.215C609.617 172.691 610.004 173.266 610.293 173.938C610.59 174.609 610.785 175.352 610.879 176.164H608.711C608.641 175.648 608.52 175.168 608.348 174.723C608.176 174.277 607.945 173.887 607.656 173.551C607.367 173.215 607.012 172.953 606.59 172.766C606.176 172.57 605.684 172.473 605.113 172.473C604.598 172.473 604.141 172.559 603.742 172.73C603.352 172.895 603.012 173.121 602.723 173.41C602.441 173.699 602.203 174.035 602.008 174.418C601.82 174.801 601.668 175.207 601.551 175.637C601.434 176.066 601.348 176.508 601.293 176.961C601.246 177.406 601.223 177.84 601.223 178.262V180.664C601.223 181.086 601.246 181.523 601.293 181.977C601.348 182.422 601.434 182.863 601.551 183.301C601.668 183.73 601.82 184.137 602.008 184.52C602.195 184.902 602.434 185.242 602.723 185.539C603.012 185.828 603.352 186.059 603.742 186.23C604.133 186.395 604.59 186.477 605.113 186.477C605.684 186.477 606.176 186.387 606.59 186.207C607.012 186.027 607.367 185.777 607.656 185.457C607.945 185.129 608.176 184.746 608.348 184.309C608.52 183.863 608.641 183.383 608.711 182.867H610.879ZM616.41 177.207C616.863 176.543 617.422 176.027 618.086 175.66C618.75 175.285 619.496 175.094 620.324 175.086C620.988 175.086 621.59 175.184 622.129 175.379C622.676 175.566 623.141 175.863 623.523 176.27C623.906 176.676 624.199 177.191 624.402 177.816C624.613 178.434 624.719 179.168 624.719 180.02V188H622.551V179.996C622.551 178.957 622.301 178.184 621.801 177.676C621.309 177.168 620.602 176.918 619.68 176.926C618.984 176.926 618.352 177.098 617.781 177.441C617.219 177.777 616.762 178.227 616.41 178.789V188H614.242V170H616.41V177.207ZM634.258 188.234C633.367 188.234 632.547 188.082 631.797 187.777C631.055 187.473 630.418 187.047 629.887 186.5C629.355 185.953 628.941 185.305 628.645 184.555C628.348 183.805 628.199 182.988 628.199 182.105V181.613C628.199 180.59 628.363 179.676 628.691 178.871C629.02 178.059 629.453 177.375 629.992 176.82C630.539 176.258 631.156 175.828 631.844 175.531C632.539 175.234 633.25 175.086 633.977 175.086C634.891 175.086 635.688 175.246 636.367 175.566C637.055 175.879 637.625 176.316 638.078 176.879C638.531 177.434 638.867 178.09 639.086 178.848C639.312 179.605 639.426 180.426 639.426 181.309V182.281H630.367C630.391 182.859 630.5 183.402 630.695 183.91C630.898 184.418 631.172 184.863 631.516 185.246C631.867 185.621 632.285 185.918 632.77 186.137C633.254 186.355 633.789 186.465 634.375 186.465C635.148 186.465 635.836 186.309 636.438 185.996C637.039 185.684 637.539 185.27 637.938 184.754L639.262 185.785C639.051 186.105 638.785 186.414 638.465 186.711C638.152 187 637.789 187.258 637.375 187.484C636.961 187.711 636.492 187.891 635.969 188.023C635.445 188.164 634.875 188.234 634.258 188.234ZM633.977 176.867C633.539 176.867 633.125 176.949 632.734 177.113C632.344 177.27 631.992 177.504 631.68 177.816C631.367 178.121 631.102 178.5 630.883 178.953C630.672 179.398 630.523 179.914 630.438 180.5H637.258V180.336C637.234 179.914 637.152 179.496 637.012 179.082C636.879 178.668 636.68 178.297 636.414 177.969C636.148 177.641 635.812 177.375 635.406 177.172C635.008 176.969 634.531 176.867 633.977 176.867ZM648.473 186.477C648.863 186.477 649.242 186.414 649.609 186.289C649.984 186.164 650.316 185.992 650.605 185.773C650.895 185.547 651.125 185.285 651.297 184.988C651.477 184.684 651.57 184.355 651.578 184.004H653.629C653.621 184.566 653.473 185.105 653.184 185.621C652.902 186.129 652.523 186.578 652.047 186.969C651.57 187.352 651.023 187.66 650.406 187.895C649.789 188.121 649.145 188.234 648.473 188.234C647.512 188.234 646.672 188.062 645.953 187.719C645.234 187.375 644.633 186.914 644.148 186.336C643.672 185.75 643.312 185.078 643.07 184.32C642.828 183.555 642.707 182.75 642.707 181.906V181.414C642.707 180.578 642.828 179.777 643.07 179.012C643.312 178.246 643.672 177.574 644.148 176.996C644.633 176.41 645.234 175.945 645.953 175.602C646.672 175.258 647.512 175.086 648.473 175.086C649.223 175.086 649.91 175.207 650.535 175.449C651.168 175.684 651.711 176.008 652.164 176.422C652.625 176.828 652.984 177.312 653.242 177.875C653.5 178.438 653.629 179.039 653.629 179.68H651.578C651.57 179.297 651.484 178.938 651.32 178.602C651.164 178.258 650.949 177.957 650.676 177.699C650.402 177.441 650.074 177.238 649.691 177.09C649.316 176.941 648.91 176.867 648.473 176.867C647.801 176.867 647.234 177.004 646.773 177.277C646.32 177.543 645.953 177.895 645.672 178.332C645.391 178.762 645.188 179.246 645.062 179.785C644.945 180.324 644.887 180.867 644.887 181.414V181.906C644.887 182.461 644.945 183.012 645.062 183.559C645.188 184.098 645.387 184.586 645.66 185.023C645.941 185.453 646.309 185.805 646.762 186.078C647.223 186.344 647.793 186.477 648.473 186.477ZM661.281 182.082L659.688 183.617V188H657.508V170H659.688V181.016L661.105 179.492L665.266 175.32H667.902L662.77 180.605L668.688 188H665.934L661.281 182.082ZM671.289 181.543C671.289 180.629 671.422 179.781 671.688 179C671.953 178.211 672.332 177.527 672.824 176.949C673.324 176.371 673.93 175.918 674.641 175.59C675.352 175.254 676.152 175.086 677.043 175.086C677.941 175.086 678.746 175.254 679.457 175.59C680.176 175.918 680.781 176.371 681.273 176.949C681.773 177.527 682.156 178.211 682.422 179C682.688 179.781 682.82 180.629 682.82 181.543V181.801C682.82 182.715 682.688 183.562 682.422 184.344C682.156 185.125 681.773 185.805 681.273 186.383C680.781 186.961 680.18 187.414 679.469 187.742C678.758 188.07 677.957 188.234 677.066 188.234C676.168 188.234 675.359 188.07 674.641 187.742C673.93 187.414 673.324 186.961 672.824 186.383C672.332 185.805 671.953 185.125 671.688 184.344C671.422 183.562 671.289 182.715 671.289 181.801V181.543ZM673.457 181.801C673.457 182.426 673.531 183.023 673.68 183.594C673.828 184.156 674.051 184.652 674.348 185.082C674.652 185.512 675.031 185.852 675.484 186.102C675.938 186.352 676.465 186.477 677.066 186.477C677.66 186.477 678.18 186.352 678.625 186.102C679.078 185.852 679.453 185.512 679.75 185.082C680.055 184.652 680.281 184.156 680.43 183.594C680.578 183.023 680.652 182.426 680.652 181.801V181.543C680.652 180.926 680.574 180.336 680.418 179.773C680.27 179.203 680.043 178.703 679.738 178.273C679.441 177.844 679.066 177.504 678.613 177.254C678.168 176.996 677.645 176.867 677.043 176.867C676.441 176.867 675.918 176.996 675.473 177.254C675.027 177.504 674.652 177.844 674.348 178.273C674.051 178.703 673.828 179.203 673.68 179.773C673.531 180.336 673.457 180.926 673.457 181.543V181.801ZM694.539 186.254C694.117 186.879 693.59 187.367 692.957 187.719C692.324 188.062 691.594 188.234 690.766 188.234C690.102 188.234 689.5 188.133 688.961 187.93C688.422 187.719 687.961 187.395 687.578 186.957C687.195 186.52 686.898 185.965 686.688 185.293C686.484 184.613 686.383 183.801 686.383 182.855V175.32H688.551V182.879C688.551 183.566 688.605 184.137 688.715 184.59C688.824 185.043 688.988 185.406 689.207 185.68C689.426 185.945 689.691 186.133 690.004 186.242C690.324 186.352 690.691 186.406 691.105 186.406C691.988 186.406 692.699 186.227 693.238 185.867C693.785 185.508 694.191 185.023 694.457 184.414V175.32H696.637V188H694.668L694.539 186.254ZM705.859 172.25V175.32H710.688V176.996H705.859V183.887C705.859 184.379 705.922 184.785 706.047 185.105C706.172 185.426 706.344 185.684 706.562 185.879C706.781 186.066 707.031 186.199 707.312 186.277C707.602 186.355 707.906 186.395 708.227 186.395C708.461 186.395 708.703 186.383 708.953 186.359C709.203 186.328 709.445 186.293 709.68 186.254C709.922 186.215 710.145 186.176 710.348 186.137C710.559 186.09 710.73 186.051 710.863 186.02L711.168 187.555C710.988 187.664 710.77 187.762 710.512 187.848C710.254 187.926 709.973 187.992 709.668 188.047C709.363 188.109 709.039 188.156 708.695 188.188C708.359 188.219 708.023 188.234 707.688 188.234C707.125 188.234 706.598 188.156 706.105 188C705.621 187.836 705.199 187.582 704.84 187.238C704.48 186.887 704.195 186.438 703.984 185.891C703.781 185.336 703.68 184.668 703.68 183.887V176.996H700.352V175.32H703.68V172.25H705.859ZM738.484 183.688C738.484 183.164 738.363 182.723 738.121 182.363C737.887 182.004 737.582 181.703 737.207 181.461C736.832 181.211 736.418 181.004 735.965 180.84C735.52 180.676 735.09 180.527 734.676 180.395C734.074 180.199 733.461 179.965 732.836 179.691C732.219 179.418 731.652 179.082 731.137 178.684C730.629 178.285 730.211 177.816 729.883 177.277C729.562 176.73 729.402 176.09 729.402 175.355C729.402 174.621 729.562 173.965 729.883 173.387C730.211 172.809 730.637 172.32 731.16 171.922C731.684 171.523 732.277 171.223 732.941 171.02C733.605 170.809 734.273 170.703 734.945 170.703C735.688 170.703 736.402 170.828 737.09 171.078C737.777 171.32 738.387 171.664 738.918 172.109C739.449 172.555 739.875 173.094 740.195 173.727C740.516 174.359 740.684 175.066 740.699 175.848H738.473C738.41 175.355 738.289 174.91 738.109 174.512C737.93 174.105 737.691 173.758 737.395 173.469C737.098 173.18 736.742 172.957 736.328 172.801C735.922 172.637 735.461 172.555 734.945 172.555C734.531 172.555 734.125 172.613 733.727 172.73C733.336 172.848 732.984 173.023 732.672 173.258C732.367 173.492 732.121 173.781 731.934 174.125C731.754 174.469 731.664 174.867 731.664 175.32C731.672 175.812 731.797 176.23 732.039 176.574C732.281 176.91 732.586 177.195 732.953 177.43C733.328 177.664 733.73 177.859 734.16 178.016C734.598 178.172 735.008 178.309 735.391 178.426C735.812 178.559 736.238 178.711 736.668 178.883C737.098 179.047 737.512 179.238 737.91 179.457C738.309 179.676 738.68 179.922 739.023 180.195C739.367 180.469 739.668 180.781 739.926 181.133C740.184 181.477 740.383 181.859 740.523 182.281C740.672 182.695 740.746 183.156 740.746 183.664C740.746 184.43 740.574 185.098 740.23 185.668C739.895 186.238 739.457 186.715 738.918 187.098C738.379 187.473 737.77 187.758 737.09 187.953C736.41 188.141 735.73 188.234 735.051 188.234C734.293 188.234 733.551 188.117 732.824 187.883C732.098 187.648 731.445 187.312 730.867 186.875C730.297 186.43 729.832 185.891 729.473 185.258C729.113 184.617 728.922 183.891 728.898 183.078H731.113C731.184 183.609 731.328 184.082 731.547 184.496C731.766 184.902 732.047 185.25 732.391 185.539C732.734 185.82 733.129 186.035 733.574 186.184C734.027 186.324 734.52 186.395 735.051 186.395C735.473 186.395 735.887 186.344 736.293 186.242C736.707 186.133 737.074 185.969 737.395 185.75C737.715 185.523 737.977 185.242 738.18 184.906C738.383 184.562 738.484 184.156 738.484 183.688ZM748.633 183.5L749.195 185.035L753.062 175.32H755.488L749.055 189.957C748.906 190.285 748.715 190.633 748.48 191C748.254 191.367 747.977 191.707 747.648 192.02C747.32 192.332 746.938 192.594 746.5 192.805C746.062 193.016 745.559 193.121 744.988 193.121C744.887 193.121 744.773 193.113 744.648 193.098C744.523 193.09 744.398 193.074 744.273 193.051C744.148 193.035 744.031 193.016 743.922 192.992C743.812 192.969 743.723 192.949 743.652 192.934L744.004 191.164C744.059 191.164 744.133 191.168 744.227 191.176C744.32 191.184 744.418 191.191 744.52 191.199C744.621 191.207 744.719 191.211 744.812 191.211C744.906 191.219 744.98 191.223 745.035 191.223C745.332 191.223 745.602 191.141 745.844 190.977C746.094 190.812 746.312 190.617 746.5 190.391C746.695 190.164 746.859 189.93 746.992 189.688C747.133 189.445 747.242 189.246 747.32 189.09L748.188 187.402L742.727 175.32H745.152L748.633 183.5ZM766.809 184.637C766.809 184.379 766.758 184.148 766.656 183.945C766.555 183.734 766.383 183.543 766.141 183.371C765.898 183.199 765.578 183.043 765.18 182.902C764.781 182.754 764.285 182.621 763.691 182.504C762.965 182.355 762.301 182.176 761.699 181.965C761.105 181.754 760.594 181.504 760.164 181.215C759.742 180.918 759.414 180.574 759.18 180.184C758.945 179.785 758.828 179.324 758.828 178.801C758.828 178.285 758.949 177.805 759.191 177.359C759.434 176.906 759.773 176.512 760.211 176.176C760.648 175.84 761.168 175.574 761.77 175.379C762.379 175.184 763.047 175.086 763.773 175.086C764.555 175.086 765.258 175.188 765.883 175.391C766.508 175.594 767.039 175.875 767.477 176.234C767.914 176.594 768.25 177.016 768.484 177.5C768.727 177.977 768.848 178.492 768.848 179.047H766.68C766.68 178.773 766.609 178.508 766.469 178.25C766.328 177.984 766.133 177.75 765.883 177.547C765.633 177.344 765.328 177.18 764.969 177.055C764.617 176.93 764.219 176.867 763.773 176.867C763.312 176.867 762.906 176.918 762.555 177.02C762.211 177.121 761.922 177.258 761.688 177.43C761.461 177.602 761.289 177.801 761.172 178.027C761.055 178.254 760.996 178.488 760.996 178.73C760.996 178.98 761.043 179.203 761.137 179.398C761.23 179.594 761.391 179.77 761.617 179.926C761.852 180.082 762.16 180.223 762.543 180.348C762.934 180.473 763.426 180.594 764.02 180.711C764.801 180.875 765.5 181.066 766.117 181.285C766.734 181.496 767.254 181.754 767.676 182.059C768.098 182.355 768.418 182.703 768.637 183.102C768.863 183.5 768.977 183.961 768.977 184.484C768.977 185.047 768.848 185.559 768.59 186.02C768.34 186.48 767.988 186.875 767.535 187.203C767.082 187.531 766.539 187.785 765.906 187.965C765.273 188.145 764.582 188.234 763.832 188.234C762.973 188.234 762.207 188.121 761.535 187.895C760.863 187.66 760.293 187.355 759.824 186.98C759.363 186.598 759.008 186.156 758.758 185.656C758.516 185.156 758.395 184.637 758.395 184.098H760.562C760.594 184.543 760.711 184.918 760.914 185.223C761.125 185.527 761.383 185.773 761.688 185.961C762 186.148 762.344 186.281 762.719 186.359C763.094 186.438 763.465 186.477 763.832 186.477C764.746 186.477 765.469 186.309 766 185.973C766.531 185.637 766.801 185.191 766.809 184.637ZM777.93 172.25V175.32H782.758V176.996H777.93V183.887C777.93 184.379 777.992 184.785 778.117 185.105C778.242 185.426 778.414 185.684 778.633 185.879C778.852 186.066 779.102 186.199 779.383 186.277C779.672 186.355 779.977 186.395 780.297 186.395C780.531 186.395 780.773 186.383 781.023 186.359C781.273 186.328 781.516 186.293 781.75 186.254C781.992 186.215 782.215 186.176 782.418 186.137C782.629 186.09 782.801 186.051 782.934 186.02L783.238 187.555C783.059 187.664 782.84 187.762 782.582 187.848C782.324 187.926 782.043 187.992 781.738 188.047C781.434 188.109 781.109 188.156 780.766 188.188C780.43 188.219 780.094 188.234 779.758 188.234C779.195 188.234 778.668 188.156 778.176 188C777.691 187.836 777.27 187.582 776.91 187.238C776.551 186.887 776.266 186.438 776.055 185.891C775.852 185.336 775.75 184.668 775.75 183.887V176.996H772.422V175.32H775.75V172.25H777.93ZM792.812 188.234C791.922 188.234 791.102 188.082 790.352 187.777C789.609 187.473 788.973 187.047 788.441 186.5C787.91 185.953 787.496 185.305 787.199 184.555C786.902 183.805 786.754 182.988 786.754 182.105V181.613C786.754 180.59 786.918 179.676 787.246 178.871C787.574 178.059 788.008 177.375 788.547 176.82C789.094 176.258 789.711 175.828 790.398 175.531C791.094 175.234 791.805 175.086 792.531 175.086C793.445 175.086 794.242 175.246 794.922 175.566C795.609 175.879 796.18 176.316 796.633 176.879C797.086 177.434 797.422 178.09 797.641 178.848C797.867 179.605 797.98 180.426 797.98 181.309V182.281H788.922C788.945 182.859 789.055 183.402 789.25 183.91C789.453 184.418 789.727 184.863 790.07 185.246C790.422 185.621 790.84 185.918 791.324 186.137C791.809 186.355 792.344 186.465 792.93 186.465C793.703 186.465 794.391 186.309 794.992 185.996C795.594 185.684 796.094 185.27 796.492 184.754L797.816 185.785C797.605 186.105 797.34 186.414 797.02 186.711C796.707 187 796.344 187.258 795.93 187.484C795.516 187.711 795.047 187.891 794.523 188.023C794 188.164 793.43 188.234 792.812 188.234ZM792.531 176.867C792.094 176.867 791.68 176.949 791.289 177.113C790.898 177.27 790.547 177.504 790.234 177.816C789.922 178.121 789.656 178.5 789.438 178.953C789.227 179.398 789.078 179.914 788.992 180.5H795.812V180.336C795.789 179.914 795.707 179.496 795.566 179.082C795.434 178.668 795.234 178.297 794.969 177.969C794.703 177.641 794.367 177.375 793.961 177.172C793.562 176.969 793.086 176.867 792.531 176.867ZM802.621 175.32L802.68 176.516C802.938 176.07 803.273 175.723 803.688 175.473C804.109 175.223 804.617 175.094 805.211 175.086C806.375 175.086 807.152 175.539 807.543 176.445C807.793 176.039 808.121 175.715 808.527 175.473C808.941 175.223 809.441 175.094 810.027 175.086C810.957 175.086 811.672 175.371 812.172 175.941C812.672 176.512 812.922 177.375 812.922 178.531V188H810.859V178.508C810.859 177.445 810.371 176.918 809.395 176.926C809.137 176.926 808.914 176.961 808.727 177.031C808.539 177.102 808.383 177.199 808.258 177.324C808.133 177.441 808.035 177.582 807.965 177.746C807.895 177.902 807.848 178.066 807.824 178.238V188H805.762V178.496C805.762 177.988 805.648 177.598 805.422 177.324C805.195 177.051 804.836 176.918 804.344 176.926C803.891 176.926 803.539 177.016 803.289 177.195C803.039 177.375 802.855 177.613 802.738 177.91V188H800.676V175.32H802.621Z" fill="white"/>
<path d="M388.473 514V494.094H394.393C395.213 494.103 396.015 494.212 396.799 494.422C397.583 494.622 398.28 494.937 398.891 495.365C399.501 495.794 399.989 496.34 400.354 497.006C400.718 497.671 400.896 498.469 400.887 499.398C400.878 499.918 400.791 500.392 400.627 500.82C400.472 501.249 400.253 501.636 399.971 501.982C399.697 502.32 399.374 502.616 399 502.871C398.626 503.126 398.23 503.345 397.811 503.527C398.339 503.682 398.822 503.906 399.26 504.197C399.706 504.48 400.089 504.826 400.408 505.236C400.727 505.637 400.973 506.093 401.146 506.604C401.329 507.114 401.42 507.665 401.42 508.258C401.429 509.188 401.251 510.008 400.887 510.719C400.522 511.43 400.035 512.027 399.424 512.51C398.813 512.984 398.107 513.348 397.305 513.604C396.512 513.859 395.691 513.991 394.844 514H388.473ZM391.016 504.689V511.854H394.912C395.441 511.844 395.942 511.758 396.416 511.594C396.89 511.421 397.309 511.184 397.674 510.883C398.038 510.582 398.326 510.213 398.535 509.775C398.754 509.338 398.863 508.841 398.863 508.285C398.872 507.72 398.777 507.219 398.576 506.781C398.385 506.344 398.116 505.975 397.77 505.674C397.423 505.364 397.018 505.127 396.553 504.963C396.088 504.799 395.587 504.708 395.049 504.689H391.016ZM391.016 502.584H394.543C395.017 502.575 395.482 502.502 395.938 502.365C396.393 502.219 396.799 502.014 397.154 501.75C397.51 501.477 397.797 501.144 398.016 500.752C398.234 500.36 398.344 499.904 398.344 499.385C398.344 498.829 398.234 498.355 398.016 497.963C397.806 497.571 397.519 497.252 397.154 497.006C396.799 496.751 396.384 496.564 395.91 496.445C395.445 496.327 394.967 496.263 394.475 496.254H391.016V502.584ZM415.037 514C414.937 513.809 414.855 513.572 414.791 513.289C414.736 512.997 414.695 512.697 414.668 512.387C414.413 512.642 414.126 512.883 413.807 513.111C413.497 513.339 413.15 513.54 412.768 513.713C412.394 513.886 411.993 514.023 411.564 514.123C411.136 514.223 410.68 514.273 410.197 514.273C409.413 514.273 408.702 514.16 408.064 513.932C407.436 513.704 406.898 513.398 406.451 513.016C406.014 512.624 405.672 512.163 405.426 511.635C405.189 511.097 405.07 510.518 405.07 509.898C405.07 509.087 405.23 508.376 405.549 507.766C405.877 507.155 406.337 506.649 406.93 506.248C407.522 505.838 408.233 505.533 409.062 505.332C409.901 505.132 410.835 505.031 411.865 505.031H414.627V503.869C414.627 503.423 414.545 503.021 414.381 502.666C414.217 502.311 413.984 502.01 413.684 501.764C413.383 501.508 413.014 501.312 412.576 501.176C412.148 501.039 411.665 500.971 411.127 500.971C410.626 500.971 410.174 501.035 409.773 501.162C409.382 501.29 409.049 501.458 408.775 501.668C408.502 501.878 408.288 502.128 408.133 502.42C407.987 502.702 407.914 502.999 407.914 503.309H405.371C405.38 502.771 405.517 502.242 405.781 501.723C406.055 501.203 406.442 500.738 406.943 500.328C407.454 499.909 408.069 499.572 408.789 499.316C409.518 499.061 410.343 498.934 411.264 498.934C412.102 498.934 412.882 499.038 413.602 499.248C414.322 499.449 414.941 499.758 415.461 500.178C415.99 500.588 416.404 501.103 416.705 501.723C417.006 502.342 417.156 503.067 417.156 503.896V510.773C417.156 511.266 417.202 511.79 417.293 512.346C417.384 512.893 417.512 513.371 417.676 513.781V514H415.037ZM410.566 512.072C411.059 512.072 411.519 512.008 411.947 511.881C412.376 511.753 412.763 511.585 413.109 511.375C413.465 511.165 413.77 510.928 414.025 510.664C414.281 510.391 414.481 510.108 414.627 509.816V506.822H412.275C410.799 506.822 409.65 507.041 408.83 507.479C408.01 507.916 407.6 508.604 407.6 509.543C407.6 509.908 407.659 510.245 407.777 510.555C407.905 510.865 408.092 511.133 408.338 511.361C408.584 511.58 408.894 511.753 409.268 511.881C409.641 512.008 410.074 512.072 410.566 512.072ZM428.436 512.223C428.891 512.223 429.333 512.15 429.762 512.004C430.199 511.858 430.587 511.658 430.924 511.402C431.261 511.138 431.53 510.833 431.73 510.486C431.94 510.131 432.049 509.748 432.059 509.338H434.451C434.442 509.994 434.269 510.623 433.932 511.225C433.604 511.817 433.161 512.341 432.605 512.797C432.049 513.243 431.411 513.604 430.691 513.877C429.971 514.141 429.219 514.273 428.436 514.273C427.314 514.273 426.335 514.073 425.496 513.672C424.658 513.271 423.956 512.733 423.391 512.059C422.835 511.375 422.415 510.591 422.133 509.707C421.85 508.814 421.709 507.875 421.709 506.891V506.316C421.709 505.341 421.85 504.407 422.133 503.514C422.415 502.62 422.835 501.837 423.391 501.162C423.956 500.479 424.658 499.936 425.496 499.535C426.335 499.134 427.314 498.934 428.436 498.934C429.311 498.934 430.113 499.075 430.842 499.357C431.58 499.631 432.214 500.009 432.742 500.492C433.28 500.966 433.699 501.531 434 502.188C434.301 502.844 434.451 503.546 434.451 504.293H432.059C432.049 503.846 431.949 503.427 431.758 503.035C431.576 502.634 431.325 502.283 431.006 501.982C430.687 501.682 430.304 501.445 429.857 501.271C429.42 501.098 428.946 501.012 428.436 501.012C427.652 501.012 426.991 501.171 426.453 501.49C425.924 501.8 425.496 502.21 425.168 502.721C424.84 503.222 424.603 503.787 424.457 504.416C424.32 505.045 424.252 505.678 424.252 506.316V506.891C424.252 507.538 424.32 508.18 424.457 508.818C424.603 509.447 424.835 510.017 425.154 510.527C425.482 511.029 425.911 511.439 426.439 511.758C426.977 512.068 427.643 512.223 428.436 512.223ZM443.379 507.096L441.52 508.887V514H438.977V493H441.52V505.852L443.174 504.074L448.027 499.207H451.104L445.115 505.373L452.02 514H448.807L443.379 507.096ZM462.301 514.273C461.262 514.273 460.305 514.096 459.43 513.74C458.564 513.385 457.821 512.888 457.201 512.25C456.581 511.612 456.098 510.855 455.752 509.98C455.406 509.105 455.232 508.153 455.232 507.123V506.549C455.232 505.355 455.424 504.288 455.807 503.35C456.189 502.402 456.695 501.604 457.324 500.957C457.962 500.301 458.682 499.799 459.484 499.453C460.296 499.107 461.125 498.934 461.973 498.934C463.039 498.934 463.969 499.12 464.762 499.494C465.564 499.859 466.229 500.369 466.758 501.025C467.286 501.673 467.678 502.438 467.934 503.322C468.198 504.206 468.33 505.163 468.33 506.193V507.328H457.762C457.789 508.003 457.917 508.636 458.145 509.229C458.382 509.821 458.701 510.34 459.102 510.787C459.512 511.225 459.999 511.571 460.564 511.826C461.13 512.081 461.754 512.209 462.438 512.209C463.34 512.209 464.142 512.027 464.844 511.662C465.546 511.298 466.129 510.814 466.594 510.213L468.139 511.416C467.893 511.79 467.583 512.15 467.209 512.496C466.844 512.833 466.421 513.134 465.938 513.398C465.454 513.663 464.908 513.872 464.297 514.027C463.686 514.191 463.021 514.273 462.301 514.273ZM461.973 501.012C461.462 501.012 460.979 501.107 460.523 501.299C460.068 501.481 459.658 501.755 459.293 502.119C458.928 502.475 458.618 502.917 458.363 503.445C458.117 503.965 457.944 504.566 457.844 505.25H465.801V505.059C465.773 504.566 465.678 504.079 465.514 503.596C465.359 503.113 465.126 502.68 464.816 502.297C464.507 501.914 464.115 501.604 463.641 501.367C463.176 501.13 462.62 501.012 461.973 501.012ZM474.852 499.207L475.029 501.395C475.567 500.629 476.228 500.032 477.012 499.604C477.796 499.166 478.671 498.943 479.637 498.934C480.411 498.934 481.113 499.043 481.742 499.262C482.38 499.48 482.923 499.822 483.369 500.287C483.816 500.752 484.158 501.344 484.395 502.064C484.641 502.775 484.764 503.623 484.764 504.607V514H482.234V504.662C482.234 504.006 482.161 503.45 482.016 502.994C481.87 502.538 481.651 502.169 481.359 501.887C481.077 501.604 480.726 501.399 480.307 501.271C479.896 501.144 479.423 501.08 478.885 501.08C478.037 501.08 477.29 501.294 476.643 501.723C476.005 502.142 475.494 502.698 475.111 503.391V514H472.582V499.207H474.852ZM488.92 506.48C488.92 505.378 489.057 504.366 489.33 503.445C489.613 502.516 490.009 501.718 490.52 501.053C491.039 500.387 491.663 499.868 492.393 499.494C493.122 499.12 493.938 498.934 494.84 498.934C495.724 498.934 496.494 499.084 497.15 499.385C497.816 499.676 498.39 500.105 498.873 500.67V493H501.402V514H499.078L498.969 512.441C498.477 513.043 497.889 513.499 497.205 513.809C496.521 514.118 495.724 514.273 494.812 514.273C493.919 514.273 493.108 514.082 492.379 513.699C491.659 513.316 491.044 512.788 490.533 512.113C490.023 511.439 489.626 510.646 489.344 509.734C489.061 508.814 488.92 507.825 488.92 506.768V506.48ZM491.449 506.768C491.449 507.488 491.527 508.171 491.682 508.818C491.837 509.465 492.074 510.035 492.393 510.527C492.721 511.02 493.135 511.411 493.637 511.703C494.138 511.986 494.74 512.127 495.441 512.127C495.87 512.127 496.257 512.077 496.604 511.977C496.95 511.876 497.264 511.735 497.547 511.553C497.829 511.361 498.08 511.138 498.299 510.883C498.518 510.618 498.709 510.327 498.873 510.008V503.145C498.545 502.543 498.103 502.051 497.547 501.668C496.991 501.276 496.298 501.08 495.469 501.08C494.758 501.08 494.147 501.226 493.637 501.518C493.135 501.809 492.721 502.206 492.393 502.707C492.074 503.199 491.837 503.773 491.682 504.43C491.527 505.077 491.449 505.76 491.449 506.48V506.768ZM529.621 505.879H525.643V514H523.127V494.094H528.965C529.895 494.112 530.77 494.244 531.59 494.49C532.41 494.736 533.126 495.105 533.736 495.598C534.356 496.09 534.839 496.71 535.186 497.457C535.541 498.195 535.719 499.066 535.719 500.068C535.719 500.715 535.623 501.308 535.432 501.846C535.249 502.383 534.994 502.871 534.666 503.309C534.338 503.746 533.946 504.133 533.49 504.471C533.035 504.808 532.533 505.095 531.986 505.332L536.211 513.836L536.197 514H533.531L529.621 505.879ZM525.643 503.801H529.033C529.598 503.792 530.132 503.705 530.633 503.541C531.134 503.368 531.572 503.122 531.945 502.803C532.328 502.484 532.629 502.096 532.848 501.641C533.066 501.176 533.176 500.643 533.176 500.041C533.176 499.403 533.071 498.847 532.861 498.373C532.652 497.89 532.36 497.489 531.986 497.17C531.613 496.842 531.166 496.596 530.646 496.432C530.136 496.268 529.576 496.181 528.965 496.172H525.643V503.801ZM550.799 504.799H542.486V511.854H552.18V514H539.957V494.094H552.057V496.254H542.486V502.652H550.799V504.799ZM567.082 508.969C567.082 508.358 566.941 507.843 566.658 507.424C566.385 507.005 566.029 506.654 565.592 506.371C565.154 506.079 564.671 505.838 564.143 505.646C563.623 505.455 563.122 505.282 562.639 505.127C561.937 504.899 561.221 504.626 560.492 504.307C559.772 503.988 559.111 503.596 558.51 503.131C557.917 502.666 557.43 502.119 557.047 501.49C556.673 500.852 556.486 500.105 556.486 499.248C556.486 498.391 556.673 497.626 557.047 496.951C557.43 496.277 557.926 495.707 558.537 495.242C559.148 494.777 559.84 494.426 560.615 494.189C561.39 493.943 562.169 493.82 562.953 493.82C563.819 493.82 564.653 493.966 565.455 494.258C566.257 494.54 566.968 494.941 567.588 495.461C568.208 495.98 568.704 496.609 569.078 497.348C569.452 498.086 569.648 498.911 569.666 499.822H567.068C566.995 499.248 566.854 498.729 566.645 498.264C566.435 497.79 566.157 497.384 565.811 497.047C565.464 496.71 565.049 496.45 564.566 496.268C564.092 496.076 563.555 495.98 562.953 495.98C562.47 495.98 561.996 496.049 561.531 496.186C561.076 496.322 560.665 496.527 560.301 496.801C559.945 497.074 559.658 497.411 559.439 497.812C559.23 498.214 559.125 498.678 559.125 499.207C559.134 499.781 559.28 500.269 559.562 500.67C559.845 501.062 560.201 501.395 560.629 501.668C561.066 501.941 561.536 502.169 562.037 502.352C562.548 502.534 563.026 502.693 563.473 502.83C563.965 502.985 564.462 503.163 564.963 503.363C565.464 503.555 565.947 503.778 566.412 504.033C566.877 504.288 567.31 504.576 567.711 504.895C568.112 505.214 568.463 505.578 568.764 505.988C569.064 506.389 569.297 506.836 569.461 507.328C569.634 507.811 569.721 508.349 569.721 508.941C569.721 509.835 569.52 510.614 569.119 511.279C568.727 511.945 568.217 512.501 567.588 512.947C566.959 513.385 566.248 513.717 565.455 513.945C564.662 514.164 563.869 514.273 563.076 514.273C562.192 514.273 561.326 514.137 560.479 513.863C559.631 513.59 558.87 513.198 558.195 512.688C557.53 512.168 556.988 511.539 556.568 510.801C556.149 510.053 555.926 509.206 555.898 508.258H558.482C558.564 508.878 558.733 509.429 558.988 509.912C559.243 510.386 559.572 510.792 559.973 511.129C560.374 511.457 560.834 511.708 561.354 511.881C561.882 512.045 562.456 512.127 563.076 512.127C563.568 512.127 564.051 512.068 564.525 511.949C565.008 511.822 565.437 511.63 565.811 511.375C566.184 511.111 566.49 510.783 566.727 510.391C566.964 509.99 567.082 509.516 567.082 508.969ZM586.906 496.254H580.754V514H578.293V496.254H572.141V494.094H586.906V496.254ZM616.615 508.846H609.971L608.371 514H605.842L612.268 494.094H614.387L620.703 514H618.188L616.615 508.846ZM610.654 506.645H615.945L613.32 498.004L610.654 506.645ZM626.691 506.016V514H624.162V494.094H630.615C631.508 494.112 632.352 494.253 633.145 494.518C633.947 494.782 634.648 495.165 635.25 495.666C635.852 496.167 636.326 496.787 636.672 497.525C637.027 498.264 637.205 499.111 637.205 500.068C637.205 501.025 637.027 501.873 636.672 502.611C636.326 503.34 635.852 503.956 635.25 504.457C634.648 504.958 633.947 505.341 633.145 505.605C632.352 505.87 631.508 506.007 630.615 506.016H626.691ZM626.691 503.938H630.615C631.199 503.928 631.736 503.837 632.229 503.664C632.721 503.482 633.149 503.227 633.514 502.898C633.878 502.57 634.161 502.174 634.361 501.709C634.571 501.235 634.676 500.697 634.676 500.096C634.676 499.494 634.571 498.952 634.361 498.469C634.161 497.986 633.878 497.576 633.514 497.238C633.158 496.901 632.73 496.641 632.229 496.459C631.736 496.277 631.199 496.181 630.615 496.172H626.691V503.938ZM640.746 494.094H652.777V496.295H648.006V511.812H652.777V514H640.746V511.812H645.408V496.295H640.746V494.094ZM667.393 510.076C667.393 509.775 667.333 509.507 667.215 509.27C667.096 509.023 666.896 508.8 666.613 508.6C666.331 508.399 665.957 508.217 665.492 508.053C665.027 507.88 664.449 507.725 663.756 507.588C662.908 507.415 662.133 507.205 661.432 506.959C660.739 506.713 660.142 506.421 659.641 506.084C659.148 505.738 658.766 505.337 658.492 504.881C658.219 504.416 658.082 503.878 658.082 503.268C658.082 502.666 658.223 502.105 658.506 501.586C658.788 501.057 659.185 500.597 659.695 500.205C660.206 499.813 660.812 499.503 661.514 499.275C662.225 499.048 663.004 498.934 663.852 498.934C664.763 498.934 665.583 499.052 666.312 499.289C667.042 499.526 667.661 499.854 668.172 500.273C668.682 500.693 669.074 501.185 669.348 501.75C669.63 502.306 669.771 502.908 669.771 503.555H667.242C667.242 503.236 667.16 502.926 666.996 502.625C666.832 502.315 666.604 502.042 666.312 501.805C666.021 501.568 665.665 501.376 665.246 501.23C664.836 501.085 664.371 501.012 663.852 501.012C663.314 501.012 662.84 501.071 662.43 501.189C662.029 501.308 661.691 501.467 661.418 501.668C661.154 501.868 660.953 502.101 660.816 502.365C660.68 502.63 660.611 502.903 660.611 503.186C660.611 503.477 660.666 503.737 660.775 503.965C660.885 504.193 661.072 504.398 661.336 504.58C661.609 504.762 661.969 504.926 662.416 505.072C662.872 505.218 663.446 505.359 664.139 505.496C665.05 505.688 665.866 505.911 666.586 506.166C667.306 506.412 667.912 506.713 668.404 507.068C668.896 507.415 669.27 507.82 669.525 508.285C669.79 508.75 669.922 509.288 669.922 509.898C669.922 510.555 669.771 511.152 669.471 511.689C669.179 512.227 668.769 512.688 668.24 513.07C667.712 513.453 667.078 513.749 666.34 513.959C665.602 514.169 664.795 514.273 663.92 514.273C662.917 514.273 662.024 514.141 661.24 513.877C660.456 513.604 659.791 513.248 659.244 512.811C658.706 512.364 658.292 511.849 658 511.266C657.717 510.682 657.576 510.076 657.576 509.447H660.105C660.142 509.967 660.279 510.404 660.516 510.76C660.762 511.115 661.062 511.402 661.418 511.621C661.783 511.84 662.184 511.995 662.621 512.086C663.059 512.177 663.492 512.223 663.92 512.223C664.986 512.223 665.829 512.027 666.449 511.635C667.069 511.243 667.383 510.723 667.393 510.076Z" fill="white"/>
</svg>
