<svg width="1035" height="536" viewBox="0 0 1035 536" fill="none" xmlns="http://www.w3.org/2000/svg">
<rect x="333" y="472" width="381" height="64" fill="#61CAD1"/>
<rect x="2" y="2" width="1031" height="358" fill="white" stroke="#61CAD1" stroke-width="4"/>
<rect x="25" y="383" width="978" height="64" fill="#61CAD1"/>
<rect x="26" y="118" width="250" height="126" fill="#61CAD1"/>
<rect x="301" y="118" width="250" height="126" fill="#61CAD1"/>
<rect x="576" y="118" width="250" height="126" fill="#61CAD1"/>
<rect x="29" y="29" width="977" height="64" fill="#61CAD1"/>
<rect x="26" y="269" width="800" height="64" fill="#61CAD1"/>
<rect x="851" y="118" width="152" height="215" fill="#61CAD1"/>
<path d="M359.736 63.8457H353.092L351.492 69H348.963L355.389 49.0938H357.508L363.824 69H361.309L359.736 63.8457ZM353.775 61.6445H359.066L356.441 53.0039L353.775 61.6445ZM376.648 66.9629C376.156 67.6921 375.541 68.2617 374.803 68.6719C374.064 69.0729 373.212 69.2734 372.246 69.2734C371.471 69.2734 370.77 69.1549 370.141 68.918C369.512 68.6719 368.974 68.2936 368.527 67.7832C368.081 67.2728 367.734 66.6257 367.488 65.8418C367.251 65.0488 367.133 64.1009 367.133 62.998V54.207H369.662V63.0254C369.662 63.8275 369.726 64.4928 369.854 65.0215C369.981 65.5501 370.173 65.974 370.428 66.293C370.683 66.6029 370.993 66.8216 371.357 66.9492C371.731 67.0768 372.16 67.1406 372.643 67.1406C373.673 67.1406 374.502 66.931 375.131 66.5117C375.769 66.0924 376.243 65.5273 376.553 64.8164V54.207H379.096V69H376.799L376.648 66.9629ZM389.855 50.625V54.207H395.488V56.1621H389.855V64.2012C389.855 64.7754 389.928 65.2493 390.074 65.623C390.22 65.9967 390.421 66.2975 390.676 66.5254C390.931 66.7441 391.223 66.8991 391.551 66.9902C391.888 67.0814 392.243 67.127 392.617 67.127C392.891 67.127 393.173 67.1133 393.465 67.0859C393.757 67.0495 394.039 67.0085 394.312 66.9629C394.595 66.9173 394.855 66.8717 395.092 66.8262C395.338 66.7715 395.538 66.7259 395.693 66.6895L396.049 68.4805C395.839 68.6081 395.584 68.722 395.283 68.8223C394.982 68.9134 394.654 68.9909 394.299 69.0547C393.943 69.1276 393.565 69.1823 393.164 69.2188C392.772 69.2552 392.38 69.2734 391.988 69.2734C391.332 69.2734 390.717 69.1823 390.143 69C389.577 68.8086 389.085 68.5124 388.666 68.1113C388.247 67.7012 387.914 67.1771 387.668 66.5391C387.431 65.8919 387.312 65.1126 387.312 64.2012V56.1621H383.43V54.207H387.312V50.625H389.855ZM403.213 56.4082C403.742 55.6335 404.393 55.0319 405.168 54.6035C405.943 54.166 406.813 53.9427 407.779 53.9336C408.554 53.9336 409.256 54.0475 409.885 54.2754C410.523 54.4941 411.065 54.8405 411.512 55.3145C411.958 55.7884 412.3 56.39 412.537 57.1191C412.783 57.8392 412.906 58.696 412.906 59.6895V69H410.377V59.6621C410.377 58.4499 410.085 57.5475 409.502 56.9551C408.928 56.3626 408.103 56.071 407.027 56.0801C406.216 56.0801 405.478 56.2806 404.812 56.6816C404.156 57.0736 403.623 57.5977 403.213 58.2539V69H400.684V48H403.213V56.4082ZM424.035 69.2734C422.996 69.2734 422.039 69.0957 421.164 68.7402C420.298 68.3848 419.555 67.888 418.936 67.25C418.316 66.612 417.833 65.8555 417.486 64.9805C417.14 64.1055 416.967 63.153 416.967 62.123V61.5488C416.967 60.3548 417.158 59.2884 417.541 58.3496C417.924 57.4017 418.43 56.6042 419.059 55.957C419.697 55.3008 420.417 54.7995 421.219 54.4531C422.03 54.1068 422.859 53.9336 423.707 53.9336C424.773 53.9336 425.703 54.1204 426.496 54.4941C427.298 54.8587 427.964 55.3691 428.492 56.0254C429.021 56.6725 429.413 57.4382 429.668 58.3223C429.932 59.2064 430.064 60.1634 430.064 61.1934V62.3281H419.496C419.523 63.0026 419.651 63.6361 419.879 64.2285C420.116 64.821 420.435 65.3405 420.836 65.7871C421.246 66.2246 421.734 66.571 422.299 66.8262C422.864 67.0814 423.488 67.209 424.172 67.209C425.074 67.209 425.876 67.0267 426.578 66.6621C427.28 66.2975 427.863 65.8145 428.328 65.2129L429.873 66.416C429.627 66.7897 429.317 67.1497 428.943 67.4961C428.579 67.8333 428.155 68.1341 427.672 68.3984C427.189 68.6628 426.642 68.8724 426.031 69.0273C425.421 69.1914 424.755 69.2734 424.035 69.2734ZM423.707 56.0117C423.197 56.0117 422.714 56.1074 422.258 56.2988C421.802 56.4811 421.392 56.7546 421.027 57.1191C420.663 57.4746 420.353 57.9167 420.098 58.4453C419.852 58.9648 419.678 59.5664 419.578 60.25H427.535V60.0586C427.508 59.5664 427.412 59.0788 427.248 58.5957C427.093 58.1126 426.861 57.6797 426.551 57.2969C426.241 56.9141 425.849 56.6042 425.375 56.3672C424.91 56.1302 424.354 56.0117 423.707 56.0117ZM436.586 54.207L436.764 56.3945C437.301 55.6289 437.962 55.0319 438.746 54.6035C439.53 54.166 440.405 53.9427 441.371 53.9336C442.146 53.9336 442.848 54.043 443.477 54.2617C444.115 54.4805 444.657 54.8223 445.104 55.2871C445.55 55.752 445.892 56.3444 446.129 57.0645C446.375 57.7754 446.498 58.623 446.498 59.6074V69H443.969V59.6621C443.969 59.0059 443.896 58.4499 443.75 57.9941C443.604 57.5384 443.385 57.1693 443.094 56.8867C442.811 56.6042 442.46 56.3991 442.041 56.2715C441.631 56.1439 441.157 56.0801 440.619 56.0801C439.771 56.0801 439.024 56.2943 438.377 56.7227C437.739 57.1419 437.229 57.6979 436.846 58.3906V69H434.316V54.207H436.586ZM457.121 50.625V54.207H462.754V56.1621H457.121V64.2012C457.121 64.7754 457.194 65.2493 457.34 65.623C457.486 65.9967 457.686 66.2975 457.941 66.5254C458.197 66.7441 458.488 66.8991 458.816 66.9902C459.154 67.0814 459.509 67.127 459.883 67.127C460.156 67.127 460.439 67.1133 460.73 67.0859C461.022 67.0495 461.305 67.0085 461.578 66.9629C461.861 66.9173 462.12 66.8717 462.357 66.8262C462.604 66.7715 462.804 66.7259 462.959 66.6895L463.314 68.4805C463.105 68.6081 462.85 68.722 462.549 68.8223C462.248 68.9134 461.92 68.9909 461.564 69.0547C461.209 69.1276 460.831 69.1823 460.43 69.2188C460.038 69.2552 459.646 69.2734 459.254 69.2734C458.598 69.2734 457.982 69.1823 457.408 69C456.843 68.8086 456.351 68.5124 455.932 68.1113C455.512 67.7012 455.18 67.1771 454.934 66.5391C454.697 65.8919 454.578 65.1126 454.578 64.2012V56.1621H450.695V54.207H454.578V50.625H457.121ZM468.346 54.207H475.906V66.8125H480.732V69H468.346V66.8125H473.377V56.4082H468.346V54.207ZM473.049 50.3242C473.049 49.9049 473.172 49.554 473.418 49.2715C473.673 48.9798 474.056 48.834 474.566 48.834C475.068 48.834 475.446 48.9798 475.701 49.2715C475.956 49.554 476.084 49.9049 476.084 50.3242C476.084 50.7344 475.956 51.0762 475.701 51.3496C475.446 51.623 475.068 51.7598 474.566 51.7598C474.056 51.7598 473.673 51.623 473.418 51.3496C473.172 51.0762 473.049 50.7344 473.049 50.3242ZM491.068 67.2227C491.524 67.2227 491.966 67.1497 492.395 67.0039C492.832 66.8581 493.219 66.6576 493.557 66.4023C493.894 66.138 494.163 65.8327 494.363 65.4863C494.573 65.1309 494.682 64.748 494.691 64.3379H497.084C497.075 64.9941 496.902 65.623 496.564 66.2246C496.236 66.8171 495.794 67.3411 495.238 67.7969C494.682 68.2435 494.044 68.6035 493.324 68.877C492.604 69.1413 491.852 69.2734 491.068 69.2734C489.947 69.2734 488.967 69.0729 488.129 68.6719C487.29 68.2708 486.589 67.7331 486.023 67.0586C485.467 66.375 485.048 65.5911 484.766 64.707C484.483 63.8138 484.342 62.875 484.342 61.8906V61.3164C484.342 60.3411 484.483 59.4069 484.766 58.5137C485.048 57.6204 485.467 56.8366 486.023 56.1621C486.589 55.4785 487.29 54.9362 488.129 54.5352C488.967 54.1341 489.947 53.9336 491.068 53.9336C491.943 53.9336 492.745 54.0749 493.475 54.3574C494.213 54.6309 494.846 55.0091 495.375 55.4922C495.913 55.9661 496.332 56.5312 496.633 57.1875C496.934 57.8438 497.084 58.5456 497.084 59.293H494.691C494.682 58.8464 494.582 58.4271 494.391 58.0352C494.208 57.6341 493.958 57.2832 493.639 56.9824C493.32 56.6816 492.937 56.4447 492.49 56.2715C492.053 56.0983 491.579 56.0117 491.068 56.0117C490.285 56.0117 489.624 56.1712 489.086 56.4902C488.557 56.8001 488.129 57.2103 487.801 57.7207C487.473 58.222 487.236 58.7871 487.09 59.416C486.953 60.0449 486.885 60.6784 486.885 61.3164V61.8906C486.885 62.5378 486.953 63.1803 487.09 63.8184C487.236 64.4473 487.468 65.0169 487.787 65.5273C488.115 66.0286 488.544 66.4388 489.072 66.7578C489.61 67.0677 490.275 67.2227 491.068 67.2227ZM511.303 69C511.202 68.8086 511.12 68.5716 511.057 68.2891C511.002 67.9974 510.961 67.6966 510.934 67.3867C510.678 67.6419 510.391 67.8835 510.072 68.1113C509.762 68.3392 509.416 68.5397 509.033 68.7129C508.66 68.8861 508.258 69.0228 507.83 69.123C507.402 69.2233 506.946 69.2734 506.463 69.2734C505.679 69.2734 504.968 69.1595 504.33 68.9316C503.701 68.7038 503.163 68.3984 502.717 68.0156C502.279 67.6237 501.938 67.1634 501.691 66.6348C501.454 66.097 501.336 65.5182 501.336 64.8984C501.336 64.0872 501.495 63.3763 501.814 62.7656C502.143 62.1549 502.603 61.6491 503.195 61.248C503.788 60.8379 504.499 60.5326 505.328 60.332C506.167 60.1315 507.101 60.0312 508.131 60.0312H510.893V58.8691C510.893 58.4225 510.811 58.0215 510.646 57.666C510.482 57.3105 510.25 57.0098 509.949 56.7637C509.648 56.5085 509.279 56.3125 508.842 56.1758C508.413 56.0391 507.93 55.9707 507.393 55.9707C506.891 55.9707 506.44 56.0345 506.039 56.1621C505.647 56.2897 505.314 56.4583 505.041 56.668C504.768 56.8776 504.553 57.1283 504.398 57.4199C504.253 57.7025 504.18 57.9987 504.18 58.3086H501.637C501.646 57.7708 501.783 57.2422 502.047 56.7227C502.32 56.2031 502.708 55.7383 503.209 55.3281C503.719 54.9089 504.335 54.5716 505.055 54.3164C505.784 54.0612 506.609 53.9336 507.529 53.9336C508.368 53.9336 509.147 54.0384 509.867 54.248C510.587 54.4486 511.207 54.7585 511.727 55.1777C512.255 55.5879 512.67 56.1029 512.971 56.7227C513.271 57.3424 513.422 58.0671 513.422 58.8965V65.7734C513.422 66.2656 513.467 66.7897 513.559 67.3457C513.65 67.8926 513.777 68.3711 513.941 68.7812V69H511.303ZM506.832 67.0723C507.324 67.0723 507.785 67.0085 508.213 66.8809C508.641 66.7533 509.029 66.5846 509.375 66.375C509.73 66.1654 510.036 65.9284 510.291 65.6641C510.546 65.3906 510.747 65.1081 510.893 64.8164V61.8223H508.541C507.064 61.8223 505.916 62.041 505.096 62.4785C504.275 62.916 503.865 63.6042 503.865 64.543C503.865 64.9076 503.924 65.2448 504.043 65.5547C504.171 65.8646 504.357 66.1335 504.604 66.3613C504.85 66.5801 505.16 66.7533 505.533 66.8809C505.907 67.0085 506.34 67.0723 506.832 67.0723ZM524.387 50.625V54.207H530.02V56.1621H524.387V64.2012C524.387 64.7754 524.46 65.2493 524.605 65.623C524.751 65.9967 524.952 66.2975 525.207 66.5254C525.462 66.7441 525.754 66.8991 526.082 66.9902C526.419 67.0814 526.775 67.127 527.148 67.127C527.422 67.127 527.704 67.1133 527.996 67.0859C528.288 67.0495 528.57 67.0085 528.844 66.9629C529.126 66.9173 529.386 66.8717 529.623 66.8262C529.869 66.7715 530.07 66.7259 530.225 66.6895L530.58 68.4805C530.37 68.6081 530.115 68.722 529.814 68.8223C529.514 68.9134 529.186 68.9909 528.83 69.0547C528.475 69.1276 528.096 69.1823 527.695 69.2188C527.303 69.2552 526.911 69.2734 526.52 69.2734C525.863 69.2734 525.248 69.1823 524.674 69C524.109 68.8086 523.617 68.5124 523.197 68.1113C522.778 67.7012 522.445 67.1771 522.199 66.5391C521.962 65.8919 521.844 65.1126 521.844 64.2012V56.1621H517.961V54.207H521.844V50.625H524.387ZM535.611 54.207H543.172V66.8125H547.998V69H535.611V66.8125H540.643V56.4082H535.611V54.207ZM540.314 50.3242C540.314 49.9049 540.438 49.554 540.684 49.2715C540.939 48.9798 541.322 48.834 541.832 48.834C542.333 48.834 542.712 48.9798 542.967 49.2715C543.222 49.554 543.35 49.9049 543.35 50.3242C543.35 50.7344 543.222 51.0762 542.967 51.3496C542.712 51.623 542.333 51.7598 541.832 51.7598C541.322 51.7598 540.939 51.623 540.684 51.3496C540.438 51.0762 540.314 50.7344 540.314 50.3242ZM551.32 61.4668C551.32 60.4004 551.475 59.4115 551.785 58.5C552.095 57.5794 552.537 56.7819 553.111 56.1074C553.695 55.4329 554.401 54.9043 555.23 54.5215C556.06 54.1296 556.994 53.9336 558.033 53.9336C559.081 53.9336 560.02 54.1296 560.85 54.5215C561.688 54.9043 562.395 55.4329 562.969 56.1074C563.552 56.7819 563.999 57.5794 564.309 58.5C564.618 59.4115 564.773 60.4004 564.773 61.4668V61.7676C564.773 62.834 564.618 63.8229 564.309 64.7344C563.999 65.6458 563.552 66.4388 562.969 67.1133C562.395 67.7878 561.693 68.3164 560.863 68.6992C560.034 69.082 559.1 69.2734 558.061 69.2734C557.012 69.2734 556.069 69.082 555.23 68.6992C554.401 68.3164 553.695 67.7878 553.111 67.1133C552.537 66.4388 552.095 65.6458 551.785 64.7344C551.475 63.8229 551.32 62.834 551.32 61.7676V61.4668ZM553.85 61.7676C553.85 62.4967 553.936 63.194 554.109 63.8594C554.283 64.5156 554.542 65.0944 554.889 65.5957C555.244 66.097 555.686 66.4935 556.215 66.7852C556.743 67.0768 557.359 67.2227 558.061 67.2227C558.753 67.2227 559.359 67.0768 559.879 66.7852C560.408 66.4935 560.845 66.097 561.191 65.5957C561.547 65.0944 561.811 64.5156 561.984 63.8594C562.158 63.194 562.244 62.4967 562.244 61.7676V61.4668C562.244 60.7467 562.153 60.0586 561.971 59.4023C561.798 58.737 561.533 58.1536 561.178 57.6523C560.831 57.151 560.394 56.7546 559.865 56.4629C559.346 56.1621 558.735 56.0117 558.033 56.0117C557.331 56.0117 556.721 56.1621 556.201 56.4629C555.682 56.7546 555.244 57.151 554.889 57.6523C554.542 58.1536 554.283 58.737 554.109 59.4023C553.936 60.0586 553.85 60.7467 553.85 61.4668V61.7676ZM571.117 54.207L571.295 56.3945C571.833 55.6289 572.493 55.0319 573.277 54.6035C574.061 54.166 574.936 53.9427 575.902 53.9336C576.677 53.9336 577.379 54.043 578.008 54.2617C578.646 54.4805 579.188 54.8223 579.635 55.2871C580.081 55.752 580.423 56.3444 580.66 57.0645C580.906 57.7754 581.029 58.623 581.029 59.6074V69H578.5V59.6621C578.5 59.0059 578.427 58.4499 578.281 57.9941C578.135 57.5384 577.917 57.1693 577.625 56.8867C577.342 56.6042 576.992 56.3991 576.572 56.2715C576.162 56.1439 575.688 56.0801 575.15 56.0801C574.303 56.0801 573.555 56.2943 572.908 56.7227C572.27 57.1419 571.76 57.6979 571.377 58.3906V69H568.848V54.207H571.117ZM612.898 63.9688C612.898 63.3581 612.757 62.8431 612.475 62.4238C612.201 62.0046 611.846 61.6536 611.408 61.3711C610.971 61.0794 610.488 60.8379 609.959 60.6465C609.439 60.4551 608.938 60.2819 608.455 60.127C607.753 59.8991 607.038 59.6257 606.309 59.3066C605.589 58.9876 604.928 58.5957 604.326 58.1309C603.734 57.666 603.246 57.1191 602.863 56.4902C602.49 55.8522 602.303 55.1048 602.303 54.248C602.303 53.3913 602.49 52.6257 602.863 51.9512C603.246 51.2767 603.743 50.707 604.354 50.2422C604.964 49.7773 605.657 49.4264 606.432 49.1895C607.206 48.9434 607.986 48.8203 608.77 48.8203C609.635 48.8203 610.469 48.9661 611.271 49.2578C612.074 49.5404 612.785 49.9414 613.404 50.4609C614.024 50.9805 614.521 51.6094 614.895 52.3477C615.268 53.0859 615.464 53.9108 615.482 54.8223H612.885C612.812 54.248 612.671 53.7285 612.461 53.2637C612.251 52.7897 611.973 52.3841 611.627 52.0469C611.281 51.7096 610.866 51.4499 610.383 51.2676C609.909 51.0762 609.371 50.9805 608.77 50.9805C608.286 50.9805 607.812 51.0488 607.348 51.1855C606.892 51.3223 606.482 51.5273 606.117 51.8008C605.762 52.0742 605.475 52.4115 605.256 52.8125C605.046 53.2135 604.941 53.6784 604.941 54.207C604.951 54.7812 605.096 55.2689 605.379 55.6699C605.661 56.0618 606.017 56.3945 606.445 56.668C606.883 56.9414 607.352 57.1693 607.854 57.3516C608.364 57.5339 608.842 57.6934 609.289 57.8301C609.781 57.985 610.278 58.1628 610.779 58.3633C611.281 58.5547 611.764 58.778 612.229 59.0332C612.693 59.2884 613.126 59.5755 613.527 59.8945C613.928 60.2135 614.279 60.5781 614.58 60.9883C614.881 61.3893 615.113 61.8359 615.277 62.3281C615.451 62.8112 615.537 63.349 615.537 63.9414C615.537 64.8346 615.337 65.6139 614.936 66.2793C614.544 66.9447 614.033 67.5007 613.404 67.9473C612.775 68.3848 612.064 68.7174 611.271 68.9453C610.479 69.1641 609.686 69.2734 608.893 69.2734C608.008 69.2734 607.143 69.1367 606.295 68.8633C605.447 68.5898 604.686 68.1979 604.012 67.6875C603.346 67.168 602.804 66.5391 602.385 65.8008C601.965 65.0534 601.742 64.2057 601.715 63.2578H604.299C604.381 63.8776 604.549 64.429 604.805 64.9121C605.06 65.3861 605.388 65.7917 605.789 66.1289C606.19 66.457 606.65 66.7077 607.17 66.8809C607.699 67.0449 608.273 67.127 608.893 67.127C609.385 67.127 609.868 67.0677 610.342 66.9492C610.825 66.8216 611.253 66.6302 611.627 66.375C612.001 66.1107 612.306 65.7826 612.543 65.3906C612.78 64.9896 612.898 64.5156 612.898 63.9688ZM624.738 63.75L625.395 65.541L629.906 54.207H632.736L625.23 71.2832C625.057 71.666 624.834 72.0716 624.561 72.5C624.296 72.9284 623.973 73.3249 623.59 73.6895C623.207 74.054 622.76 74.3594 622.25 74.6055C621.74 74.8516 621.152 74.9746 620.486 74.9746C620.368 74.9746 620.236 74.9655 620.09 74.9473C619.944 74.9382 619.798 74.9199 619.652 74.8926C619.507 74.8743 619.37 74.8516 619.242 74.8242C619.115 74.7969 619.01 74.7741 618.928 74.7559L619.338 72.6914C619.402 72.6914 619.488 72.696 619.598 72.7051C619.707 72.7142 619.821 72.7233 619.939 72.7324C620.058 72.7415 620.172 72.7461 620.281 72.7461C620.391 72.7552 620.477 72.7598 620.541 72.7598C620.887 72.7598 621.202 72.6641 621.484 72.4727C621.776 72.2812 622.031 72.0534 622.25 71.7891C622.478 71.5247 622.669 71.2513 622.824 70.9688C622.988 70.6862 623.116 70.4538 623.207 70.2715L624.219 68.3027L617.848 54.207H620.678L624.738 63.75ZM645.943 65.0762C645.943 64.7754 645.884 64.5065 645.766 64.2695C645.647 64.0234 645.447 63.8001 645.164 63.5996C644.882 63.3991 644.508 63.2168 644.043 63.0527C643.578 62.8796 642.999 62.7246 642.307 62.5879C641.459 62.4147 640.684 62.2051 639.982 61.959C639.29 61.7129 638.693 61.4212 638.191 61.084C637.699 60.7376 637.316 60.3366 637.043 59.8809C636.77 59.416 636.633 58.8783 636.633 58.2676C636.633 57.666 636.774 57.1055 637.057 56.5859C637.339 56.0573 637.736 55.597 638.246 55.2051C638.757 54.8132 639.363 54.5033 640.064 54.2754C640.775 54.0475 641.555 53.9336 642.402 53.9336C643.314 53.9336 644.134 54.0521 644.863 54.2891C645.592 54.526 646.212 54.8542 646.723 55.2734C647.233 55.6927 647.625 56.1849 647.898 56.75C648.181 57.306 648.322 57.9076 648.322 58.5547H645.793C645.793 58.2357 645.711 57.9258 645.547 57.625C645.383 57.3151 645.155 57.0417 644.863 56.8047C644.572 56.5677 644.216 56.3763 643.797 56.2305C643.387 56.0846 642.922 56.0117 642.402 56.0117C641.865 56.0117 641.391 56.071 640.98 56.1895C640.579 56.3079 640.242 56.4674 639.969 56.668C639.704 56.8685 639.504 57.1009 639.367 57.3652C639.23 57.6296 639.162 57.903 639.162 58.1855C639.162 58.4772 639.217 58.737 639.326 58.9648C639.436 59.1927 639.622 59.3978 639.887 59.5801C640.16 59.7624 640.52 59.9264 640.967 60.0723C641.423 60.2181 641.997 60.3594 642.689 60.4961C643.601 60.6875 644.417 60.9108 645.137 61.166C645.857 61.4121 646.463 61.7129 646.955 62.0684C647.447 62.4147 647.821 62.8203 648.076 63.2852C648.34 63.75 648.473 64.2878 648.473 64.8984C648.473 65.5547 648.322 66.1517 648.021 66.6895C647.73 67.2272 647.32 67.6875 646.791 68.0703C646.262 68.4531 645.629 68.7493 644.891 68.959C644.152 69.1686 643.346 69.2734 642.471 69.2734C641.468 69.2734 640.575 69.1413 639.791 68.877C639.007 68.6035 638.342 68.248 637.795 67.8105C637.257 67.3639 636.842 66.849 636.551 66.2656C636.268 65.6823 636.127 65.0762 636.127 64.4473H638.656C638.693 64.9668 638.829 65.4043 639.066 65.7598C639.312 66.1152 639.613 66.4023 639.969 66.6211C640.333 66.8398 640.734 66.9948 641.172 67.0859C641.609 67.1771 642.042 67.2227 642.471 67.2227C643.537 67.2227 644.38 67.0267 645 66.6348C645.62 66.2428 645.934 65.7233 645.943 65.0762ZM658.918 50.625V54.207H664.551V56.1621H658.918V64.2012C658.918 64.7754 658.991 65.2493 659.137 65.623C659.283 65.9967 659.483 66.2975 659.738 66.5254C659.993 66.7441 660.285 66.8991 660.613 66.9902C660.951 67.0814 661.306 67.127 661.68 67.127C661.953 67.127 662.236 67.1133 662.527 67.0859C662.819 67.0495 663.102 67.0085 663.375 66.9629C663.658 66.9173 663.917 66.8717 664.154 66.8262C664.4 66.7715 664.601 66.7259 664.756 66.6895L665.111 68.4805C664.902 68.6081 664.646 68.722 664.346 68.8223C664.045 68.9134 663.717 68.9909 663.361 69.0547C663.006 69.1276 662.628 69.1823 662.227 69.2188C661.835 69.2552 661.443 69.2734 661.051 69.2734C660.395 69.2734 659.779 69.1823 659.205 69C658.64 68.8086 658.148 68.5124 657.729 68.1113C657.309 67.7012 656.977 67.1771 656.73 66.5391C656.493 65.8919 656.375 65.1126 656.375 64.2012V56.1621H652.492V54.207H656.375V50.625H658.918ZM676.281 69.2734C675.242 69.2734 674.285 69.0957 673.41 68.7402C672.544 68.3848 671.801 67.888 671.182 67.25C670.562 66.612 670.079 65.8555 669.732 64.9805C669.386 64.1055 669.213 63.153 669.213 62.123V61.5488C669.213 60.3548 669.404 59.2884 669.787 58.3496C670.17 57.4017 670.676 56.6042 671.305 55.957C671.943 55.3008 672.663 54.7995 673.465 54.4531C674.276 54.1068 675.105 53.9336 675.953 53.9336C677.02 53.9336 677.949 54.1204 678.742 54.4941C679.544 54.8587 680.21 55.3691 680.738 56.0254C681.267 56.6725 681.659 57.4382 681.914 58.3223C682.178 59.2064 682.311 60.1634 682.311 61.1934V62.3281H671.742C671.77 63.0026 671.897 63.6361 672.125 64.2285C672.362 64.821 672.681 65.3405 673.082 65.7871C673.492 66.2246 673.98 66.571 674.545 66.8262C675.11 67.0814 675.734 67.209 676.418 67.209C677.32 67.209 678.122 67.0267 678.824 66.6621C679.526 66.2975 680.109 65.8145 680.574 65.2129L682.119 66.416C681.873 66.7897 681.563 67.1497 681.189 67.4961C680.825 67.8333 680.401 68.1341 679.918 68.3984C679.435 68.6628 678.888 68.8724 678.277 69.0273C677.667 69.1914 677.001 69.2734 676.281 69.2734ZM675.953 56.0117C675.443 56.0117 674.96 56.1074 674.504 56.2988C674.048 56.4811 673.638 56.7546 673.273 57.1191C672.909 57.4746 672.599 57.9167 672.344 58.4453C672.098 58.9648 671.924 59.5664 671.824 60.25H679.781V60.0586C679.754 59.5664 679.658 59.0788 679.494 58.5957C679.339 58.1126 679.107 57.6797 678.797 57.2969C678.487 56.9141 678.095 56.6042 677.621 56.3672C677.156 56.1302 676.6 56.0117 675.953 56.0117ZM687.725 54.207L687.793 55.6016C688.094 55.082 688.486 54.6764 688.969 54.3848C689.461 54.0931 690.053 53.9427 690.746 53.9336C692.104 53.9336 693.011 54.4622 693.467 55.5195C693.758 55.0456 694.141 54.6673 694.615 54.3848C695.098 54.0931 695.682 53.9427 696.365 53.9336C697.45 53.9336 698.284 54.2663 698.867 54.9316C699.451 55.597 699.742 56.6042 699.742 57.9531V69H697.336V57.9258C697.336 56.6862 696.766 56.071 695.627 56.0801C695.326 56.0801 695.066 56.1211 694.848 56.2031C694.629 56.2852 694.447 56.3991 694.301 56.5449C694.155 56.6816 694.041 56.8457 693.959 57.0371C693.877 57.2194 693.822 57.4108 693.795 57.6113V69H691.389V57.9121C691.389 57.3197 691.257 56.8639 690.992 56.5449C690.728 56.2259 690.309 56.071 689.734 56.0801C689.206 56.0801 688.796 56.1849 688.504 56.3945C688.212 56.6042 687.998 56.8822 687.861 57.2285V69H685.455V54.207H687.725Z" fill="white"/>
<path d="M376.717 305.846H370.072L368.473 311H365.943L372.369 291.094H374.488L380.805 311H378.289L376.717 305.846ZM370.756 303.645H376.047L373.422 295.004L370.756 303.645ZM386.793 303.016V311H384.264V291.094H390.717C391.61 291.112 392.453 291.253 393.246 291.518C394.048 291.782 394.75 292.165 395.352 292.666C395.953 293.167 396.427 293.787 396.773 294.525C397.129 295.264 397.307 296.111 397.307 297.068C397.307 298.025 397.129 298.873 396.773 299.611C396.427 300.34 395.953 300.956 395.352 301.457C394.75 301.958 394.048 302.341 393.246 302.605C392.453 302.87 391.61 303.007 390.717 303.016H386.793ZM386.793 300.938H390.717C391.3 300.928 391.838 300.837 392.33 300.664C392.822 300.482 393.251 300.227 393.615 299.898C393.98 299.57 394.262 299.174 394.463 298.709C394.673 298.235 394.777 297.697 394.777 297.096C394.777 296.494 394.673 295.952 394.463 295.469C394.262 294.986 393.98 294.576 393.615 294.238C393.26 293.901 392.831 293.641 392.33 293.459C391.838 293.277 391.3 293.181 390.717 293.172H386.793V300.938ZM400.848 291.094H412.879V293.295H408.107V308.812H412.879V311H400.848V308.812H405.51V293.295H400.848V291.094ZM447.373 305.012C447.255 305.932 447.018 306.78 446.662 307.555C446.307 308.32 445.842 308.981 445.268 309.537C444.702 310.084 444.028 310.512 443.244 310.822C442.469 311.123 441.604 311.273 440.646 311.273C439.826 311.273 439.079 311.16 438.404 310.932C437.739 310.695 437.142 310.371 436.613 309.961C436.094 309.551 435.643 309.068 435.26 308.512C434.886 307.956 434.572 307.35 434.316 306.693C434.07 306.037 433.883 305.349 433.756 304.629C433.637 303.909 433.574 303.18 433.564 302.441V299.666C433.574 298.928 433.637 298.199 433.756 297.479C433.883 296.758 434.07 296.07 434.316 295.414C434.572 294.758 434.886 294.152 435.26 293.596C435.643 293.031 436.094 292.543 436.613 292.133C437.142 291.723 437.739 291.404 438.404 291.176C439.07 290.939 439.817 290.82 440.646 290.82C441.64 290.82 442.529 290.975 443.312 291.285C444.096 291.586 444.771 292.019 445.336 292.584C445.901 293.14 446.352 293.81 446.689 294.594C447.036 295.378 447.264 296.243 447.373 297.191H444.844C444.762 296.59 444.62 296.029 444.42 295.51C444.219 294.99 443.951 294.535 443.613 294.143C443.276 293.751 442.861 293.445 442.369 293.227C441.886 292.999 441.312 292.885 440.646 292.885C440.045 292.885 439.512 292.985 439.047 293.186C438.591 293.377 438.195 293.641 437.857 293.979C437.529 294.316 437.251 294.708 437.023 295.154C436.805 295.601 436.627 296.075 436.49 296.576C436.354 297.077 436.253 297.592 436.189 298.121C436.135 298.641 436.107 299.146 436.107 299.639V302.441C436.107 302.934 436.135 303.444 436.189 303.973C436.253 304.492 436.354 305.007 436.49 305.518C436.627 306.019 436.805 306.493 437.023 306.939C437.242 307.386 437.52 307.783 437.857 308.129C438.195 308.466 438.591 308.735 439.047 308.936C439.503 309.127 440.036 309.223 440.646 309.223C441.312 309.223 441.886 309.118 442.369 308.908C442.861 308.699 443.276 308.407 443.613 308.033C443.951 307.65 444.219 307.204 444.42 306.693C444.62 306.174 444.762 305.613 444.844 305.012H447.373ZM451.693 290H459.254V308.812H464.08V311H451.693V308.812H456.725V292.201H451.693V290ZM468.51 296.207H476.07V308.812H480.896V311H468.51V308.812H473.541V298.408H468.51V296.207ZM473.213 292.324C473.213 291.905 473.336 291.554 473.582 291.271C473.837 290.98 474.22 290.834 474.73 290.834C475.232 290.834 475.61 290.98 475.865 291.271C476.12 291.554 476.248 291.905 476.248 292.324C476.248 292.734 476.12 293.076 475.865 293.35C475.61 293.623 475.232 293.76 474.73 293.76C474.22 293.76 473.837 293.623 473.582 293.35C473.336 293.076 473.213 292.734 473.213 292.324ZM491.465 311.273C490.426 311.273 489.469 311.096 488.594 310.74C487.728 310.385 486.985 309.888 486.365 309.25C485.745 308.612 485.262 307.855 484.916 306.98C484.57 306.105 484.396 305.153 484.396 304.123V303.549C484.396 302.355 484.588 301.288 484.971 300.35C485.354 299.402 485.859 298.604 486.488 297.957C487.126 297.301 487.846 296.799 488.648 296.453C489.46 296.107 490.289 295.934 491.137 295.934C492.203 295.934 493.133 296.12 493.926 296.494C494.728 296.859 495.393 297.369 495.922 298.025C496.451 298.673 496.842 299.438 497.098 300.322C497.362 301.206 497.494 302.163 497.494 303.193V304.328H486.926C486.953 305.003 487.081 305.636 487.309 306.229C487.546 306.821 487.865 307.34 488.266 307.787C488.676 308.225 489.163 308.571 489.729 308.826C490.294 309.081 490.918 309.209 491.602 309.209C492.504 309.209 493.306 309.027 494.008 308.662C494.71 308.298 495.293 307.814 495.758 307.213L497.303 308.416C497.057 308.79 496.747 309.15 496.373 309.496C496.008 309.833 495.585 310.134 495.102 310.398C494.618 310.663 494.072 310.872 493.461 311.027C492.85 311.191 492.185 311.273 491.465 311.273ZM491.137 298.012C490.626 298.012 490.143 298.107 489.688 298.299C489.232 298.481 488.822 298.755 488.457 299.119C488.092 299.475 487.783 299.917 487.527 300.445C487.281 300.965 487.108 301.566 487.008 302.25H494.965V302.059C494.938 301.566 494.842 301.079 494.678 300.596C494.523 300.113 494.29 299.68 493.98 299.297C493.671 298.914 493.279 298.604 492.805 298.367C492.34 298.13 491.784 298.012 491.137 298.012ZM504.016 296.207L504.193 298.395C504.731 297.629 505.392 297.032 506.176 296.604C506.96 296.166 507.835 295.943 508.801 295.934C509.576 295.934 510.277 296.043 510.906 296.262C511.544 296.48 512.087 296.822 512.533 297.287C512.98 297.752 513.322 298.344 513.559 299.064C513.805 299.775 513.928 300.623 513.928 301.607V311H511.398V301.662C511.398 301.006 511.326 300.45 511.18 299.994C511.034 299.538 510.815 299.169 510.523 298.887C510.241 298.604 509.89 298.399 509.471 298.271C509.061 298.144 508.587 298.08 508.049 298.08C507.201 298.08 506.454 298.294 505.807 298.723C505.169 299.142 504.658 299.698 504.275 300.391V311H501.746V296.207H504.016ZM524.551 292.625V296.207H530.184V298.162H524.551V306.201C524.551 306.775 524.624 307.249 524.77 307.623C524.915 307.997 525.116 308.298 525.371 308.525C525.626 308.744 525.918 308.899 526.246 308.99C526.583 309.081 526.939 309.127 527.312 309.127C527.586 309.127 527.868 309.113 528.16 309.086C528.452 309.049 528.734 309.008 529.008 308.963C529.29 308.917 529.55 308.872 529.787 308.826C530.033 308.771 530.234 308.726 530.389 308.689L530.744 310.48C530.535 310.608 530.279 310.722 529.979 310.822C529.678 310.913 529.35 310.991 528.994 311.055C528.639 311.128 528.26 311.182 527.859 311.219C527.467 311.255 527.076 311.273 526.684 311.273C526.027 311.273 525.412 311.182 524.838 311C524.273 310.809 523.781 310.512 523.361 310.111C522.942 309.701 522.609 309.177 522.363 308.539C522.126 307.892 522.008 307.113 522.008 306.201V298.162H518.125V296.207H522.008V292.625H524.551Z" fill="white"/>
<path d="M484.963 425H482.57V415.799H474.408V425H472.029V405.094H474.408V413.652H482.57V405.094H484.963V425ZM495.832 425.273C494.793 425.273 493.836 425.096 492.961 424.74C492.095 424.385 491.352 423.888 490.732 423.25C490.113 422.612 489.63 421.855 489.283 420.98C488.937 420.105 488.764 419.153 488.764 418.123V417.549C488.764 416.355 488.955 415.288 489.338 414.35C489.721 413.402 490.227 412.604 490.855 411.957C491.493 411.301 492.214 410.799 493.016 410.453C493.827 410.107 494.656 409.934 495.504 409.934C496.57 409.934 497.5 410.12 498.293 410.494C499.095 410.859 499.76 411.369 500.289 412.025C500.818 412.673 501.21 413.438 501.465 414.322C501.729 415.206 501.861 416.163 501.861 417.193V418.328H491.293C491.32 419.003 491.448 419.636 491.676 420.229C491.913 420.821 492.232 421.34 492.633 421.787C493.043 422.225 493.531 422.571 494.096 422.826C494.661 423.081 495.285 423.209 495.969 423.209C496.871 423.209 497.673 423.027 498.375 422.662C499.077 422.298 499.66 421.814 500.125 421.213L501.67 422.416C501.424 422.79 501.114 423.15 500.74 423.496C500.376 423.833 499.952 424.134 499.469 424.398C498.986 424.663 498.439 424.872 497.828 425.027C497.217 425.191 496.552 425.273 495.832 425.273ZM495.504 412.012C494.993 412.012 494.51 412.107 494.055 412.299C493.599 412.481 493.189 412.755 492.824 413.119C492.46 413.475 492.15 413.917 491.895 414.445C491.648 414.965 491.475 415.566 491.375 416.25H499.332V416.059C499.305 415.566 499.209 415.079 499.045 414.596C498.89 414.113 498.658 413.68 498.348 413.297C498.038 412.914 497.646 412.604 497.172 412.367C496.707 412.13 496.151 412.012 495.504 412.012ZM515.807 409.934C516.044 409.934 516.29 409.943 516.545 409.961C516.8 409.97 517.042 409.993 517.27 410.029C517.507 410.057 517.721 410.093 517.912 410.139C518.113 410.184 518.277 410.234 518.404 410.289L518.062 412.764C517.57 412.654 517.101 412.577 516.654 412.531C516.217 412.477 515.757 412.449 515.273 412.449C514.089 412.449 513.127 412.718 512.389 413.256C511.66 413.794 511.122 414.546 510.775 415.512V425H508.232V410.207H510.639L510.762 412.559C511.363 411.747 512.083 411.109 512.922 410.645C513.77 410.171 514.731 409.934 515.807 409.934ZM522.219 417.467C522.219 416.4 522.374 415.411 522.684 414.5C522.993 413.579 523.436 412.782 524.01 412.107C524.593 411.433 525.299 410.904 526.129 410.521C526.958 410.13 527.893 409.934 528.932 409.934C529.98 409.934 530.919 410.13 531.748 410.521C532.587 410.904 533.293 411.433 533.867 412.107C534.451 412.782 534.897 413.579 535.207 414.5C535.517 415.411 535.672 416.4 535.672 417.467V417.768C535.672 418.834 535.517 419.823 535.207 420.734C534.897 421.646 534.451 422.439 533.867 423.113C533.293 423.788 532.591 424.316 531.762 424.699C530.932 425.082 529.998 425.273 528.959 425.273C527.911 425.273 526.967 425.082 526.129 424.699C525.299 424.316 524.593 423.788 524.01 423.113C523.436 422.439 522.993 421.646 522.684 420.734C522.374 419.823 522.219 418.834 522.219 417.768V417.467ZM524.748 417.768C524.748 418.497 524.835 419.194 525.008 419.859C525.181 420.516 525.441 421.094 525.787 421.596C526.143 422.097 526.585 422.493 527.113 422.785C527.642 423.077 528.257 423.223 528.959 423.223C529.652 423.223 530.258 423.077 530.777 422.785C531.306 422.493 531.743 422.097 532.09 421.596C532.445 421.094 532.71 420.516 532.883 419.859C533.056 419.194 533.143 418.497 533.143 417.768V417.467C533.143 416.747 533.051 416.059 532.869 415.402C532.696 414.737 532.432 414.154 532.076 413.652C531.73 413.151 531.292 412.755 530.764 412.463C530.244 412.162 529.633 412.012 528.932 412.012C528.23 412.012 527.619 412.162 527.1 412.463C526.58 412.755 526.143 413.151 525.787 413.652C525.441 414.154 525.181 414.737 525.008 415.402C524.835 416.059 524.748 416.747 524.748 417.467V417.768ZM544.176 418.096L542.316 419.887V425H539.773V404H542.316V416.852L543.971 415.074L548.824 410.207H551.9L545.912 416.373L552.816 425H549.604L544.176 418.096ZM566.16 422.963C565.668 423.692 565.053 424.262 564.314 424.672C563.576 425.073 562.724 425.273 561.758 425.273C560.983 425.273 560.281 425.155 559.652 424.918C559.023 424.672 558.486 424.294 558.039 423.783C557.592 423.273 557.246 422.626 557 421.842C556.763 421.049 556.645 420.101 556.645 418.998V410.207H559.174V419.025C559.174 419.827 559.238 420.493 559.365 421.021C559.493 421.55 559.684 421.974 559.939 422.293C560.195 422.603 560.505 422.822 560.869 422.949C561.243 423.077 561.671 423.141 562.154 423.141C563.184 423.141 564.014 422.931 564.643 422.512C565.281 422.092 565.755 421.527 566.064 420.816V410.207H568.607V425H566.311L566.16 422.963Z" fill="white"/>
<path d="M878.453 236V216.094H884.373C885.193 216.103 885.995 216.212 886.779 216.422C887.563 216.622 888.26 216.937 888.871 217.365C889.482 217.794 889.969 218.34 890.334 219.006C890.699 219.671 890.876 220.469 890.867 221.398C890.858 221.918 890.771 222.392 890.607 222.82C890.452 223.249 890.234 223.636 889.951 223.982C889.678 224.32 889.354 224.616 888.98 224.871C888.607 225.126 888.21 225.345 887.791 225.527C888.32 225.682 888.803 225.906 889.24 226.197C889.687 226.48 890.07 226.826 890.389 227.236C890.708 227.637 890.954 228.093 891.127 228.604C891.309 229.114 891.4 229.665 891.4 230.258C891.41 231.188 891.232 232.008 890.867 232.719C890.503 233.43 890.015 234.027 889.404 234.51C888.794 234.984 888.087 235.348 887.285 235.604C886.492 235.859 885.672 235.991 884.824 236H878.453ZM880.996 226.689V233.854H884.893C885.421 233.844 885.923 233.758 886.396 233.594C886.87 233.421 887.29 233.184 887.654 232.883C888.019 232.582 888.306 232.213 888.516 231.775C888.734 231.338 888.844 230.841 888.844 230.285C888.853 229.72 888.757 229.219 888.557 228.781C888.365 228.344 888.096 227.975 887.75 227.674C887.404 227.364 886.998 227.127 886.533 226.963C886.068 226.799 885.567 226.708 885.029 226.689H880.996ZM880.996 224.584H884.523C884.997 224.575 885.462 224.502 885.918 224.365C886.374 224.219 886.779 224.014 887.135 223.75C887.49 223.477 887.777 223.144 887.996 222.752C888.215 222.36 888.324 221.904 888.324 221.385C888.324 220.829 888.215 220.355 887.996 219.963C887.786 219.571 887.499 219.252 887.135 219.006C886.779 218.751 886.365 218.564 885.891 218.445C885.426 218.327 884.947 218.263 884.455 218.254H880.996V224.584ZM905.018 236C904.917 235.809 904.835 235.572 904.771 235.289C904.717 234.997 904.676 234.697 904.648 234.387C904.393 234.642 904.106 234.883 903.787 235.111C903.477 235.339 903.131 235.54 902.748 235.713C902.374 235.886 901.973 236.023 901.545 236.123C901.117 236.223 900.661 236.273 900.178 236.273C899.394 236.273 898.683 236.16 898.045 235.932C897.416 235.704 896.878 235.398 896.432 235.016C895.994 234.624 895.652 234.163 895.406 233.635C895.169 233.097 895.051 232.518 895.051 231.898C895.051 231.087 895.21 230.376 895.529 229.766C895.857 229.155 896.318 228.649 896.91 228.248C897.503 227.838 898.214 227.533 899.043 227.332C899.882 227.132 900.816 227.031 901.846 227.031H904.607V225.869C904.607 225.423 904.525 225.021 904.361 224.666C904.197 224.311 903.965 224.01 903.664 223.764C903.363 223.508 902.994 223.312 902.557 223.176C902.128 223.039 901.645 222.971 901.107 222.971C900.606 222.971 900.155 223.035 899.754 223.162C899.362 223.29 899.029 223.458 898.756 223.668C898.482 223.878 898.268 224.128 898.113 224.42C897.967 224.702 897.895 224.999 897.895 225.309H895.352C895.361 224.771 895.497 224.242 895.762 223.723C896.035 223.203 896.423 222.738 896.924 222.328C897.434 221.909 898.049 221.572 898.77 221.316C899.499 221.061 900.324 220.934 901.244 220.934C902.083 220.934 902.862 221.038 903.582 221.248C904.302 221.449 904.922 221.758 905.441 222.178C905.97 222.588 906.385 223.103 906.686 223.723C906.986 224.342 907.137 225.067 907.137 225.896V232.773C907.137 233.266 907.182 233.79 907.273 234.346C907.365 234.893 907.492 235.371 907.656 235.781V236H905.018ZM900.547 234.072C901.039 234.072 901.499 234.008 901.928 233.881C902.356 233.753 902.743 233.585 903.09 233.375C903.445 233.165 903.751 232.928 904.006 232.664C904.261 232.391 904.462 232.108 904.607 231.816V228.822H902.256C900.779 228.822 899.631 229.041 898.811 229.479C897.99 229.916 897.58 230.604 897.58 231.543C897.58 231.908 897.639 232.245 897.758 232.555C897.885 232.865 898.072 233.133 898.318 233.361C898.564 233.58 898.874 233.753 899.248 233.881C899.622 234.008 900.055 234.072 900.547 234.072ZM921.943 232.076C921.943 231.775 921.884 231.507 921.766 231.27C921.647 231.023 921.447 230.8 921.164 230.6C920.882 230.399 920.508 230.217 920.043 230.053C919.578 229.88 918.999 229.725 918.307 229.588C917.459 229.415 916.684 229.205 915.982 228.959C915.29 228.713 914.693 228.421 914.191 228.084C913.699 227.738 913.316 227.337 913.043 226.881C912.77 226.416 912.633 225.878 912.633 225.268C912.633 224.666 912.774 224.105 913.057 223.586C913.339 223.057 913.736 222.597 914.246 222.205C914.757 221.813 915.363 221.503 916.064 221.275C916.775 221.048 917.555 220.934 918.402 220.934C919.314 220.934 920.134 221.052 920.863 221.289C921.592 221.526 922.212 221.854 922.723 222.273C923.233 222.693 923.625 223.185 923.898 223.75C924.181 224.306 924.322 224.908 924.322 225.555H921.793C921.793 225.236 921.711 224.926 921.547 224.625C921.383 224.315 921.155 224.042 920.863 223.805C920.572 223.568 920.216 223.376 919.797 223.23C919.387 223.085 918.922 223.012 918.402 223.012C917.865 223.012 917.391 223.071 916.98 223.189C916.579 223.308 916.242 223.467 915.969 223.668C915.704 223.868 915.504 224.101 915.367 224.365C915.23 224.63 915.162 224.903 915.162 225.186C915.162 225.477 915.217 225.737 915.326 225.965C915.436 226.193 915.622 226.398 915.887 226.58C916.16 226.762 916.52 226.926 916.967 227.072C917.423 227.218 917.997 227.359 918.689 227.496C919.601 227.688 920.417 227.911 921.137 228.166C921.857 228.412 922.463 228.713 922.955 229.068C923.447 229.415 923.821 229.82 924.076 230.285C924.34 230.75 924.473 231.288 924.473 231.898C924.473 232.555 924.322 233.152 924.021 233.689C923.73 234.227 923.32 234.688 922.791 235.07C922.262 235.453 921.629 235.749 920.891 235.959C920.152 236.169 919.346 236.273 918.471 236.273C917.468 236.273 916.575 236.141 915.791 235.877C915.007 235.604 914.342 235.248 913.795 234.811C913.257 234.364 912.842 233.849 912.551 233.266C912.268 232.682 912.127 232.076 912.127 231.447H914.656C914.693 231.967 914.829 232.404 915.066 232.76C915.312 233.115 915.613 233.402 915.969 233.621C916.333 233.84 916.734 233.995 917.172 234.086C917.609 234.177 918.042 234.223 918.471 234.223C919.537 234.223 920.38 234.027 921 233.635C921.62 233.243 921.934 232.723 921.943 232.076ZM933.359 229.096L931.5 230.887V236H928.957V215H931.5V227.852L933.154 226.074L938.008 221.207H941.084L935.096 227.373L942 236H938.787L933.359 229.096ZM952.281 236.273C951.242 236.273 950.285 236.096 949.41 235.74C948.544 235.385 947.801 234.888 947.182 234.25C946.562 233.612 946.079 232.855 945.732 231.98C945.386 231.105 945.213 230.153 945.213 229.123V228.549C945.213 227.355 945.404 226.288 945.787 225.35C946.17 224.402 946.676 223.604 947.305 222.957C947.943 222.301 948.663 221.799 949.465 221.453C950.276 221.107 951.105 220.934 951.953 220.934C953.02 220.934 953.949 221.12 954.742 221.494C955.544 221.859 956.21 222.369 956.738 223.025C957.267 223.673 957.659 224.438 957.914 225.322C958.178 226.206 958.311 227.163 958.311 228.193V229.328H947.742C947.77 230.003 947.897 230.636 948.125 231.229C948.362 231.821 948.681 232.34 949.082 232.787C949.492 233.225 949.98 233.571 950.545 233.826C951.11 234.081 951.734 234.209 952.418 234.209C953.32 234.209 954.122 234.027 954.824 233.662C955.526 233.298 956.109 232.814 956.574 232.213L958.119 233.416C957.873 233.79 957.563 234.15 957.189 234.496C956.825 234.833 956.401 235.134 955.918 235.398C955.435 235.663 954.888 235.872 954.277 236.027C953.667 236.191 953.001 236.273 952.281 236.273ZM951.953 223.012C951.443 223.012 950.96 223.107 950.504 223.299C950.048 223.481 949.638 223.755 949.273 224.119C948.909 224.475 948.599 224.917 948.344 225.445C948.098 225.965 947.924 226.566 947.824 227.25H955.781V227.059C955.754 226.566 955.658 226.079 955.494 225.596C955.339 225.113 955.107 224.68 954.797 224.297C954.487 223.914 954.095 223.604 953.621 223.367C953.156 223.13 952.6 223.012 951.953 223.012ZM968.551 217.625V221.207H974.184V223.162H968.551V231.201C968.551 231.775 968.624 232.249 968.77 232.623C968.915 232.997 969.116 233.298 969.371 233.525C969.626 233.744 969.918 233.899 970.246 233.99C970.583 234.081 970.939 234.127 971.312 234.127C971.586 234.127 971.868 234.113 972.16 234.086C972.452 234.049 972.734 234.008 973.008 233.963C973.29 233.917 973.55 233.872 973.787 233.826C974.033 233.771 974.234 233.726 974.389 233.689L974.744 235.48C974.535 235.608 974.279 235.722 973.979 235.822C973.678 235.913 973.35 235.991 972.994 236.055C972.639 236.128 972.26 236.182 971.859 236.219C971.467 236.255 971.076 236.273 970.684 236.273C970.027 236.273 969.412 236.182 968.838 236C968.273 235.809 967.781 235.512 967.361 235.111C966.942 234.701 966.609 234.177 966.363 233.539C966.126 232.892 966.008 232.113 966.008 231.201V223.162H962.125V221.207H966.008V217.625H968.551Z" fill="white"/>
<path d="M84.2773 170.938L87.0547 179.469L90.0547 170.938H92.75V188H90.6406V181.191L90.8164 174.066L87.6641 183.254H86.4219L83.5273 174.312L83.7031 181.191V188H81.5938V170.938H84.2773ZM100.977 183.5L101.539 185.035L105.406 175.32H107.832L101.398 189.957C101.25 190.285 101.059 190.633 100.824 191C100.598 191.367 100.32 191.707 99.9922 192.02C99.6641 192.332 99.2812 192.594 98.8438 192.805C98.4062 193.016 97.9023 193.121 97.332 193.121C97.2305 193.121 97.1172 193.113 96.9922 193.098C96.8672 193.09 96.7422 193.074 96.6172 193.051C96.4922 193.035 96.375 193.016 96.2656 192.992C96.1562 192.969 96.0664 192.949 95.9961 192.934L96.3477 191.164C96.4023 191.164 96.4766 191.168 96.5703 191.176C96.6641 191.184 96.7617 191.191 96.8633 191.199C96.9648 191.207 97.0625 191.211 97.1562 191.211C97.25 191.219 97.3242 191.223 97.3789 191.223C97.6758 191.223 97.9453 191.141 98.1875 190.977C98.4375 190.812 98.6562 190.617 98.8438 190.391C99.0391 190.164 99.2031 189.93 99.3359 189.688C99.4766 189.445 99.5859 189.246 99.6641 189.09L100.531 187.402L95.0703 175.32H97.4961L100.977 183.5ZM133.285 183.582H127.59L126.219 188H124.051L129.559 170.938H131.375L136.789 188H134.633L133.285 183.582ZM128.176 181.695H132.711L130.461 174.289L128.176 181.695ZM144.957 186.477C145.348 186.477 145.727 186.414 146.094 186.289C146.469 186.164 146.801 185.992 147.09 185.773C147.379 185.547 147.609 185.285 147.781 184.988C147.961 184.684 148.055 184.355 148.062 184.004H150.113C150.105 184.566 149.957 185.105 149.668 185.621C149.387 186.129 149.008 186.578 148.531 186.969C148.055 187.352 147.508 187.66 146.891 187.895C146.273 188.121 145.629 188.234 144.957 188.234C143.996 188.234 143.156 188.062 142.438 187.719C141.719 187.375 141.117 186.914 140.633 186.336C140.156 185.75 139.797 185.078 139.555 184.32C139.312 183.555 139.191 182.75 139.191 181.906V181.414C139.191 180.578 139.312 179.777 139.555 179.012C139.797 178.246 140.156 177.574 140.633 176.996C141.117 176.41 141.719 175.945 142.438 175.602C143.156 175.258 143.996 175.086 144.957 175.086C145.707 175.086 146.395 175.207 147.02 175.449C147.652 175.684 148.195 176.008 148.648 176.422C149.109 176.828 149.469 177.312 149.727 177.875C149.984 178.438 150.113 179.039 150.113 179.68H148.062C148.055 179.297 147.969 178.938 147.805 178.602C147.648 178.258 147.434 177.957 147.16 177.699C146.887 177.441 146.559 177.238 146.176 177.09C145.801 176.941 145.395 176.867 144.957 176.867C144.285 176.867 143.719 177.004 143.258 177.277C142.805 177.543 142.438 177.895 142.156 178.332C141.875 178.762 141.672 179.246 141.547 179.785C141.43 180.324 141.371 180.867 141.371 181.414V181.906C141.371 182.461 141.43 183.012 141.547 183.559C141.672 184.098 141.871 184.586 142.145 185.023C142.426 185.453 142.793 185.805 143.246 186.078C143.707 186.344 144.277 186.477 144.957 186.477ZM159.371 186.477C159.762 186.477 160.141 186.414 160.508 186.289C160.883 186.164 161.215 185.992 161.504 185.773C161.793 185.547 162.023 185.285 162.195 184.988C162.375 184.684 162.469 184.355 162.477 184.004H164.527C164.52 184.566 164.371 185.105 164.082 185.621C163.801 186.129 163.422 186.578 162.945 186.969C162.469 187.352 161.922 187.66 161.305 187.895C160.688 188.121 160.043 188.234 159.371 188.234C158.41 188.234 157.57 188.062 156.852 187.719C156.133 187.375 155.531 186.914 155.047 186.336C154.57 185.75 154.211 185.078 153.969 184.32C153.727 183.555 153.605 182.75 153.605 181.906V181.414C153.605 180.578 153.727 179.777 153.969 179.012C154.211 178.246 154.57 177.574 155.047 176.996C155.531 176.41 156.133 175.945 156.852 175.602C157.57 175.258 158.41 175.086 159.371 175.086C160.121 175.086 160.809 175.207 161.434 175.449C162.066 175.684 162.609 176.008 163.062 176.422C163.523 176.828 163.883 177.312 164.141 177.875C164.398 178.438 164.527 179.039 164.527 179.68H162.477C162.469 179.297 162.383 178.938 162.219 178.602C162.062 178.258 161.848 177.957 161.574 177.699C161.301 177.441 160.973 177.238 160.59 177.09C160.215 176.941 159.809 176.867 159.371 176.867C158.699 176.867 158.133 177.004 157.672 177.277C157.219 177.543 156.852 177.895 156.57 178.332C156.289 178.762 156.086 179.246 155.961 179.785C155.844 180.324 155.785 180.867 155.785 181.414V181.906C155.785 182.461 155.844 183.012 155.961 183.559C156.086 184.098 156.285 184.586 156.559 185.023C156.84 185.453 157.207 185.805 157.66 186.078C158.121 186.344 158.691 186.477 159.371 186.477ZM167.773 181.543C167.773 180.629 167.906 179.781 168.172 179C168.438 178.211 168.816 177.527 169.309 176.949C169.809 176.371 170.414 175.918 171.125 175.59C171.836 175.254 172.637 175.086 173.527 175.086C174.426 175.086 175.23 175.254 175.941 175.59C176.66 175.918 177.266 176.371 177.758 176.949C178.258 177.527 178.641 178.211 178.906 179C179.172 179.781 179.305 180.629 179.305 181.543V181.801C179.305 182.715 179.172 183.562 178.906 184.344C178.641 185.125 178.258 185.805 177.758 186.383C177.266 186.961 176.664 187.414 175.953 187.742C175.242 188.07 174.441 188.234 173.551 188.234C172.652 188.234 171.844 188.07 171.125 187.742C170.414 187.414 169.809 186.961 169.309 186.383C168.816 185.805 168.438 185.125 168.172 184.344C167.906 183.562 167.773 182.715 167.773 181.801V181.543ZM169.941 181.801C169.941 182.426 170.016 183.023 170.164 183.594C170.312 184.156 170.535 184.652 170.832 185.082C171.137 185.512 171.516 185.852 171.969 186.102C172.422 186.352 172.949 186.477 173.551 186.477C174.145 186.477 174.664 186.352 175.109 186.102C175.562 185.852 175.938 185.512 176.234 185.082C176.539 184.652 176.766 184.156 176.914 183.594C177.062 183.023 177.137 182.426 177.137 181.801V181.543C177.137 180.926 177.059 180.336 176.902 179.773C176.754 179.203 176.527 178.703 176.223 178.273C175.926 177.844 175.551 177.504 175.098 177.254C174.652 176.996 174.129 176.867 173.527 176.867C172.926 176.867 172.402 176.996 171.957 177.254C171.512 177.504 171.137 177.844 170.832 178.273C170.535 178.703 170.312 179.203 170.164 179.773C170.016 180.336 169.941 180.926 169.941 181.543V181.801ZM191.023 186.254C190.602 186.879 190.074 187.367 189.441 187.719C188.809 188.062 188.078 188.234 187.25 188.234C186.586 188.234 185.984 188.133 185.445 187.93C184.906 187.719 184.445 187.395 184.062 186.957C183.68 186.52 183.383 185.965 183.172 185.293C182.969 184.613 182.867 183.801 182.867 182.855V175.32H185.035V182.879C185.035 183.566 185.09 184.137 185.199 184.59C185.309 185.043 185.473 185.406 185.691 185.68C185.91 185.945 186.176 186.133 186.488 186.242C186.809 186.352 187.176 186.406 187.59 186.406C188.473 186.406 189.184 186.227 189.723 185.867C190.27 185.508 190.676 185.023 190.941 184.414V175.32H193.121V188H191.152L191.023 186.254ZM199.156 175.32L199.309 177.195C199.77 176.539 200.336 176.027 201.008 175.66C201.68 175.285 202.43 175.094 203.258 175.086C203.922 175.086 204.523 175.18 205.062 175.367C205.609 175.555 206.074 175.848 206.457 176.246C206.84 176.645 207.133 177.152 207.336 177.77C207.547 178.379 207.652 179.105 207.652 179.949V188H205.484V179.996C205.484 179.434 205.422 178.957 205.297 178.566C205.172 178.176 204.984 177.859 204.734 177.617C204.492 177.375 204.191 177.199 203.832 177.09C203.48 176.98 203.074 176.926 202.613 176.926C201.887 176.926 201.246 177.109 200.691 177.477C200.145 177.836 199.707 178.312 199.379 178.906V188H197.211V175.32H199.156ZM216.758 172.25V175.32H221.586V176.996H216.758V183.887C216.758 184.379 216.82 184.785 216.945 185.105C217.07 185.426 217.242 185.684 217.461 185.879C217.68 186.066 217.93 186.199 218.211 186.277C218.5 186.355 218.805 186.395 219.125 186.395C219.359 186.395 219.602 186.383 219.852 186.359C220.102 186.328 220.344 186.293 220.578 186.254C220.82 186.215 221.043 186.176 221.246 186.137C221.457 186.09 221.629 186.051 221.762 186.02L222.066 187.555C221.887 187.664 221.668 187.762 221.41 187.848C221.152 187.926 220.871 187.992 220.566 188.047C220.262 188.109 219.938 188.156 219.594 188.188C219.258 188.219 218.922 188.234 218.586 188.234C218.023 188.234 217.496 188.156 217.004 188C216.52 187.836 216.098 187.582 215.738 187.238C215.379 186.887 215.094 186.438 214.883 185.891C214.68 185.336 214.578 184.668 214.578 183.887V176.996H211.25V175.32H214.578V172.25H216.758Z" fill="white"/>
<path d="M332.879 182.867C332.777 183.656 332.574 184.383 332.27 185.047C331.965 185.703 331.566 186.27 331.074 186.746C330.59 187.215 330.012 187.582 329.34 187.848C328.676 188.105 327.934 188.234 327.113 188.234C326.41 188.234 325.77 188.137 325.191 187.941C324.621 187.738 324.109 187.461 323.656 187.109C323.211 186.758 322.824 186.344 322.496 185.867C322.176 185.391 321.906 184.871 321.688 184.309C321.477 183.746 321.316 183.156 321.207 182.539C321.105 181.922 321.051 181.297 321.043 180.664V178.285C321.051 177.652 321.105 177.027 321.207 176.41C321.316 175.793 321.477 175.203 321.688 174.641C321.906 174.078 322.176 173.559 322.496 173.082C322.824 172.598 323.211 172.18 323.656 171.828C324.109 171.477 324.621 171.203 325.191 171.008C325.762 170.805 326.402 170.703 327.113 170.703C327.965 170.703 328.727 170.836 329.398 171.102C330.07 171.359 330.648 171.73 331.133 172.215C331.617 172.691 332.004 173.266 332.293 173.938C332.59 174.609 332.785 175.352 332.879 176.164H330.711C330.641 175.648 330.52 175.168 330.348 174.723C330.176 174.277 329.945 173.887 329.656 173.551C329.367 173.215 329.012 172.953 328.59 172.766C328.176 172.57 327.684 172.473 327.113 172.473C326.598 172.473 326.141 172.559 325.742 172.73C325.352 172.895 325.012 173.121 324.723 173.41C324.441 173.699 324.203 174.035 324.008 174.418C323.82 174.801 323.668 175.207 323.551 175.637C323.434 176.066 323.348 176.508 323.293 176.961C323.246 177.406 323.223 177.84 323.223 178.262V180.664C323.223 181.086 323.246 181.523 323.293 181.977C323.348 182.422 323.434 182.863 323.551 183.301C323.668 183.73 323.82 184.137 324.008 184.52C324.195 184.902 324.434 185.242 324.723 185.539C325.012 185.828 325.352 186.059 325.742 186.23C326.133 186.395 326.59 186.477 327.113 186.477C327.684 186.477 328.176 186.387 328.59 186.207C329.012 186.027 329.367 185.777 329.656 185.457C329.945 185.129 330.176 184.746 330.348 184.309C330.52 183.863 330.641 183.383 330.711 182.867H332.879ZM335.633 181.543C335.633 180.629 335.766 179.781 336.031 179C336.297 178.211 336.676 177.527 337.168 176.949C337.668 176.371 338.273 175.918 338.984 175.59C339.695 175.254 340.496 175.086 341.387 175.086C342.285 175.086 343.09 175.254 343.801 175.59C344.52 175.918 345.125 176.371 345.617 176.949C346.117 177.527 346.5 178.211 346.766 179C347.031 179.781 347.164 180.629 347.164 181.543V181.801C347.164 182.715 347.031 183.562 346.766 184.344C346.5 185.125 346.117 185.805 345.617 186.383C345.125 186.961 344.523 187.414 343.812 187.742C343.102 188.07 342.301 188.234 341.41 188.234C340.512 188.234 339.703 188.07 338.984 187.742C338.273 187.414 337.668 186.961 337.168 186.383C336.676 185.805 336.297 185.125 336.031 184.344C335.766 183.562 335.633 182.715 335.633 181.801V181.543ZM337.801 181.801C337.801 182.426 337.875 183.023 338.023 183.594C338.172 184.156 338.395 184.652 338.691 185.082C338.996 185.512 339.375 185.852 339.828 186.102C340.281 186.352 340.809 186.477 341.41 186.477C342.004 186.477 342.523 186.352 342.969 186.102C343.422 185.852 343.797 185.512 344.094 185.082C344.398 184.652 344.625 184.156 344.773 183.594C344.922 183.023 344.996 182.426 344.996 181.801V181.543C344.996 180.926 344.918 180.336 344.762 179.773C344.613 179.203 344.387 178.703 344.082 178.273C343.785 177.844 343.41 177.504 342.957 177.254C342.512 176.996 341.988 176.867 341.387 176.867C340.785 176.867 340.262 176.996 339.816 177.254C339.371 177.504 338.996 177.844 338.691 178.273C338.395 178.703 338.172 179.203 338.023 179.773C337.875 180.336 337.801 180.926 337.801 181.543V181.801ZM356.059 186.477C356.449 186.477 356.828 186.414 357.195 186.289C357.57 186.164 357.902 185.992 358.191 185.773C358.48 185.547 358.711 185.285 358.883 184.988C359.062 184.684 359.156 184.355 359.164 184.004H361.215C361.207 184.566 361.059 185.105 360.77 185.621C360.488 186.129 360.109 186.578 359.633 186.969C359.156 187.352 358.609 187.66 357.992 187.895C357.375 188.121 356.73 188.234 356.059 188.234C355.098 188.234 354.258 188.062 353.539 187.719C352.82 187.375 352.219 186.914 351.734 186.336C351.258 185.75 350.898 185.078 350.656 184.32C350.414 183.555 350.293 182.75 350.293 181.906V181.414C350.293 180.578 350.414 179.777 350.656 179.012C350.898 178.246 351.258 177.574 351.734 176.996C352.219 176.41 352.82 175.945 353.539 175.602C354.258 175.258 355.098 175.086 356.059 175.086C356.809 175.086 357.496 175.207 358.121 175.449C358.754 175.684 359.297 176.008 359.75 176.422C360.211 176.828 360.57 177.312 360.828 177.875C361.086 178.438 361.215 179.039 361.215 179.68H359.164C359.156 179.297 359.07 178.938 358.906 178.602C358.75 178.258 358.535 177.957 358.262 177.699C357.988 177.441 357.66 177.238 357.277 177.09C356.902 176.941 356.496 176.867 356.059 176.867C355.387 176.867 354.82 177.004 354.359 177.277C353.906 177.543 353.539 177.895 353.258 178.332C352.977 178.762 352.773 179.246 352.648 179.785C352.531 180.324 352.473 180.867 352.473 181.414V181.906C352.473 182.461 352.531 183.012 352.648 183.559C352.773 184.098 352.973 184.586 353.246 185.023C353.527 185.453 353.895 185.805 354.348 186.078C354.809 186.344 355.379 186.477 356.059 186.477ZM368.867 182.082L367.273 183.617V188H365.094V170H367.273V181.016L368.691 179.492L372.852 175.32H375.488L370.355 180.605L376.273 188H373.52L368.867 182.082ZM384.617 172.25V175.32H389.445V176.996H384.617V183.887C384.617 184.379 384.68 184.785 384.805 185.105C384.93 185.426 385.102 185.684 385.32 185.879C385.539 186.066 385.789 186.199 386.07 186.277C386.359 186.355 386.664 186.395 386.984 186.395C387.219 186.395 387.461 186.383 387.711 186.359C387.961 186.328 388.203 186.293 388.438 186.254C388.68 186.215 388.902 186.176 389.105 186.137C389.316 186.09 389.488 186.051 389.621 186.02L389.926 187.555C389.746 187.664 389.527 187.762 389.27 187.848C389.012 187.926 388.73 187.992 388.426 188.047C388.121 188.109 387.797 188.156 387.453 188.188C387.117 188.219 386.781 188.234 386.445 188.234C385.883 188.234 385.355 188.156 384.863 188C384.379 187.836 383.957 187.582 383.598 187.238C383.238 186.887 382.953 186.438 382.742 185.891C382.539 185.336 382.438 184.668 382.438 183.887V176.996H379.109V175.32H382.438V172.25H384.617ZM402.23 188C402.145 187.836 402.074 187.633 402.02 187.391C401.973 187.141 401.938 186.883 401.914 186.617C401.695 186.836 401.449 187.043 401.176 187.238C400.91 187.434 400.613 187.605 400.285 187.754C399.965 187.902 399.621 188.02 399.254 188.105C398.887 188.191 398.496 188.234 398.082 188.234C397.41 188.234 396.801 188.137 396.254 187.941C395.715 187.746 395.254 187.484 394.871 187.156C394.496 186.82 394.203 186.426 393.992 185.973C393.789 185.512 393.688 185.016 393.688 184.484C393.688 183.789 393.824 183.18 394.098 182.656C394.379 182.133 394.773 181.699 395.281 181.355C395.789 181.004 396.398 180.742 397.109 180.57C397.828 180.398 398.629 180.312 399.512 180.312H401.879V179.316C401.879 178.934 401.809 178.59 401.668 178.285C401.527 177.98 401.328 177.723 401.07 177.512C400.812 177.293 400.496 177.125 400.121 177.008C399.754 176.891 399.34 176.832 398.879 176.832C398.449 176.832 398.062 176.887 397.719 176.996C397.383 177.105 397.098 177.25 396.863 177.43C396.629 177.609 396.445 177.824 396.312 178.074C396.188 178.316 396.125 178.57 396.125 178.836H393.945C393.953 178.375 394.07 177.922 394.297 177.477C394.531 177.031 394.863 176.633 395.293 176.281C395.73 175.922 396.258 175.633 396.875 175.414C397.5 175.195 398.207 175.086 398.996 175.086C399.715 175.086 400.383 175.176 401 175.355C401.617 175.527 402.148 175.793 402.594 176.152C403.047 176.504 403.402 176.945 403.66 177.477C403.918 178.008 404.047 178.629 404.047 179.34V185.234C404.047 185.656 404.086 186.105 404.164 186.582C404.242 187.051 404.352 187.461 404.492 187.812V188H402.23ZM398.398 186.348C398.82 186.348 399.215 186.293 399.582 186.184C399.949 186.074 400.281 185.93 400.578 185.75C400.883 185.57 401.145 185.367 401.363 185.141C401.582 184.906 401.754 184.664 401.879 184.414V181.848H399.863C398.598 181.848 397.613 182.035 396.91 182.41C396.207 182.785 395.855 183.375 395.855 184.18C395.855 184.492 395.906 184.781 396.008 185.047C396.117 185.312 396.277 185.543 396.488 185.738C396.699 185.926 396.965 186.074 397.285 186.184C397.605 186.293 397.977 186.348 398.398 186.348ZM408.652 175.32H415.133V186.125H419.27V188H408.652V186.125H412.965V177.207H408.652V175.32ZM412.684 171.992C412.684 171.633 412.789 171.332 413 171.09C413.219 170.84 413.547 170.715 413.984 170.715C414.414 170.715 414.738 170.84 414.957 171.09C415.176 171.332 415.285 171.633 415.285 171.992C415.285 172.344 415.176 172.637 414.957 172.871C414.738 173.105 414.414 173.223 413.984 173.223C413.547 173.223 413.219 173.105 413 172.871C412.789 172.637 412.684 172.344 412.684 171.992ZM423.066 170H429.547V186.125H433.684V188H423.066V186.125H427.379V171.887H423.066V170ZM460.016 183.383L461.316 170.938H463.367L461.293 188H459.078L456.887 175.145L454.672 188H452.445L450.371 170.938H452.434L453.734 183.383L455.926 170.938H457.812L460.016 183.383ZM466.309 175.32H472.789V186.125H476.926V188H466.309V186.125H470.621V177.207H466.309V175.32ZM470.34 171.992C470.34 171.633 470.445 171.332 470.656 171.09C470.875 170.84 471.203 170.715 471.641 170.715C472.07 170.715 472.395 170.84 472.613 171.09C472.832 171.332 472.941 171.633 472.941 171.992C472.941 172.344 472.832 172.637 472.613 172.871C472.395 173.105 472.07 173.223 471.641 173.223C471.203 173.223 470.875 173.105 470.656 172.871C470.445 172.637 470.34 172.344 470.34 171.992ZM482.984 186.23H491.059V188H480.219V186.406L487.789 177.113H480.324V175.32H490.637V176.855L482.984 186.23ZM503.129 188C503.043 187.836 502.973 187.633 502.918 187.391C502.871 187.141 502.836 186.883 502.812 186.617C502.594 186.836 502.348 187.043 502.074 187.238C501.809 187.434 501.512 187.605 501.184 187.754C500.863 187.902 500.52 188.02 500.152 188.105C499.785 188.191 499.395 188.234 498.98 188.234C498.309 188.234 497.699 188.137 497.152 187.941C496.613 187.746 496.152 187.484 495.77 187.156C495.395 186.82 495.102 186.426 494.891 185.973C494.688 185.512 494.586 185.016 494.586 184.484C494.586 183.789 494.723 183.18 494.996 182.656C495.277 182.133 495.672 181.699 496.18 181.355C496.688 181.004 497.297 180.742 498.008 180.57C498.727 180.398 499.527 180.312 500.41 180.312H502.777V179.316C502.777 178.934 502.707 178.59 502.566 178.285C502.426 177.98 502.227 177.723 501.969 177.512C501.711 177.293 501.395 177.125 501.02 177.008C500.652 176.891 500.238 176.832 499.777 176.832C499.348 176.832 498.961 176.887 498.617 176.996C498.281 177.105 497.996 177.25 497.762 177.43C497.527 177.609 497.344 177.824 497.211 178.074C497.086 178.316 497.023 178.57 497.023 178.836H494.844C494.852 178.375 494.969 177.922 495.195 177.477C495.43 177.031 495.762 176.633 496.191 176.281C496.629 175.922 497.156 175.633 497.773 175.414C498.398 175.195 499.105 175.086 499.895 175.086C500.613 175.086 501.281 175.176 501.898 175.355C502.516 175.527 503.047 175.793 503.492 176.152C503.945 176.504 504.301 176.945 504.559 177.477C504.816 178.008 504.945 178.629 504.945 179.34V185.234C504.945 185.656 504.984 186.105 505.062 186.582C505.141 187.051 505.25 187.461 505.391 187.812V188H503.129ZM499.297 186.348C499.719 186.348 500.113 186.293 500.48 186.184C500.848 186.074 501.18 185.93 501.477 185.75C501.781 185.57 502.043 185.367 502.262 185.141C502.48 184.906 502.652 184.664 502.777 184.414V181.848H500.762C499.496 181.848 498.512 182.035 497.809 182.41C497.105 182.785 496.754 183.375 496.754 184.18C496.754 184.492 496.805 184.781 496.906 185.047C497.016 185.312 497.176 185.543 497.387 185.738C497.598 185.926 497.863 186.074 498.184 186.184C498.504 186.293 498.875 186.348 499.297 186.348ZM517.52 175.086C517.723 175.086 517.934 175.094 518.152 175.109C518.371 175.117 518.578 175.137 518.773 175.168C518.977 175.191 519.16 175.223 519.324 175.262C519.496 175.301 519.637 175.344 519.746 175.391L519.453 177.512C519.031 177.418 518.629 177.352 518.246 177.312C517.871 177.266 517.477 177.242 517.062 177.242C516.047 177.242 515.223 177.473 514.59 177.934C513.965 178.395 513.504 179.039 513.207 179.867V188H511.027V175.32H513.09L513.195 177.336C513.711 176.641 514.328 176.094 515.047 175.695C515.773 175.289 516.598 175.086 517.52 175.086ZM523.215 181.555C523.215 180.609 523.332 179.742 523.566 178.953C523.809 178.156 524.148 177.473 524.586 176.902C525.031 176.332 525.566 175.887 526.191 175.566C526.816 175.246 527.516 175.086 528.289 175.086C529.047 175.086 529.707 175.215 530.27 175.473C530.84 175.723 531.332 176.09 531.746 176.574V170H533.914V188H531.922L531.828 186.664C531.406 187.18 530.902 187.57 530.316 187.836C529.73 188.102 529.047 188.234 528.266 188.234C527.5 188.234 526.805 188.07 526.18 187.742C525.562 187.414 525.035 186.961 524.598 186.383C524.16 185.805 523.82 185.125 523.578 184.344C523.336 183.555 523.215 182.707 523.215 181.801V181.555ZM525.383 181.801C525.383 182.418 525.449 183.004 525.582 183.559C525.715 184.113 525.918 184.602 526.191 185.023C526.473 185.445 526.828 185.781 527.258 186.031C527.688 186.273 528.203 186.395 528.805 186.395C529.172 186.395 529.504 186.352 529.801 186.266C530.098 186.18 530.367 186.059 530.609 185.902C530.852 185.738 531.066 185.547 531.254 185.328C531.441 185.102 531.605 184.852 531.746 184.578V178.695C531.465 178.18 531.086 177.758 530.609 177.43C530.133 177.094 529.539 176.926 528.828 176.926C528.219 176.926 527.695 177.051 527.258 177.301C526.828 177.551 526.473 177.891 526.191 178.32C525.918 178.742 525.715 179.234 525.582 179.797C525.449 180.352 525.383 180.938 525.383 181.555V181.801Z" fill="white"/>
<path d="M607.879 182.867C607.777 183.656 607.574 184.383 607.27 185.047C606.965 185.703 606.566 186.27 606.074 186.746C605.59 187.215 605.012 187.582 604.34 187.848C603.676 188.105 602.934 188.234 602.113 188.234C601.41 188.234 600.77 188.137 600.191 187.941C599.621 187.738 599.109 187.461 598.656 187.109C598.211 186.758 597.824 186.344 597.496 185.867C597.176 185.391 596.906 184.871 596.688 184.309C596.477 183.746 596.316 183.156 596.207 182.539C596.105 181.922 596.051 181.297 596.043 180.664V178.285C596.051 177.652 596.105 177.027 596.207 176.41C596.316 175.793 596.477 175.203 596.688 174.641C596.906 174.078 597.176 173.559 597.496 173.082C597.824 172.598 598.211 172.18 598.656 171.828C599.109 171.477 599.621 171.203 600.191 171.008C600.762 170.805 601.402 170.703 602.113 170.703C602.965 170.703 603.727 170.836 604.398 171.102C605.07 171.359 605.648 171.73 606.133 172.215C606.617 172.691 607.004 173.266 607.293 173.938C607.59 174.609 607.785 175.352 607.879 176.164H605.711C605.641 175.648 605.52 175.168 605.348 174.723C605.176 174.277 604.945 173.887 604.656 173.551C604.367 173.215 604.012 172.953 603.59 172.766C603.176 172.57 602.684 172.473 602.113 172.473C601.598 172.473 601.141 172.559 600.742 172.73C600.352 172.895 600.012 173.121 599.723 173.41C599.441 173.699 599.203 174.035 599.008 174.418C598.82 174.801 598.668 175.207 598.551 175.637C598.434 176.066 598.348 176.508 598.293 176.961C598.246 177.406 598.223 177.84 598.223 178.262V180.664C598.223 181.086 598.246 181.523 598.293 181.977C598.348 182.422 598.434 182.863 598.551 183.301C598.668 183.73 598.82 184.137 599.008 184.52C599.195 184.902 599.434 185.242 599.723 185.539C600.012 185.828 600.352 186.059 600.742 186.23C601.133 186.395 601.59 186.477 602.113 186.477C602.684 186.477 603.176 186.387 603.59 186.207C604.012 186.027 604.367 185.777 604.656 185.457C604.945 185.129 605.176 184.746 605.348 184.309C605.52 183.863 605.641 183.383 605.711 182.867H607.879ZM613.41 177.207C613.863 176.543 614.422 176.027 615.086 175.66C615.75 175.285 616.496 175.094 617.324 175.086C617.988 175.086 618.59 175.184 619.129 175.379C619.676 175.566 620.141 175.863 620.523 176.27C620.906 176.676 621.199 177.191 621.402 177.816C621.613 178.434 621.719 179.168 621.719 180.02V188H619.551V179.996C619.551 178.957 619.301 178.184 618.801 177.676C618.309 177.168 617.602 176.918 616.68 176.926C615.984 176.926 615.352 177.098 614.781 177.441C614.219 177.777 613.762 178.227 613.41 178.789V188H611.242V170H613.41V177.207ZM631.258 188.234C630.367 188.234 629.547 188.082 628.797 187.777C628.055 187.473 627.418 187.047 626.887 186.5C626.355 185.953 625.941 185.305 625.645 184.555C625.348 183.805 625.199 182.988 625.199 182.105V181.613C625.199 180.59 625.363 179.676 625.691 178.871C626.02 178.059 626.453 177.375 626.992 176.82C627.539 176.258 628.156 175.828 628.844 175.531C629.539 175.234 630.25 175.086 630.977 175.086C631.891 175.086 632.688 175.246 633.367 175.566C634.055 175.879 634.625 176.316 635.078 176.879C635.531 177.434 635.867 178.09 636.086 178.848C636.312 179.605 636.426 180.426 636.426 181.309V182.281H627.367C627.391 182.859 627.5 183.402 627.695 183.91C627.898 184.418 628.172 184.863 628.516 185.246C628.867 185.621 629.285 185.918 629.77 186.137C630.254 186.355 630.789 186.465 631.375 186.465C632.148 186.465 632.836 186.309 633.438 185.996C634.039 185.684 634.539 185.27 634.938 184.754L636.262 185.785C636.051 186.105 635.785 186.414 635.465 186.711C635.152 187 634.789 187.258 634.375 187.484C633.961 187.711 633.492 187.891 632.969 188.023C632.445 188.164 631.875 188.234 631.258 188.234ZM630.977 176.867C630.539 176.867 630.125 176.949 629.734 177.113C629.344 177.27 628.992 177.504 628.68 177.816C628.367 178.121 628.102 178.5 627.883 178.953C627.672 179.398 627.523 179.914 627.438 180.5H634.258V180.336C634.234 179.914 634.152 179.496 634.012 179.082C633.879 178.668 633.68 178.297 633.414 177.969C633.148 177.641 632.812 177.375 632.406 177.172C632.008 176.969 631.531 176.867 630.977 176.867ZM645.473 186.477C645.863 186.477 646.242 186.414 646.609 186.289C646.984 186.164 647.316 185.992 647.605 185.773C647.895 185.547 648.125 185.285 648.297 184.988C648.477 184.684 648.57 184.355 648.578 184.004H650.629C650.621 184.566 650.473 185.105 650.184 185.621C649.902 186.129 649.523 186.578 649.047 186.969C648.57 187.352 648.023 187.66 647.406 187.895C646.789 188.121 646.145 188.234 645.473 188.234C644.512 188.234 643.672 188.062 642.953 187.719C642.234 187.375 641.633 186.914 641.148 186.336C640.672 185.75 640.312 185.078 640.07 184.32C639.828 183.555 639.707 182.75 639.707 181.906V181.414C639.707 180.578 639.828 179.777 640.07 179.012C640.312 178.246 640.672 177.574 641.148 176.996C641.633 176.41 642.234 175.945 642.953 175.602C643.672 175.258 644.512 175.086 645.473 175.086C646.223 175.086 646.91 175.207 647.535 175.449C648.168 175.684 648.711 176.008 649.164 176.422C649.625 176.828 649.984 177.312 650.242 177.875C650.5 178.438 650.629 179.039 650.629 179.68H648.578C648.57 179.297 648.484 178.938 648.32 178.602C648.164 178.258 647.949 177.957 647.676 177.699C647.402 177.441 647.074 177.238 646.691 177.09C646.316 176.941 645.91 176.867 645.473 176.867C644.801 176.867 644.234 177.004 643.773 177.277C643.32 177.543 642.953 177.895 642.672 178.332C642.391 178.762 642.188 179.246 642.062 179.785C641.945 180.324 641.887 180.867 641.887 181.414V181.906C641.887 182.461 641.945 183.012 642.062 183.559C642.188 184.098 642.387 184.586 642.66 185.023C642.941 185.453 643.309 185.805 643.762 186.078C644.223 186.344 644.793 186.477 645.473 186.477ZM658.281 182.082L656.688 183.617V188H654.508V170H656.688V181.016L658.105 179.492L662.266 175.32H664.902L659.77 180.605L665.688 188H662.934L658.281 182.082ZM668.289 181.543C668.289 180.629 668.422 179.781 668.688 179C668.953 178.211 669.332 177.527 669.824 176.949C670.324 176.371 670.93 175.918 671.641 175.59C672.352 175.254 673.152 175.086 674.043 175.086C674.941 175.086 675.746 175.254 676.457 175.59C677.176 175.918 677.781 176.371 678.273 176.949C678.773 177.527 679.156 178.211 679.422 179C679.688 179.781 679.82 180.629 679.82 181.543V181.801C679.82 182.715 679.688 183.562 679.422 184.344C679.156 185.125 678.773 185.805 678.273 186.383C677.781 186.961 677.18 187.414 676.469 187.742C675.758 188.07 674.957 188.234 674.066 188.234C673.168 188.234 672.359 188.07 671.641 187.742C670.93 187.414 670.324 186.961 669.824 186.383C669.332 185.805 668.953 185.125 668.688 184.344C668.422 183.562 668.289 182.715 668.289 181.801V181.543ZM670.457 181.801C670.457 182.426 670.531 183.023 670.68 183.594C670.828 184.156 671.051 184.652 671.348 185.082C671.652 185.512 672.031 185.852 672.484 186.102C672.938 186.352 673.465 186.477 674.066 186.477C674.66 186.477 675.18 186.352 675.625 186.102C676.078 185.852 676.453 185.512 676.75 185.082C677.055 184.652 677.281 184.156 677.43 183.594C677.578 183.023 677.652 182.426 677.652 181.801V181.543C677.652 180.926 677.574 180.336 677.418 179.773C677.27 179.203 677.043 178.703 676.738 178.273C676.441 177.844 676.066 177.504 675.613 177.254C675.168 176.996 674.645 176.867 674.043 176.867C673.441 176.867 672.918 176.996 672.473 177.254C672.027 177.504 671.652 177.844 671.348 178.273C671.051 178.703 670.828 179.203 670.68 179.773C670.531 180.336 670.457 180.926 670.457 181.543V181.801ZM691.539 186.254C691.117 186.879 690.59 187.367 689.957 187.719C689.324 188.062 688.594 188.234 687.766 188.234C687.102 188.234 686.5 188.133 685.961 187.93C685.422 187.719 684.961 187.395 684.578 186.957C684.195 186.52 683.898 185.965 683.688 185.293C683.484 184.613 683.383 183.801 683.383 182.855V175.32H685.551V182.879C685.551 183.566 685.605 184.137 685.715 184.59C685.824 185.043 685.988 185.406 686.207 185.68C686.426 185.945 686.691 186.133 687.004 186.242C687.324 186.352 687.691 186.406 688.105 186.406C688.988 186.406 689.699 186.227 690.238 185.867C690.785 185.508 691.191 185.023 691.457 184.414V175.32H693.637V188H691.668L691.539 186.254ZM702.859 172.25V175.32H707.688V176.996H702.859V183.887C702.859 184.379 702.922 184.785 703.047 185.105C703.172 185.426 703.344 185.684 703.562 185.879C703.781 186.066 704.031 186.199 704.312 186.277C704.602 186.355 704.906 186.395 705.227 186.395C705.461 186.395 705.703 186.383 705.953 186.359C706.203 186.328 706.445 186.293 706.68 186.254C706.922 186.215 707.145 186.176 707.348 186.137C707.559 186.09 707.73 186.051 707.863 186.02L708.168 187.555C707.988 187.664 707.77 187.762 707.512 187.848C707.254 187.926 706.973 187.992 706.668 188.047C706.363 188.109 706.039 188.156 705.695 188.188C705.359 188.219 705.023 188.234 704.688 188.234C704.125 188.234 703.598 188.156 703.105 188C702.621 187.836 702.199 187.582 701.84 187.238C701.48 186.887 701.195 186.438 700.984 185.891C700.781 185.336 700.68 184.668 700.68 183.887V176.996H697.352V175.32H700.68V172.25H702.859ZM735.484 183.688C735.484 183.164 735.363 182.723 735.121 182.363C734.887 182.004 734.582 181.703 734.207 181.461C733.832 181.211 733.418 181.004 732.965 180.84C732.52 180.676 732.09 180.527 731.676 180.395C731.074 180.199 730.461 179.965 729.836 179.691C729.219 179.418 728.652 179.082 728.137 178.684C727.629 178.285 727.211 177.816 726.883 177.277C726.562 176.73 726.402 176.09 726.402 175.355C726.402 174.621 726.562 173.965 726.883 173.387C727.211 172.809 727.637 172.32 728.16 171.922C728.684 171.523 729.277 171.223 729.941 171.02C730.605 170.809 731.273 170.703 731.945 170.703C732.688 170.703 733.402 170.828 734.09 171.078C734.777 171.32 735.387 171.664 735.918 172.109C736.449 172.555 736.875 173.094 737.195 173.727C737.516 174.359 737.684 175.066 737.699 175.848H735.473C735.41 175.355 735.289 174.91 735.109 174.512C734.93 174.105 734.691 173.758 734.395 173.469C734.098 173.18 733.742 172.957 733.328 172.801C732.922 172.637 732.461 172.555 731.945 172.555C731.531 172.555 731.125 172.613 730.727 172.73C730.336 172.848 729.984 173.023 729.672 173.258C729.367 173.492 729.121 173.781 728.934 174.125C728.754 174.469 728.664 174.867 728.664 175.32C728.672 175.812 728.797 176.23 729.039 176.574C729.281 176.91 729.586 177.195 729.953 177.43C730.328 177.664 730.73 177.859 731.16 178.016C731.598 178.172 732.008 178.309 732.391 178.426C732.812 178.559 733.238 178.711 733.668 178.883C734.098 179.047 734.512 179.238 734.91 179.457C735.309 179.676 735.68 179.922 736.023 180.195C736.367 180.469 736.668 180.781 736.926 181.133C737.184 181.477 737.383 181.859 737.523 182.281C737.672 182.695 737.746 183.156 737.746 183.664C737.746 184.43 737.574 185.098 737.23 185.668C736.895 186.238 736.457 186.715 735.918 187.098C735.379 187.473 734.77 187.758 734.09 187.953C733.41 188.141 732.73 188.234 732.051 188.234C731.293 188.234 730.551 188.117 729.824 187.883C729.098 187.648 728.445 187.312 727.867 186.875C727.297 186.43 726.832 185.891 726.473 185.258C726.113 184.617 725.922 183.891 725.898 183.078H728.113C728.184 183.609 728.328 184.082 728.547 184.496C728.766 184.902 729.047 185.25 729.391 185.539C729.734 185.82 730.129 186.035 730.574 186.184C731.027 186.324 731.52 186.395 732.051 186.395C732.473 186.395 732.887 186.344 733.293 186.242C733.707 186.133 734.074 185.969 734.395 185.75C734.715 185.523 734.977 185.242 735.18 184.906C735.383 184.562 735.484 184.156 735.484 183.688ZM745.633 183.5L746.195 185.035L750.062 175.32H752.488L746.055 189.957C745.906 190.285 745.715 190.633 745.48 191C745.254 191.367 744.977 191.707 744.648 192.02C744.32 192.332 743.938 192.594 743.5 192.805C743.062 193.016 742.559 193.121 741.988 193.121C741.887 193.121 741.773 193.113 741.648 193.098C741.523 193.09 741.398 193.074 741.273 193.051C741.148 193.035 741.031 193.016 740.922 192.992C740.812 192.969 740.723 192.949 740.652 192.934L741.004 191.164C741.059 191.164 741.133 191.168 741.227 191.176C741.32 191.184 741.418 191.191 741.52 191.199C741.621 191.207 741.719 191.211 741.812 191.211C741.906 191.219 741.98 191.223 742.035 191.223C742.332 191.223 742.602 191.141 742.844 190.977C743.094 190.812 743.312 190.617 743.5 190.391C743.695 190.164 743.859 189.93 743.992 189.688C744.133 189.445 744.242 189.246 744.32 189.09L745.188 187.402L739.727 175.32H742.152L745.633 183.5ZM763.809 184.637C763.809 184.379 763.758 184.148 763.656 183.945C763.555 183.734 763.383 183.543 763.141 183.371C762.898 183.199 762.578 183.043 762.18 182.902C761.781 182.754 761.285 182.621 760.691 182.504C759.965 182.355 759.301 182.176 758.699 181.965C758.105 181.754 757.594 181.504 757.164 181.215C756.742 180.918 756.414 180.574 756.18 180.184C755.945 179.785 755.828 179.324 755.828 178.801C755.828 178.285 755.949 177.805 756.191 177.359C756.434 176.906 756.773 176.512 757.211 176.176C757.648 175.84 758.168 175.574 758.77 175.379C759.379 175.184 760.047 175.086 760.773 175.086C761.555 175.086 762.258 175.188 762.883 175.391C763.508 175.594 764.039 175.875 764.477 176.234C764.914 176.594 765.25 177.016 765.484 177.5C765.727 177.977 765.848 178.492 765.848 179.047H763.68C763.68 178.773 763.609 178.508 763.469 178.25C763.328 177.984 763.133 177.75 762.883 177.547C762.633 177.344 762.328 177.18 761.969 177.055C761.617 176.93 761.219 176.867 760.773 176.867C760.312 176.867 759.906 176.918 759.555 177.02C759.211 177.121 758.922 177.258 758.688 177.43C758.461 177.602 758.289 177.801 758.172 178.027C758.055 178.254 757.996 178.488 757.996 178.73C757.996 178.98 758.043 179.203 758.137 179.398C758.23 179.594 758.391 179.77 758.617 179.926C758.852 180.082 759.16 180.223 759.543 180.348C759.934 180.473 760.426 180.594 761.02 180.711C761.801 180.875 762.5 181.066 763.117 181.285C763.734 181.496 764.254 181.754 764.676 182.059C765.098 182.355 765.418 182.703 765.637 183.102C765.863 183.5 765.977 183.961 765.977 184.484C765.977 185.047 765.848 185.559 765.59 186.02C765.34 186.48 764.988 186.875 764.535 187.203C764.082 187.531 763.539 187.785 762.906 187.965C762.273 188.145 761.582 188.234 760.832 188.234C759.973 188.234 759.207 188.121 758.535 187.895C757.863 187.66 757.293 187.355 756.824 186.98C756.363 186.598 756.008 186.156 755.758 185.656C755.516 185.156 755.395 184.637 755.395 184.098H757.562C757.594 184.543 757.711 184.918 757.914 185.223C758.125 185.527 758.383 185.773 758.688 185.961C759 186.148 759.344 186.281 759.719 186.359C760.094 186.438 760.465 186.477 760.832 186.477C761.746 186.477 762.469 186.309 763 185.973C763.531 185.637 763.801 185.191 763.809 184.637ZM774.93 172.25V175.32H779.758V176.996H774.93V183.887C774.93 184.379 774.992 184.785 775.117 185.105C775.242 185.426 775.414 185.684 775.633 185.879C775.852 186.066 776.102 186.199 776.383 186.277C776.672 186.355 776.977 186.395 777.297 186.395C777.531 186.395 777.773 186.383 778.023 186.359C778.273 186.328 778.516 186.293 778.75 186.254C778.992 186.215 779.215 186.176 779.418 186.137C779.629 186.09 779.801 186.051 779.934 186.02L780.238 187.555C780.059 187.664 779.84 187.762 779.582 187.848C779.324 187.926 779.043 187.992 778.738 188.047C778.434 188.109 778.109 188.156 777.766 188.188C777.43 188.219 777.094 188.234 776.758 188.234C776.195 188.234 775.668 188.156 775.176 188C774.691 187.836 774.27 187.582 773.91 187.238C773.551 186.887 773.266 186.438 773.055 185.891C772.852 185.336 772.75 184.668 772.75 183.887V176.996H769.422V175.32H772.75V172.25H774.93ZM789.812 188.234C788.922 188.234 788.102 188.082 787.352 187.777C786.609 187.473 785.973 187.047 785.441 186.5C784.91 185.953 784.496 185.305 784.199 184.555C783.902 183.805 783.754 182.988 783.754 182.105V181.613C783.754 180.59 783.918 179.676 784.246 178.871C784.574 178.059 785.008 177.375 785.547 176.82C786.094 176.258 786.711 175.828 787.398 175.531C788.094 175.234 788.805 175.086 789.531 175.086C790.445 175.086 791.242 175.246 791.922 175.566C792.609 175.879 793.18 176.316 793.633 176.879C794.086 177.434 794.422 178.09 794.641 178.848C794.867 179.605 794.98 180.426 794.98 181.309V182.281H785.922C785.945 182.859 786.055 183.402 786.25 183.91C786.453 184.418 786.727 184.863 787.07 185.246C787.422 185.621 787.84 185.918 788.324 186.137C788.809 186.355 789.344 186.465 789.93 186.465C790.703 186.465 791.391 186.309 791.992 185.996C792.594 185.684 793.094 185.27 793.492 184.754L794.816 185.785C794.605 186.105 794.34 186.414 794.02 186.711C793.707 187 793.344 187.258 792.93 187.484C792.516 187.711 792.047 187.891 791.523 188.023C791 188.164 790.43 188.234 789.812 188.234ZM789.531 176.867C789.094 176.867 788.68 176.949 788.289 177.113C787.898 177.27 787.547 177.504 787.234 177.816C786.922 178.121 786.656 178.5 786.438 178.953C786.227 179.398 786.078 179.914 785.992 180.5H792.812V180.336C792.789 179.914 792.707 179.496 792.566 179.082C792.434 178.668 792.234 178.297 791.969 177.969C791.703 177.641 791.367 177.375 790.961 177.172C790.562 176.969 790.086 176.867 789.531 176.867ZM799.621 175.32L799.68 176.516C799.938 176.07 800.273 175.723 800.688 175.473C801.109 175.223 801.617 175.094 802.211 175.086C803.375 175.086 804.152 175.539 804.543 176.445C804.793 176.039 805.121 175.715 805.527 175.473C805.941 175.223 806.441 175.094 807.027 175.086C807.957 175.086 808.672 175.371 809.172 175.941C809.672 176.512 809.922 177.375 809.922 178.531V188H807.859V178.508C807.859 177.445 807.371 176.918 806.395 176.926C806.137 176.926 805.914 176.961 805.727 177.031C805.539 177.102 805.383 177.199 805.258 177.324C805.133 177.441 805.035 177.582 804.965 177.746C804.895 177.902 804.848 178.066 804.824 178.238V188H802.762V178.496C802.762 177.988 802.648 177.598 802.422 177.324C802.195 177.051 801.836 176.918 801.344 176.926C800.891 176.926 800.539 177.016 800.289 177.195C800.039 177.375 799.855 177.613 799.738 177.91V188H797.676V175.32H799.621Z" fill="white"/>
<path d="M385.473 514V494.094H391.393C392.213 494.103 393.015 494.212 393.799 494.422C394.583 494.622 395.28 494.937 395.891 495.365C396.501 495.794 396.989 496.34 397.354 497.006C397.718 497.671 397.896 498.469 397.887 499.398C397.878 499.918 397.791 500.392 397.627 500.82C397.472 501.249 397.253 501.636 396.971 501.982C396.697 502.32 396.374 502.616 396 502.871C395.626 503.126 395.23 503.345 394.811 503.527C395.339 503.682 395.822 503.906 396.26 504.197C396.706 504.48 397.089 504.826 397.408 505.236C397.727 505.637 397.973 506.093 398.146 506.604C398.329 507.114 398.42 507.665 398.42 508.258C398.429 509.188 398.251 510.008 397.887 510.719C397.522 511.43 397.035 512.027 396.424 512.51C395.813 512.984 395.107 513.348 394.305 513.604C393.512 513.859 392.691 513.991 391.844 514H385.473ZM388.016 504.689V511.854H391.912C392.441 511.844 392.942 511.758 393.416 511.594C393.89 511.421 394.309 511.184 394.674 510.883C395.038 510.582 395.326 510.213 395.535 509.775C395.754 509.338 395.863 508.841 395.863 508.285C395.872 507.72 395.777 507.219 395.576 506.781C395.385 506.344 395.116 505.975 394.77 505.674C394.423 505.364 394.018 505.127 393.553 504.963C393.088 504.799 392.587 504.708 392.049 504.689H388.016ZM388.016 502.584H391.543C392.017 502.575 392.482 502.502 392.938 502.365C393.393 502.219 393.799 502.014 394.154 501.75C394.51 501.477 394.797 501.144 395.016 500.752C395.234 500.36 395.344 499.904 395.344 499.385C395.344 498.829 395.234 498.355 395.016 497.963C394.806 497.571 394.519 497.252 394.154 497.006C393.799 496.751 393.384 496.564 392.91 496.445C392.445 496.327 391.967 496.263 391.475 496.254H388.016V502.584ZM412.037 514C411.937 513.809 411.855 513.572 411.791 513.289C411.736 512.997 411.695 512.697 411.668 512.387C411.413 512.642 411.126 512.883 410.807 513.111C410.497 513.339 410.15 513.54 409.768 513.713C409.394 513.886 408.993 514.023 408.564 514.123C408.136 514.223 407.68 514.273 407.197 514.273C406.413 514.273 405.702 514.16 405.064 513.932C404.436 513.704 403.898 513.398 403.451 513.016C403.014 512.624 402.672 512.163 402.426 511.635C402.189 511.097 402.07 510.518 402.07 509.898C402.07 509.087 402.23 508.376 402.549 507.766C402.877 507.155 403.337 506.649 403.93 506.248C404.522 505.838 405.233 505.533 406.062 505.332C406.901 505.132 407.835 505.031 408.865 505.031H411.627V503.869C411.627 503.423 411.545 503.021 411.381 502.666C411.217 502.311 410.984 502.01 410.684 501.764C410.383 501.508 410.014 501.312 409.576 501.176C409.148 501.039 408.665 500.971 408.127 500.971C407.626 500.971 407.174 501.035 406.773 501.162C406.382 501.29 406.049 501.458 405.775 501.668C405.502 501.878 405.288 502.128 405.133 502.42C404.987 502.702 404.914 502.999 404.914 503.309H402.371C402.38 502.771 402.517 502.242 402.781 501.723C403.055 501.203 403.442 500.738 403.943 500.328C404.454 499.909 405.069 499.572 405.789 499.316C406.518 499.061 407.343 498.934 408.264 498.934C409.102 498.934 409.882 499.038 410.602 499.248C411.322 499.449 411.941 499.758 412.461 500.178C412.99 500.588 413.404 501.103 413.705 501.723C414.006 502.342 414.156 503.067 414.156 503.896V510.773C414.156 511.266 414.202 511.79 414.293 512.346C414.384 512.893 414.512 513.371 414.676 513.781V514H412.037ZM407.566 512.072C408.059 512.072 408.519 512.008 408.947 511.881C409.376 511.753 409.763 511.585 410.109 511.375C410.465 511.165 410.77 510.928 411.025 510.664C411.281 510.391 411.481 510.108 411.627 509.816V506.822H409.275C407.799 506.822 406.65 507.041 405.83 507.479C405.01 507.916 404.6 508.604 404.6 509.543C404.6 509.908 404.659 510.245 404.777 510.555C404.905 510.865 405.092 511.133 405.338 511.361C405.584 511.58 405.894 511.753 406.268 511.881C406.641 512.008 407.074 512.072 407.566 512.072ZM425.436 512.223C425.891 512.223 426.333 512.15 426.762 512.004C427.199 511.858 427.587 511.658 427.924 511.402C428.261 511.138 428.53 510.833 428.73 510.486C428.94 510.131 429.049 509.748 429.059 509.338H431.451C431.442 509.994 431.269 510.623 430.932 511.225C430.604 511.817 430.161 512.341 429.605 512.797C429.049 513.243 428.411 513.604 427.691 513.877C426.971 514.141 426.219 514.273 425.436 514.273C424.314 514.273 423.335 514.073 422.496 513.672C421.658 513.271 420.956 512.733 420.391 512.059C419.835 511.375 419.415 510.591 419.133 509.707C418.85 508.814 418.709 507.875 418.709 506.891V506.316C418.709 505.341 418.85 504.407 419.133 503.514C419.415 502.62 419.835 501.837 420.391 501.162C420.956 500.479 421.658 499.936 422.496 499.535C423.335 499.134 424.314 498.934 425.436 498.934C426.311 498.934 427.113 499.075 427.842 499.357C428.58 499.631 429.214 500.009 429.742 500.492C430.28 500.966 430.699 501.531 431 502.188C431.301 502.844 431.451 503.546 431.451 504.293H429.059C429.049 503.846 428.949 503.427 428.758 503.035C428.576 502.634 428.325 502.283 428.006 501.982C427.687 501.682 427.304 501.445 426.857 501.271C426.42 501.098 425.946 501.012 425.436 501.012C424.652 501.012 423.991 501.171 423.453 501.49C422.924 501.8 422.496 502.21 422.168 502.721C421.84 503.222 421.603 503.787 421.457 504.416C421.32 505.045 421.252 505.678 421.252 506.316V506.891C421.252 507.538 421.32 508.18 421.457 508.818C421.603 509.447 421.835 510.017 422.154 510.527C422.482 511.029 422.911 511.439 423.439 511.758C423.977 512.068 424.643 512.223 425.436 512.223ZM440.379 507.096L438.52 508.887V514H435.977V493H438.52V505.852L440.174 504.074L445.027 499.207H448.104L442.115 505.373L449.02 514H445.807L440.379 507.096ZM459.301 514.273C458.262 514.273 457.305 514.096 456.43 513.74C455.564 513.385 454.821 512.888 454.201 512.25C453.581 511.612 453.098 510.855 452.752 509.98C452.406 509.105 452.232 508.153 452.232 507.123V506.549C452.232 505.355 452.424 504.288 452.807 503.35C453.189 502.402 453.695 501.604 454.324 500.957C454.962 500.301 455.682 499.799 456.484 499.453C457.296 499.107 458.125 498.934 458.973 498.934C460.039 498.934 460.969 499.12 461.762 499.494C462.564 499.859 463.229 500.369 463.758 501.025C464.286 501.673 464.678 502.438 464.934 503.322C465.198 504.206 465.33 505.163 465.33 506.193V507.328H454.762C454.789 508.003 454.917 508.636 455.145 509.229C455.382 509.821 455.701 510.34 456.102 510.787C456.512 511.225 456.999 511.571 457.564 511.826C458.13 512.081 458.754 512.209 459.438 512.209C460.34 512.209 461.142 512.027 461.844 511.662C462.546 511.298 463.129 510.814 463.594 510.213L465.139 511.416C464.893 511.79 464.583 512.15 464.209 512.496C463.844 512.833 463.421 513.134 462.938 513.398C462.454 513.663 461.908 513.872 461.297 514.027C460.686 514.191 460.021 514.273 459.301 514.273ZM458.973 501.012C458.462 501.012 457.979 501.107 457.523 501.299C457.068 501.481 456.658 501.755 456.293 502.119C455.928 502.475 455.618 502.917 455.363 503.445C455.117 503.965 454.944 504.566 454.844 505.25H462.801V505.059C462.773 504.566 462.678 504.079 462.514 503.596C462.359 503.113 462.126 502.68 461.816 502.297C461.507 501.914 461.115 501.604 460.641 501.367C460.176 501.13 459.62 501.012 458.973 501.012ZM471.852 499.207L472.029 501.395C472.567 500.629 473.228 500.032 474.012 499.604C474.796 499.166 475.671 498.943 476.637 498.934C477.411 498.934 478.113 499.043 478.742 499.262C479.38 499.48 479.923 499.822 480.369 500.287C480.816 500.752 481.158 501.344 481.395 502.064C481.641 502.775 481.764 503.623 481.764 504.607V514H479.234V504.662C479.234 504.006 479.161 503.45 479.016 502.994C478.87 502.538 478.651 502.169 478.359 501.887C478.077 501.604 477.726 501.399 477.307 501.271C476.896 501.144 476.423 501.08 475.885 501.08C475.037 501.08 474.29 501.294 473.643 501.723C473.005 502.142 472.494 502.698 472.111 503.391V514H469.582V499.207H471.852ZM485.92 506.48C485.92 505.378 486.057 504.366 486.33 503.445C486.613 502.516 487.009 501.718 487.52 501.053C488.039 500.387 488.663 499.868 489.393 499.494C490.122 499.12 490.938 498.934 491.84 498.934C492.724 498.934 493.494 499.084 494.15 499.385C494.816 499.676 495.39 500.105 495.873 500.67V493H498.402V514H496.078L495.969 512.441C495.477 513.043 494.889 513.499 494.205 513.809C493.521 514.118 492.724 514.273 491.812 514.273C490.919 514.273 490.108 514.082 489.379 513.699C488.659 513.316 488.044 512.788 487.533 512.113C487.023 511.439 486.626 510.646 486.344 509.734C486.061 508.814 485.92 507.825 485.92 506.768V506.48ZM488.449 506.768C488.449 507.488 488.527 508.171 488.682 508.818C488.837 509.465 489.074 510.035 489.393 510.527C489.721 511.02 490.135 511.411 490.637 511.703C491.138 511.986 491.74 512.127 492.441 512.127C492.87 512.127 493.257 512.077 493.604 511.977C493.95 511.876 494.264 511.735 494.547 511.553C494.829 511.361 495.08 511.138 495.299 510.883C495.518 510.618 495.709 510.327 495.873 510.008V503.145C495.545 502.543 495.103 502.051 494.547 501.668C493.991 501.276 493.298 501.08 492.469 501.08C491.758 501.08 491.147 501.226 490.637 501.518C490.135 501.809 489.721 502.206 489.393 502.707C489.074 503.199 488.837 503.773 488.682 504.43C488.527 505.077 488.449 505.76 488.449 506.48V506.768ZM526.621 505.879H522.643V514H520.127V494.094H525.965C526.895 494.112 527.77 494.244 528.59 494.49C529.41 494.736 530.126 495.105 530.736 495.598C531.356 496.09 531.839 496.71 532.186 497.457C532.541 498.195 532.719 499.066 532.719 500.068C532.719 500.715 532.623 501.308 532.432 501.846C532.249 502.383 531.994 502.871 531.666 503.309C531.338 503.746 530.946 504.133 530.49 504.471C530.035 504.808 529.533 505.095 528.986 505.332L533.211 513.836L533.197 514H530.531L526.621 505.879ZM522.643 503.801H526.033C526.598 503.792 527.132 503.705 527.633 503.541C528.134 503.368 528.572 503.122 528.945 502.803C529.328 502.484 529.629 502.096 529.848 501.641C530.066 501.176 530.176 500.643 530.176 500.041C530.176 499.403 530.071 498.847 529.861 498.373C529.652 497.89 529.36 497.489 528.986 497.17C528.613 496.842 528.166 496.596 527.646 496.432C527.136 496.268 526.576 496.181 525.965 496.172H522.643V503.801ZM547.799 504.799H539.486V511.854H549.18V514H536.957V494.094H549.057V496.254H539.486V502.652H547.799V504.799ZM564.082 508.969C564.082 508.358 563.941 507.843 563.658 507.424C563.385 507.005 563.029 506.654 562.592 506.371C562.154 506.079 561.671 505.838 561.143 505.646C560.623 505.455 560.122 505.282 559.639 505.127C558.937 504.899 558.221 504.626 557.492 504.307C556.772 503.988 556.111 503.596 555.51 503.131C554.917 502.666 554.43 502.119 554.047 501.49C553.673 500.852 553.486 500.105 553.486 499.248C553.486 498.391 553.673 497.626 554.047 496.951C554.43 496.277 554.926 495.707 555.537 495.242C556.148 494.777 556.84 494.426 557.615 494.189C558.39 493.943 559.169 493.82 559.953 493.82C560.819 493.82 561.653 493.966 562.455 494.258C563.257 494.54 563.968 494.941 564.588 495.461C565.208 495.98 565.704 496.609 566.078 497.348C566.452 498.086 566.648 498.911 566.666 499.822H564.068C563.995 499.248 563.854 498.729 563.645 498.264C563.435 497.79 563.157 497.384 562.811 497.047C562.464 496.71 562.049 496.45 561.566 496.268C561.092 496.076 560.555 495.98 559.953 495.98C559.47 495.98 558.996 496.049 558.531 496.186C558.076 496.322 557.665 496.527 557.301 496.801C556.945 497.074 556.658 497.411 556.439 497.812C556.23 498.214 556.125 498.678 556.125 499.207C556.134 499.781 556.28 500.269 556.562 500.67C556.845 501.062 557.201 501.395 557.629 501.668C558.066 501.941 558.536 502.169 559.037 502.352C559.548 502.534 560.026 502.693 560.473 502.83C560.965 502.985 561.462 503.163 561.963 503.363C562.464 503.555 562.947 503.778 563.412 504.033C563.877 504.288 564.31 504.576 564.711 504.895C565.112 505.214 565.463 505.578 565.764 505.988C566.064 506.389 566.297 506.836 566.461 507.328C566.634 507.811 566.721 508.349 566.721 508.941C566.721 509.835 566.52 510.614 566.119 511.279C565.727 511.945 565.217 512.501 564.588 512.947C563.959 513.385 563.248 513.717 562.455 513.945C561.662 514.164 560.869 514.273 560.076 514.273C559.192 514.273 558.326 514.137 557.479 513.863C556.631 513.59 555.87 513.198 555.195 512.688C554.53 512.168 553.988 511.539 553.568 510.801C553.149 510.053 552.926 509.206 552.898 508.258H555.482C555.564 508.878 555.733 509.429 555.988 509.912C556.243 510.386 556.572 510.792 556.973 511.129C557.374 511.457 557.834 511.708 558.354 511.881C558.882 512.045 559.456 512.127 560.076 512.127C560.568 512.127 561.051 512.068 561.525 511.949C562.008 511.822 562.437 511.63 562.811 511.375C563.184 511.111 563.49 510.783 563.727 510.391C563.964 509.99 564.082 509.516 564.082 508.969ZM583.906 496.254H577.754V514H575.293V496.254H569.141V494.094H583.906V496.254ZM613.615 508.846H606.971L605.371 514H602.842L609.268 494.094H611.387L617.703 514H615.188L613.615 508.846ZM607.654 506.645H612.945L610.32 498.004L607.654 506.645ZM623.691 506.016V514H621.162V494.094H627.615C628.508 494.112 629.352 494.253 630.145 494.518C630.947 494.782 631.648 495.165 632.25 495.666C632.852 496.167 633.326 496.787 633.672 497.525C634.027 498.264 634.205 499.111 634.205 500.068C634.205 501.025 634.027 501.873 633.672 502.611C633.326 503.34 632.852 503.956 632.25 504.457C631.648 504.958 630.947 505.341 630.145 505.605C629.352 505.87 628.508 506.007 627.615 506.016H623.691ZM623.691 503.938H627.615C628.199 503.928 628.736 503.837 629.229 503.664C629.721 503.482 630.149 503.227 630.514 502.898C630.878 502.57 631.161 502.174 631.361 501.709C631.571 501.235 631.676 500.697 631.676 500.096C631.676 499.494 631.571 498.952 631.361 498.469C631.161 497.986 630.878 497.576 630.514 497.238C630.158 496.901 629.73 496.641 629.229 496.459C628.736 496.277 628.199 496.181 627.615 496.172H623.691V503.938ZM637.746 494.094H649.777V496.295H645.006V511.812H649.777V514H637.746V511.812H642.408V496.295H637.746V494.094ZM664.393 510.076C664.393 509.775 664.333 509.507 664.215 509.27C664.096 509.023 663.896 508.8 663.613 508.6C663.331 508.399 662.957 508.217 662.492 508.053C662.027 507.88 661.449 507.725 660.756 507.588C659.908 507.415 659.133 507.205 658.432 506.959C657.739 506.713 657.142 506.421 656.641 506.084C656.148 505.738 655.766 505.337 655.492 504.881C655.219 504.416 655.082 503.878 655.082 503.268C655.082 502.666 655.223 502.105 655.506 501.586C655.788 501.057 656.185 500.597 656.695 500.205C657.206 499.813 657.812 499.503 658.514 499.275C659.225 499.048 660.004 498.934 660.852 498.934C661.763 498.934 662.583 499.052 663.312 499.289C664.042 499.526 664.661 499.854 665.172 500.273C665.682 500.693 666.074 501.185 666.348 501.75C666.63 502.306 666.771 502.908 666.771 503.555H664.242C664.242 503.236 664.16 502.926 663.996 502.625C663.832 502.315 663.604 502.042 663.312 501.805C663.021 501.568 662.665 501.376 662.246 501.23C661.836 501.085 661.371 501.012 660.852 501.012C660.314 501.012 659.84 501.071 659.43 501.189C659.029 501.308 658.691 501.467 658.418 501.668C658.154 501.868 657.953 502.101 657.816 502.365C657.68 502.63 657.611 502.903 657.611 503.186C657.611 503.477 657.666 503.737 657.775 503.965C657.885 504.193 658.072 504.398 658.336 504.58C658.609 504.762 658.969 504.926 659.416 505.072C659.872 505.218 660.446 505.359 661.139 505.496C662.05 505.688 662.866 505.911 663.586 506.166C664.306 506.412 664.912 506.713 665.404 507.068C665.896 507.415 666.27 507.82 666.525 508.285C666.79 508.75 666.922 509.288 666.922 509.898C666.922 510.555 666.771 511.152 666.471 511.689C666.179 512.227 665.769 512.688 665.24 513.07C664.712 513.453 664.078 513.749 663.34 513.959C662.602 514.169 661.795 514.273 660.92 514.273C659.917 514.273 659.024 514.141 658.24 513.877C657.456 513.604 656.791 513.248 656.244 512.811C655.706 512.364 655.292 511.849 655 511.266C654.717 510.682 654.576 510.076 654.576 509.447H657.105C657.142 509.967 657.279 510.404 657.516 510.76C657.762 511.115 658.062 511.402 658.418 511.621C658.783 511.84 659.184 511.995 659.621 512.086C660.059 512.177 660.492 512.223 660.92 512.223C661.986 512.223 662.829 512.027 663.449 511.635C664.069 511.243 664.383 510.723 664.393 510.076Z" fill="white"/>
</svg>
