<svg width="1002" height="526" viewBox="0 0 1002 526" fill="none" xmlns="http://www.w3.org/2000/svg">
<rect x="313" y="461.94" width="381" height="64.0596" fill="#61CAD1"/>
<rect x="2" y="2" width="998" height="348.936" fill="white" stroke="#61CAD1" stroke-width="4"/>
<rect x="25" y="373.574" width="951" height="64.0596" fill="#61CAD1"/>
<rect x="26" y="113.395" width="246" height="126.148" fill="#61CAD1"/>
<rect x="287" y="114.379" width="246" height="126.148" fill="#61CAD1"/>
<rect x="548" y="114.379" width="246" height="126.148" fill="#61CAD1"/>
<rect x="25" y="25.6816" width="951" height="64.0596" fill="#61CAD1"/>
<rect x="26" y="263.195" width="768" height="64.0596" fill="#61CAD1"/>
<rect x="809" y="114.379" width="167" height="212.875" fill="#61CAD1"/>
<path d="M343.736 61.8457H337.092L335.492 67H332.963L339.389 47.0938H341.508L347.824 67H345.309L343.736 61.8457ZM337.775 59.6445H343.066L340.441 51.0039L337.775 59.6445ZM360.648 64.9629C360.156 65.6921 359.541 66.2617 358.803 66.6719C358.064 67.0729 357.212 67.2734 356.246 67.2734C355.471 67.2734 354.77 67.1549 354.141 66.918C353.512 66.6719 352.974 66.2936 352.527 65.7832C352.081 65.2728 351.734 64.6257 351.488 63.8418C351.251 63.0488 351.133 62.1009 351.133 60.998V52.207H353.662V61.0254C353.662 61.8275 353.726 62.4928 353.854 63.0215C353.981 63.5501 354.173 63.974 354.428 64.293C354.683 64.6029 354.993 64.8216 355.357 64.9492C355.731 65.0768 356.16 65.1406 356.643 65.1406C357.673 65.1406 358.502 64.931 359.131 64.5117C359.769 64.0924 360.243 63.5273 360.553 62.8164V52.207H363.096V67H360.799L360.648 64.9629ZM373.855 48.625V52.207H379.488V54.1621H373.855V62.2012C373.855 62.7754 373.928 63.2493 374.074 63.623C374.22 63.9967 374.421 64.2975 374.676 64.5254C374.931 64.7441 375.223 64.8991 375.551 64.9902C375.888 65.0814 376.243 65.127 376.617 65.127C376.891 65.127 377.173 65.1133 377.465 65.0859C377.757 65.0495 378.039 65.0085 378.312 64.9629C378.595 64.9173 378.855 64.8717 379.092 64.8262C379.338 64.7715 379.538 64.7259 379.693 64.6895L380.049 66.4805C379.839 66.6081 379.584 66.722 379.283 66.8223C378.982 66.9134 378.654 66.9909 378.299 67.0547C377.943 67.1276 377.565 67.1823 377.164 67.2188C376.772 67.2552 376.38 67.2734 375.988 67.2734C375.332 67.2734 374.717 67.1823 374.143 67C373.577 66.8086 373.085 66.5124 372.666 66.1113C372.247 65.7012 371.914 65.1771 371.668 64.5391C371.431 63.8919 371.312 63.1126 371.312 62.2012V54.1621H367.43V52.207H371.312V48.625H373.855ZM387.213 54.4082C387.742 53.6335 388.393 53.0319 389.168 52.6035C389.943 52.166 390.813 51.9427 391.779 51.9336C392.554 51.9336 393.256 52.0475 393.885 52.2754C394.523 52.4941 395.065 52.8405 395.512 53.3145C395.958 53.7884 396.3 54.39 396.537 55.1191C396.783 55.8392 396.906 56.696 396.906 57.6895V67H394.377V57.6621C394.377 56.4499 394.085 55.5475 393.502 54.9551C392.928 54.3626 392.103 54.071 391.027 54.0801C390.216 54.0801 389.478 54.2806 388.812 54.6816C388.156 55.0736 387.623 55.5977 387.213 56.2539V67H384.684V46H387.213V54.4082ZM408.035 67.2734C406.996 67.2734 406.039 67.0957 405.164 66.7402C404.298 66.3848 403.555 65.888 402.936 65.25C402.316 64.612 401.833 63.8555 401.486 62.9805C401.14 62.1055 400.967 61.153 400.967 60.123V59.5488C400.967 58.3548 401.158 57.2884 401.541 56.3496C401.924 55.4017 402.43 54.6042 403.059 53.957C403.697 53.3008 404.417 52.7995 405.219 52.4531C406.03 52.1068 406.859 51.9336 407.707 51.9336C408.773 51.9336 409.703 52.1204 410.496 52.4941C411.298 52.8587 411.964 53.3691 412.492 54.0254C413.021 54.6725 413.413 55.4382 413.668 56.3223C413.932 57.2064 414.064 58.1634 414.064 59.1934V60.3281H403.496C403.523 61.0026 403.651 61.6361 403.879 62.2285C404.116 62.821 404.435 63.3405 404.836 63.7871C405.246 64.2246 405.734 64.571 406.299 64.8262C406.864 65.0814 407.488 65.209 408.172 65.209C409.074 65.209 409.876 65.0267 410.578 64.6621C411.28 64.2975 411.863 63.8145 412.328 63.2129L413.873 64.416C413.627 64.7897 413.317 65.1497 412.943 65.4961C412.579 65.8333 412.155 66.1341 411.672 66.3984C411.189 66.6628 410.642 66.8724 410.031 67.0273C409.421 67.1914 408.755 67.2734 408.035 67.2734ZM407.707 54.0117C407.197 54.0117 406.714 54.1074 406.258 54.2988C405.802 54.4811 405.392 54.7546 405.027 55.1191C404.663 55.4746 404.353 55.9167 404.098 56.4453C403.852 56.9648 403.678 57.5664 403.578 58.25H411.535V58.0586C411.508 57.5664 411.412 57.0788 411.248 56.5957C411.093 56.1126 410.861 55.6797 410.551 55.2969C410.241 54.9141 409.849 54.6042 409.375 54.3672C408.91 54.1302 408.354 54.0117 407.707 54.0117ZM420.586 52.207L420.764 54.3945C421.301 53.6289 421.962 53.0319 422.746 52.6035C423.53 52.166 424.405 51.9427 425.371 51.9336C426.146 51.9336 426.848 52.043 427.477 52.2617C428.115 52.4805 428.657 52.8223 429.104 53.2871C429.55 53.752 429.892 54.3444 430.129 55.0645C430.375 55.7754 430.498 56.623 430.498 57.6074V67H427.969V57.6621C427.969 57.0059 427.896 56.4499 427.75 55.9941C427.604 55.5384 427.385 55.1693 427.094 54.8867C426.811 54.6042 426.46 54.3991 426.041 54.2715C425.631 54.1439 425.157 54.0801 424.619 54.0801C423.771 54.0801 423.024 54.2943 422.377 54.7227C421.739 55.1419 421.229 55.6979 420.846 56.3906V67H418.316V52.207H420.586ZM441.121 48.625V52.207H446.754V54.1621H441.121V62.2012C441.121 62.7754 441.194 63.2493 441.34 63.623C441.486 63.9967 441.686 64.2975 441.941 64.5254C442.197 64.7441 442.488 64.8991 442.816 64.9902C443.154 65.0814 443.509 65.127 443.883 65.127C444.156 65.127 444.439 65.1133 444.73 65.0859C445.022 65.0495 445.305 65.0085 445.578 64.9629C445.861 64.9173 446.12 64.8717 446.357 64.8262C446.604 64.7715 446.804 64.7259 446.959 64.6895L447.314 66.4805C447.105 66.6081 446.85 66.722 446.549 66.8223C446.248 66.9134 445.92 66.9909 445.564 67.0547C445.209 67.1276 444.831 67.1823 444.43 67.2188C444.038 67.2552 443.646 67.2734 443.254 67.2734C442.598 67.2734 441.982 67.1823 441.408 67C440.843 66.8086 440.351 66.5124 439.932 66.1113C439.512 65.7012 439.18 65.1771 438.934 64.5391C438.697 63.8919 438.578 63.1126 438.578 62.2012V54.1621H434.695V52.207H438.578V48.625H441.121ZM452.346 52.207H459.906V64.8125H464.732V67H452.346V64.8125H457.377V54.4082H452.346V52.207ZM457.049 48.3242C457.049 47.9049 457.172 47.554 457.418 47.2715C457.673 46.9798 458.056 46.834 458.566 46.834C459.068 46.834 459.446 46.9798 459.701 47.2715C459.956 47.554 460.084 47.9049 460.084 48.3242C460.084 48.7344 459.956 49.0762 459.701 49.3496C459.446 49.623 459.068 49.7598 458.566 49.7598C458.056 49.7598 457.673 49.623 457.418 49.3496C457.172 49.0762 457.049 48.7344 457.049 48.3242ZM475.068 65.2227C475.524 65.2227 475.966 65.1497 476.395 65.0039C476.832 64.8581 477.219 64.6576 477.557 64.4023C477.894 64.138 478.163 63.8327 478.363 63.4863C478.573 63.1309 478.682 62.748 478.691 62.3379H481.084C481.075 62.9941 480.902 63.623 480.564 64.2246C480.236 64.8171 479.794 65.3411 479.238 65.7969C478.682 66.2435 478.044 66.6035 477.324 66.877C476.604 67.1413 475.852 67.2734 475.068 67.2734C473.947 67.2734 472.967 67.0729 472.129 66.6719C471.29 66.2708 470.589 65.7331 470.023 65.0586C469.467 64.375 469.048 63.5911 468.766 62.707C468.483 61.8138 468.342 60.875 468.342 59.8906V59.3164C468.342 58.3411 468.483 57.4069 468.766 56.5137C469.048 55.6204 469.467 54.8366 470.023 54.1621C470.589 53.4785 471.29 52.9362 472.129 52.5352C472.967 52.1341 473.947 51.9336 475.068 51.9336C475.943 51.9336 476.745 52.0749 477.475 52.3574C478.213 52.6309 478.846 53.0091 479.375 53.4922C479.913 53.9661 480.332 54.5312 480.633 55.1875C480.934 55.8438 481.084 56.5456 481.084 57.293H478.691C478.682 56.8464 478.582 56.4271 478.391 56.0352C478.208 55.6341 477.958 55.2832 477.639 54.9824C477.32 54.6816 476.937 54.4447 476.49 54.2715C476.053 54.0983 475.579 54.0117 475.068 54.0117C474.285 54.0117 473.624 54.1712 473.086 54.4902C472.557 54.8001 472.129 55.2103 471.801 55.7207C471.473 56.222 471.236 56.7871 471.09 57.416C470.953 58.0449 470.885 58.6784 470.885 59.3164V59.8906C470.885 60.5378 470.953 61.1803 471.09 61.8184C471.236 62.4473 471.468 63.0169 471.787 63.5273C472.115 64.0286 472.544 64.4388 473.072 64.7578C473.61 65.0677 474.275 65.2227 475.068 65.2227ZM495.303 67C495.202 66.8086 495.12 66.5716 495.057 66.2891C495.002 65.9974 494.961 65.6966 494.934 65.3867C494.678 65.6419 494.391 65.8835 494.072 66.1113C493.762 66.3392 493.416 66.5397 493.033 66.7129C492.66 66.8861 492.258 67.0228 491.83 67.123C491.402 67.2233 490.946 67.2734 490.463 67.2734C489.679 67.2734 488.968 67.1595 488.33 66.9316C487.701 66.7038 487.163 66.3984 486.717 66.0156C486.279 65.6237 485.938 65.1634 485.691 64.6348C485.454 64.097 485.336 63.5182 485.336 62.8984C485.336 62.0872 485.495 61.3763 485.814 60.7656C486.143 60.1549 486.603 59.6491 487.195 59.248C487.788 58.8379 488.499 58.5326 489.328 58.332C490.167 58.1315 491.101 58.0312 492.131 58.0312H494.893V56.8691C494.893 56.4225 494.811 56.0215 494.646 55.666C494.482 55.3105 494.25 55.0098 493.949 54.7637C493.648 54.5085 493.279 54.3125 492.842 54.1758C492.413 54.0391 491.93 53.9707 491.393 53.9707C490.891 53.9707 490.44 54.0345 490.039 54.1621C489.647 54.2897 489.314 54.4583 489.041 54.668C488.768 54.8776 488.553 55.1283 488.398 55.4199C488.253 55.7025 488.18 55.9987 488.18 56.3086H485.637C485.646 55.7708 485.783 55.2422 486.047 54.7227C486.32 54.2031 486.708 53.7383 487.209 53.3281C487.719 52.9089 488.335 52.5716 489.055 52.3164C489.784 52.0612 490.609 51.9336 491.529 51.9336C492.368 51.9336 493.147 52.0384 493.867 52.248C494.587 52.4486 495.207 52.7585 495.727 53.1777C496.255 53.5879 496.67 54.1029 496.971 54.7227C497.271 55.3424 497.422 56.0671 497.422 56.8965V63.7734C497.422 64.2656 497.467 64.7897 497.559 65.3457C497.65 65.8926 497.777 66.3711 497.941 66.7812V67H495.303ZM490.832 65.0723C491.324 65.0723 491.785 65.0085 492.213 64.8809C492.641 64.7533 493.029 64.5846 493.375 64.375C493.73 64.1654 494.036 63.9284 494.291 63.6641C494.546 63.3906 494.747 63.1081 494.893 62.8164V59.8223H492.541C491.064 59.8223 489.916 60.041 489.096 60.4785C488.275 60.916 487.865 61.6042 487.865 62.543C487.865 62.9076 487.924 63.2448 488.043 63.5547C488.171 63.8646 488.357 64.1335 488.604 64.3613C488.85 64.5801 489.16 64.7533 489.533 64.8809C489.907 65.0085 490.34 65.0723 490.832 65.0723ZM508.387 48.625V52.207H514.02V54.1621H508.387V62.2012C508.387 62.7754 508.46 63.2493 508.605 63.623C508.751 63.9967 508.952 64.2975 509.207 64.5254C509.462 64.7441 509.754 64.8991 510.082 64.9902C510.419 65.0814 510.775 65.127 511.148 65.127C511.422 65.127 511.704 65.1133 511.996 65.0859C512.288 65.0495 512.57 65.0085 512.844 64.9629C513.126 64.9173 513.386 64.8717 513.623 64.8262C513.869 64.7715 514.07 64.7259 514.225 64.6895L514.58 66.4805C514.37 66.6081 514.115 66.722 513.814 66.8223C513.514 66.9134 513.186 66.9909 512.83 67.0547C512.475 67.1276 512.096 67.1823 511.695 67.2188C511.303 67.2552 510.911 67.2734 510.52 67.2734C509.863 67.2734 509.248 67.1823 508.674 67C508.109 66.8086 507.617 66.5124 507.197 66.1113C506.778 65.7012 506.445 65.1771 506.199 64.5391C505.962 63.8919 505.844 63.1126 505.844 62.2012V54.1621H501.961V52.207H505.844V48.625H508.387ZM519.611 52.207H527.172V64.8125H531.998V67H519.611V64.8125H524.643V54.4082H519.611V52.207ZM524.314 48.3242C524.314 47.9049 524.438 47.554 524.684 47.2715C524.939 46.9798 525.322 46.834 525.832 46.834C526.333 46.834 526.712 46.9798 526.967 47.2715C527.222 47.554 527.35 47.9049 527.35 48.3242C527.35 48.7344 527.222 49.0762 526.967 49.3496C526.712 49.623 526.333 49.7598 525.832 49.7598C525.322 49.7598 524.939 49.623 524.684 49.3496C524.438 49.0762 524.314 48.7344 524.314 48.3242ZM535.32 59.4668C535.32 58.4004 535.475 57.4115 535.785 56.5C536.095 55.5794 536.537 54.7819 537.111 54.1074C537.695 53.4329 538.401 52.9043 539.23 52.5215C540.06 52.1296 540.994 51.9336 542.033 51.9336C543.081 51.9336 544.02 52.1296 544.85 52.5215C545.688 52.9043 546.395 53.4329 546.969 54.1074C547.552 54.7819 547.999 55.5794 548.309 56.5C548.618 57.4115 548.773 58.4004 548.773 59.4668V59.7676C548.773 60.834 548.618 61.8229 548.309 62.7344C547.999 63.6458 547.552 64.4388 546.969 65.1133C546.395 65.7878 545.693 66.3164 544.863 66.6992C544.034 67.082 543.1 67.2734 542.061 67.2734C541.012 67.2734 540.069 67.082 539.23 66.6992C538.401 66.3164 537.695 65.7878 537.111 65.1133C536.537 64.4388 536.095 63.6458 535.785 62.7344C535.475 61.8229 535.32 60.834 535.32 59.7676V59.4668ZM537.85 59.7676C537.85 60.4967 537.936 61.194 538.109 61.8594C538.283 62.5156 538.542 63.0944 538.889 63.5957C539.244 64.097 539.686 64.4935 540.215 64.7852C540.743 65.0768 541.359 65.2227 542.061 65.2227C542.753 65.2227 543.359 65.0768 543.879 64.7852C544.408 64.4935 544.845 64.097 545.191 63.5957C545.547 63.0944 545.811 62.5156 545.984 61.8594C546.158 61.194 546.244 60.4967 546.244 59.7676V59.4668C546.244 58.7467 546.153 58.0586 545.971 57.4023C545.798 56.737 545.533 56.1536 545.178 55.6523C544.831 55.151 544.394 54.7546 543.865 54.4629C543.346 54.1621 542.735 54.0117 542.033 54.0117C541.331 54.0117 540.721 54.1621 540.201 54.4629C539.682 54.7546 539.244 55.151 538.889 55.6523C538.542 56.1536 538.283 56.737 538.109 57.4023C537.936 58.0586 537.85 58.7467 537.85 59.4668V59.7676ZM555.117 52.207L555.295 54.3945C555.833 53.6289 556.493 53.0319 557.277 52.6035C558.061 52.166 558.936 51.9427 559.902 51.9336C560.677 51.9336 561.379 52.043 562.008 52.2617C562.646 52.4805 563.188 52.8223 563.635 53.2871C564.081 53.752 564.423 54.3444 564.66 55.0645C564.906 55.7754 565.029 56.623 565.029 57.6074V67H562.5V57.6621C562.5 57.0059 562.427 56.4499 562.281 55.9941C562.135 55.5384 561.917 55.1693 561.625 54.8867C561.342 54.6042 560.992 54.3991 560.572 54.2715C560.162 54.1439 559.688 54.0801 559.15 54.0801C558.303 54.0801 557.555 54.2943 556.908 54.7227C556.27 55.1419 555.76 55.6979 555.377 56.3906V67H552.848V52.207H555.117ZM596.898 61.9688C596.898 61.3581 596.757 60.8431 596.475 60.4238C596.201 60.0046 595.846 59.6536 595.408 59.3711C594.971 59.0794 594.488 58.8379 593.959 58.6465C593.439 58.4551 592.938 58.2819 592.455 58.127C591.753 57.8991 591.038 57.6257 590.309 57.3066C589.589 56.9876 588.928 56.5957 588.326 56.1309C587.734 55.666 587.246 55.1191 586.863 54.4902C586.49 53.8522 586.303 53.1048 586.303 52.248C586.303 51.3913 586.49 50.6257 586.863 49.9512C587.246 49.2767 587.743 48.707 588.354 48.2422C588.964 47.7773 589.657 47.4264 590.432 47.1895C591.206 46.9434 591.986 46.8203 592.77 46.8203C593.635 46.8203 594.469 46.9661 595.271 47.2578C596.074 47.5404 596.785 47.9414 597.404 48.4609C598.024 48.9805 598.521 49.6094 598.895 50.3477C599.268 51.0859 599.464 51.9108 599.482 52.8223H596.885C596.812 52.248 596.671 51.7285 596.461 51.2637C596.251 50.7897 595.973 50.3841 595.627 50.0469C595.281 49.7096 594.866 49.4499 594.383 49.2676C593.909 49.0762 593.371 48.9805 592.77 48.9805C592.286 48.9805 591.812 49.0488 591.348 49.1855C590.892 49.3223 590.482 49.5273 590.117 49.8008C589.762 50.0742 589.475 50.4115 589.256 50.8125C589.046 51.2135 588.941 51.6784 588.941 52.207C588.951 52.7812 589.096 53.2689 589.379 53.6699C589.661 54.0618 590.017 54.3945 590.445 54.668C590.883 54.9414 591.352 55.1693 591.854 55.3516C592.364 55.5339 592.842 55.6934 593.289 55.8301C593.781 55.985 594.278 56.1628 594.779 56.3633C595.281 56.5547 595.764 56.778 596.229 57.0332C596.693 57.2884 597.126 57.5755 597.527 57.8945C597.928 58.2135 598.279 58.5781 598.58 58.9883C598.881 59.3893 599.113 59.8359 599.277 60.3281C599.451 60.8112 599.537 61.349 599.537 61.9414C599.537 62.8346 599.337 63.6139 598.936 64.2793C598.544 64.9447 598.033 65.5007 597.404 65.9473C596.775 66.3848 596.064 66.7174 595.271 66.9453C594.479 67.1641 593.686 67.2734 592.893 67.2734C592.008 67.2734 591.143 67.1367 590.295 66.8633C589.447 66.5898 588.686 66.1979 588.012 65.6875C587.346 65.168 586.804 64.5391 586.385 63.8008C585.965 63.0534 585.742 62.2057 585.715 61.2578H588.299C588.381 61.8776 588.549 62.429 588.805 62.9121C589.06 63.3861 589.388 63.7917 589.789 64.1289C590.19 64.457 590.65 64.7077 591.17 64.8809C591.699 65.0449 592.273 65.127 592.893 65.127C593.385 65.127 593.868 65.0677 594.342 64.9492C594.825 64.8216 595.253 64.6302 595.627 64.375C596.001 64.1107 596.306 63.7826 596.543 63.3906C596.78 62.9896 596.898 62.5156 596.898 61.9688ZM608.738 61.75L609.395 63.541L613.906 52.207H616.736L609.23 69.2832C609.057 69.666 608.834 70.0716 608.561 70.5C608.296 70.9284 607.973 71.3249 607.59 71.6895C607.207 72.054 606.76 72.3594 606.25 72.6055C605.74 72.8516 605.152 72.9746 604.486 72.9746C604.368 72.9746 604.236 72.9655 604.09 72.9473C603.944 72.9382 603.798 72.9199 603.652 72.8926C603.507 72.8743 603.37 72.8516 603.242 72.8242C603.115 72.7969 603.01 72.7741 602.928 72.7559L603.338 70.6914C603.402 70.6914 603.488 70.696 603.598 70.7051C603.707 70.7142 603.821 70.7233 603.939 70.7324C604.058 70.7415 604.172 70.7461 604.281 70.7461C604.391 70.7552 604.477 70.7598 604.541 70.7598C604.887 70.7598 605.202 70.6641 605.484 70.4727C605.776 70.2812 606.031 70.0534 606.25 69.7891C606.478 69.5247 606.669 69.2513 606.824 68.9688C606.988 68.6862 607.116 68.4538 607.207 68.2715L608.219 66.3027L601.848 52.207H604.678L608.738 61.75ZM629.943 63.0762C629.943 62.7754 629.884 62.5065 629.766 62.2695C629.647 62.0234 629.447 61.8001 629.164 61.5996C628.882 61.3991 628.508 61.2168 628.043 61.0527C627.578 60.8796 626.999 60.7246 626.307 60.5879C625.459 60.4147 624.684 60.2051 623.982 59.959C623.29 59.7129 622.693 59.4212 622.191 59.084C621.699 58.7376 621.316 58.3366 621.043 57.8809C620.77 57.416 620.633 56.8783 620.633 56.2676C620.633 55.666 620.774 55.1055 621.057 54.5859C621.339 54.0573 621.736 53.597 622.246 53.2051C622.757 52.8132 623.363 52.5033 624.064 52.2754C624.775 52.0475 625.555 51.9336 626.402 51.9336C627.314 51.9336 628.134 52.0521 628.863 52.2891C629.592 52.526 630.212 52.8542 630.723 53.2734C631.233 53.6927 631.625 54.1849 631.898 54.75C632.181 55.306 632.322 55.9076 632.322 56.5547H629.793C629.793 56.2357 629.711 55.9258 629.547 55.625C629.383 55.3151 629.155 55.0417 628.863 54.8047C628.572 54.5677 628.216 54.3763 627.797 54.2305C627.387 54.0846 626.922 54.0117 626.402 54.0117C625.865 54.0117 625.391 54.071 624.98 54.1895C624.579 54.3079 624.242 54.4674 623.969 54.668C623.704 54.8685 623.504 55.1009 623.367 55.3652C623.23 55.6296 623.162 55.903 623.162 56.1855C623.162 56.4772 623.217 56.737 623.326 56.9648C623.436 57.1927 623.622 57.3978 623.887 57.5801C624.16 57.7624 624.52 57.9264 624.967 58.0723C625.423 58.2181 625.997 58.3594 626.689 58.4961C627.601 58.6875 628.417 58.9108 629.137 59.166C629.857 59.4121 630.463 59.7129 630.955 60.0684C631.447 60.4147 631.821 60.8203 632.076 61.2852C632.34 61.75 632.473 62.2878 632.473 62.8984C632.473 63.5547 632.322 64.1517 632.021 64.6895C631.73 65.2272 631.32 65.6875 630.791 66.0703C630.262 66.4531 629.629 66.7493 628.891 66.959C628.152 67.1686 627.346 67.2734 626.471 67.2734C625.468 67.2734 624.575 67.1413 623.791 66.877C623.007 66.6035 622.342 66.248 621.795 65.8105C621.257 65.3639 620.842 64.849 620.551 64.2656C620.268 63.6823 620.127 63.0762 620.127 62.4473H622.656C622.693 62.9668 622.829 63.4043 623.066 63.7598C623.312 64.1152 623.613 64.4023 623.969 64.6211C624.333 64.8398 624.734 64.9948 625.172 65.0859C625.609 65.1771 626.042 65.2227 626.471 65.2227C627.537 65.2227 628.38 65.0267 629 64.6348C629.62 64.2428 629.934 63.7233 629.943 63.0762ZM642.918 48.625V52.207H648.551V54.1621H642.918V62.2012C642.918 62.7754 642.991 63.2493 643.137 63.623C643.283 63.9967 643.483 64.2975 643.738 64.5254C643.993 64.7441 644.285 64.8991 644.613 64.9902C644.951 65.0814 645.306 65.127 645.68 65.127C645.953 65.127 646.236 65.1133 646.527 65.0859C646.819 65.0495 647.102 65.0085 647.375 64.9629C647.658 64.9173 647.917 64.8717 648.154 64.8262C648.4 64.7715 648.601 64.7259 648.756 64.6895L649.111 66.4805C648.902 66.6081 648.646 66.722 648.346 66.8223C648.045 66.9134 647.717 66.9909 647.361 67.0547C647.006 67.1276 646.628 67.1823 646.227 67.2188C645.835 67.2552 645.443 67.2734 645.051 67.2734C644.395 67.2734 643.779 67.1823 643.205 67C642.64 66.8086 642.148 66.5124 641.729 66.1113C641.309 65.7012 640.977 65.1771 640.73 64.5391C640.493 63.8919 640.375 63.1126 640.375 62.2012V54.1621H636.492V52.207H640.375V48.625H642.918ZM660.281 67.2734C659.242 67.2734 658.285 67.0957 657.41 66.7402C656.544 66.3848 655.801 65.888 655.182 65.25C654.562 64.612 654.079 63.8555 653.732 62.9805C653.386 62.1055 653.213 61.153 653.213 60.123V59.5488C653.213 58.3548 653.404 57.2884 653.787 56.3496C654.17 55.4017 654.676 54.6042 655.305 53.957C655.943 53.3008 656.663 52.7995 657.465 52.4531C658.276 52.1068 659.105 51.9336 659.953 51.9336C661.02 51.9336 661.949 52.1204 662.742 52.4941C663.544 52.8587 664.21 53.3691 664.738 54.0254C665.267 54.6725 665.659 55.4382 665.914 56.3223C666.178 57.2064 666.311 58.1634 666.311 59.1934V60.3281H655.742C655.77 61.0026 655.897 61.6361 656.125 62.2285C656.362 62.821 656.681 63.3405 657.082 63.7871C657.492 64.2246 657.98 64.571 658.545 64.8262C659.11 65.0814 659.734 65.209 660.418 65.209C661.32 65.209 662.122 65.0267 662.824 64.6621C663.526 64.2975 664.109 63.8145 664.574 63.2129L666.119 64.416C665.873 64.7897 665.563 65.1497 665.189 65.4961C664.825 65.8333 664.401 66.1341 663.918 66.3984C663.435 66.6628 662.888 66.8724 662.277 67.0273C661.667 67.1914 661.001 67.2734 660.281 67.2734ZM659.953 54.0117C659.443 54.0117 658.96 54.1074 658.504 54.2988C658.048 54.4811 657.638 54.7546 657.273 55.1191C656.909 55.4746 656.599 55.9167 656.344 56.4453C656.098 56.9648 655.924 57.5664 655.824 58.25H663.781V58.0586C663.754 57.5664 663.658 57.0788 663.494 56.5957C663.339 56.1126 663.107 55.6797 662.797 55.2969C662.487 54.9141 662.095 54.6042 661.621 54.3672C661.156 54.1302 660.6 54.0117 659.953 54.0117ZM671.725 52.207L671.793 53.6016C672.094 53.082 672.486 52.6764 672.969 52.3848C673.461 52.0931 674.053 51.9427 674.746 51.9336C676.104 51.9336 677.011 52.4622 677.467 53.5195C677.758 53.0456 678.141 52.6673 678.615 52.3848C679.098 52.0931 679.682 51.9427 680.365 51.9336C681.45 51.9336 682.284 52.2663 682.867 52.9316C683.451 53.597 683.742 54.6042 683.742 55.9531V67H681.336V55.9258C681.336 54.6862 680.766 54.071 679.627 54.0801C679.326 54.0801 679.066 54.1211 678.848 54.2031C678.629 54.2852 678.447 54.3991 678.301 54.5449C678.155 54.6816 678.041 54.8457 677.959 55.0371C677.877 55.2194 677.822 55.4108 677.795 55.6113V67H675.389V55.9121C675.389 55.3197 675.257 54.8639 674.992 54.5449C674.728 54.2259 674.309 54.071 673.734 54.0801C673.206 54.0801 672.796 54.1849 672.504 54.3945C672.212 54.6042 671.998 54.8822 671.861 55.2285V67H669.455V52.207H671.725Z" fill="white"/>
<path d="M356.717 298.846H350.072L348.473 304H345.943L352.369 284.094H354.488L360.805 304H358.289L356.717 298.846ZM350.756 296.645H356.047L353.422 288.004L350.756 296.645ZM366.793 296.016V304H364.264V284.094H370.717C371.61 284.112 372.453 284.253 373.246 284.518C374.048 284.782 374.75 285.165 375.352 285.666C375.953 286.167 376.427 286.787 376.773 287.525C377.129 288.264 377.307 289.111 377.307 290.068C377.307 291.025 377.129 291.873 376.773 292.611C376.427 293.34 375.953 293.956 375.352 294.457C374.75 294.958 374.048 295.341 373.246 295.605C372.453 295.87 371.61 296.007 370.717 296.016H366.793ZM366.793 293.938H370.717C371.3 293.928 371.838 293.837 372.33 293.664C372.822 293.482 373.251 293.227 373.615 292.898C373.98 292.57 374.262 292.174 374.463 291.709C374.673 291.235 374.777 290.697 374.777 290.096C374.777 289.494 374.673 288.952 374.463 288.469C374.262 287.986 373.98 287.576 373.615 287.238C373.26 286.901 372.831 286.641 372.33 286.459C371.838 286.277 371.3 286.181 370.717 286.172H366.793V293.938ZM380.848 284.094H392.879V286.295H388.107V301.812H392.879V304H380.848V301.812H385.51V286.295H380.848V284.094ZM427.373 298.012C427.255 298.932 427.018 299.78 426.662 300.555C426.307 301.32 425.842 301.981 425.268 302.537C424.702 303.084 424.028 303.512 423.244 303.822C422.469 304.123 421.604 304.273 420.646 304.273C419.826 304.273 419.079 304.16 418.404 303.932C417.739 303.695 417.142 303.371 416.613 302.961C416.094 302.551 415.643 302.068 415.26 301.512C414.886 300.956 414.572 300.35 414.316 299.693C414.07 299.037 413.883 298.349 413.756 297.629C413.637 296.909 413.574 296.18 413.564 295.441V292.666C413.574 291.928 413.637 291.199 413.756 290.479C413.883 289.758 414.07 289.07 414.316 288.414C414.572 287.758 414.886 287.152 415.26 286.596C415.643 286.031 416.094 285.543 416.613 285.133C417.142 284.723 417.739 284.404 418.404 284.176C419.07 283.939 419.817 283.82 420.646 283.82C421.64 283.82 422.529 283.975 423.312 284.285C424.096 284.586 424.771 285.019 425.336 285.584C425.901 286.14 426.352 286.81 426.689 287.594C427.036 288.378 427.264 289.243 427.373 290.191H424.844C424.762 289.59 424.62 289.029 424.42 288.51C424.219 287.99 423.951 287.535 423.613 287.143C423.276 286.751 422.861 286.445 422.369 286.227C421.886 285.999 421.312 285.885 420.646 285.885C420.045 285.885 419.512 285.985 419.047 286.186C418.591 286.377 418.195 286.641 417.857 286.979C417.529 287.316 417.251 287.708 417.023 288.154C416.805 288.601 416.627 289.075 416.49 289.576C416.354 290.077 416.253 290.592 416.189 291.121C416.135 291.641 416.107 292.146 416.107 292.639V295.441C416.107 295.934 416.135 296.444 416.189 296.973C416.253 297.492 416.354 298.007 416.49 298.518C416.627 299.019 416.805 299.493 417.023 299.939C417.242 300.386 417.52 300.783 417.857 301.129C418.195 301.466 418.591 301.735 419.047 301.936C419.503 302.127 420.036 302.223 420.646 302.223C421.312 302.223 421.886 302.118 422.369 301.908C422.861 301.699 423.276 301.407 423.613 301.033C423.951 300.65 424.219 300.204 424.42 299.693C424.62 299.174 424.762 298.613 424.844 298.012H427.373ZM431.693 283H439.254V301.812H444.08V304H431.693V301.812H436.725V285.201H431.693V283ZM448.51 289.207H456.07V301.812H460.896V304H448.51V301.812H453.541V291.408H448.51V289.207ZM453.213 285.324C453.213 284.905 453.336 284.554 453.582 284.271C453.837 283.98 454.22 283.834 454.73 283.834C455.232 283.834 455.61 283.98 455.865 284.271C456.12 284.554 456.248 284.905 456.248 285.324C456.248 285.734 456.12 286.076 455.865 286.35C455.61 286.623 455.232 286.76 454.73 286.76C454.22 286.76 453.837 286.623 453.582 286.35C453.336 286.076 453.213 285.734 453.213 285.324ZM471.465 304.273C470.426 304.273 469.469 304.096 468.594 303.74C467.728 303.385 466.985 302.888 466.365 302.25C465.745 301.612 465.262 300.855 464.916 299.98C464.57 299.105 464.396 298.153 464.396 297.123V296.549C464.396 295.355 464.588 294.288 464.971 293.35C465.354 292.402 465.859 291.604 466.488 290.957C467.126 290.301 467.846 289.799 468.648 289.453C469.46 289.107 470.289 288.934 471.137 288.934C472.203 288.934 473.133 289.12 473.926 289.494C474.728 289.859 475.393 290.369 475.922 291.025C476.451 291.673 476.842 292.438 477.098 293.322C477.362 294.206 477.494 295.163 477.494 296.193V297.328H466.926C466.953 298.003 467.081 298.636 467.309 299.229C467.546 299.821 467.865 300.34 468.266 300.787C468.676 301.225 469.163 301.571 469.729 301.826C470.294 302.081 470.918 302.209 471.602 302.209C472.504 302.209 473.306 302.027 474.008 301.662C474.71 301.298 475.293 300.814 475.758 300.213L477.303 301.416C477.057 301.79 476.747 302.15 476.373 302.496C476.008 302.833 475.585 303.134 475.102 303.398C474.618 303.663 474.072 303.872 473.461 304.027C472.85 304.191 472.185 304.273 471.465 304.273ZM471.137 291.012C470.626 291.012 470.143 291.107 469.688 291.299C469.232 291.481 468.822 291.755 468.457 292.119C468.092 292.475 467.783 292.917 467.527 293.445C467.281 293.965 467.108 294.566 467.008 295.25H474.965V295.059C474.938 294.566 474.842 294.079 474.678 293.596C474.523 293.113 474.29 292.68 473.98 292.297C473.671 291.914 473.279 291.604 472.805 291.367C472.34 291.13 471.784 291.012 471.137 291.012ZM484.016 289.207L484.193 291.395C484.731 290.629 485.392 290.032 486.176 289.604C486.96 289.166 487.835 288.943 488.801 288.934C489.576 288.934 490.277 289.043 490.906 289.262C491.544 289.48 492.087 289.822 492.533 290.287C492.98 290.752 493.322 291.344 493.559 292.064C493.805 292.775 493.928 293.623 493.928 294.607V304H491.398V294.662C491.398 294.006 491.326 293.45 491.18 292.994C491.034 292.538 490.815 292.169 490.523 291.887C490.241 291.604 489.89 291.399 489.471 291.271C489.061 291.144 488.587 291.08 488.049 291.08C487.201 291.08 486.454 291.294 485.807 291.723C485.169 292.142 484.658 292.698 484.275 293.391V304H481.746V289.207H484.016ZM504.551 285.625V289.207H510.184V291.162H504.551V299.201C504.551 299.775 504.624 300.249 504.77 300.623C504.915 300.997 505.116 301.298 505.371 301.525C505.626 301.744 505.918 301.899 506.246 301.99C506.583 302.081 506.939 302.127 507.312 302.127C507.586 302.127 507.868 302.113 508.16 302.086C508.452 302.049 508.734 302.008 509.008 301.963C509.29 301.917 509.55 301.872 509.787 301.826C510.033 301.771 510.234 301.726 510.389 301.689L510.744 303.48C510.535 303.608 510.279 303.722 509.979 303.822C509.678 303.913 509.35 303.991 508.994 304.055C508.639 304.128 508.26 304.182 507.859 304.219C507.467 304.255 507.076 304.273 506.684 304.273C506.027 304.273 505.412 304.182 504.838 304C504.273 303.809 503.781 303.512 503.361 303.111C502.942 302.701 502.609 302.177 502.363 301.539C502.126 300.892 502.008 300.113 502.008 299.201V291.162H498.125V289.207H502.008V285.625H504.551Z" fill="white"/>
<path d="M467.963 416H465.57V406.799H457.408V416H455.029V396.094H457.408V404.652H465.57V396.094H467.963V416ZM478.832 416.273C477.793 416.273 476.836 416.096 475.961 415.74C475.095 415.385 474.352 414.888 473.732 414.25C473.113 413.612 472.63 412.855 472.283 411.98C471.937 411.105 471.764 410.153 471.764 409.123V408.549C471.764 407.355 471.955 406.288 472.338 405.35C472.721 404.402 473.227 403.604 473.855 402.957C474.493 402.301 475.214 401.799 476.016 401.453C476.827 401.107 477.656 400.934 478.504 400.934C479.57 400.934 480.5 401.12 481.293 401.494C482.095 401.859 482.76 402.369 483.289 403.025C483.818 403.673 484.21 404.438 484.465 405.322C484.729 406.206 484.861 407.163 484.861 408.193V409.328H474.293C474.32 410.003 474.448 410.636 474.676 411.229C474.913 411.821 475.232 412.34 475.633 412.787C476.043 413.225 476.531 413.571 477.096 413.826C477.661 414.081 478.285 414.209 478.969 414.209C479.871 414.209 480.673 414.027 481.375 413.662C482.077 413.298 482.66 412.814 483.125 412.213L484.67 413.416C484.424 413.79 484.114 414.15 483.74 414.496C483.376 414.833 482.952 415.134 482.469 415.398C481.986 415.663 481.439 415.872 480.828 416.027C480.217 416.191 479.552 416.273 478.832 416.273ZM478.504 403.012C477.993 403.012 477.51 403.107 477.055 403.299C476.599 403.481 476.189 403.755 475.824 404.119C475.46 404.475 475.15 404.917 474.895 405.445C474.648 405.965 474.475 406.566 474.375 407.25H482.332V407.059C482.305 406.566 482.209 406.079 482.045 405.596C481.89 405.113 481.658 404.68 481.348 404.297C481.038 403.914 480.646 403.604 480.172 403.367C479.707 403.13 479.151 403.012 478.504 403.012ZM498.807 400.934C499.044 400.934 499.29 400.943 499.545 400.961C499.8 400.97 500.042 400.993 500.27 401.029C500.507 401.057 500.721 401.093 500.912 401.139C501.113 401.184 501.277 401.234 501.404 401.289L501.062 403.764C500.57 403.654 500.101 403.577 499.654 403.531C499.217 403.477 498.757 403.449 498.273 403.449C497.089 403.449 496.127 403.718 495.389 404.256C494.66 404.794 494.122 405.546 493.775 406.512V416H491.232V401.207H493.639L493.762 403.559C494.363 402.747 495.083 402.109 495.922 401.645C496.77 401.171 497.731 400.934 498.807 400.934ZM505.219 408.467C505.219 407.4 505.374 406.411 505.684 405.5C505.993 404.579 506.436 403.782 507.01 403.107C507.593 402.433 508.299 401.904 509.129 401.521C509.958 401.13 510.893 400.934 511.932 400.934C512.98 400.934 513.919 401.13 514.748 401.521C515.587 401.904 516.293 402.433 516.867 403.107C517.451 403.782 517.897 404.579 518.207 405.5C518.517 406.411 518.672 407.4 518.672 408.467V408.768C518.672 409.834 518.517 410.823 518.207 411.734C517.897 412.646 517.451 413.439 516.867 414.113C516.293 414.788 515.591 415.316 514.762 415.699C513.932 416.082 512.998 416.273 511.959 416.273C510.911 416.273 509.967 416.082 509.129 415.699C508.299 415.316 507.593 414.788 507.01 414.113C506.436 413.439 505.993 412.646 505.684 411.734C505.374 410.823 505.219 409.834 505.219 408.768V408.467ZM507.748 408.768C507.748 409.497 507.835 410.194 508.008 410.859C508.181 411.516 508.441 412.094 508.787 412.596C509.143 413.097 509.585 413.493 510.113 413.785C510.642 414.077 511.257 414.223 511.959 414.223C512.652 414.223 513.258 414.077 513.777 413.785C514.306 413.493 514.743 413.097 515.09 412.596C515.445 412.094 515.71 411.516 515.883 410.859C516.056 410.194 516.143 409.497 516.143 408.768V408.467C516.143 407.747 516.051 407.059 515.869 406.402C515.696 405.737 515.432 405.154 515.076 404.652C514.73 404.151 514.292 403.755 513.764 403.463C513.244 403.162 512.633 403.012 511.932 403.012C511.23 403.012 510.619 403.162 510.1 403.463C509.58 403.755 509.143 404.151 508.787 404.652C508.441 405.154 508.181 405.737 508.008 406.402C507.835 407.059 507.748 407.747 507.748 408.467V408.768ZM527.176 409.096L525.316 410.887V416H522.773V395H525.316V407.852L526.971 406.074L531.824 401.207H534.9L528.912 407.373L535.816 416H532.604L527.176 409.096ZM549.16 413.963C548.668 414.692 548.053 415.262 547.314 415.672C546.576 416.073 545.724 416.273 544.758 416.273C543.983 416.273 543.281 416.155 542.652 415.918C542.023 415.672 541.486 415.294 541.039 414.783C540.592 414.273 540.246 413.626 540 412.842C539.763 412.049 539.645 411.101 539.645 409.998V401.207H542.174V410.025C542.174 410.827 542.238 411.493 542.365 412.021C542.493 412.55 542.684 412.974 542.939 413.293C543.195 413.603 543.505 413.822 543.869 413.949C544.243 414.077 544.671 414.141 545.154 414.141C546.184 414.141 547.014 413.931 547.643 413.512C548.281 413.092 548.755 412.527 549.064 411.816V401.207H551.607V416H549.311L549.16 413.963Z" fill="white"/>
<path d="M844.453 224V204.094H850.373C851.193 204.103 851.995 204.212 852.779 204.422C853.563 204.622 854.26 204.937 854.871 205.365C855.482 205.794 855.969 206.34 856.334 207.006C856.699 207.671 856.876 208.469 856.867 209.398C856.858 209.918 856.771 210.392 856.607 210.82C856.452 211.249 856.234 211.636 855.951 211.982C855.678 212.32 855.354 212.616 854.98 212.871C854.607 213.126 854.21 213.345 853.791 213.527C854.32 213.682 854.803 213.906 855.24 214.197C855.687 214.48 856.07 214.826 856.389 215.236C856.708 215.637 856.954 216.093 857.127 216.604C857.309 217.114 857.4 217.665 857.4 218.258C857.41 219.188 857.232 220.008 856.867 220.719C856.503 221.43 856.015 222.027 855.404 222.51C854.794 222.984 854.087 223.348 853.285 223.604C852.492 223.859 851.672 223.991 850.824 224H844.453ZM846.996 214.689V221.854H850.893C851.421 221.844 851.923 221.758 852.396 221.594C852.87 221.421 853.29 221.184 853.654 220.883C854.019 220.582 854.306 220.213 854.516 219.775C854.734 219.338 854.844 218.841 854.844 218.285C854.853 217.72 854.757 217.219 854.557 216.781C854.365 216.344 854.096 215.975 853.75 215.674C853.404 215.364 852.998 215.127 852.533 214.963C852.068 214.799 851.567 214.708 851.029 214.689H846.996ZM846.996 212.584H850.523C850.997 212.575 851.462 212.502 851.918 212.365C852.374 212.219 852.779 212.014 853.135 211.75C853.49 211.477 853.777 211.144 853.996 210.752C854.215 210.36 854.324 209.904 854.324 209.385C854.324 208.829 854.215 208.355 853.996 207.963C853.786 207.571 853.499 207.252 853.135 207.006C852.779 206.751 852.365 206.564 851.891 206.445C851.426 206.327 850.947 206.263 850.455 206.254H846.996V212.584ZM871.018 224C870.917 223.809 870.835 223.572 870.771 223.289C870.717 222.997 870.676 222.697 870.648 222.387C870.393 222.642 870.106 222.883 869.787 223.111C869.477 223.339 869.131 223.54 868.748 223.713C868.374 223.886 867.973 224.023 867.545 224.123C867.117 224.223 866.661 224.273 866.178 224.273C865.394 224.273 864.683 224.16 864.045 223.932C863.416 223.704 862.878 223.398 862.432 223.016C861.994 222.624 861.652 222.163 861.406 221.635C861.169 221.097 861.051 220.518 861.051 219.898C861.051 219.087 861.21 218.376 861.529 217.766C861.857 217.155 862.318 216.649 862.91 216.248C863.503 215.838 864.214 215.533 865.043 215.332C865.882 215.132 866.816 215.031 867.846 215.031H870.607V213.869C870.607 213.423 870.525 213.021 870.361 212.666C870.197 212.311 869.965 212.01 869.664 211.764C869.363 211.508 868.994 211.312 868.557 211.176C868.128 211.039 867.645 210.971 867.107 210.971C866.606 210.971 866.155 211.035 865.754 211.162C865.362 211.29 865.029 211.458 864.756 211.668C864.482 211.878 864.268 212.128 864.113 212.42C863.967 212.702 863.895 212.999 863.895 213.309H861.352C861.361 212.771 861.497 212.242 861.762 211.723C862.035 211.203 862.423 210.738 862.924 210.328C863.434 209.909 864.049 209.572 864.77 209.316C865.499 209.061 866.324 208.934 867.244 208.934C868.083 208.934 868.862 209.038 869.582 209.248C870.302 209.449 870.922 209.758 871.441 210.178C871.97 210.588 872.385 211.103 872.686 211.723C872.986 212.342 873.137 213.067 873.137 213.896V220.773C873.137 221.266 873.182 221.79 873.273 222.346C873.365 222.893 873.492 223.371 873.656 223.781V224H871.018ZM866.547 222.072C867.039 222.072 867.499 222.008 867.928 221.881C868.356 221.753 868.743 221.585 869.09 221.375C869.445 221.165 869.751 220.928 870.006 220.664C870.261 220.391 870.462 220.108 870.607 219.816V216.822H868.256C866.779 216.822 865.631 217.041 864.811 217.479C863.99 217.916 863.58 218.604 863.58 219.543C863.58 219.908 863.639 220.245 863.758 220.555C863.885 220.865 864.072 221.133 864.318 221.361C864.564 221.58 864.874 221.753 865.248 221.881C865.622 222.008 866.055 222.072 866.547 222.072ZM887.943 220.076C887.943 219.775 887.884 219.507 887.766 219.27C887.647 219.023 887.447 218.8 887.164 218.6C886.882 218.399 886.508 218.217 886.043 218.053C885.578 217.88 884.999 217.725 884.307 217.588C883.459 217.415 882.684 217.205 881.982 216.959C881.29 216.713 880.693 216.421 880.191 216.084C879.699 215.738 879.316 215.337 879.043 214.881C878.77 214.416 878.633 213.878 878.633 213.268C878.633 212.666 878.774 212.105 879.057 211.586C879.339 211.057 879.736 210.597 880.246 210.205C880.757 209.813 881.363 209.503 882.064 209.275C882.775 209.048 883.555 208.934 884.402 208.934C885.314 208.934 886.134 209.052 886.863 209.289C887.592 209.526 888.212 209.854 888.723 210.273C889.233 210.693 889.625 211.185 889.898 211.75C890.181 212.306 890.322 212.908 890.322 213.555H887.793C887.793 213.236 887.711 212.926 887.547 212.625C887.383 212.315 887.155 212.042 886.863 211.805C886.572 211.568 886.216 211.376 885.797 211.23C885.387 211.085 884.922 211.012 884.402 211.012C883.865 211.012 883.391 211.071 882.98 211.189C882.579 211.308 882.242 211.467 881.969 211.668C881.704 211.868 881.504 212.101 881.367 212.365C881.23 212.63 881.162 212.903 881.162 213.186C881.162 213.477 881.217 213.737 881.326 213.965C881.436 214.193 881.622 214.398 881.887 214.58C882.16 214.762 882.52 214.926 882.967 215.072C883.423 215.218 883.997 215.359 884.689 215.496C885.601 215.688 886.417 215.911 887.137 216.166C887.857 216.412 888.463 216.713 888.955 217.068C889.447 217.415 889.821 217.82 890.076 218.285C890.34 218.75 890.473 219.288 890.473 219.898C890.473 220.555 890.322 221.152 890.021 221.689C889.73 222.227 889.32 222.688 888.791 223.07C888.262 223.453 887.629 223.749 886.891 223.959C886.152 224.169 885.346 224.273 884.471 224.273C883.468 224.273 882.575 224.141 881.791 223.877C881.007 223.604 880.342 223.248 879.795 222.811C879.257 222.364 878.842 221.849 878.551 221.266C878.268 220.682 878.127 220.076 878.127 219.447H880.656C880.693 219.967 880.829 220.404 881.066 220.76C881.312 221.115 881.613 221.402 881.969 221.621C882.333 221.84 882.734 221.995 883.172 222.086C883.609 222.177 884.042 222.223 884.471 222.223C885.537 222.223 886.38 222.027 887 221.635C887.62 221.243 887.934 220.723 887.943 220.076ZM899.359 217.096L897.5 218.887V224H894.957V203H897.5V215.852L899.154 214.074L904.008 209.207H907.084L901.096 215.373L908 224H904.787L899.359 217.096ZM918.281 224.273C917.242 224.273 916.285 224.096 915.41 223.74C914.544 223.385 913.801 222.888 913.182 222.25C912.562 221.612 912.079 220.855 911.732 219.98C911.386 219.105 911.213 218.153 911.213 217.123V216.549C911.213 215.355 911.404 214.288 911.787 213.35C912.17 212.402 912.676 211.604 913.305 210.957C913.943 210.301 914.663 209.799 915.465 209.453C916.276 209.107 917.105 208.934 917.953 208.934C919.02 208.934 919.949 209.12 920.742 209.494C921.544 209.859 922.21 210.369 922.738 211.025C923.267 211.673 923.659 212.438 923.914 213.322C924.178 214.206 924.311 215.163 924.311 216.193V217.328H913.742C913.77 218.003 913.897 218.636 914.125 219.229C914.362 219.821 914.681 220.34 915.082 220.787C915.492 221.225 915.98 221.571 916.545 221.826C917.11 222.081 917.734 222.209 918.418 222.209C919.32 222.209 920.122 222.027 920.824 221.662C921.526 221.298 922.109 220.814 922.574 220.213L924.119 221.416C923.873 221.79 923.563 222.15 923.189 222.496C922.825 222.833 922.401 223.134 921.918 223.398C921.435 223.663 920.888 223.872 920.277 224.027C919.667 224.191 919.001 224.273 918.281 224.273ZM917.953 211.012C917.443 211.012 916.96 211.107 916.504 211.299C916.048 211.481 915.638 211.755 915.273 212.119C914.909 212.475 914.599 212.917 914.344 213.445C914.098 213.965 913.924 214.566 913.824 215.25H921.781V215.059C921.754 214.566 921.658 214.079 921.494 213.596C921.339 213.113 921.107 212.68 920.797 212.297C920.487 211.914 920.095 211.604 919.621 211.367C919.156 211.13 918.6 211.012 917.953 211.012ZM934.551 205.625V209.207H940.184V211.162H934.551V219.201C934.551 219.775 934.624 220.249 934.77 220.623C934.915 220.997 935.116 221.298 935.371 221.525C935.626 221.744 935.918 221.899 936.246 221.99C936.583 222.081 936.939 222.127 937.312 222.127C937.586 222.127 937.868 222.113 938.16 222.086C938.452 222.049 938.734 222.008 939.008 221.963C939.29 221.917 939.55 221.872 939.787 221.826C940.033 221.771 940.234 221.726 940.389 221.689L940.744 223.48C940.535 223.608 940.279 223.722 939.979 223.822C939.678 223.913 939.35 223.991 938.994 224.055C938.639 224.128 938.26 224.182 937.859 224.219C937.467 224.255 937.076 224.273 936.684 224.273C936.027 224.273 935.412 224.182 934.838 224C934.273 223.809 933.781 223.512 933.361 223.111C932.942 222.701 932.609 222.177 932.363 221.539C932.126 220.892 932.008 220.113 932.008 219.201V211.162H928.125V209.207H932.008V205.625H934.551Z" fill="white"/>
<path d="M82.2773 166.938L85.0547 175.469L88.0547 166.938H90.75V184H88.6406V177.191L88.8164 170.066L85.6641 179.254H84.4219L81.5273 170.312L81.7031 177.191V184H79.5938V166.938H82.2773ZM98.9766 179.5L99.5391 181.035L103.406 171.32H105.832L99.3984 185.957C99.25 186.285 99.0586 186.633 98.8242 187C98.5977 187.367 98.3203 187.707 97.9922 188.02C97.6641 188.332 97.2812 188.594 96.8438 188.805C96.4062 189.016 95.9023 189.121 95.332 189.121C95.2305 189.121 95.1172 189.113 94.9922 189.098C94.8672 189.09 94.7422 189.074 94.6172 189.051C94.4922 189.035 94.375 189.016 94.2656 188.992C94.1562 188.969 94.0664 188.949 93.9961 188.934L94.3477 187.164C94.4023 187.164 94.4766 187.168 94.5703 187.176C94.6641 187.184 94.7617 187.191 94.8633 187.199C94.9648 187.207 95.0625 187.211 95.1562 187.211C95.25 187.219 95.3242 187.223 95.3789 187.223C95.6758 187.223 95.9453 187.141 96.1875 186.977C96.4375 186.812 96.6562 186.617 96.8438 186.391C97.0391 186.164 97.2031 185.93 97.3359 185.688C97.4766 185.445 97.5859 185.246 97.6641 185.09L98.5312 183.402L93.0703 171.32H95.4961L98.9766 179.5ZM131.285 179.582H125.59L124.219 184H122.051L127.559 166.938H129.375L134.789 184H132.633L131.285 179.582ZM126.176 177.695H130.711L128.461 170.289L126.176 177.695ZM142.957 182.477C143.348 182.477 143.727 182.414 144.094 182.289C144.469 182.164 144.801 181.992 145.09 181.773C145.379 181.547 145.609 181.285 145.781 180.988C145.961 180.684 146.055 180.355 146.062 180.004H148.113C148.105 180.566 147.957 181.105 147.668 181.621C147.387 182.129 147.008 182.578 146.531 182.969C146.055 183.352 145.508 183.66 144.891 183.895C144.273 184.121 143.629 184.234 142.957 184.234C141.996 184.234 141.156 184.062 140.438 183.719C139.719 183.375 139.117 182.914 138.633 182.336C138.156 181.75 137.797 181.078 137.555 180.32C137.312 179.555 137.191 178.75 137.191 177.906V177.414C137.191 176.578 137.312 175.777 137.555 175.012C137.797 174.246 138.156 173.574 138.633 172.996C139.117 172.41 139.719 171.945 140.438 171.602C141.156 171.258 141.996 171.086 142.957 171.086C143.707 171.086 144.395 171.207 145.02 171.449C145.652 171.684 146.195 172.008 146.648 172.422C147.109 172.828 147.469 173.312 147.727 173.875C147.984 174.438 148.113 175.039 148.113 175.68H146.062C146.055 175.297 145.969 174.938 145.805 174.602C145.648 174.258 145.434 173.957 145.16 173.699C144.887 173.441 144.559 173.238 144.176 173.09C143.801 172.941 143.395 172.867 142.957 172.867C142.285 172.867 141.719 173.004 141.258 173.277C140.805 173.543 140.438 173.895 140.156 174.332C139.875 174.762 139.672 175.246 139.547 175.785C139.43 176.324 139.371 176.867 139.371 177.414V177.906C139.371 178.461 139.43 179.012 139.547 179.559C139.672 180.098 139.871 180.586 140.145 181.023C140.426 181.453 140.793 181.805 141.246 182.078C141.707 182.344 142.277 182.477 142.957 182.477ZM157.371 182.477C157.762 182.477 158.141 182.414 158.508 182.289C158.883 182.164 159.215 181.992 159.504 181.773C159.793 181.547 160.023 181.285 160.195 180.988C160.375 180.684 160.469 180.355 160.477 180.004H162.527C162.52 180.566 162.371 181.105 162.082 181.621C161.801 182.129 161.422 182.578 160.945 182.969C160.469 183.352 159.922 183.66 159.305 183.895C158.688 184.121 158.043 184.234 157.371 184.234C156.41 184.234 155.57 184.062 154.852 183.719C154.133 183.375 153.531 182.914 153.047 182.336C152.57 181.75 152.211 181.078 151.969 180.32C151.727 179.555 151.605 178.75 151.605 177.906V177.414C151.605 176.578 151.727 175.777 151.969 175.012C152.211 174.246 152.57 173.574 153.047 172.996C153.531 172.41 154.133 171.945 154.852 171.602C155.57 171.258 156.41 171.086 157.371 171.086C158.121 171.086 158.809 171.207 159.434 171.449C160.066 171.684 160.609 172.008 161.062 172.422C161.523 172.828 161.883 173.312 162.141 173.875C162.398 174.438 162.527 175.039 162.527 175.68H160.477C160.469 175.297 160.383 174.938 160.219 174.602C160.062 174.258 159.848 173.957 159.574 173.699C159.301 173.441 158.973 173.238 158.59 173.09C158.215 172.941 157.809 172.867 157.371 172.867C156.699 172.867 156.133 173.004 155.672 173.277C155.219 173.543 154.852 173.895 154.57 174.332C154.289 174.762 154.086 175.246 153.961 175.785C153.844 176.324 153.785 176.867 153.785 177.414V177.906C153.785 178.461 153.844 179.012 153.961 179.559C154.086 180.098 154.285 180.586 154.559 181.023C154.84 181.453 155.207 181.805 155.66 182.078C156.121 182.344 156.691 182.477 157.371 182.477ZM165.773 177.543C165.773 176.629 165.906 175.781 166.172 175C166.438 174.211 166.816 173.527 167.309 172.949C167.809 172.371 168.414 171.918 169.125 171.59C169.836 171.254 170.637 171.086 171.527 171.086C172.426 171.086 173.23 171.254 173.941 171.59C174.66 171.918 175.266 172.371 175.758 172.949C176.258 173.527 176.641 174.211 176.906 175C177.172 175.781 177.305 176.629 177.305 177.543V177.801C177.305 178.715 177.172 179.562 176.906 180.344C176.641 181.125 176.258 181.805 175.758 182.383C175.266 182.961 174.664 183.414 173.953 183.742C173.242 184.07 172.441 184.234 171.551 184.234C170.652 184.234 169.844 184.07 169.125 183.742C168.414 183.414 167.809 182.961 167.309 182.383C166.816 181.805 166.438 181.125 166.172 180.344C165.906 179.562 165.773 178.715 165.773 177.801V177.543ZM167.941 177.801C167.941 178.426 168.016 179.023 168.164 179.594C168.312 180.156 168.535 180.652 168.832 181.082C169.137 181.512 169.516 181.852 169.969 182.102C170.422 182.352 170.949 182.477 171.551 182.477C172.145 182.477 172.664 182.352 173.109 182.102C173.562 181.852 173.938 181.512 174.234 181.082C174.539 180.652 174.766 180.156 174.914 179.594C175.062 179.023 175.137 178.426 175.137 177.801V177.543C175.137 176.926 175.059 176.336 174.902 175.773C174.754 175.203 174.527 174.703 174.223 174.273C173.926 173.844 173.551 173.504 173.098 173.254C172.652 172.996 172.129 172.867 171.527 172.867C170.926 172.867 170.402 172.996 169.957 173.254C169.512 173.504 169.137 173.844 168.832 174.273C168.535 174.703 168.312 175.203 168.164 175.773C168.016 176.336 167.941 176.926 167.941 177.543V177.801ZM189.023 182.254C188.602 182.879 188.074 183.367 187.441 183.719C186.809 184.062 186.078 184.234 185.25 184.234C184.586 184.234 183.984 184.133 183.445 183.93C182.906 183.719 182.445 183.395 182.062 182.957C181.68 182.52 181.383 181.965 181.172 181.293C180.969 180.613 180.867 179.801 180.867 178.855V171.32H183.035V178.879C183.035 179.566 183.09 180.137 183.199 180.59C183.309 181.043 183.473 181.406 183.691 181.68C183.91 181.945 184.176 182.133 184.488 182.242C184.809 182.352 185.176 182.406 185.59 182.406C186.473 182.406 187.184 182.227 187.723 181.867C188.27 181.508 188.676 181.023 188.941 180.414V171.32H191.121V184H189.152L189.023 182.254ZM197.156 171.32L197.309 173.195C197.77 172.539 198.336 172.027 199.008 171.66C199.68 171.285 200.43 171.094 201.258 171.086C201.922 171.086 202.523 171.18 203.062 171.367C203.609 171.555 204.074 171.848 204.457 172.246C204.84 172.645 205.133 173.152 205.336 173.77C205.547 174.379 205.652 175.105 205.652 175.949V184H203.484V175.996C203.484 175.434 203.422 174.957 203.297 174.566C203.172 174.176 202.984 173.859 202.734 173.617C202.492 173.375 202.191 173.199 201.832 173.09C201.48 172.98 201.074 172.926 200.613 172.926C199.887 172.926 199.246 173.109 198.691 173.477C198.145 173.836 197.707 174.312 197.379 174.906V184H195.211V171.32H197.156ZM214.758 168.25V171.32H219.586V172.996H214.758V179.887C214.758 180.379 214.82 180.785 214.945 181.105C215.07 181.426 215.242 181.684 215.461 181.879C215.68 182.066 215.93 182.199 216.211 182.277C216.5 182.355 216.805 182.395 217.125 182.395C217.359 182.395 217.602 182.383 217.852 182.359C218.102 182.328 218.344 182.293 218.578 182.254C218.82 182.215 219.043 182.176 219.246 182.137C219.457 182.09 219.629 182.051 219.762 182.02L220.066 183.555C219.887 183.664 219.668 183.762 219.41 183.848C219.152 183.926 218.871 183.992 218.566 184.047C218.262 184.109 217.938 184.156 217.594 184.188C217.258 184.219 216.922 184.234 216.586 184.234C216.023 184.234 215.496 184.156 215.004 184C214.52 183.836 214.098 183.582 213.738 183.238C213.379 182.887 213.094 182.438 212.883 181.891C212.68 181.336 212.578 180.668 212.578 179.887V172.996H209.25V171.32H212.578V168.25H214.758Z" fill="white"/>
<path d="M320.879 178.867C320.777 179.656 320.574 180.383 320.27 181.047C319.965 181.703 319.566 182.27 319.074 182.746C318.59 183.215 318.012 183.582 317.34 183.848C316.676 184.105 315.934 184.234 315.113 184.234C314.41 184.234 313.77 184.137 313.191 183.941C312.621 183.738 312.109 183.461 311.656 183.109C311.211 182.758 310.824 182.344 310.496 181.867C310.176 181.391 309.906 180.871 309.688 180.309C309.477 179.746 309.316 179.156 309.207 178.539C309.105 177.922 309.051 177.297 309.043 176.664V174.285C309.051 173.652 309.105 173.027 309.207 172.41C309.316 171.793 309.477 171.203 309.688 170.641C309.906 170.078 310.176 169.559 310.496 169.082C310.824 168.598 311.211 168.18 311.656 167.828C312.109 167.477 312.621 167.203 313.191 167.008C313.762 166.805 314.402 166.703 315.113 166.703C315.965 166.703 316.727 166.836 317.398 167.102C318.07 167.359 318.648 167.73 319.133 168.215C319.617 168.691 320.004 169.266 320.293 169.938C320.59 170.609 320.785 171.352 320.879 172.164H318.711C318.641 171.648 318.52 171.168 318.348 170.723C318.176 170.277 317.945 169.887 317.656 169.551C317.367 169.215 317.012 168.953 316.59 168.766C316.176 168.57 315.684 168.473 315.113 168.473C314.598 168.473 314.141 168.559 313.742 168.73C313.352 168.895 313.012 169.121 312.723 169.41C312.441 169.699 312.203 170.035 312.008 170.418C311.82 170.801 311.668 171.207 311.551 171.637C311.434 172.066 311.348 172.508 311.293 172.961C311.246 173.406 311.223 173.84 311.223 174.262V176.664C311.223 177.086 311.246 177.523 311.293 177.977C311.348 178.422 311.434 178.863 311.551 179.301C311.668 179.73 311.82 180.137 312.008 180.52C312.195 180.902 312.434 181.242 312.723 181.539C313.012 181.828 313.352 182.059 313.742 182.23C314.133 182.395 314.59 182.477 315.113 182.477C315.684 182.477 316.176 182.387 316.59 182.207C317.012 182.027 317.367 181.777 317.656 181.457C317.945 181.129 318.176 180.746 318.348 180.309C318.52 179.863 318.641 179.383 318.711 178.867H320.879ZM323.633 177.543C323.633 176.629 323.766 175.781 324.031 175C324.297 174.211 324.676 173.527 325.168 172.949C325.668 172.371 326.273 171.918 326.984 171.59C327.695 171.254 328.496 171.086 329.387 171.086C330.285 171.086 331.09 171.254 331.801 171.59C332.52 171.918 333.125 172.371 333.617 172.949C334.117 173.527 334.5 174.211 334.766 175C335.031 175.781 335.164 176.629 335.164 177.543V177.801C335.164 178.715 335.031 179.562 334.766 180.344C334.5 181.125 334.117 181.805 333.617 182.383C333.125 182.961 332.523 183.414 331.812 183.742C331.102 184.07 330.301 184.234 329.41 184.234C328.512 184.234 327.703 184.07 326.984 183.742C326.273 183.414 325.668 182.961 325.168 182.383C324.676 181.805 324.297 181.125 324.031 180.344C323.766 179.562 323.633 178.715 323.633 177.801V177.543ZM325.801 177.801C325.801 178.426 325.875 179.023 326.023 179.594C326.172 180.156 326.395 180.652 326.691 181.082C326.996 181.512 327.375 181.852 327.828 182.102C328.281 182.352 328.809 182.477 329.41 182.477C330.004 182.477 330.523 182.352 330.969 182.102C331.422 181.852 331.797 181.512 332.094 181.082C332.398 180.652 332.625 180.156 332.773 179.594C332.922 179.023 332.996 178.426 332.996 177.801V177.543C332.996 176.926 332.918 176.336 332.762 175.773C332.613 175.203 332.387 174.703 332.082 174.273C331.785 173.844 331.41 173.504 330.957 173.254C330.512 172.996 329.988 172.867 329.387 172.867C328.785 172.867 328.262 172.996 327.816 173.254C327.371 173.504 326.996 173.844 326.691 174.273C326.395 174.703 326.172 175.203 326.023 175.773C325.875 176.336 325.801 176.926 325.801 177.543V177.801ZM344.059 182.477C344.449 182.477 344.828 182.414 345.195 182.289C345.57 182.164 345.902 181.992 346.191 181.773C346.48 181.547 346.711 181.285 346.883 180.988C347.062 180.684 347.156 180.355 347.164 180.004H349.215C349.207 180.566 349.059 181.105 348.77 181.621C348.488 182.129 348.109 182.578 347.633 182.969C347.156 183.352 346.609 183.66 345.992 183.895C345.375 184.121 344.73 184.234 344.059 184.234C343.098 184.234 342.258 184.062 341.539 183.719C340.82 183.375 340.219 182.914 339.734 182.336C339.258 181.75 338.898 181.078 338.656 180.32C338.414 179.555 338.293 178.75 338.293 177.906V177.414C338.293 176.578 338.414 175.777 338.656 175.012C338.898 174.246 339.258 173.574 339.734 172.996C340.219 172.41 340.82 171.945 341.539 171.602C342.258 171.258 343.098 171.086 344.059 171.086C344.809 171.086 345.496 171.207 346.121 171.449C346.754 171.684 347.297 172.008 347.75 172.422C348.211 172.828 348.57 173.312 348.828 173.875C349.086 174.438 349.215 175.039 349.215 175.68H347.164C347.156 175.297 347.07 174.938 346.906 174.602C346.75 174.258 346.535 173.957 346.262 173.699C345.988 173.441 345.66 173.238 345.277 173.09C344.902 172.941 344.496 172.867 344.059 172.867C343.387 172.867 342.82 173.004 342.359 173.277C341.906 173.543 341.539 173.895 341.258 174.332C340.977 174.762 340.773 175.246 340.648 175.785C340.531 176.324 340.473 176.867 340.473 177.414V177.906C340.473 178.461 340.531 179.012 340.648 179.559C340.773 180.098 340.973 180.586 341.246 181.023C341.527 181.453 341.895 181.805 342.348 182.078C342.809 182.344 343.379 182.477 344.059 182.477ZM356.867 178.082L355.273 179.617V184H353.094V166H355.273V177.016L356.691 175.492L360.852 171.32H363.488L358.355 176.605L364.273 184H361.52L356.867 178.082ZM372.617 168.25V171.32H377.445V172.996H372.617V179.887C372.617 180.379 372.68 180.785 372.805 181.105C372.93 181.426 373.102 181.684 373.32 181.879C373.539 182.066 373.789 182.199 374.07 182.277C374.359 182.355 374.664 182.395 374.984 182.395C375.219 182.395 375.461 182.383 375.711 182.359C375.961 182.328 376.203 182.293 376.438 182.254C376.68 182.215 376.902 182.176 377.105 182.137C377.316 182.09 377.488 182.051 377.621 182.02L377.926 183.555C377.746 183.664 377.527 183.762 377.27 183.848C377.012 183.926 376.73 183.992 376.426 184.047C376.121 184.109 375.797 184.156 375.453 184.188C375.117 184.219 374.781 184.234 374.445 184.234C373.883 184.234 373.355 184.156 372.863 184C372.379 183.836 371.957 183.582 371.598 183.238C371.238 182.887 370.953 182.438 370.742 181.891C370.539 181.336 370.438 180.668 370.438 179.887V172.996H367.109V171.32H370.438V168.25H372.617ZM390.23 184C390.145 183.836 390.074 183.633 390.02 183.391C389.973 183.141 389.938 182.883 389.914 182.617C389.695 182.836 389.449 183.043 389.176 183.238C388.91 183.434 388.613 183.605 388.285 183.754C387.965 183.902 387.621 184.02 387.254 184.105C386.887 184.191 386.496 184.234 386.082 184.234C385.41 184.234 384.801 184.137 384.254 183.941C383.715 183.746 383.254 183.484 382.871 183.156C382.496 182.82 382.203 182.426 381.992 181.973C381.789 181.512 381.688 181.016 381.688 180.484C381.688 179.789 381.824 179.18 382.098 178.656C382.379 178.133 382.773 177.699 383.281 177.355C383.789 177.004 384.398 176.742 385.109 176.57C385.828 176.398 386.629 176.312 387.512 176.312H389.879V175.316C389.879 174.934 389.809 174.59 389.668 174.285C389.527 173.98 389.328 173.723 389.07 173.512C388.812 173.293 388.496 173.125 388.121 173.008C387.754 172.891 387.34 172.832 386.879 172.832C386.449 172.832 386.062 172.887 385.719 172.996C385.383 173.105 385.098 173.25 384.863 173.43C384.629 173.609 384.445 173.824 384.312 174.074C384.188 174.316 384.125 174.57 384.125 174.836H381.945C381.953 174.375 382.07 173.922 382.297 173.477C382.531 173.031 382.863 172.633 383.293 172.281C383.73 171.922 384.258 171.633 384.875 171.414C385.5 171.195 386.207 171.086 386.996 171.086C387.715 171.086 388.383 171.176 389 171.355C389.617 171.527 390.148 171.793 390.594 172.152C391.047 172.504 391.402 172.945 391.66 173.477C391.918 174.008 392.047 174.629 392.047 175.34V181.234C392.047 181.656 392.086 182.105 392.164 182.582C392.242 183.051 392.352 183.461 392.492 183.812V184H390.23ZM386.398 182.348C386.82 182.348 387.215 182.293 387.582 182.184C387.949 182.074 388.281 181.93 388.578 181.75C388.883 181.57 389.145 181.367 389.363 181.141C389.582 180.906 389.754 180.664 389.879 180.414V177.848H387.863C386.598 177.848 385.613 178.035 384.91 178.41C384.207 178.785 383.855 179.375 383.855 180.18C383.855 180.492 383.906 180.781 384.008 181.047C384.117 181.312 384.277 181.543 384.488 181.738C384.699 181.926 384.965 182.074 385.285 182.184C385.605 182.293 385.977 182.348 386.398 182.348ZM396.652 171.32H403.133V182.125H407.27V184H396.652V182.125H400.965V173.207H396.652V171.32ZM400.684 167.992C400.684 167.633 400.789 167.332 401 167.09C401.219 166.84 401.547 166.715 401.984 166.715C402.414 166.715 402.738 166.84 402.957 167.09C403.176 167.332 403.285 167.633 403.285 167.992C403.285 168.344 403.176 168.637 402.957 168.871C402.738 169.105 402.414 169.223 401.984 169.223C401.547 169.223 401.219 169.105 401 168.871C400.789 168.637 400.684 168.344 400.684 167.992ZM411.066 166H417.547V182.125H421.684V184H411.066V182.125H415.379V167.887H411.066V166ZM448.016 179.383L449.316 166.938H451.367L449.293 184H447.078L444.887 171.145L442.672 184H440.445L438.371 166.938H440.434L441.734 179.383L443.926 166.938H445.812L448.016 179.383ZM454.309 171.32H460.789V182.125H464.926V184H454.309V182.125H458.621V173.207H454.309V171.32ZM458.34 167.992C458.34 167.633 458.445 167.332 458.656 167.09C458.875 166.84 459.203 166.715 459.641 166.715C460.07 166.715 460.395 166.84 460.613 167.09C460.832 167.332 460.941 167.633 460.941 167.992C460.941 168.344 460.832 168.637 460.613 168.871C460.395 169.105 460.07 169.223 459.641 169.223C459.203 169.223 458.875 169.105 458.656 168.871C458.445 168.637 458.34 168.344 458.34 167.992ZM470.984 182.23H479.059V184H468.219V182.406L475.789 173.113H468.324V171.32H478.637V172.855L470.984 182.23ZM491.129 184C491.043 183.836 490.973 183.633 490.918 183.391C490.871 183.141 490.836 182.883 490.812 182.617C490.594 182.836 490.348 183.043 490.074 183.238C489.809 183.434 489.512 183.605 489.184 183.754C488.863 183.902 488.52 184.02 488.152 184.105C487.785 184.191 487.395 184.234 486.98 184.234C486.309 184.234 485.699 184.137 485.152 183.941C484.613 183.746 484.152 183.484 483.77 183.156C483.395 182.82 483.102 182.426 482.891 181.973C482.688 181.512 482.586 181.016 482.586 180.484C482.586 179.789 482.723 179.18 482.996 178.656C483.277 178.133 483.672 177.699 484.18 177.355C484.688 177.004 485.297 176.742 486.008 176.57C486.727 176.398 487.527 176.312 488.41 176.312H490.777V175.316C490.777 174.934 490.707 174.59 490.566 174.285C490.426 173.98 490.227 173.723 489.969 173.512C489.711 173.293 489.395 173.125 489.02 173.008C488.652 172.891 488.238 172.832 487.777 172.832C487.348 172.832 486.961 172.887 486.617 172.996C486.281 173.105 485.996 173.25 485.762 173.43C485.527 173.609 485.344 173.824 485.211 174.074C485.086 174.316 485.023 174.57 485.023 174.836H482.844C482.852 174.375 482.969 173.922 483.195 173.477C483.43 173.031 483.762 172.633 484.191 172.281C484.629 171.922 485.156 171.633 485.773 171.414C486.398 171.195 487.105 171.086 487.895 171.086C488.613 171.086 489.281 171.176 489.898 171.355C490.516 171.527 491.047 171.793 491.492 172.152C491.945 172.504 492.301 172.945 492.559 173.477C492.816 174.008 492.945 174.629 492.945 175.34V181.234C492.945 181.656 492.984 182.105 493.062 182.582C493.141 183.051 493.25 183.461 493.391 183.812V184H491.129ZM487.297 182.348C487.719 182.348 488.113 182.293 488.48 182.184C488.848 182.074 489.18 181.93 489.477 181.75C489.781 181.57 490.043 181.367 490.262 181.141C490.48 180.906 490.652 180.664 490.777 180.414V177.848H488.762C487.496 177.848 486.512 178.035 485.809 178.41C485.105 178.785 484.754 179.375 484.754 180.18C484.754 180.492 484.805 180.781 484.906 181.047C485.016 181.312 485.176 181.543 485.387 181.738C485.598 181.926 485.863 182.074 486.184 182.184C486.504 182.293 486.875 182.348 487.297 182.348ZM505.52 171.086C505.723 171.086 505.934 171.094 506.152 171.109C506.371 171.117 506.578 171.137 506.773 171.168C506.977 171.191 507.16 171.223 507.324 171.262C507.496 171.301 507.637 171.344 507.746 171.391L507.453 173.512C507.031 173.418 506.629 173.352 506.246 173.312C505.871 173.266 505.477 173.242 505.062 173.242C504.047 173.242 503.223 173.473 502.59 173.934C501.965 174.395 501.504 175.039 501.207 175.867V184H499.027V171.32H501.09L501.195 173.336C501.711 172.641 502.328 172.094 503.047 171.695C503.773 171.289 504.598 171.086 505.52 171.086ZM511.215 177.555C511.215 176.609 511.332 175.742 511.566 174.953C511.809 174.156 512.148 173.473 512.586 172.902C513.031 172.332 513.566 171.887 514.191 171.566C514.816 171.246 515.516 171.086 516.289 171.086C517.047 171.086 517.707 171.215 518.27 171.473C518.84 171.723 519.332 172.09 519.746 172.574V166H521.914V184H519.922L519.828 182.664C519.406 183.18 518.902 183.57 518.316 183.836C517.73 184.102 517.047 184.234 516.266 184.234C515.5 184.234 514.805 184.07 514.18 183.742C513.562 183.414 513.035 182.961 512.598 182.383C512.16 181.805 511.82 181.125 511.578 180.344C511.336 179.555 511.215 178.707 511.215 177.801V177.555ZM513.383 177.801C513.383 178.418 513.449 179.004 513.582 179.559C513.715 180.113 513.918 180.602 514.191 181.023C514.473 181.445 514.828 181.781 515.258 182.031C515.688 182.273 516.203 182.395 516.805 182.395C517.172 182.395 517.504 182.352 517.801 182.266C518.098 182.18 518.367 182.059 518.609 181.902C518.852 181.738 519.066 181.547 519.254 181.328C519.441 181.102 519.605 180.852 519.746 180.578V174.695C519.465 174.18 519.086 173.758 518.609 173.43C518.133 173.094 517.539 172.926 516.828 172.926C516.219 172.926 515.695 173.051 515.258 173.301C514.828 173.551 514.473 173.891 514.191 174.32C513.918 174.742 513.715 175.234 513.582 175.797C513.449 176.352 513.383 176.938 513.383 177.555V177.801Z" fill="white"/>
<path d="M577.879 178.867C577.777 179.656 577.574 180.383 577.27 181.047C576.965 181.703 576.566 182.27 576.074 182.746C575.59 183.215 575.012 183.582 574.34 183.848C573.676 184.105 572.934 184.234 572.113 184.234C571.41 184.234 570.77 184.137 570.191 183.941C569.621 183.738 569.109 183.461 568.656 183.109C568.211 182.758 567.824 182.344 567.496 181.867C567.176 181.391 566.906 180.871 566.688 180.309C566.477 179.746 566.316 179.156 566.207 178.539C566.105 177.922 566.051 177.297 566.043 176.664V174.285C566.051 173.652 566.105 173.027 566.207 172.41C566.316 171.793 566.477 171.203 566.688 170.641C566.906 170.078 567.176 169.559 567.496 169.082C567.824 168.598 568.211 168.18 568.656 167.828C569.109 167.477 569.621 167.203 570.191 167.008C570.762 166.805 571.402 166.703 572.113 166.703C572.965 166.703 573.727 166.836 574.398 167.102C575.07 167.359 575.648 167.73 576.133 168.215C576.617 168.691 577.004 169.266 577.293 169.938C577.59 170.609 577.785 171.352 577.879 172.164H575.711C575.641 171.648 575.52 171.168 575.348 170.723C575.176 170.277 574.945 169.887 574.656 169.551C574.367 169.215 574.012 168.953 573.59 168.766C573.176 168.57 572.684 168.473 572.113 168.473C571.598 168.473 571.141 168.559 570.742 168.73C570.352 168.895 570.012 169.121 569.723 169.41C569.441 169.699 569.203 170.035 569.008 170.418C568.82 170.801 568.668 171.207 568.551 171.637C568.434 172.066 568.348 172.508 568.293 172.961C568.246 173.406 568.223 173.84 568.223 174.262V176.664C568.223 177.086 568.246 177.523 568.293 177.977C568.348 178.422 568.434 178.863 568.551 179.301C568.668 179.73 568.82 180.137 569.008 180.52C569.195 180.902 569.434 181.242 569.723 181.539C570.012 181.828 570.352 182.059 570.742 182.23C571.133 182.395 571.59 182.477 572.113 182.477C572.684 182.477 573.176 182.387 573.59 182.207C574.012 182.027 574.367 181.777 574.656 181.457C574.945 181.129 575.176 180.746 575.348 180.309C575.52 179.863 575.641 179.383 575.711 178.867H577.879ZM583.41 173.207C583.863 172.543 584.422 172.027 585.086 171.66C585.75 171.285 586.496 171.094 587.324 171.086C587.988 171.086 588.59 171.184 589.129 171.379C589.676 171.566 590.141 171.863 590.523 172.27C590.906 172.676 591.199 173.191 591.402 173.816C591.613 174.434 591.719 175.168 591.719 176.02V184H589.551V175.996C589.551 174.957 589.301 174.184 588.801 173.676C588.309 173.168 587.602 172.918 586.68 172.926C585.984 172.926 585.352 173.098 584.781 173.441C584.219 173.777 583.762 174.227 583.41 174.789V184H581.242V166H583.41V173.207ZM601.258 184.234C600.367 184.234 599.547 184.082 598.797 183.777C598.055 183.473 597.418 183.047 596.887 182.5C596.355 181.953 595.941 181.305 595.645 180.555C595.348 179.805 595.199 178.988 595.199 178.105V177.613C595.199 176.59 595.363 175.676 595.691 174.871C596.02 174.059 596.453 173.375 596.992 172.82C597.539 172.258 598.156 171.828 598.844 171.531C599.539 171.234 600.25 171.086 600.977 171.086C601.891 171.086 602.688 171.246 603.367 171.566C604.055 171.879 604.625 172.316 605.078 172.879C605.531 173.434 605.867 174.09 606.086 174.848C606.312 175.605 606.426 176.426 606.426 177.309V178.281H597.367C597.391 178.859 597.5 179.402 597.695 179.91C597.898 180.418 598.172 180.863 598.516 181.246C598.867 181.621 599.285 181.918 599.77 182.137C600.254 182.355 600.789 182.465 601.375 182.465C602.148 182.465 602.836 182.309 603.438 181.996C604.039 181.684 604.539 181.27 604.938 180.754L606.262 181.785C606.051 182.105 605.785 182.414 605.465 182.711C605.152 183 604.789 183.258 604.375 183.484C603.961 183.711 603.492 183.891 602.969 184.023C602.445 184.164 601.875 184.234 601.258 184.234ZM600.977 172.867C600.539 172.867 600.125 172.949 599.734 173.113C599.344 173.27 598.992 173.504 598.68 173.816C598.367 174.121 598.102 174.5 597.883 174.953C597.672 175.398 597.523 175.914 597.438 176.5H604.258V176.336C604.234 175.914 604.152 175.496 604.012 175.082C603.879 174.668 603.68 174.297 603.414 173.969C603.148 173.641 602.812 173.375 602.406 173.172C602.008 172.969 601.531 172.867 600.977 172.867ZM615.473 182.477C615.863 182.477 616.242 182.414 616.609 182.289C616.984 182.164 617.316 181.992 617.605 181.773C617.895 181.547 618.125 181.285 618.297 180.988C618.477 180.684 618.57 180.355 618.578 180.004H620.629C620.621 180.566 620.473 181.105 620.184 181.621C619.902 182.129 619.523 182.578 619.047 182.969C618.57 183.352 618.023 183.66 617.406 183.895C616.789 184.121 616.145 184.234 615.473 184.234C614.512 184.234 613.672 184.062 612.953 183.719C612.234 183.375 611.633 182.914 611.148 182.336C610.672 181.75 610.312 181.078 610.07 180.32C609.828 179.555 609.707 178.75 609.707 177.906V177.414C609.707 176.578 609.828 175.777 610.07 175.012C610.312 174.246 610.672 173.574 611.148 172.996C611.633 172.41 612.234 171.945 612.953 171.602C613.672 171.258 614.512 171.086 615.473 171.086C616.223 171.086 616.91 171.207 617.535 171.449C618.168 171.684 618.711 172.008 619.164 172.422C619.625 172.828 619.984 173.312 620.242 173.875C620.5 174.438 620.629 175.039 620.629 175.68H618.578C618.57 175.297 618.484 174.938 618.32 174.602C618.164 174.258 617.949 173.957 617.676 173.699C617.402 173.441 617.074 173.238 616.691 173.09C616.316 172.941 615.91 172.867 615.473 172.867C614.801 172.867 614.234 173.004 613.773 173.277C613.32 173.543 612.953 173.895 612.672 174.332C612.391 174.762 612.188 175.246 612.062 175.785C611.945 176.324 611.887 176.867 611.887 177.414V177.906C611.887 178.461 611.945 179.012 612.062 179.559C612.188 180.098 612.387 180.586 612.66 181.023C612.941 181.453 613.309 181.805 613.762 182.078C614.223 182.344 614.793 182.477 615.473 182.477ZM628.281 178.082L626.688 179.617V184H624.508V166H626.688V177.016L628.105 175.492L632.266 171.32H634.902L629.77 176.605L635.688 184H632.934L628.281 178.082ZM638.289 177.543C638.289 176.629 638.422 175.781 638.688 175C638.953 174.211 639.332 173.527 639.824 172.949C640.324 172.371 640.93 171.918 641.641 171.59C642.352 171.254 643.152 171.086 644.043 171.086C644.941 171.086 645.746 171.254 646.457 171.59C647.176 171.918 647.781 172.371 648.273 172.949C648.773 173.527 649.156 174.211 649.422 175C649.688 175.781 649.82 176.629 649.82 177.543V177.801C649.82 178.715 649.688 179.562 649.422 180.344C649.156 181.125 648.773 181.805 648.273 182.383C647.781 182.961 647.18 183.414 646.469 183.742C645.758 184.07 644.957 184.234 644.066 184.234C643.168 184.234 642.359 184.07 641.641 183.742C640.93 183.414 640.324 182.961 639.824 182.383C639.332 181.805 638.953 181.125 638.688 180.344C638.422 179.562 638.289 178.715 638.289 177.801V177.543ZM640.457 177.801C640.457 178.426 640.531 179.023 640.68 179.594C640.828 180.156 641.051 180.652 641.348 181.082C641.652 181.512 642.031 181.852 642.484 182.102C642.938 182.352 643.465 182.477 644.066 182.477C644.66 182.477 645.18 182.352 645.625 182.102C646.078 181.852 646.453 181.512 646.75 181.082C647.055 180.652 647.281 180.156 647.43 179.594C647.578 179.023 647.652 178.426 647.652 177.801V177.543C647.652 176.926 647.574 176.336 647.418 175.773C647.27 175.203 647.043 174.703 646.738 174.273C646.441 173.844 646.066 173.504 645.613 173.254C645.168 172.996 644.645 172.867 644.043 172.867C643.441 172.867 642.918 172.996 642.473 173.254C642.027 173.504 641.652 173.844 641.348 174.273C641.051 174.703 640.828 175.203 640.68 175.773C640.531 176.336 640.457 176.926 640.457 177.543V177.801ZM661.539 182.254C661.117 182.879 660.59 183.367 659.957 183.719C659.324 184.062 658.594 184.234 657.766 184.234C657.102 184.234 656.5 184.133 655.961 183.93C655.422 183.719 654.961 183.395 654.578 182.957C654.195 182.52 653.898 181.965 653.688 181.293C653.484 180.613 653.383 179.801 653.383 178.855V171.32H655.551V178.879C655.551 179.566 655.605 180.137 655.715 180.59C655.824 181.043 655.988 181.406 656.207 181.68C656.426 181.945 656.691 182.133 657.004 182.242C657.324 182.352 657.691 182.406 658.105 182.406C658.988 182.406 659.699 182.227 660.238 181.867C660.785 181.508 661.191 181.023 661.457 180.414V171.32H663.637V184H661.668L661.539 182.254ZM672.859 168.25V171.32H677.688V172.996H672.859V179.887C672.859 180.379 672.922 180.785 673.047 181.105C673.172 181.426 673.344 181.684 673.562 181.879C673.781 182.066 674.031 182.199 674.312 182.277C674.602 182.355 674.906 182.395 675.227 182.395C675.461 182.395 675.703 182.383 675.953 182.359C676.203 182.328 676.445 182.293 676.68 182.254C676.922 182.215 677.145 182.176 677.348 182.137C677.559 182.09 677.73 182.051 677.863 182.02L678.168 183.555C677.988 183.664 677.77 183.762 677.512 183.848C677.254 183.926 676.973 183.992 676.668 184.047C676.363 184.109 676.039 184.156 675.695 184.188C675.359 184.219 675.023 184.234 674.688 184.234C674.125 184.234 673.598 184.156 673.105 184C672.621 183.836 672.199 183.582 671.84 183.238C671.48 182.887 671.195 182.438 670.984 181.891C670.781 181.336 670.68 180.668 670.68 179.887V172.996H667.352V171.32H670.68V168.25H672.859ZM705.484 179.688C705.484 179.164 705.363 178.723 705.121 178.363C704.887 178.004 704.582 177.703 704.207 177.461C703.832 177.211 703.418 177.004 702.965 176.84C702.52 176.676 702.09 176.527 701.676 176.395C701.074 176.199 700.461 175.965 699.836 175.691C699.219 175.418 698.652 175.082 698.137 174.684C697.629 174.285 697.211 173.816 696.883 173.277C696.562 172.73 696.402 172.09 696.402 171.355C696.402 170.621 696.562 169.965 696.883 169.387C697.211 168.809 697.637 168.32 698.16 167.922C698.684 167.523 699.277 167.223 699.941 167.02C700.605 166.809 701.273 166.703 701.945 166.703C702.688 166.703 703.402 166.828 704.09 167.078C704.777 167.32 705.387 167.664 705.918 168.109C706.449 168.555 706.875 169.094 707.195 169.727C707.516 170.359 707.684 171.066 707.699 171.848H705.473C705.41 171.355 705.289 170.91 705.109 170.512C704.93 170.105 704.691 169.758 704.395 169.469C704.098 169.18 703.742 168.957 703.328 168.801C702.922 168.637 702.461 168.555 701.945 168.555C701.531 168.555 701.125 168.613 700.727 168.73C700.336 168.848 699.984 169.023 699.672 169.258C699.367 169.492 699.121 169.781 698.934 170.125C698.754 170.469 698.664 170.867 698.664 171.32C698.672 171.812 698.797 172.23 699.039 172.574C699.281 172.91 699.586 173.195 699.953 173.43C700.328 173.664 700.73 173.859 701.16 174.016C701.598 174.172 702.008 174.309 702.391 174.426C702.812 174.559 703.238 174.711 703.668 174.883C704.098 175.047 704.512 175.238 704.91 175.457C705.309 175.676 705.68 175.922 706.023 176.195C706.367 176.469 706.668 176.781 706.926 177.133C707.184 177.477 707.383 177.859 707.523 178.281C707.672 178.695 707.746 179.156 707.746 179.664C707.746 180.43 707.574 181.098 707.23 181.668C706.895 182.238 706.457 182.715 705.918 183.098C705.379 183.473 704.77 183.758 704.09 183.953C703.41 184.141 702.73 184.234 702.051 184.234C701.293 184.234 700.551 184.117 699.824 183.883C699.098 183.648 698.445 183.312 697.867 182.875C697.297 182.43 696.832 181.891 696.473 181.258C696.113 180.617 695.922 179.891 695.898 179.078H698.113C698.184 179.609 698.328 180.082 698.547 180.496C698.766 180.902 699.047 181.25 699.391 181.539C699.734 181.82 700.129 182.035 700.574 182.184C701.027 182.324 701.52 182.395 702.051 182.395C702.473 182.395 702.887 182.344 703.293 182.242C703.707 182.133 704.074 181.969 704.395 181.75C704.715 181.523 704.977 181.242 705.18 180.906C705.383 180.562 705.484 180.156 705.484 179.688ZM715.633 179.5L716.195 181.035L720.062 171.32H722.488L716.055 185.957C715.906 186.285 715.715 186.633 715.48 187C715.254 187.367 714.977 187.707 714.648 188.02C714.32 188.332 713.938 188.594 713.5 188.805C713.062 189.016 712.559 189.121 711.988 189.121C711.887 189.121 711.773 189.113 711.648 189.098C711.523 189.09 711.398 189.074 711.273 189.051C711.148 189.035 711.031 189.016 710.922 188.992C710.812 188.969 710.723 188.949 710.652 188.934L711.004 187.164C711.059 187.164 711.133 187.168 711.227 187.176C711.32 187.184 711.418 187.191 711.52 187.199C711.621 187.207 711.719 187.211 711.812 187.211C711.906 187.219 711.98 187.223 712.035 187.223C712.332 187.223 712.602 187.141 712.844 186.977C713.094 186.812 713.312 186.617 713.5 186.391C713.695 186.164 713.859 185.93 713.992 185.688C714.133 185.445 714.242 185.246 714.32 185.09L715.188 183.402L709.727 171.32H712.152L715.633 179.5ZM733.809 180.637C733.809 180.379 733.758 180.148 733.656 179.945C733.555 179.734 733.383 179.543 733.141 179.371C732.898 179.199 732.578 179.043 732.18 178.902C731.781 178.754 731.285 178.621 730.691 178.504C729.965 178.355 729.301 178.176 728.699 177.965C728.105 177.754 727.594 177.504 727.164 177.215C726.742 176.918 726.414 176.574 726.18 176.184C725.945 175.785 725.828 175.324 725.828 174.801C725.828 174.285 725.949 173.805 726.191 173.359C726.434 172.906 726.773 172.512 727.211 172.176C727.648 171.84 728.168 171.574 728.77 171.379C729.379 171.184 730.047 171.086 730.773 171.086C731.555 171.086 732.258 171.188 732.883 171.391C733.508 171.594 734.039 171.875 734.477 172.234C734.914 172.594 735.25 173.016 735.484 173.5C735.727 173.977 735.848 174.492 735.848 175.047H733.68C733.68 174.773 733.609 174.508 733.469 174.25C733.328 173.984 733.133 173.75 732.883 173.547C732.633 173.344 732.328 173.18 731.969 173.055C731.617 172.93 731.219 172.867 730.773 172.867C730.312 172.867 729.906 172.918 729.555 173.02C729.211 173.121 728.922 173.258 728.688 173.43C728.461 173.602 728.289 173.801 728.172 174.027C728.055 174.254 727.996 174.488 727.996 174.73C727.996 174.98 728.043 175.203 728.137 175.398C728.23 175.594 728.391 175.77 728.617 175.926C728.852 176.082 729.16 176.223 729.543 176.348C729.934 176.473 730.426 176.594 731.02 176.711C731.801 176.875 732.5 177.066 733.117 177.285C733.734 177.496 734.254 177.754 734.676 178.059C735.098 178.355 735.418 178.703 735.637 179.102C735.863 179.5 735.977 179.961 735.977 180.484C735.977 181.047 735.848 181.559 735.59 182.02C735.34 182.48 734.988 182.875 734.535 183.203C734.082 183.531 733.539 183.785 732.906 183.965C732.273 184.145 731.582 184.234 730.832 184.234C729.973 184.234 729.207 184.121 728.535 183.895C727.863 183.66 727.293 183.355 726.824 182.98C726.363 182.598 726.008 182.156 725.758 181.656C725.516 181.156 725.395 180.637 725.395 180.098H727.562C727.594 180.543 727.711 180.918 727.914 181.223C728.125 181.527 728.383 181.773 728.688 181.961C729 182.148 729.344 182.281 729.719 182.359C730.094 182.438 730.465 182.477 730.832 182.477C731.746 182.477 732.469 182.309 733 181.973C733.531 181.637 733.801 181.191 733.809 180.637ZM744.93 168.25V171.32H749.758V172.996H744.93V179.887C744.93 180.379 744.992 180.785 745.117 181.105C745.242 181.426 745.414 181.684 745.633 181.879C745.852 182.066 746.102 182.199 746.383 182.277C746.672 182.355 746.977 182.395 747.297 182.395C747.531 182.395 747.773 182.383 748.023 182.359C748.273 182.328 748.516 182.293 748.75 182.254C748.992 182.215 749.215 182.176 749.418 182.137C749.629 182.09 749.801 182.051 749.934 182.02L750.238 183.555C750.059 183.664 749.84 183.762 749.582 183.848C749.324 183.926 749.043 183.992 748.738 184.047C748.434 184.109 748.109 184.156 747.766 184.188C747.43 184.219 747.094 184.234 746.758 184.234C746.195 184.234 745.668 184.156 745.176 184C744.691 183.836 744.27 183.582 743.91 183.238C743.551 182.887 743.266 182.438 743.055 181.891C742.852 181.336 742.75 180.668 742.75 179.887V172.996H739.422V171.32H742.75V168.25H744.93ZM759.812 184.234C758.922 184.234 758.102 184.082 757.352 183.777C756.609 183.473 755.973 183.047 755.441 182.5C754.91 181.953 754.496 181.305 754.199 180.555C753.902 179.805 753.754 178.988 753.754 178.105V177.613C753.754 176.59 753.918 175.676 754.246 174.871C754.574 174.059 755.008 173.375 755.547 172.82C756.094 172.258 756.711 171.828 757.398 171.531C758.094 171.234 758.805 171.086 759.531 171.086C760.445 171.086 761.242 171.246 761.922 171.566C762.609 171.879 763.18 172.316 763.633 172.879C764.086 173.434 764.422 174.09 764.641 174.848C764.867 175.605 764.98 176.426 764.98 177.309V178.281H755.922C755.945 178.859 756.055 179.402 756.25 179.91C756.453 180.418 756.727 180.863 757.07 181.246C757.422 181.621 757.84 181.918 758.324 182.137C758.809 182.355 759.344 182.465 759.93 182.465C760.703 182.465 761.391 182.309 761.992 181.996C762.594 181.684 763.094 181.27 763.492 180.754L764.816 181.785C764.605 182.105 764.34 182.414 764.02 182.711C763.707 183 763.344 183.258 762.93 183.484C762.516 183.711 762.047 183.891 761.523 184.023C761 184.164 760.43 184.234 759.812 184.234ZM759.531 172.867C759.094 172.867 758.68 172.949 758.289 173.113C757.898 173.27 757.547 173.504 757.234 173.816C756.922 174.121 756.656 174.5 756.438 174.953C756.227 175.398 756.078 175.914 755.992 176.5H762.812V176.336C762.789 175.914 762.707 175.496 762.566 175.082C762.434 174.668 762.234 174.297 761.969 173.969C761.703 173.641 761.367 173.375 760.961 173.172C760.562 172.969 760.086 172.867 759.531 172.867ZM769.621 171.32L769.68 172.516C769.938 172.07 770.273 171.723 770.688 171.473C771.109 171.223 771.617 171.094 772.211 171.086C773.375 171.086 774.152 171.539 774.543 172.445C774.793 172.039 775.121 171.715 775.527 171.473C775.941 171.223 776.441 171.094 777.027 171.086C777.957 171.086 778.672 171.371 779.172 171.941C779.672 172.512 779.922 173.375 779.922 174.531V184H777.859V174.508C777.859 173.445 777.371 172.918 776.395 172.926C776.137 172.926 775.914 172.961 775.727 173.031C775.539 173.102 775.383 173.199 775.258 173.324C775.133 173.441 775.035 173.582 774.965 173.746C774.895 173.902 774.848 174.066 774.824 174.238V184H772.762V174.496C772.762 173.988 772.648 173.598 772.422 173.324C772.195 173.051 771.836 172.918 771.344 172.926C770.891 172.926 770.539 173.016 770.289 173.195C770.039 173.375 769.855 173.613 769.738 173.91V184H767.676V171.32H769.621Z" fill="white"/>
<path d="M362.473 503V483.094H368.393C369.213 483.103 370.015 483.212 370.799 483.422C371.583 483.622 372.28 483.937 372.891 484.365C373.501 484.794 373.989 485.34 374.354 486.006C374.718 486.671 374.896 487.469 374.887 488.398C374.878 488.918 374.791 489.392 374.627 489.82C374.472 490.249 374.253 490.636 373.971 490.982C373.697 491.32 373.374 491.616 373 491.871C372.626 492.126 372.23 492.345 371.811 492.527C372.339 492.682 372.822 492.906 373.26 493.197C373.706 493.48 374.089 493.826 374.408 494.236C374.727 494.637 374.973 495.093 375.146 495.604C375.329 496.114 375.42 496.665 375.42 497.258C375.429 498.188 375.251 499.008 374.887 499.719C374.522 500.43 374.035 501.027 373.424 501.51C372.813 501.984 372.107 502.348 371.305 502.604C370.512 502.859 369.691 502.991 368.844 503H362.473ZM365.016 493.689V500.854H368.912C369.441 500.844 369.942 500.758 370.416 500.594C370.89 500.421 371.309 500.184 371.674 499.883C372.038 499.582 372.326 499.213 372.535 498.775C372.754 498.338 372.863 497.841 372.863 497.285C372.872 496.72 372.777 496.219 372.576 495.781C372.385 495.344 372.116 494.975 371.77 494.674C371.423 494.364 371.018 494.127 370.553 493.963C370.088 493.799 369.587 493.708 369.049 493.689H365.016ZM365.016 491.584H368.543C369.017 491.575 369.482 491.502 369.938 491.365C370.393 491.219 370.799 491.014 371.154 490.75C371.51 490.477 371.797 490.144 372.016 489.752C372.234 489.36 372.344 488.904 372.344 488.385C372.344 487.829 372.234 487.355 372.016 486.963C371.806 486.571 371.519 486.252 371.154 486.006C370.799 485.751 370.384 485.564 369.91 485.445C369.445 485.327 368.967 485.263 368.475 485.254H365.016V491.584ZM389.037 503C388.937 502.809 388.855 502.572 388.791 502.289C388.736 501.997 388.695 501.697 388.668 501.387C388.413 501.642 388.126 501.883 387.807 502.111C387.497 502.339 387.15 502.54 386.768 502.713C386.394 502.886 385.993 503.023 385.564 503.123C385.136 503.223 384.68 503.273 384.197 503.273C383.413 503.273 382.702 503.16 382.064 502.932C381.436 502.704 380.898 502.398 380.451 502.016C380.014 501.624 379.672 501.163 379.426 500.635C379.189 500.097 379.07 499.518 379.07 498.898C379.07 498.087 379.23 497.376 379.549 496.766C379.877 496.155 380.337 495.649 380.93 495.248C381.522 494.838 382.233 494.533 383.062 494.332C383.901 494.132 384.835 494.031 385.865 494.031H388.627V492.869C388.627 492.423 388.545 492.021 388.381 491.666C388.217 491.311 387.984 491.01 387.684 490.764C387.383 490.508 387.014 490.312 386.576 490.176C386.148 490.039 385.665 489.971 385.127 489.971C384.626 489.971 384.174 490.035 383.773 490.162C383.382 490.29 383.049 490.458 382.775 490.668C382.502 490.878 382.288 491.128 382.133 491.42C381.987 491.702 381.914 491.999 381.914 492.309H379.371C379.38 491.771 379.517 491.242 379.781 490.723C380.055 490.203 380.442 489.738 380.943 489.328C381.454 488.909 382.069 488.572 382.789 488.316C383.518 488.061 384.343 487.934 385.264 487.934C386.102 487.934 386.882 488.038 387.602 488.248C388.322 488.449 388.941 488.758 389.461 489.178C389.99 489.588 390.404 490.103 390.705 490.723C391.006 491.342 391.156 492.067 391.156 492.896V499.773C391.156 500.266 391.202 500.79 391.293 501.346C391.384 501.893 391.512 502.371 391.676 502.781V503H389.037ZM384.566 501.072C385.059 501.072 385.519 501.008 385.947 500.881C386.376 500.753 386.763 500.585 387.109 500.375C387.465 500.165 387.77 499.928 388.025 499.664C388.281 499.391 388.481 499.108 388.627 498.816V495.822H386.275C384.799 495.822 383.65 496.041 382.83 496.479C382.01 496.916 381.6 497.604 381.6 498.543C381.6 498.908 381.659 499.245 381.777 499.555C381.905 499.865 382.092 500.133 382.338 500.361C382.584 500.58 382.894 500.753 383.268 500.881C383.641 501.008 384.074 501.072 384.566 501.072ZM402.436 501.223C402.891 501.223 403.333 501.15 403.762 501.004C404.199 500.858 404.587 500.658 404.924 500.402C405.261 500.138 405.53 499.833 405.73 499.486C405.94 499.131 406.049 498.748 406.059 498.338H408.451C408.442 498.994 408.269 499.623 407.932 500.225C407.604 500.817 407.161 501.341 406.605 501.797C406.049 502.243 405.411 502.604 404.691 502.877C403.971 503.141 403.219 503.273 402.436 503.273C401.314 503.273 400.335 503.073 399.496 502.672C398.658 502.271 397.956 501.733 397.391 501.059C396.835 500.375 396.415 499.591 396.133 498.707C395.85 497.814 395.709 496.875 395.709 495.891V495.316C395.709 494.341 395.85 493.407 396.133 492.514C396.415 491.62 396.835 490.837 397.391 490.162C397.956 489.479 398.658 488.936 399.496 488.535C400.335 488.134 401.314 487.934 402.436 487.934C403.311 487.934 404.113 488.075 404.842 488.357C405.58 488.631 406.214 489.009 406.742 489.492C407.28 489.966 407.699 490.531 408 491.188C408.301 491.844 408.451 492.546 408.451 493.293H406.059C406.049 492.846 405.949 492.427 405.758 492.035C405.576 491.634 405.325 491.283 405.006 490.982C404.687 490.682 404.304 490.445 403.857 490.271C403.42 490.098 402.946 490.012 402.436 490.012C401.652 490.012 400.991 490.171 400.453 490.49C399.924 490.8 399.496 491.21 399.168 491.721C398.84 492.222 398.603 492.787 398.457 493.416C398.32 494.045 398.252 494.678 398.252 495.316V495.891C398.252 496.538 398.32 497.18 398.457 497.818C398.603 498.447 398.835 499.017 399.154 499.527C399.482 500.029 399.911 500.439 400.439 500.758C400.977 501.068 401.643 501.223 402.436 501.223ZM417.379 496.096L415.52 497.887V503H412.977V482H415.52V494.852L417.174 493.074L422.027 488.207H425.104L419.115 494.373L426.02 503H422.807L417.379 496.096ZM436.301 503.273C435.262 503.273 434.305 503.096 433.43 502.74C432.564 502.385 431.821 501.888 431.201 501.25C430.581 500.612 430.098 499.855 429.752 498.98C429.406 498.105 429.232 497.153 429.232 496.123V495.549C429.232 494.355 429.424 493.288 429.807 492.35C430.189 491.402 430.695 490.604 431.324 489.957C431.962 489.301 432.682 488.799 433.484 488.453C434.296 488.107 435.125 487.934 435.973 487.934C437.039 487.934 437.969 488.12 438.762 488.494C439.564 488.859 440.229 489.369 440.758 490.025C441.286 490.673 441.678 491.438 441.934 492.322C442.198 493.206 442.33 494.163 442.33 495.193V496.328H431.762C431.789 497.003 431.917 497.636 432.145 498.229C432.382 498.821 432.701 499.34 433.102 499.787C433.512 500.225 433.999 500.571 434.564 500.826C435.13 501.081 435.754 501.209 436.438 501.209C437.34 501.209 438.142 501.027 438.844 500.662C439.546 500.298 440.129 499.814 440.594 499.213L442.139 500.416C441.893 500.79 441.583 501.15 441.209 501.496C440.844 501.833 440.421 502.134 439.938 502.398C439.454 502.663 438.908 502.872 438.297 503.027C437.686 503.191 437.021 503.273 436.301 503.273ZM435.973 490.012C435.462 490.012 434.979 490.107 434.523 490.299C434.068 490.481 433.658 490.755 433.293 491.119C432.928 491.475 432.618 491.917 432.363 492.445C432.117 492.965 431.944 493.566 431.844 494.25H439.801V494.059C439.773 493.566 439.678 493.079 439.514 492.596C439.359 492.113 439.126 491.68 438.816 491.297C438.507 490.914 438.115 490.604 437.641 490.367C437.176 490.13 436.62 490.012 435.973 490.012ZM448.852 488.207L449.029 490.395C449.567 489.629 450.228 489.032 451.012 488.604C451.796 488.166 452.671 487.943 453.637 487.934C454.411 487.934 455.113 488.043 455.742 488.262C456.38 488.48 456.923 488.822 457.369 489.287C457.816 489.752 458.158 490.344 458.395 491.064C458.641 491.775 458.764 492.623 458.764 493.607V503H456.234V493.662C456.234 493.006 456.161 492.45 456.016 491.994C455.87 491.538 455.651 491.169 455.359 490.887C455.077 490.604 454.726 490.399 454.307 490.271C453.896 490.144 453.423 490.08 452.885 490.08C452.037 490.08 451.29 490.294 450.643 490.723C450.005 491.142 449.494 491.698 449.111 492.391V503H446.582V488.207H448.852ZM462.92 495.48C462.92 494.378 463.057 493.366 463.33 492.445C463.613 491.516 464.009 490.718 464.52 490.053C465.039 489.387 465.663 488.868 466.393 488.494C467.122 488.12 467.938 487.934 468.84 487.934C469.724 487.934 470.494 488.084 471.15 488.385C471.816 488.676 472.39 489.105 472.873 489.67V482H475.402V503H473.078L472.969 501.441C472.477 502.043 471.889 502.499 471.205 502.809C470.521 503.118 469.724 503.273 468.812 503.273C467.919 503.273 467.108 503.082 466.379 502.699C465.659 502.316 465.044 501.788 464.533 501.113C464.023 500.439 463.626 499.646 463.344 498.734C463.061 497.814 462.92 496.825 462.92 495.768V495.48ZM465.449 495.768C465.449 496.488 465.527 497.171 465.682 497.818C465.837 498.465 466.074 499.035 466.393 499.527C466.721 500.02 467.135 500.411 467.637 500.703C468.138 500.986 468.74 501.127 469.441 501.127C469.87 501.127 470.257 501.077 470.604 500.977C470.95 500.876 471.264 500.735 471.547 500.553C471.829 500.361 472.08 500.138 472.299 499.883C472.518 499.618 472.709 499.327 472.873 499.008V492.145C472.545 491.543 472.103 491.051 471.547 490.668C470.991 490.276 470.298 490.08 469.469 490.08C468.758 490.08 468.147 490.226 467.637 490.518C467.135 490.809 466.721 491.206 466.393 491.707C466.074 492.199 465.837 492.773 465.682 493.43C465.527 494.077 465.449 494.76 465.449 495.48V495.768ZM503.621 494.879H499.643V503H497.127V483.094H502.965C503.895 483.112 504.77 483.244 505.59 483.49C506.41 483.736 507.126 484.105 507.736 484.598C508.356 485.09 508.839 485.71 509.186 486.457C509.541 487.195 509.719 488.066 509.719 489.068C509.719 489.715 509.623 490.308 509.432 490.846C509.249 491.383 508.994 491.871 508.666 492.309C508.338 492.746 507.946 493.133 507.49 493.471C507.035 493.808 506.533 494.095 505.986 494.332L510.211 502.836L510.197 503H507.531L503.621 494.879ZM499.643 492.801H503.033C503.598 492.792 504.132 492.705 504.633 492.541C505.134 492.368 505.572 492.122 505.945 491.803C506.328 491.484 506.629 491.096 506.848 490.641C507.066 490.176 507.176 489.643 507.176 489.041C507.176 488.403 507.071 487.847 506.861 487.373C506.652 486.89 506.36 486.489 505.986 486.17C505.613 485.842 505.166 485.596 504.646 485.432C504.136 485.268 503.576 485.181 502.965 485.172H499.643V492.801ZM524.799 493.799H516.486V500.854H526.18V503H513.957V483.094H526.057V485.254H516.486V491.652H524.799V493.799ZM541.082 497.969C541.082 497.358 540.941 496.843 540.658 496.424C540.385 496.005 540.029 495.654 539.592 495.371C539.154 495.079 538.671 494.838 538.143 494.646C537.623 494.455 537.122 494.282 536.639 494.127C535.937 493.899 535.221 493.626 534.492 493.307C533.772 492.988 533.111 492.596 532.51 492.131C531.917 491.666 531.43 491.119 531.047 490.49C530.673 489.852 530.486 489.105 530.486 488.248C530.486 487.391 530.673 486.626 531.047 485.951C531.43 485.277 531.926 484.707 532.537 484.242C533.148 483.777 533.84 483.426 534.615 483.189C535.39 482.943 536.169 482.82 536.953 482.82C537.819 482.82 538.653 482.966 539.455 483.258C540.257 483.54 540.968 483.941 541.588 484.461C542.208 484.98 542.704 485.609 543.078 486.348C543.452 487.086 543.648 487.911 543.666 488.822H541.068C540.995 488.248 540.854 487.729 540.645 487.264C540.435 486.79 540.157 486.384 539.811 486.047C539.464 485.71 539.049 485.45 538.566 485.268C538.092 485.076 537.555 484.98 536.953 484.98C536.47 484.98 535.996 485.049 535.531 485.186C535.076 485.322 534.665 485.527 534.301 485.801C533.945 486.074 533.658 486.411 533.439 486.812C533.23 487.214 533.125 487.678 533.125 488.207C533.134 488.781 533.28 489.269 533.562 489.67C533.845 490.062 534.201 490.395 534.629 490.668C535.066 490.941 535.536 491.169 536.037 491.352C536.548 491.534 537.026 491.693 537.473 491.83C537.965 491.985 538.462 492.163 538.963 492.363C539.464 492.555 539.947 492.778 540.412 493.033C540.877 493.288 541.31 493.576 541.711 493.895C542.112 494.214 542.463 494.578 542.764 494.988C543.064 495.389 543.297 495.836 543.461 496.328C543.634 496.811 543.721 497.349 543.721 497.941C543.721 498.835 543.52 499.614 543.119 500.279C542.727 500.945 542.217 501.501 541.588 501.947C540.959 502.385 540.248 502.717 539.455 502.945C538.662 503.164 537.869 503.273 537.076 503.273C536.192 503.273 535.326 503.137 534.479 502.863C533.631 502.59 532.87 502.198 532.195 501.688C531.53 501.168 530.988 500.539 530.568 499.801C530.149 499.053 529.926 498.206 529.898 497.258H532.482C532.564 497.878 532.733 498.429 532.988 498.912C533.243 499.386 533.572 499.792 533.973 500.129C534.374 500.457 534.834 500.708 535.354 500.881C535.882 501.045 536.456 501.127 537.076 501.127C537.568 501.127 538.051 501.068 538.525 500.949C539.008 500.822 539.437 500.63 539.811 500.375C540.184 500.111 540.49 499.783 540.727 499.391C540.964 498.99 541.082 498.516 541.082 497.969ZM560.906 485.254H554.754V503H552.293V485.254H546.141V483.094H560.906V485.254ZM590.615 497.846H583.971L582.371 503H579.842L586.268 483.094H588.387L594.703 503H592.188L590.615 497.846ZM584.654 495.645H589.945L587.32 487.004L584.654 495.645ZM600.691 495.016V503H598.162V483.094H604.615C605.508 483.112 606.352 483.253 607.145 483.518C607.947 483.782 608.648 484.165 609.25 484.666C609.852 485.167 610.326 485.787 610.672 486.525C611.027 487.264 611.205 488.111 611.205 489.068C611.205 490.025 611.027 490.873 610.672 491.611C610.326 492.34 609.852 492.956 609.25 493.457C608.648 493.958 607.947 494.341 607.145 494.605C606.352 494.87 605.508 495.007 604.615 495.016H600.691ZM600.691 492.938H604.615C605.199 492.928 605.736 492.837 606.229 492.664C606.721 492.482 607.149 492.227 607.514 491.898C607.878 491.57 608.161 491.174 608.361 490.709C608.571 490.235 608.676 489.697 608.676 489.096C608.676 488.494 608.571 487.952 608.361 487.469C608.161 486.986 607.878 486.576 607.514 486.238C607.158 485.901 606.73 485.641 606.229 485.459C605.736 485.277 605.199 485.181 604.615 485.172H600.691V492.938ZM614.746 483.094H626.777V485.295H622.006V500.812H626.777V503H614.746V500.812H619.408V485.295H614.746V483.094ZM641.393 499.076C641.393 498.775 641.333 498.507 641.215 498.27C641.096 498.023 640.896 497.8 640.613 497.6C640.331 497.399 639.957 497.217 639.492 497.053C639.027 496.88 638.449 496.725 637.756 496.588C636.908 496.415 636.133 496.205 635.432 495.959C634.739 495.713 634.142 495.421 633.641 495.084C633.148 494.738 632.766 494.337 632.492 493.881C632.219 493.416 632.082 492.878 632.082 492.268C632.082 491.666 632.223 491.105 632.506 490.586C632.788 490.057 633.185 489.597 633.695 489.205C634.206 488.813 634.812 488.503 635.514 488.275C636.225 488.048 637.004 487.934 637.852 487.934C638.763 487.934 639.583 488.052 640.312 488.289C641.042 488.526 641.661 488.854 642.172 489.273C642.682 489.693 643.074 490.185 643.348 490.75C643.63 491.306 643.771 491.908 643.771 492.555H641.242C641.242 492.236 641.16 491.926 640.996 491.625C640.832 491.315 640.604 491.042 640.312 490.805C640.021 490.568 639.665 490.376 639.246 490.23C638.836 490.085 638.371 490.012 637.852 490.012C637.314 490.012 636.84 490.071 636.43 490.189C636.029 490.308 635.691 490.467 635.418 490.668C635.154 490.868 634.953 491.101 634.816 491.365C634.68 491.63 634.611 491.903 634.611 492.186C634.611 492.477 634.666 492.737 634.775 492.965C634.885 493.193 635.072 493.398 635.336 493.58C635.609 493.762 635.969 493.926 636.416 494.072C636.872 494.218 637.446 494.359 638.139 494.496C639.05 494.688 639.866 494.911 640.586 495.166C641.306 495.412 641.912 495.713 642.404 496.068C642.896 496.415 643.27 496.82 643.525 497.285C643.79 497.75 643.922 498.288 643.922 498.898C643.922 499.555 643.771 500.152 643.471 500.689C643.179 501.227 642.769 501.688 642.24 502.07C641.712 502.453 641.078 502.749 640.34 502.959C639.602 503.169 638.795 503.273 637.92 503.273C636.917 503.273 636.024 503.141 635.24 502.877C634.456 502.604 633.791 502.248 633.244 501.811C632.706 501.364 632.292 500.849 632 500.266C631.717 499.682 631.576 499.076 631.576 498.447H634.105C634.142 498.967 634.279 499.404 634.516 499.76C634.762 500.115 635.062 500.402 635.418 500.621C635.783 500.84 636.184 500.995 636.621 501.086C637.059 501.177 637.492 501.223 637.92 501.223C638.986 501.223 639.829 501.027 640.449 500.635C641.069 500.243 641.383 499.723 641.393 499.076Z" fill="white"/>
</svg>
