<svg width="1035" height="530" viewBox="0 0 1035 530" fill="none" xmlns="http://www.w3.org/2000/svg">
<rect x="195" width="310" height="65" fill="#271F8B"/>
<rect x="530" width="310" height="65" fill="#271F8B"/>
<rect x="2" y="88" width="1031" height="354" fill="white" stroke="#271F8B" stroke-width="4"/>
<path d="M246.541 22.0938L249.781 32.0469L253.281 22.0938H256.426V42H253.965V34.0566L254.17 25.7441L250.492 36.4629H249.043L245.666 26.0312L245.871 34.0566V42H243.41V22.0938H246.541ZM260.979 27.207H268.539V39.8125H273.365V42H260.979V39.8125H266.01V29.4082H260.979V27.207ZM265.682 23.3242C265.682 22.9049 265.805 22.554 266.051 22.2715C266.306 21.9798 266.689 21.834 267.199 21.834C267.701 21.834 268.079 21.9798 268.334 22.2715C268.589 22.554 268.717 22.9049 268.717 23.3242C268.717 23.7344 268.589 24.0762 268.334 24.3496C268.079 24.623 267.701 24.7598 267.199 24.7598C266.689 24.7598 266.306 24.623 266.051 24.3496C265.805 24.0762 265.682 23.7344 265.682 23.3242ZM283.701 40.2227C284.157 40.2227 284.599 40.1497 285.027 40.0039C285.465 39.8581 285.852 39.6576 286.189 39.4023C286.527 39.138 286.796 38.8327 286.996 38.4863C287.206 38.1309 287.315 37.748 287.324 37.3379H289.717C289.708 37.9941 289.535 38.623 289.197 39.2246C288.869 39.8171 288.427 40.3411 287.871 40.7969C287.315 41.2435 286.677 41.6035 285.957 41.877C285.237 42.1413 284.485 42.2734 283.701 42.2734C282.58 42.2734 281.6 42.0729 280.762 41.6719C279.923 41.2708 279.221 40.7331 278.656 40.0586C278.1 39.375 277.681 38.5911 277.398 37.707C277.116 36.8138 276.975 35.875 276.975 34.8906V34.3164C276.975 33.3411 277.116 32.4069 277.398 31.5137C277.681 30.6204 278.1 29.8366 278.656 29.1621C279.221 28.4785 279.923 27.9362 280.762 27.5352C281.6 27.1341 282.58 26.9336 283.701 26.9336C284.576 26.9336 285.378 27.0749 286.107 27.3574C286.846 27.6309 287.479 28.0091 288.008 28.4922C288.546 28.9661 288.965 29.5312 289.266 30.1875C289.566 30.8438 289.717 31.5456 289.717 32.293H287.324C287.315 31.8464 287.215 31.4271 287.023 31.0352C286.841 30.6341 286.59 30.2832 286.271 29.9824C285.952 29.6816 285.57 29.4447 285.123 29.2715C284.686 29.0983 284.212 29.0117 283.701 29.0117C282.917 29.0117 282.257 29.1712 281.719 29.4902C281.19 29.8001 280.762 30.2103 280.434 30.7207C280.105 31.222 279.868 31.7871 279.723 32.416C279.586 33.0449 279.518 33.6784 279.518 34.3164V34.8906C279.518 35.5378 279.586 36.1803 279.723 36.8184C279.868 37.4473 280.101 38.0169 280.42 38.5273C280.748 39.0286 281.176 39.4388 281.705 39.7578C282.243 40.0677 282.908 40.2227 283.701 40.2227ZM303.908 26.9336C304.145 26.9336 304.391 26.9427 304.646 26.9609C304.902 26.9701 305.143 26.9928 305.371 27.0293C305.608 27.0566 305.822 27.0931 306.014 27.1387C306.214 27.1842 306.378 27.2344 306.506 27.2891L306.164 29.7637C305.672 29.6543 305.202 29.5768 304.756 29.5312C304.318 29.4766 303.858 29.4492 303.375 29.4492C302.19 29.4492 301.229 29.7181 300.49 30.2559C299.761 30.7936 299.223 31.5456 298.877 32.5117V42H296.334V27.207H298.74L298.863 29.5586C299.465 28.7474 300.185 28.1094 301.023 27.6445C301.871 27.1706 302.833 26.9336 303.908 26.9336ZM310.32 34.4668C310.32 33.4004 310.475 32.4115 310.785 31.5C311.095 30.5794 311.537 29.7819 312.111 29.1074C312.695 28.4329 313.401 27.9043 314.23 27.5215C315.06 27.1296 315.994 26.9336 317.033 26.9336C318.081 26.9336 319.02 27.1296 319.85 27.5215C320.688 27.9043 321.395 28.4329 321.969 29.1074C322.552 29.7819 322.999 30.5794 323.309 31.5C323.618 32.4115 323.773 33.4004 323.773 34.4668V34.7676C323.773 35.834 323.618 36.8229 323.309 37.7344C322.999 38.6458 322.552 39.4388 321.969 40.1133C321.395 40.7878 320.693 41.3164 319.863 41.6992C319.034 42.082 318.1 42.2734 317.061 42.2734C316.012 42.2734 315.069 42.082 314.23 41.6992C313.401 41.3164 312.695 40.7878 312.111 40.1133C311.537 39.4388 311.095 38.6458 310.785 37.7344C310.475 36.8229 310.32 35.834 310.32 34.7676V34.4668ZM312.85 34.7676C312.85 35.4967 312.936 36.194 313.109 36.8594C313.283 37.5156 313.542 38.0944 313.889 38.5957C314.244 39.097 314.686 39.4935 315.215 39.7852C315.743 40.0768 316.359 40.2227 317.061 40.2227C317.753 40.2227 318.359 40.0768 318.879 39.7852C319.408 39.4935 319.845 39.097 320.191 38.5957C320.547 38.0944 320.811 37.5156 320.984 36.8594C321.158 36.194 321.244 35.4967 321.244 34.7676V34.4668C321.244 33.7467 321.153 33.0586 320.971 32.4023C320.798 31.737 320.533 31.1536 320.178 30.6523C319.831 30.151 319.394 29.7546 318.865 29.4629C318.346 29.1621 317.735 29.0117 317.033 29.0117C316.331 29.0117 315.721 29.1621 315.201 29.4629C314.682 29.7546 314.244 30.151 313.889 30.6523C313.542 31.1536 313.283 31.737 313.109 32.4023C312.936 33.0586 312.85 33.7467 312.85 34.4668V34.7676ZM334.15 40.2227C334.606 40.2227 335.048 40.1497 335.477 40.0039C335.914 39.8581 336.301 39.6576 336.639 39.4023C336.976 39.138 337.245 38.8327 337.445 38.4863C337.655 38.1309 337.764 37.748 337.773 37.3379H340.166C340.157 37.9941 339.984 38.623 339.646 39.2246C339.318 39.8171 338.876 40.3411 338.32 40.7969C337.764 41.2435 337.126 41.6035 336.406 41.877C335.686 42.1413 334.934 42.2734 334.15 42.2734C333.029 42.2734 332.049 42.0729 331.211 41.6719C330.372 41.2708 329.671 40.7331 329.105 40.0586C328.549 39.375 328.13 38.5911 327.848 37.707C327.565 36.8138 327.424 35.875 327.424 34.8906V34.3164C327.424 33.3411 327.565 32.4069 327.848 31.5137C328.13 30.6204 328.549 29.8366 329.105 29.1621C329.671 28.4785 330.372 27.9362 331.211 27.5352C332.049 27.1341 333.029 26.9336 334.15 26.9336C335.025 26.9336 335.827 27.0749 336.557 27.3574C337.295 27.6309 337.928 28.0091 338.457 28.4922C338.995 28.9661 339.414 29.5312 339.715 30.1875C340.016 30.8438 340.166 31.5456 340.166 32.293H337.773C337.764 31.8464 337.664 31.4271 337.473 31.0352C337.29 30.6341 337.04 30.2832 336.721 29.9824C336.402 29.6816 336.019 29.4447 335.572 29.2715C335.135 29.0983 334.661 29.0117 334.15 29.0117C333.367 29.0117 332.706 29.1712 332.168 29.4902C331.639 29.8001 331.211 30.2103 330.883 30.7207C330.555 31.222 330.318 31.7871 330.172 32.416C330.035 33.0449 329.967 33.6784 329.967 34.3164V34.8906C329.967 35.5378 330.035 36.1803 330.172 36.8184C330.318 37.4473 330.55 38.0169 330.869 38.5273C331.197 39.0286 331.626 39.4388 332.154 39.7578C332.692 40.0677 333.357 40.2227 334.15 40.2227ZM343.953 34.4668C343.953 33.4004 344.108 32.4115 344.418 31.5C344.728 30.5794 345.17 29.7819 345.744 29.1074C346.327 28.4329 347.034 27.9043 347.863 27.5215C348.693 27.1296 349.627 26.9336 350.666 26.9336C351.714 26.9336 352.653 27.1296 353.482 27.5215C354.321 27.9043 355.027 28.4329 355.602 29.1074C356.185 29.7819 356.632 30.5794 356.941 31.5C357.251 32.4115 357.406 33.4004 357.406 34.4668V34.7676C357.406 35.834 357.251 36.8229 356.941 37.7344C356.632 38.6458 356.185 39.4388 355.602 40.1133C355.027 40.7878 354.326 41.3164 353.496 41.6992C352.667 42.082 351.732 42.2734 350.693 42.2734C349.645 42.2734 348.702 42.082 347.863 41.6992C347.034 41.3164 346.327 40.7878 345.744 40.1133C345.17 39.4388 344.728 38.6458 344.418 37.7344C344.108 36.8229 343.953 35.834 343.953 34.7676V34.4668ZM346.482 34.7676C346.482 35.4967 346.569 36.194 346.742 36.8594C346.915 37.5156 347.175 38.0944 347.521 38.5957C347.877 39.097 348.319 39.4935 348.848 39.7852C349.376 40.0768 349.992 40.2227 350.693 40.2227C351.386 40.2227 351.992 40.0768 352.512 39.7852C353.04 39.4935 353.478 39.097 353.824 38.5957C354.18 38.0944 354.444 37.5156 354.617 36.8594C354.79 36.194 354.877 35.4967 354.877 34.7676V34.4668C354.877 33.7467 354.786 33.0586 354.604 32.4023C354.43 31.737 354.166 31.1536 353.811 30.6523C353.464 30.151 353.027 29.7546 352.498 29.4629C351.979 29.1621 351.368 29.0117 350.666 29.0117C349.964 29.0117 349.354 29.1621 348.834 29.4629C348.314 29.7546 347.877 30.151 347.521 30.6523C347.175 31.1536 346.915 31.737 346.742 32.4023C346.569 33.0586 346.482 33.7467 346.482 34.4668V34.7676ZM362.643 27.207L362.711 28.6016C363.012 28.082 363.404 27.6764 363.887 27.3848C364.379 27.0931 364.971 26.9427 365.664 26.9336C367.022 26.9336 367.929 27.4622 368.385 28.5195C368.676 28.0456 369.059 27.6673 369.533 27.3848C370.016 27.0931 370.6 26.9427 371.283 26.9336C372.368 26.9336 373.202 27.2663 373.785 27.9316C374.368 28.597 374.66 29.6042 374.66 30.9531V42H372.254V30.9258C372.254 29.6862 371.684 29.071 370.545 29.0801C370.244 29.0801 369.984 29.1211 369.766 29.2031C369.547 29.2852 369.365 29.3991 369.219 29.5449C369.073 29.6816 368.959 29.8457 368.877 30.0371C368.795 30.2194 368.74 30.4108 368.713 30.6113V42H366.307V30.9121C366.307 30.3197 366.174 29.8639 365.91 29.5449C365.646 29.2259 365.227 29.071 364.652 29.0801C364.124 29.0801 363.714 29.1849 363.422 29.3945C363.13 29.6042 362.916 29.8822 362.779 30.2285V42H360.373V27.207H362.643ZM390.779 34.7676C390.779 35.8249 390.652 36.8138 390.396 37.7344C390.141 38.6458 389.768 39.4388 389.275 40.1133C388.783 40.7878 388.173 41.3164 387.443 41.6992C386.723 42.082 385.898 42.2734 384.969 42.2734C384.066 42.2734 383.269 42.1276 382.576 41.8359C381.893 41.5443 381.305 41.125 380.812 40.5781V47.6875H378.283V27.207H380.594L380.717 28.8203C381.209 28.2096 381.801 27.7448 382.494 27.4258C383.196 27.0977 384.007 26.9336 384.928 26.9336C385.876 26.9336 386.714 27.1204 387.443 27.4941C388.173 27.8678 388.783 28.3874 389.275 29.0527C389.768 29.7181 390.141 30.5156 390.396 31.4453C390.652 32.3659 390.779 33.3776 390.779 34.4805V34.7676ZM388.25 34.4805C388.25 33.7604 388.168 33.0768 388.004 32.4297C387.849 31.7734 387.603 31.1992 387.266 30.707C386.938 30.2057 386.518 29.8092 386.008 29.5176C385.497 29.2259 384.887 29.0801 384.176 29.0801C383.365 29.0801 382.681 29.2715 382.125 29.6543C381.578 30.028 381.141 30.5111 380.812 31.1035V38.2266C381.141 38.8099 381.578 39.2884 382.125 39.6621C382.672 40.0267 383.365 40.209 384.203 40.209C384.905 40.209 385.511 40.0632 386.021 39.7715C386.532 39.4707 386.951 39.0697 387.279 38.5684C387.607 38.0671 387.849 37.4883 388.004 36.832C388.168 36.1758 388.25 35.4876 388.25 34.7676V34.4805ZM404.711 39.9629C404.219 40.6921 403.604 41.2617 402.865 41.6719C402.127 42.0729 401.275 42.2734 400.309 42.2734C399.534 42.2734 398.832 42.1549 398.203 41.918C397.574 41.6719 397.036 41.2936 396.59 40.7832C396.143 40.2728 395.797 39.6257 395.551 38.8418C395.314 38.0488 395.195 37.1009 395.195 35.998V27.207H397.725V36.0254C397.725 36.8275 397.788 37.4928 397.916 38.0215C398.044 38.5501 398.235 38.974 398.49 39.293C398.745 39.6029 399.055 39.8216 399.42 39.9492C399.794 40.0768 400.222 40.1406 400.705 40.1406C401.735 40.1406 402.564 39.931 403.193 39.5117C403.831 39.0924 404.305 38.5273 404.615 37.8164V27.207H407.158V42H404.861L404.711 39.9629ZM417.918 23.625V27.207H423.551V29.1621H417.918V37.2012C417.918 37.7754 417.991 38.2493 418.137 38.623C418.283 38.9967 418.483 39.2975 418.738 39.5254C418.993 39.7441 419.285 39.8991 419.613 39.9902C419.951 40.0814 420.306 40.127 420.68 40.127C420.953 40.127 421.236 40.1133 421.527 40.0859C421.819 40.0495 422.102 40.0085 422.375 39.9629C422.658 39.9173 422.917 39.8717 423.154 39.8262C423.4 39.7715 423.601 39.7259 423.756 39.6895L424.111 41.4805C423.902 41.6081 423.646 41.722 423.346 41.8223C423.045 41.9134 422.717 41.9909 422.361 42.0547C422.006 42.1276 421.628 42.1823 421.227 42.2188C420.835 42.2552 420.443 42.2734 420.051 42.2734C419.395 42.2734 418.779 42.1823 418.205 42C417.64 41.8086 417.148 41.5124 416.729 41.1113C416.309 40.7012 415.977 40.1771 415.73 39.5391C415.493 38.8919 415.375 38.1126 415.375 37.2012V29.1621H411.492V27.207H415.375V23.625H417.918ZM435.281 42.2734C434.242 42.2734 433.285 42.0957 432.41 41.7402C431.544 41.3848 430.801 40.888 430.182 40.25C429.562 39.612 429.079 38.8555 428.732 37.9805C428.386 37.1055 428.213 36.153 428.213 35.123V34.5488C428.213 33.3548 428.404 32.2884 428.787 31.3496C429.17 30.4017 429.676 29.6042 430.305 28.957C430.943 28.3008 431.663 27.7995 432.465 27.4531C433.276 27.1068 434.105 26.9336 434.953 26.9336C436.02 26.9336 436.949 27.1204 437.742 27.4941C438.544 27.8587 439.21 28.3691 439.738 29.0254C440.267 29.6725 440.659 30.4382 440.914 31.3223C441.178 32.2064 441.311 33.1634 441.311 34.1934V35.3281H430.742C430.77 36.0026 430.897 36.6361 431.125 37.2285C431.362 37.821 431.681 38.3405 432.082 38.7871C432.492 39.2246 432.98 39.571 433.545 39.8262C434.11 40.0814 434.734 40.209 435.418 40.209C436.32 40.209 437.122 40.0267 437.824 39.6621C438.526 39.2975 439.109 38.8145 439.574 38.2129L441.119 39.416C440.873 39.7897 440.563 40.1497 440.189 40.4961C439.825 40.8333 439.401 41.1341 438.918 41.3984C438.435 41.6628 437.888 41.8724 437.277 42.0273C436.667 42.1914 436.001 42.2734 435.281 42.2734ZM434.953 29.0117C434.443 29.0117 433.96 29.1074 433.504 29.2988C433.048 29.4811 432.638 29.7546 432.273 30.1191C431.909 30.4746 431.599 30.9167 431.344 31.4453C431.098 31.9648 430.924 32.5664 430.824 33.25H438.781V33.0586C438.754 32.5664 438.658 32.0788 438.494 31.5957C438.339 31.1126 438.107 30.6797 437.797 30.2969C437.487 29.9141 437.095 29.6042 436.621 29.3672C436.156 29.1302 435.6 29.0117 434.953 29.0117ZM455.256 26.9336C455.493 26.9336 455.739 26.9427 455.994 26.9609C456.249 26.9701 456.491 26.9928 456.719 27.0293C456.956 27.0566 457.17 27.0931 457.361 27.1387C457.562 27.1842 457.726 27.2344 457.854 27.2891L457.512 29.7637C457.02 29.6543 456.55 29.5768 456.104 29.5312C455.666 29.4766 455.206 29.4492 454.723 29.4492C453.538 29.4492 452.576 29.7181 451.838 30.2559C451.109 30.7936 450.571 31.5456 450.225 32.5117V42H447.682V27.207H450.088L450.211 29.5586C450.812 28.7474 451.533 28.1094 452.371 27.6445C453.219 27.1706 454.18 26.9336 455.256 26.9336Z" fill="white"/>
<path d="M611.771 42V22.0938H616.379C617.764 22.112 618.999 22.349 620.084 22.8047C621.178 23.2513 622.098 23.8802 622.846 24.6914C623.602 25.4935 624.176 26.4596 624.568 27.5898C624.969 28.7109 625.174 29.9551 625.184 31.3223V32.7852C625.174 34.1523 624.969 35.401 624.568 36.5312C624.176 37.6523 623.602 38.6185 622.846 39.4297C622.098 40.2318 621.178 40.8607 620.084 41.3164C618.999 41.763 617.764 41.9909 616.379 42H611.771ZM614.342 24.1719V39.9355H616.379C617.454 39.9264 618.384 39.7396 619.168 39.375C619.952 39.0013 620.599 38.4954 621.109 37.8574C621.629 37.2194 622.012 36.4674 622.258 35.6016C622.513 34.7357 622.645 33.7969 622.654 32.7852V31.2949C622.645 30.2832 622.513 29.349 622.258 28.4922C622.003 27.6263 621.62 26.8789 621.109 26.25C620.599 25.612 619.952 25.1107 619.168 24.7461C618.384 24.3815 617.454 24.1901 616.379 24.1719H614.342ZM638.568 42C638.468 41.8086 638.386 41.5716 638.322 41.2891C638.268 40.9974 638.227 40.6966 638.199 40.3867C637.944 40.6419 637.657 40.8835 637.338 41.1113C637.028 41.3392 636.682 41.5397 636.299 41.7129C635.925 41.8861 635.524 42.0228 635.096 42.123C634.667 42.2233 634.212 42.2734 633.729 42.2734C632.945 42.2734 632.234 42.1595 631.596 41.9316C630.967 41.7038 630.429 41.3984 629.982 41.0156C629.545 40.6237 629.203 40.1634 628.957 39.6348C628.72 39.097 628.602 38.5182 628.602 37.8984C628.602 37.0872 628.761 36.3763 629.08 35.7656C629.408 35.1549 629.868 34.6491 630.461 34.248C631.053 33.8379 631.764 33.5326 632.594 33.332C633.432 33.1315 634.367 33.0312 635.396 33.0312H638.158V31.8691C638.158 31.4225 638.076 31.0215 637.912 30.666C637.748 30.3105 637.516 30.0098 637.215 29.7637C636.914 29.5085 636.545 29.3125 636.107 29.1758C635.679 29.0391 635.196 28.9707 634.658 28.9707C634.157 28.9707 633.706 29.0345 633.305 29.1621C632.913 29.2897 632.58 29.4583 632.307 29.668C632.033 29.8776 631.819 30.1283 631.664 30.4199C631.518 30.7025 631.445 30.9987 631.445 31.3086H628.902C628.911 30.7708 629.048 30.2422 629.312 29.7227C629.586 29.2031 629.973 28.7383 630.475 28.3281C630.985 27.9089 631.6 27.5716 632.32 27.3164C633.049 27.0612 633.874 26.9336 634.795 26.9336C635.633 26.9336 636.413 27.0384 637.133 27.248C637.853 27.4486 638.473 27.7585 638.992 28.1777C639.521 28.5879 639.936 29.1029 640.236 29.7227C640.537 30.3424 640.688 31.0671 640.688 31.8965V38.7734C640.688 39.2656 640.733 39.7897 640.824 40.3457C640.915 40.8926 641.043 41.3711 641.207 41.7812V42H638.568ZM634.098 40.0723C634.59 40.0723 635.05 40.0085 635.479 39.8809C635.907 39.7533 636.294 39.5846 636.641 39.375C636.996 39.1654 637.301 38.9284 637.557 38.6641C637.812 38.3906 638.012 38.1081 638.158 37.8164V34.8223H635.807C634.33 34.8223 633.182 35.041 632.361 35.4785C631.541 35.916 631.131 36.6042 631.131 37.543C631.131 37.9076 631.19 38.2448 631.309 38.5547C631.436 38.8646 631.623 39.1335 631.869 39.3613C632.115 39.5801 632.425 39.7533 632.799 39.8809C633.173 40.0085 633.605 40.0723 634.098 40.0723ZM655.494 38.0762C655.494 37.7754 655.435 37.5065 655.316 37.2695C655.198 37.0234 654.997 36.8001 654.715 36.5996C654.432 36.3991 654.059 36.2168 653.594 36.0527C653.129 35.8796 652.55 35.7246 651.857 35.5879C651.01 35.4147 650.235 35.2051 649.533 34.959C648.84 34.7129 648.243 34.4212 647.742 34.084C647.25 33.7376 646.867 33.3366 646.594 32.8809C646.32 32.416 646.184 31.8783 646.184 31.2676C646.184 30.666 646.325 30.1055 646.607 29.5859C646.89 29.0573 647.286 28.597 647.797 28.2051C648.307 27.8132 648.913 27.5033 649.615 27.2754C650.326 27.0475 651.105 26.9336 651.953 26.9336C652.865 26.9336 653.685 27.0521 654.414 27.2891C655.143 27.526 655.763 27.8542 656.273 28.2734C656.784 28.6927 657.176 29.1849 657.449 29.75C657.732 30.306 657.873 30.9076 657.873 31.5547H655.344C655.344 31.2357 655.262 30.9258 655.098 30.625C654.934 30.3151 654.706 30.0417 654.414 29.8047C654.122 29.5677 653.767 29.3763 653.348 29.2305C652.938 29.0846 652.473 29.0117 651.953 29.0117C651.415 29.0117 650.941 29.071 650.531 29.1895C650.13 29.3079 649.793 29.4674 649.52 29.668C649.255 29.8685 649.055 30.1009 648.918 30.3652C648.781 30.6296 648.713 30.903 648.713 31.1855C648.713 31.4772 648.768 31.737 648.877 31.9648C648.986 32.1927 649.173 32.3978 649.438 32.5801C649.711 32.7624 650.071 32.9264 650.518 33.0723C650.973 33.2181 651.548 33.3594 652.24 33.4961C653.152 33.6875 653.967 33.9108 654.688 34.166C655.408 34.4121 656.014 34.7129 656.506 35.0684C656.998 35.4147 657.372 35.8203 657.627 36.2852C657.891 36.75 658.023 37.2878 658.023 37.8984C658.023 38.5547 657.873 39.1517 657.572 39.6895C657.281 40.2272 656.87 40.6875 656.342 41.0703C655.813 41.4531 655.18 41.7493 654.441 41.959C653.703 42.1686 652.896 42.2734 652.021 42.2734C651.019 42.2734 650.126 42.1413 649.342 41.877C648.558 41.6035 647.893 41.248 647.346 40.8105C646.808 40.3639 646.393 39.849 646.102 39.2656C645.819 38.6823 645.678 38.0762 645.678 37.4473H648.207C648.243 37.9668 648.38 38.4043 648.617 38.7598C648.863 39.1152 649.164 39.4023 649.52 39.6211C649.884 39.8398 650.285 39.9948 650.723 40.0859C651.16 40.1771 651.593 40.2227 652.021 40.2227C653.088 40.2227 653.931 40.0267 654.551 39.6348C655.171 39.2428 655.485 38.7233 655.494 38.0762ZM665.01 29.4082C665.538 28.6335 666.19 28.0319 666.965 27.6035C667.74 27.166 668.61 26.9427 669.576 26.9336C670.351 26.9336 671.053 27.0475 671.682 27.2754C672.32 27.4941 672.862 27.8405 673.309 28.3145C673.755 28.7884 674.097 29.39 674.334 30.1191C674.58 30.8392 674.703 31.696 674.703 32.6895V42H672.174V32.6621C672.174 31.4499 671.882 30.5475 671.299 29.9551C670.725 29.3626 669.9 29.071 668.824 29.0801C668.013 29.0801 667.275 29.2806 666.609 29.6816C665.953 30.0736 665.42 30.5977 665.01 31.2539V42H662.48V21H665.01V29.4082ZM691.834 34.7676C691.834 35.8249 691.706 36.8138 691.451 37.7344C691.196 38.6458 690.822 39.4388 690.33 40.1133C689.838 40.7878 689.227 41.3164 688.498 41.6992C687.778 42.082 686.949 42.2734 686.01 42.2734C685.062 42.2734 684.237 42.1048 683.535 41.7676C682.842 41.4303 682.25 40.9473 681.758 40.3184L681.635 42H679.311V21H681.84V28.793C682.323 28.1914 682.906 27.7311 683.59 27.4121C684.273 27.0931 685.071 26.9336 685.982 26.9336C686.93 26.9336 687.769 27.1204 688.498 27.4941C689.227 27.8678 689.838 28.3874 690.33 29.0527C690.822 29.7181 691.196 30.5156 691.451 31.4453C691.706 32.3659 691.834 33.3776 691.834 34.4805V34.7676ZM689.305 34.4805C689.305 33.7604 689.232 33.0768 689.086 32.4297C688.949 31.7734 688.726 31.1992 688.416 30.707C688.106 30.2057 687.701 29.8092 687.199 29.5176C686.698 29.2259 686.083 29.0801 685.354 29.0801C684.916 29.0801 684.515 29.1393 684.15 29.2578C683.786 29.3672 683.458 29.5267 683.166 29.7363C682.883 29.9368 682.628 30.1784 682.4 30.4609C682.182 30.7344 681.995 31.0352 681.84 31.3633V37.8301C682.004 38.1582 682.195 38.4635 682.414 38.7461C682.642 39.0195 682.902 39.2611 683.193 39.4707C683.485 39.6803 683.813 39.8444 684.178 39.9629C684.542 40.0723 684.943 40.127 685.381 40.127C686.074 40.127 686.666 39.9857 687.158 39.7031C687.66 39.4115 688.065 39.0195 688.375 38.5273C688.694 38.0352 688.926 37.4655 689.072 36.8184C689.227 36.1712 689.305 35.4876 689.305 34.7676V34.4805ZM695.402 34.4668C695.402 33.4004 695.557 32.4115 695.867 31.5C696.177 30.5794 696.619 29.7819 697.193 29.1074C697.777 28.4329 698.483 27.9043 699.312 27.5215C700.142 27.1296 701.076 26.9336 702.115 26.9336C703.163 26.9336 704.102 27.1296 704.932 27.5215C705.77 27.9043 706.477 28.4329 707.051 29.1074C707.634 29.7819 708.081 30.5794 708.391 31.5C708.701 32.4115 708.855 33.4004 708.855 34.4668V34.7676C708.855 35.834 708.701 36.8229 708.391 37.7344C708.081 38.6458 707.634 39.4388 707.051 40.1133C706.477 40.7878 705.775 41.3164 704.945 41.6992C704.116 42.082 703.182 42.2734 702.143 42.2734C701.094 42.2734 700.151 42.082 699.312 41.6992C698.483 41.3164 697.777 40.7878 697.193 40.1133C696.619 39.4388 696.177 38.6458 695.867 37.7344C695.557 36.8229 695.402 35.834 695.402 34.7676V34.4668ZM697.932 34.7676C697.932 35.4967 698.018 36.194 698.191 36.8594C698.365 37.5156 698.624 38.0944 698.971 38.5957C699.326 39.097 699.768 39.4935 700.297 39.7852C700.826 40.0768 701.441 40.2227 702.143 40.2227C702.835 40.2227 703.441 40.0768 703.961 39.7852C704.49 39.4935 704.927 39.097 705.273 38.5957C705.629 38.0944 705.893 37.5156 706.066 36.8594C706.24 36.194 706.326 35.4967 706.326 34.7676V34.4668C706.326 33.7467 706.235 33.0586 706.053 32.4023C705.88 31.737 705.615 31.1536 705.26 30.6523C704.913 30.151 704.476 29.7546 703.947 29.4629C703.428 29.1621 702.817 29.0117 702.115 29.0117C701.413 29.0117 700.803 29.1621 700.283 29.4629C699.764 29.7546 699.326 30.151 698.971 30.6523C698.624 31.1536 698.365 31.737 698.191 32.4023C698.018 33.0586 697.932 33.7467 697.932 34.4668V34.7676ZM722.65 42C722.55 41.8086 722.468 41.5716 722.404 41.2891C722.35 40.9974 722.309 40.6966 722.281 40.3867C722.026 40.6419 721.739 40.8835 721.42 41.1113C721.11 41.3392 720.764 41.5397 720.381 41.7129C720.007 41.8861 719.606 42.0228 719.178 42.123C718.749 42.2233 718.294 42.2734 717.811 42.2734C717.027 42.2734 716.316 42.1595 715.678 41.9316C715.049 41.7038 714.511 41.3984 714.064 41.0156C713.627 40.6237 713.285 40.1634 713.039 39.6348C712.802 39.097 712.684 38.5182 712.684 37.8984C712.684 37.0872 712.843 36.3763 713.162 35.7656C713.49 35.1549 713.951 34.6491 714.543 34.248C715.135 33.8379 715.846 33.5326 716.676 33.332C717.514 33.1315 718.449 33.0312 719.479 33.0312H722.24V31.8691C722.24 31.4225 722.158 31.0215 721.994 30.666C721.83 30.3105 721.598 30.0098 721.297 29.7637C720.996 29.5085 720.627 29.3125 720.189 29.1758C719.761 29.0391 719.278 28.9707 718.74 28.9707C718.239 28.9707 717.788 29.0345 717.387 29.1621C716.995 29.2897 716.662 29.4583 716.389 29.668C716.115 29.8776 715.901 30.1283 715.746 30.4199C715.6 30.7025 715.527 30.9987 715.527 31.3086H712.984C712.993 30.7708 713.13 30.2422 713.395 29.7227C713.668 29.2031 714.055 28.7383 714.557 28.3281C715.067 27.9089 715.682 27.5716 716.402 27.3164C717.132 27.0612 717.956 26.9336 718.877 26.9336C719.715 26.9336 720.495 27.0384 721.215 27.248C721.935 27.4486 722.555 27.7585 723.074 28.1777C723.603 28.5879 724.018 29.1029 724.318 29.7227C724.619 30.3424 724.77 31.0671 724.77 31.8965V38.7734C724.77 39.2656 724.815 39.7897 724.906 40.3457C724.997 40.8926 725.125 41.3711 725.289 41.7812V42H722.65ZM718.18 40.0723C718.672 40.0723 719.132 40.0085 719.561 39.8809C719.989 39.7533 720.376 39.5846 720.723 39.375C721.078 39.1654 721.383 38.9284 721.639 38.6641C721.894 38.3906 722.094 38.1081 722.24 37.8164V34.8223H719.889C718.412 34.8223 717.264 35.041 716.443 35.4785C715.623 35.916 715.213 36.6042 715.213 37.543C715.213 37.9076 715.272 38.2448 715.391 38.5547C715.518 38.8646 715.705 39.1335 715.951 39.3613C716.197 39.5801 716.507 39.7533 716.881 39.8809C717.255 40.0085 717.688 40.0723 718.18 40.0723ZM739.439 26.9336C739.676 26.9336 739.923 26.9427 740.178 26.9609C740.433 26.9701 740.674 26.9928 740.902 27.0293C741.139 27.0566 741.354 27.0931 741.545 27.1387C741.745 27.1842 741.91 27.2344 742.037 27.2891L741.695 29.7637C741.203 29.6543 740.734 29.5768 740.287 29.5312C739.85 29.4766 739.389 29.4492 738.906 29.4492C737.721 29.4492 736.76 29.7181 736.021 30.2559C735.292 30.7936 734.755 31.5456 734.408 32.5117V42H731.865V27.207H734.271L734.395 29.5586C734.996 28.7474 735.716 28.1094 736.555 27.6445C737.402 27.1706 738.364 26.9336 739.439 26.9336ZM746.084 34.4805C746.084 33.3776 746.221 32.3659 746.494 31.4453C746.777 30.5156 747.173 29.7181 747.684 29.0527C748.203 28.3874 748.827 27.8678 749.557 27.4941C750.286 27.1204 751.102 26.9336 752.004 26.9336C752.888 26.9336 753.658 27.084 754.314 27.3848C754.98 27.6764 755.554 28.1048 756.037 28.6699V21H758.566V42H756.242L756.133 40.4414C755.641 41.043 755.053 41.4987 754.369 41.8086C753.686 42.1185 752.888 42.2734 751.977 42.2734C751.083 42.2734 750.272 42.082 749.543 41.6992C748.823 41.3164 748.208 40.7878 747.697 40.1133C747.187 39.4388 746.79 38.6458 746.508 37.7344C746.225 36.8138 746.084 35.8249 746.084 34.7676V34.4805ZM748.613 34.7676C748.613 35.4876 748.691 36.1712 748.846 36.8184C749.001 37.4655 749.238 38.0352 749.557 38.5273C749.885 39.0195 750.299 39.4115 750.801 39.7031C751.302 39.9857 751.904 40.127 752.605 40.127C753.034 40.127 753.421 40.0768 753.768 39.9766C754.114 39.8763 754.428 39.735 754.711 39.5527C754.993 39.3613 755.244 39.138 755.463 38.8828C755.682 38.6185 755.873 38.3268 756.037 38.0078V31.1445C755.709 30.543 755.267 30.0508 754.711 29.668C754.155 29.276 753.462 29.0801 752.633 29.0801C751.922 29.0801 751.311 29.2259 750.801 29.5176C750.299 29.8092 749.885 30.2057 749.557 30.707C749.238 31.1992 749.001 31.7734 748.846 32.4297C748.691 33.0768 748.613 33.7604 748.613 34.4805V34.7676Z" fill="white"/>
<rect x="25" y="115" width="981" height="65" fill="#271F8B"/>
<rect x="25" y="205" width="663" height="65" fill="#271F8B"/>
<rect x="25" y="295" width="663" height="120" fill="#271F8B"/>
<rect x="713" y="205" width="293" height="210" fill="#271F8B"/>
<rect x="25" y="465" width="980" height="65" fill="#271F8B"/>
<path d="M362.473 157V137.094H368.393C369.213 137.103 370.015 137.212 370.799 137.422C371.583 137.622 372.28 137.937 372.891 138.365C373.501 138.794 373.989 139.34 374.354 140.006C374.718 140.671 374.896 141.469 374.887 142.398C374.878 142.918 374.791 143.392 374.627 143.82C374.472 144.249 374.253 144.636 373.971 144.982C373.697 145.32 373.374 145.616 373 145.871C372.626 146.126 372.23 146.345 371.811 146.527C372.339 146.682 372.822 146.906 373.26 147.197C373.706 147.48 374.089 147.826 374.408 148.236C374.727 148.637 374.973 149.093 375.146 149.604C375.329 150.114 375.42 150.665 375.42 151.258C375.429 152.188 375.251 153.008 374.887 153.719C374.522 154.43 374.035 155.027 373.424 155.51C372.813 155.984 372.107 156.348 371.305 156.604C370.512 156.859 369.691 156.991 368.844 157H362.473ZM365.016 147.689V154.854H368.912C369.441 154.844 369.942 154.758 370.416 154.594C370.89 154.421 371.309 154.184 371.674 153.883C372.038 153.582 372.326 153.213 372.535 152.775C372.754 152.338 372.863 151.841 372.863 151.285C372.872 150.72 372.777 150.219 372.576 149.781C372.385 149.344 372.116 148.975 371.77 148.674C371.423 148.364 371.018 148.127 370.553 147.963C370.088 147.799 369.587 147.708 369.049 147.689H365.016ZM365.016 145.584H368.543C369.017 145.575 369.482 145.502 369.938 145.365C370.393 145.219 370.799 145.014 371.154 144.75C371.51 144.477 371.797 144.144 372.016 143.752C372.234 143.36 372.344 142.904 372.344 142.385C372.344 141.829 372.234 141.355 372.016 140.963C371.806 140.571 371.519 140.252 371.154 140.006C370.799 139.751 370.384 139.564 369.91 139.445C369.445 139.327 368.967 139.263 368.475 139.254H365.016V145.584ZM389.037 157C388.937 156.809 388.855 156.572 388.791 156.289C388.736 155.997 388.695 155.697 388.668 155.387C388.413 155.642 388.126 155.883 387.807 156.111C387.497 156.339 387.15 156.54 386.768 156.713C386.394 156.886 385.993 157.023 385.564 157.123C385.136 157.223 384.68 157.273 384.197 157.273C383.413 157.273 382.702 157.16 382.064 156.932C381.436 156.704 380.898 156.398 380.451 156.016C380.014 155.624 379.672 155.163 379.426 154.635C379.189 154.097 379.07 153.518 379.07 152.898C379.07 152.087 379.23 151.376 379.549 150.766C379.877 150.155 380.337 149.649 380.93 149.248C381.522 148.838 382.233 148.533 383.062 148.332C383.901 148.132 384.835 148.031 385.865 148.031H388.627V146.869C388.627 146.423 388.545 146.021 388.381 145.666C388.217 145.311 387.984 145.01 387.684 144.764C387.383 144.508 387.014 144.312 386.576 144.176C386.148 144.039 385.665 143.971 385.127 143.971C384.626 143.971 384.174 144.035 383.773 144.162C383.382 144.29 383.049 144.458 382.775 144.668C382.502 144.878 382.288 145.128 382.133 145.42C381.987 145.702 381.914 145.999 381.914 146.309H379.371C379.38 145.771 379.517 145.242 379.781 144.723C380.055 144.203 380.442 143.738 380.943 143.328C381.454 142.909 382.069 142.572 382.789 142.316C383.518 142.061 384.343 141.934 385.264 141.934C386.102 141.934 386.882 142.038 387.602 142.248C388.322 142.449 388.941 142.758 389.461 143.178C389.99 143.588 390.404 144.103 390.705 144.723C391.006 145.342 391.156 146.067 391.156 146.896V153.773C391.156 154.266 391.202 154.79 391.293 155.346C391.384 155.893 391.512 156.371 391.676 156.781V157H389.037ZM384.566 155.072C385.059 155.072 385.519 155.008 385.947 154.881C386.376 154.753 386.763 154.585 387.109 154.375C387.465 154.165 387.77 153.928 388.025 153.664C388.281 153.391 388.481 153.108 388.627 152.816V149.822H386.275C384.799 149.822 383.65 150.041 382.83 150.479C382.01 150.916 381.6 151.604 381.6 152.543C381.6 152.908 381.659 153.245 381.777 153.555C381.905 153.865 382.092 154.133 382.338 154.361C382.584 154.58 382.894 154.753 383.268 154.881C383.641 155.008 384.074 155.072 384.566 155.072ZM402.436 155.223C402.891 155.223 403.333 155.15 403.762 155.004C404.199 154.858 404.587 154.658 404.924 154.402C405.261 154.138 405.53 153.833 405.73 153.486C405.94 153.131 406.049 152.748 406.059 152.338H408.451C408.442 152.994 408.269 153.623 407.932 154.225C407.604 154.817 407.161 155.341 406.605 155.797C406.049 156.243 405.411 156.604 404.691 156.877C403.971 157.141 403.219 157.273 402.436 157.273C401.314 157.273 400.335 157.073 399.496 156.672C398.658 156.271 397.956 155.733 397.391 155.059C396.835 154.375 396.415 153.591 396.133 152.707C395.85 151.814 395.709 150.875 395.709 149.891V149.316C395.709 148.341 395.85 147.407 396.133 146.514C396.415 145.62 396.835 144.837 397.391 144.162C397.956 143.479 398.658 142.936 399.496 142.535C400.335 142.134 401.314 141.934 402.436 141.934C403.311 141.934 404.113 142.075 404.842 142.357C405.58 142.631 406.214 143.009 406.742 143.492C407.28 143.966 407.699 144.531 408 145.188C408.301 145.844 408.451 146.546 408.451 147.293H406.059C406.049 146.846 405.949 146.427 405.758 146.035C405.576 145.634 405.325 145.283 405.006 144.982C404.687 144.682 404.304 144.445 403.857 144.271C403.42 144.098 402.946 144.012 402.436 144.012C401.652 144.012 400.991 144.171 400.453 144.49C399.924 144.8 399.496 145.21 399.168 145.721C398.84 146.222 398.603 146.787 398.457 147.416C398.32 148.045 398.252 148.678 398.252 149.316V149.891C398.252 150.538 398.32 151.18 398.457 151.818C398.603 152.447 398.835 153.017 399.154 153.527C399.482 154.029 399.911 154.439 400.439 154.758C400.977 155.068 401.643 155.223 402.436 155.223ZM417.379 150.096L415.52 151.887V157H412.977V136H415.52V148.852L417.174 147.074L422.027 142.207H425.104L419.115 148.373L426.02 157H422.807L417.379 150.096ZM436.301 157.273C435.262 157.273 434.305 157.096 433.43 156.74C432.564 156.385 431.821 155.888 431.201 155.25C430.581 154.612 430.098 153.855 429.752 152.98C429.406 152.105 429.232 151.153 429.232 150.123V149.549C429.232 148.355 429.424 147.288 429.807 146.35C430.189 145.402 430.695 144.604 431.324 143.957C431.962 143.301 432.682 142.799 433.484 142.453C434.296 142.107 435.125 141.934 435.973 141.934C437.039 141.934 437.969 142.12 438.762 142.494C439.564 142.859 440.229 143.369 440.758 144.025C441.286 144.673 441.678 145.438 441.934 146.322C442.198 147.206 442.33 148.163 442.33 149.193V150.328H431.762C431.789 151.003 431.917 151.636 432.145 152.229C432.382 152.821 432.701 153.34 433.102 153.787C433.512 154.225 433.999 154.571 434.564 154.826C435.13 155.081 435.754 155.209 436.438 155.209C437.34 155.209 438.142 155.027 438.844 154.662C439.546 154.298 440.129 153.814 440.594 153.213L442.139 154.416C441.893 154.79 441.583 155.15 441.209 155.496C440.844 155.833 440.421 156.134 439.938 156.398C439.454 156.663 438.908 156.872 438.297 157.027C437.686 157.191 437.021 157.273 436.301 157.273ZM435.973 144.012C435.462 144.012 434.979 144.107 434.523 144.299C434.068 144.481 433.658 144.755 433.293 145.119C432.928 145.475 432.618 145.917 432.363 146.445C432.117 146.965 431.944 147.566 431.844 148.25H439.801V148.059C439.773 147.566 439.678 147.079 439.514 146.596C439.359 146.113 439.126 145.68 438.816 145.297C438.507 144.914 438.115 144.604 437.641 144.367C437.176 144.13 436.62 144.012 435.973 144.012ZM448.852 142.207L449.029 144.395C449.567 143.629 450.228 143.032 451.012 142.604C451.796 142.166 452.671 141.943 453.637 141.934C454.411 141.934 455.113 142.043 455.742 142.262C456.38 142.48 456.923 142.822 457.369 143.287C457.816 143.752 458.158 144.344 458.395 145.064C458.641 145.775 458.764 146.623 458.764 147.607V157H456.234V147.662C456.234 147.006 456.161 146.45 456.016 145.994C455.87 145.538 455.651 145.169 455.359 144.887C455.077 144.604 454.726 144.399 454.307 144.271C453.896 144.144 453.423 144.08 452.885 144.08C452.037 144.08 451.29 144.294 450.643 144.723C450.005 145.142 449.494 145.698 449.111 146.391V157H446.582V142.207H448.852ZM462.92 149.48C462.92 148.378 463.057 147.366 463.33 146.445C463.613 145.516 464.009 144.718 464.52 144.053C465.039 143.387 465.663 142.868 466.393 142.494C467.122 142.12 467.938 141.934 468.84 141.934C469.724 141.934 470.494 142.084 471.15 142.385C471.816 142.676 472.39 143.105 472.873 143.67V136H475.402V157H473.078L472.969 155.441C472.477 156.043 471.889 156.499 471.205 156.809C470.521 157.118 469.724 157.273 468.812 157.273C467.919 157.273 467.108 157.082 466.379 156.699C465.659 156.316 465.044 155.788 464.533 155.113C464.023 154.439 463.626 153.646 463.344 152.734C463.061 151.814 462.92 150.825 462.92 149.768V149.48ZM465.449 149.768C465.449 150.488 465.527 151.171 465.682 151.818C465.837 152.465 466.074 153.035 466.393 153.527C466.721 154.02 467.135 154.411 467.637 154.703C468.138 154.986 468.74 155.127 469.441 155.127C469.87 155.127 470.257 155.077 470.604 154.977C470.95 154.876 471.264 154.735 471.547 154.553C471.829 154.361 472.08 154.138 472.299 153.883C472.518 153.618 472.709 153.327 472.873 153.008V146.145C472.545 145.543 472.103 145.051 471.547 144.668C470.991 144.276 470.298 144.08 469.469 144.08C468.758 144.08 468.147 144.226 467.637 144.518C467.135 144.809 466.721 145.206 466.393 145.707C466.074 146.199 465.837 146.773 465.682 147.43C465.527 148.077 465.449 148.76 465.449 149.48V149.768ZM503.621 148.879H499.643V157H497.127V137.094H502.965C503.895 137.112 504.77 137.244 505.59 137.49C506.41 137.736 507.126 138.105 507.736 138.598C508.356 139.09 508.839 139.71 509.186 140.457C509.541 141.195 509.719 142.066 509.719 143.068C509.719 143.715 509.623 144.308 509.432 144.846C509.249 145.383 508.994 145.871 508.666 146.309C508.338 146.746 507.946 147.133 507.49 147.471C507.035 147.808 506.533 148.095 505.986 148.332L510.211 156.836L510.197 157H507.531L503.621 148.879ZM499.643 146.801H503.033C503.598 146.792 504.132 146.705 504.633 146.541C505.134 146.368 505.572 146.122 505.945 145.803C506.328 145.484 506.629 145.096 506.848 144.641C507.066 144.176 507.176 143.643 507.176 143.041C507.176 142.403 507.071 141.847 506.861 141.373C506.652 140.89 506.36 140.489 505.986 140.17C505.613 139.842 505.166 139.596 504.646 139.432C504.136 139.268 503.576 139.181 502.965 139.172H499.643V146.801ZM524.799 147.799H516.486V154.854H526.18V157H513.957V137.094H526.057V139.254H516.486V145.652H524.799V147.799ZM541.082 151.969C541.082 151.358 540.941 150.843 540.658 150.424C540.385 150.005 540.029 149.654 539.592 149.371C539.154 149.079 538.671 148.838 538.143 148.646C537.623 148.455 537.122 148.282 536.639 148.127C535.937 147.899 535.221 147.626 534.492 147.307C533.772 146.988 533.111 146.596 532.51 146.131C531.917 145.666 531.43 145.119 531.047 144.49C530.673 143.852 530.486 143.105 530.486 142.248C530.486 141.391 530.673 140.626 531.047 139.951C531.43 139.277 531.926 138.707 532.537 138.242C533.148 137.777 533.84 137.426 534.615 137.189C535.39 136.943 536.169 136.82 536.953 136.82C537.819 136.82 538.653 136.966 539.455 137.258C540.257 137.54 540.968 137.941 541.588 138.461C542.208 138.98 542.704 139.609 543.078 140.348C543.452 141.086 543.648 141.911 543.666 142.822H541.068C540.995 142.248 540.854 141.729 540.645 141.264C540.435 140.79 540.157 140.384 539.811 140.047C539.464 139.71 539.049 139.45 538.566 139.268C538.092 139.076 537.555 138.98 536.953 138.98C536.47 138.98 535.996 139.049 535.531 139.186C535.076 139.322 534.665 139.527 534.301 139.801C533.945 140.074 533.658 140.411 533.439 140.812C533.23 141.214 533.125 141.678 533.125 142.207C533.134 142.781 533.28 143.269 533.562 143.67C533.845 144.062 534.201 144.395 534.629 144.668C535.066 144.941 535.536 145.169 536.037 145.352C536.548 145.534 537.026 145.693 537.473 145.83C537.965 145.985 538.462 146.163 538.963 146.363C539.464 146.555 539.947 146.778 540.412 147.033C540.877 147.288 541.31 147.576 541.711 147.895C542.112 148.214 542.463 148.578 542.764 148.988C543.064 149.389 543.297 149.836 543.461 150.328C543.634 150.811 543.721 151.349 543.721 151.941C543.721 152.835 543.52 153.614 543.119 154.279C542.727 154.945 542.217 155.501 541.588 155.947C540.959 156.385 540.248 156.717 539.455 156.945C538.662 157.164 537.869 157.273 537.076 157.273C536.192 157.273 535.326 157.137 534.479 156.863C533.631 156.59 532.87 156.198 532.195 155.688C531.53 155.168 530.988 154.539 530.568 153.801C530.149 153.053 529.926 152.206 529.898 151.258H532.482C532.564 151.878 532.733 152.429 532.988 152.912C533.243 153.386 533.572 153.792 533.973 154.129C534.374 154.457 534.834 154.708 535.354 154.881C535.882 155.045 536.456 155.127 537.076 155.127C537.568 155.127 538.051 155.068 538.525 154.949C539.008 154.822 539.437 154.63 539.811 154.375C540.184 154.111 540.49 153.783 540.727 153.391C540.964 152.99 541.082 152.516 541.082 151.969ZM560.906 139.254H554.754V157H552.293V139.254H546.141V137.094H560.906V139.254ZM590.615 151.846H583.971L582.371 157H579.842L586.268 137.094H588.387L594.703 157H592.188L590.615 151.846ZM584.654 149.645H589.945L587.32 141.004L584.654 149.645ZM600.691 149.016V157H598.162V137.094H604.615C605.508 137.112 606.352 137.253 607.145 137.518C607.947 137.782 608.648 138.165 609.25 138.666C609.852 139.167 610.326 139.787 610.672 140.525C611.027 141.264 611.205 142.111 611.205 143.068C611.205 144.025 611.027 144.873 610.672 145.611C610.326 146.34 609.852 146.956 609.25 147.457C608.648 147.958 607.947 148.341 607.145 148.605C606.352 148.87 605.508 149.007 604.615 149.016H600.691ZM600.691 146.938H604.615C605.199 146.928 605.736 146.837 606.229 146.664C606.721 146.482 607.149 146.227 607.514 145.898C607.878 145.57 608.161 145.174 608.361 144.709C608.571 144.235 608.676 143.697 608.676 143.096C608.676 142.494 608.571 141.952 608.361 141.469C608.161 140.986 607.878 140.576 607.514 140.238C607.158 139.901 606.73 139.641 606.229 139.459C605.736 139.277 605.199 139.181 604.615 139.172H600.691V146.938ZM614.746 137.094H626.777V139.295H622.006V154.812H626.777V157H614.746V154.812H619.408V139.295H614.746V137.094ZM641.393 153.076C641.393 152.775 641.333 152.507 641.215 152.27C641.096 152.023 640.896 151.8 640.613 151.6C640.331 151.399 639.957 151.217 639.492 151.053C639.027 150.88 638.449 150.725 637.756 150.588C636.908 150.415 636.133 150.205 635.432 149.959C634.739 149.713 634.142 149.421 633.641 149.084C633.148 148.738 632.766 148.337 632.492 147.881C632.219 147.416 632.082 146.878 632.082 146.268C632.082 145.666 632.223 145.105 632.506 144.586C632.788 144.057 633.185 143.597 633.695 143.205C634.206 142.813 634.812 142.503 635.514 142.275C636.225 142.048 637.004 141.934 637.852 141.934C638.763 141.934 639.583 142.052 640.312 142.289C641.042 142.526 641.661 142.854 642.172 143.273C642.682 143.693 643.074 144.185 643.348 144.75C643.63 145.306 643.771 145.908 643.771 146.555H641.242C641.242 146.236 641.16 145.926 640.996 145.625C640.832 145.315 640.604 145.042 640.312 144.805C640.021 144.568 639.665 144.376 639.246 144.23C638.836 144.085 638.371 144.012 637.852 144.012C637.314 144.012 636.84 144.071 636.43 144.189C636.029 144.308 635.691 144.467 635.418 144.668C635.154 144.868 634.953 145.101 634.816 145.365C634.68 145.63 634.611 145.903 634.611 146.186C634.611 146.477 634.666 146.737 634.775 146.965C634.885 147.193 635.072 147.398 635.336 147.58C635.609 147.762 635.969 147.926 636.416 148.072C636.872 148.218 637.446 148.359 638.139 148.496C639.05 148.688 639.866 148.911 640.586 149.166C641.306 149.412 641.912 149.713 642.404 150.068C642.896 150.415 643.27 150.82 643.525 151.285C643.79 151.75 643.922 152.288 643.922 152.898C643.922 153.555 643.771 154.152 643.471 154.689C643.179 155.227 642.769 155.688 642.24 156.07C641.712 156.453 641.078 156.749 640.34 156.959C639.602 157.169 638.795 157.273 637.92 157.273C636.917 157.273 636.024 157.141 635.24 156.877C634.456 156.604 633.791 156.248 633.244 155.811C632.706 155.364 632.292 154.849 632 154.266C631.717 153.682 631.576 153.076 631.576 152.447H634.105C634.142 152.967 634.279 153.404 634.516 153.76C634.762 154.115 635.062 154.402 635.418 154.621C635.783 154.84 636.184 154.995 636.621 155.086C637.059 155.177 637.492 155.223 637.92 155.223C638.986 155.223 639.829 155.027 640.449 154.635C641.069 154.243 641.383 153.723 641.393 153.076Z" fill="white"/>
<path d="M304.242 239.016V247H301.713V227.094H308.166C309.059 227.112 309.902 227.253 310.695 227.518C311.497 227.782 312.199 228.165 312.801 228.666C313.402 229.167 313.876 229.787 314.223 230.525C314.578 231.264 314.756 232.111 314.756 233.068C314.756 234.025 314.578 234.873 314.223 235.611C313.876 236.34 313.402 236.956 312.801 237.457C312.199 237.958 311.497 238.341 310.695 238.605C309.902 238.87 309.059 239.007 308.166 239.016H304.242ZM304.242 236.938H308.166C308.749 236.928 309.287 236.837 309.779 236.664C310.271 236.482 310.7 236.227 311.064 235.898C311.429 235.57 311.712 235.174 311.912 234.709C312.122 234.235 312.227 233.697 312.227 233.096C312.227 232.494 312.122 231.952 311.912 231.469C311.712 230.986 311.429 230.576 311.064 230.238C310.709 229.901 310.281 229.641 309.779 229.459C309.287 229.277 308.749 229.181 308.166 229.172H304.242V236.938ZM328.018 247C327.917 246.809 327.835 246.572 327.771 246.289C327.717 245.997 327.676 245.697 327.648 245.387C327.393 245.642 327.106 245.883 326.787 246.111C326.477 246.339 326.131 246.54 325.748 246.713C325.374 246.886 324.973 247.023 324.545 247.123C324.117 247.223 323.661 247.273 323.178 247.273C322.394 247.273 321.683 247.16 321.045 246.932C320.416 246.704 319.878 246.398 319.432 246.016C318.994 245.624 318.652 245.163 318.406 244.635C318.169 244.097 318.051 243.518 318.051 242.898C318.051 242.087 318.21 241.376 318.529 240.766C318.857 240.155 319.318 239.649 319.91 239.248C320.503 238.838 321.214 238.533 322.043 238.332C322.882 238.132 323.816 238.031 324.846 238.031H327.607V236.869C327.607 236.423 327.525 236.021 327.361 235.666C327.197 235.311 326.965 235.01 326.664 234.764C326.363 234.508 325.994 234.312 325.557 234.176C325.128 234.039 324.645 233.971 324.107 233.971C323.606 233.971 323.155 234.035 322.754 234.162C322.362 234.29 322.029 234.458 321.756 234.668C321.482 234.878 321.268 235.128 321.113 235.42C320.967 235.702 320.895 235.999 320.895 236.309H318.352C318.361 235.771 318.497 235.242 318.762 234.723C319.035 234.203 319.423 233.738 319.924 233.328C320.434 232.909 321.049 232.572 321.77 232.316C322.499 232.061 323.324 231.934 324.244 231.934C325.083 231.934 325.862 232.038 326.582 232.248C327.302 232.449 327.922 232.758 328.441 233.178C328.97 233.588 329.385 234.103 329.686 234.723C329.986 235.342 330.137 236.067 330.137 236.896V243.773C330.137 244.266 330.182 244.79 330.273 245.346C330.365 245.893 330.492 246.371 330.656 246.781V247H328.018ZM323.547 245.072C324.039 245.072 324.499 245.008 324.928 244.881C325.356 244.753 325.743 244.585 326.09 244.375C326.445 244.165 326.751 243.928 327.006 243.664C327.261 243.391 327.462 243.108 327.607 242.816V239.822H325.256C323.779 239.822 322.631 240.041 321.811 240.479C320.99 240.916 320.58 241.604 320.58 242.543C320.58 242.908 320.639 243.245 320.758 243.555C320.885 243.865 321.072 244.133 321.318 244.361C321.564 244.58 321.874 244.753 322.248 244.881C322.622 245.008 323.055 245.072 323.547 245.072ZM344.807 231.934C345.044 231.934 345.29 231.943 345.545 231.961C345.8 231.97 346.042 231.993 346.27 232.029C346.507 232.057 346.721 232.093 346.912 232.139C347.113 232.184 347.277 232.234 347.404 232.289L347.062 234.764C346.57 234.654 346.101 234.577 345.654 234.531C345.217 234.477 344.757 234.449 344.273 234.449C343.089 234.449 342.127 234.718 341.389 235.256C340.66 235.794 340.122 236.546 339.775 237.512V247H337.232V232.207H339.639L339.762 234.559C340.363 233.747 341.083 233.109 341.922 232.645C342.77 232.171 343.731 231.934 344.807 231.934ZM361.76 243.076C361.76 242.775 361.701 242.507 361.582 242.27C361.464 242.023 361.263 241.8 360.98 241.6C360.698 241.399 360.324 241.217 359.859 241.053C359.395 240.88 358.816 240.725 358.123 240.588C357.275 240.415 356.501 240.205 355.799 239.959C355.106 239.713 354.509 239.421 354.008 239.084C353.516 238.738 353.133 238.337 352.859 237.881C352.586 237.416 352.449 236.878 352.449 236.268C352.449 235.666 352.59 235.105 352.873 234.586C353.156 234.057 353.552 233.597 354.062 233.205C354.573 232.813 355.179 232.503 355.881 232.275C356.592 232.048 357.371 231.934 358.219 231.934C359.13 231.934 359.951 232.052 360.68 232.289C361.409 232.526 362.029 232.854 362.539 233.273C363.049 233.693 363.441 234.185 363.715 234.75C363.997 235.306 364.139 235.908 364.139 236.555H361.609C361.609 236.236 361.527 235.926 361.363 235.625C361.199 235.315 360.971 235.042 360.68 234.805C360.388 234.568 360.033 234.376 359.613 234.23C359.203 234.085 358.738 234.012 358.219 234.012C357.681 234.012 357.207 234.071 356.797 234.189C356.396 234.308 356.059 234.467 355.785 234.668C355.521 234.868 355.32 235.101 355.184 235.365C355.047 235.63 354.979 235.903 354.979 236.186C354.979 236.477 355.033 236.737 355.143 236.965C355.252 237.193 355.439 237.398 355.703 237.58C355.977 237.762 356.337 237.926 356.783 238.072C357.239 238.218 357.813 238.359 358.506 238.496C359.417 238.688 360.233 238.911 360.953 239.166C361.673 239.412 362.279 239.713 362.771 240.068C363.264 240.415 363.637 240.82 363.893 241.285C364.157 241.75 364.289 242.288 364.289 242.898C364.289 243.555 364.139 244.152 363.838 244.689C363.546 245.227 363.136 245.688 362.607 246.07C362.079 246.453 361.445 246.749 360.707 246.959C359.969 247.169 359.162 247.273 358.287 247.273C357.285 247.273 356.391 247.141 355.607 246.877C354.824 246.604 354.158 246.248 353.611 245.811C353.074 245.364 352.659 244.849 352.367 244.266C352.085 243.682 351.943 243.076 351.943 242.447H354.473C354.509 242.967 354.646 243.404 354.883 243.76C355.129 244.115 355.43 244.402 355.785 244.621C356.15 244.84 356.551 244.995 356.988 245.086C357.426 245.177 357.859 245.223 358.287 245.223C359.354 245.223 360.197 245.027 360.816 244.635C361.436 244.243 361.751 243.723 361.76 243.076ZM375.281 247.273C374.242 247.273 373.285 247.096 372.41 246.74C371.544 246.385 370.801 245.888 370.182 245.25C369.562 244.612 369.079 243.855 368.732 242.98C368.386 242.105 368.213 241.153 368.213 240.123V239.549C368.213 238.355 368.404 237.288 368.787 236.35C369.17 235.402 369.676 234.604 370.305 233.957C370.943 233.301 371.663 232.799 372.465 232.453C373.276 232.107 374.105 231.934 374.953 231.934C376.02 231.934 376.949 232.12 377.742 232.494C378.544 232.859 379.21 233.369 379.738 234.025C380.267 234.673 380.659 235.438 380.914 236.322C381.178 237.206 381.311 238.163 381.311 239.193V240.328H370.742C370.77 241.003 370.897 241.636 371.125 242.229C371.362 242.821 371.681 243.34 372.082 243.787C372.492 244.225 372.98 244.571 373.545 244.826C374.11 245.081 374.734 245.209 375.418 245.209C376.32 245.209 377.122 245.027 377.824 244.662C378.526 244.298 379.109 243.814 379.574 243.213L381.119 244.416C380.873 244.79 380.563 245.15 380.189 245.496C379.825 245.833 379.401 246.134 378.918 246.398C378.435 246.663 377.888 246.872 377.277 247.027C376.667 247.191 376.001 247.273 375.281 247.273ZM374.953 234.012C374.443 234.012 373.96 234.107 373.504 234.299C373.048 234.481 372.638 234.755 372.273 235.119C371.909 235.475 371.599 235.917 371.344 236.445C371.098 236.965 370.924 237.566 370.824 238.25H378.781V238.059C378.754 237.566 378.658 237.079 378.494 236.596C378.339 236.113 378.107 235.68 377.797 235.297C377.487 234.914 377.095 234.604 376.621 234.367C376.156 234.13 375.6 234.012 374.953 234.012ZM395.256 231.934C395.493 231.934 395.739 231.943 395.994 231.961C396.249 231.97 396.491 231.993 396.719 232.029C396.956 232.057 397.17 232.093 397.361 232.139C397.562 232.184 397.726 232.234 397.854 232.289L397.512 234.764C397.02 234.654 396.55 234.577 396.104 234.531C395.666 234.477 395.206 234.449 394.723 234.449C393.538 234.449 392.576 234.718 391.838 235.256C391.109 235.794 390.571 236.546 390.225 237.512V247H387.682V232.207H390.088L390.211 234.559C390.812 233.747 391.533 233.109 392.371 232.645C393.219 232.171 394.18 231.934 395.256 231.934Z" fill="white"/>
<path d="M228.734 359.969C228.734 359.358 228.593 358.843 228.311 358.424C228.037 358.005 227.682 357.654 227.244 357.371C226.807 357.079 226.324 356.838 225.795 356.646C225.275 356.455 224.774 356.282 224.291 356.127C223.589 355.899 222.874 355.626 222.145 355.307C221.424 354.988 220.764 354.596 220.162 354.131C219.57 353.666 219.082 353.119 218.699 352.49C218.326 351.852 218.139 351.105 218.139 350.248C218.139 349.391 218.326 348.626 218.699 347.951C219.082 347.277 219.579 346.707 220.189 346.242C220.8 345.777 221.493 345.426 222.268 345.189C223.042 344.943 223.822 344.82 224.605 344.82C225.471 344.82 226.305 344.966 227.107 345.258C227.91 345.54 228.62 345.941 229.24 346.461C229.86 346.98 230.357 347.609 230.73 348.348C231.104 349.086 231.3 349.911 231.318 350.822H228.721C228.648 350.248 228.507 349.729 228.297 349.264C228.087 348.79 227.809 348.384 227.463 348.047C227.117 347.71 226.702 347.45 226.219 347.268C225.745 347.076 225.207 346.98 224.605 346.98C224.122 346.98 223.648 347.049 223.184 347.186C222.728 347.322 222.318 347.527 221.953 347.801C221.598 348.074 221.311 348.411 221.092 348.812C220.882 349.214 220.777 349.678 220.777 350.207C220.786 350.781 220.932 351.269 221.215 351.67C221.497 352.062 221.853 352.395 222.281 352.668C222.719 352.941 223.188 353.169 223.689 353.352C224.2 353.534 224.678 353.693 225.125 353.83C225.617 353.985 226.114 354.163 226.615 354.363C227.117 354.555 227.6 354.778 228.064 355.033C228.529 355.288 228.962 355.576 229.363 355.895C229.764 356.214 230.115 356.578 230.416 356.988C230.717 357.389 230.949 357.836 231.113 358.328C231.286 358.811 231.373 359.349 231.373 359.941C231.373 360.835 231.173 361.614 230.771 362.279C230.38 362.945 229.869 363.501 229.24 363.947C228.611 364.385 227.9 364.717 227.107 364.945C226.314 365.164 225.521 365.273 224.729 365.273C223.844 365.273 222.979 365.137 222.131 364.863C221.283 364.59 220.522 364.198 219.848 363.688C219.182 363.168 218.64 362.539 218.221 361.801C217.801 361.053 217.578 360.206 217.551 359.258H220.135C220.217 359.878 220.385 360.429 220.641 360.912C220.896 361.386 221.224 361.792 221.625 362.129C222.026 362.457 222.486 362.708 223.006 362.881C223.535 363.045 224.109 363.127 224.729 363.127C225.221 363.127 225.704 363.068 226.178 362.949C226.661 362.822 227.089 362.63 227.463 362.375C227.837 362.111 228.142 361.783 228.379 361.391C228.616 360.99 228.734 360.516 228.734 359.969ZM237.662 352.408C238.191 351.633 238.842 351.032 239.617 350.604C240.392 350.166 241.262 349.943 242.229 349.934C243.003 349.934 243.705 350.048 244.334 350.275C244.972 350.494 245.514 350.84 245.961 351.314C246.408 351.788 246.749 352.39 246.986 353.119C247.232 353.839 247.355 354.696 247.355 355.689V365H244.826V355.662C244.826 354.45 244.535 353.548 243.951 352.955C243.377 352.363 242.552 352.071 241.477 352.08C240.665 352.08 239.927 352.281 239.262 352.682C238.605 353.074 238.072 353.598 237.662 354.254V365H235.133V344H237.662V352.408ZM261.67 365C261.57 364.809 261.488 364.572 261.424 364.289C261.369 363.997 261.328 363.697 261.301 363.387C261.046 363.642 260.758 363.883 260.439 364.111C260.13 364.339 259.783 364.54 259.4 364.713C259.027 364.886 258.626 365.023 258.197 365.123C257.769 365.223 257.313 365.273 256.83 365.273C256.046 365.273 255.335 365.16 254.697 364.932C254.068 364.704 253.531 364.398 253.084 364.016C252.646 363.624 252.305 363.163 252.059 362.635C251.822 362.097 251.703 361.518 251.703 360.898C251.703 360.087 251.863 359.376 252.182 358.766C252.51 358.155 252.97 357.649 253.562 357.248C254.155 356.838 254.866 356.533 255.695 356.332C256.534 356.132 257.468 356.031 258.498 356.031H261.26V354.869C261.26 354.423 261.178 354.021 261.014 353.666C260.85 353.311 260.617 353.01 260.316 352.764C260.016 352.508 259.646 352.312 259.209 352.176C258.781 352.039 258.298 351.971 257.76 351.971C257.258 351.971 256.807 352.035 256.406 352.162C256.014 352.29 255.682 352.458 255.408 352.668C255.135 352.878 254.921 353.128 254.766 353.42C254.62 353.702 254.547 353.999 254.547 354.309H252.004C252.013 353.771 252.15 353.242 252.414 352.723C252.688 352.203 253.075 351.738 253.576 351.328C254.087 350.909 254.702 350.572 255.422 350.316C256.151 350.061 256.976 349.934 257.896 349.934C258.735 349.934 259.514 350.038 260.234 350.248C260.954 350.449 261.574 350.758 262.094 351.178C262.622 351.588 263.037 352.103 263.338 352.723C263.639 353.342 263.789 354.067 263.789 354.896V361.773C263.789 362.266 263.835 362.79 263.926 363.346C264.017 363.893 264.145 364.371 264.309 364.781V365H261.67ZM257.199 363.072C257.691 363.072 258.152 363.008 258.58 362.881C259.008 362.753 259.396 362.585 259.742 362.375C260.098 362.165 260.403 361.928 260.658 361.664C260.913 361.391 261.114 361.108 261.26 360.816V357.822H258.908C257.432 357.822 256.283 358.041 255.463 358.479C254.643 358.916 254.232 359.604 254.232 360.543C254.232 360.908 254.292 361.245 254.41 361.555C254.538 361.865 254.725 362.133 254.971 362.361C255.217 362.58 255.527 362.753 255.9 362.881C256.274 363.008 256.707 363.072 257.199 363.072ZM278.459 349.934C278.696 349.934 278.942 349.943 279.197 349.961C279.452 349.97 279.694 349.993 279.922 350.029C280.159 350.057 280.373 350.093 280.564 350.139C280.765 350.184 280.929 350.234 281.057 350.289L280.715 352.764C280.223 352.654 279.753 352.577 279.307 352.531C278.869 352.477 278.409 352.449 277.926 352.449C276.741 352.449 275.779 352.718 275.041 353.256C274.312 353.794 273.774 354.546 273.428 355.512V365H270.885V350.207H273.291L273.414 352.559C274.016 351.747 274.736 351.109 275.574 350.645C276.422 350.171 277.383 349.934 278.459 349.934ZM285.104 357.48C285.104 356.378 285.24 355.366 285.514 354.445C285.796 353.516 286.193 352.718 286.703 352.053C287.223 351.387 287.847 350.868 288.576 350.494C289.305 350.12 290.121 349.934 291.023 349.934C291.908 349.934 292.678 350.084 293.334 350.385C293.999 350.676 294.574 351.105 295.057 351.67V344H297.586V365H295.262L295.152 363.441C294.66 364.043 294.072 364.499 293.389 364.809C292.705 365.118 291.908 365.273 290.996 365.273C290.103 365.273 289.292 365.082 288.562 364.699C287.842 364.316 287.227 363.788 286.717 363.113C286.206 362.439 285.81 361.646 285.527 360.734C285.245 359.814 285.104 358.825 285.104 357.768V357.48ZM287.633 357.768C287.633 358.488 287.71 359.171 287.865 359.818C288.02 360.465 288.257 361.035 288.576 361.527C288.904 362.02 289.319 362.411 289.82 362.703C290.322 362.986 290.923 363.127 291.625 363.127C292.053 363.127 292.441 363.077 292.787 362.977C293.133 362.876 293.448 362.735 293.73 362.553C294.013 362.361 294.264 362.138 294.482 361.883C294.701 361.618 294.893 361.327 295.057 361.008V354.145C294.729 353.543 294.286 353.051 293.73 352.668C293.174 352.276 292.482 352.08 291.652 352.08C290.941 352.08 290.331 352.226 289.82 352.518C289.319 352.809 288.904 353.206 288.576 353.707C288.257 354.199 288.02 354.773 287.865 355.43C287.71 356.077 287.633 356.76 287.633 357.48V357.768ZM308.934 365.273C307.895 365.273 306.938 365.096 306.062 364.74C305.197 364.385 304.454 363.888 303.834 363.25C303.214 362.612 302.731 361.855 302.385 360.98C302.038 360.105 301.865 359.153 301.865 358.123V357.549C301.865 356.355 302.057 355.288 302.439 354.35C302.822 353.402 303.328 352.604 303.957 351.957C304.595 351.301 305.315 350.799 306.117 350.453C306.928 350.107 307.758 349.934 308.605 349.934C309.672 349.934 310.602 350.12 311.395 350.494C312.197 350.859 312.862 351.369 313.391 352.025C313.919 352.673 314.311 353.438 314.566 354.322C314.831 355.206 314.963 356.163 314.963 357.193V358.328H304.395C304.422 359.003 304.549 359.636 304.777 360.229C305.014 360.821 305.333 361.34 305.734 361.787C306.145 362.225 306.632 362.571 307.197 362.826C307.762 363.081 308.387 363.209 309.07 363.209C309.973 363.209 310.775 363.027 311.477 362.662C312.178 362.298 312.762 361.814 313.227 361.213L314.771 362.416C314.525 362.79 314.215 363.15 313.842 363.496C313.477 363.833 313.053 364.134 312.57 364.398C312.087 364.663 311.54 364.872 310.93 365.027C310.319 365.191 309.654 365.273 308.934 365.273ZM308.605 352.012C308.095 352.012 307.612 352.107 307.156 352.299C306.701 352.481 306.29 352.755 305.926 353.119C305.561 353.475 305.251 353.917 304.996 354.445C304.75 354.965 304.577 355.566 304.477 356.25H312.434V356.059C312.406 355.566 312.311 355.079 312.146 354.596C311.992 354.113 311.759 353.68 311.449 353.297C311.139 352.914 310.747 352.604 310.273 352.367C309.809 352.13 309.253 352.012 308.605 352.012ZM318.736 357.48C318.736 356.378 318.873 355.366 319.146 354.445C319.429 353.516 319.826 352.718 320.336 352.053C320.855 351.387 321.48 350.868 322.209 350.494C322.938 350.12 323.754 349.934 324.656 349.934C325.54 349.934 326.311 350.084 326.967 350.385C327.632 350.676 328.206 351.105 328.689 351.67V344H331.219V365H328.895L328.785 363.441C328.293 364.043 327.705 364.499 327.021 364.809C326.338 365.118 325.54 365.273 324.629 365.273C323.736 365.273 322.924 365.082 322.195 364.699C321.475 364.316 320.86 363.788 320.35 363.113C319.839 362.439 319.443 361.646 319.16 360.734C318.878 359.814 318.736 358.825 318.736 357.768V357.48ZM321.266 357.768C321.266 358.488 321.343 359.171 321.498 359.818C321.653 360.465 321.89 361.035 322.209 361.527C322.537 362.02 322.952 362.411 323.453 362.703C323.954 362.986 324.556 363.127 325.258 363.127C325.686 363.127 326.074 363.077 326.42 362.977C326.766 362.876 327.081 362.735 327.363 362.553C327.646 362.361 327.896 362.138 328.115 361.883C328.334 361.618 328.525 361.327 328.689 361.008V354.145C328.361 353.543 327.919 353.051 327.363 352.668C326.807 352.276 326.115 352.08 325.285 352.08C324.574 352.08 323.964 352.226 323.453 352.518C322.952 352.809 322.537 353.206 322.209 353.707C321.89 354.199 321.653 354.773 321.498 355.43C321.343 356.077 321.266 356.76 321.266 357.48V357.768ZM352.588 365V345.094H357.195C358.581 345.112 359.816 345.349 360.9 345.805C361.994 346.251 362.915 346.88 363.662 347.691C364.419 348.493 364.993 349.46 365.385 350.59C365.786 351.711 365.991 352.955 366 354.322V355.785C365.991 357.152 365.786 358.401 365.385 359.531C364.993 360.652 364.419 361.618 363.662 362.43C362.915 363.232 361.994 363.861 360.9 364.316C359.816 364.763 358.581 364.991 357.195 365H352.588ZM355.158 347.172V362.936H357.195C358.271 362.926 359.201 362.74 359.984 362.375C360.768 362.001 361.415 361.495 361.926 360.857C362.445 360.219 362.828 359.467 363.074 358.602C363.329 357.736 363.462 356.797 363.471 355.785V354.295C363.462 353.283 363.329 352.349 363.074 351.492C362.819 350.626 362.436 349.879 361.926 349.25C361.415 348.612 360.768 348.111 359.984 347.746C359.201 347.382 358.271 347.19 357.195 347.172H355.158ZM379.385 365C379.285 364.809 379.202 364.572 379.139 364.289C379.084 363.997 379.043 363.697 379.016 363.387C378.76 363.642 378.473 363.883 378.154 364.111C377.844 364.339 377.498 364.54 377.115 364.713C376.742 364.886 376.34 365.023 375.912 365.123C375.484 365.223 375.028 365.273 374.545 365.273C373.761 365.273 373.05 365.16 372.412 364.932C371.783 364.704 371.245 364.398 370.799 364.016C370.361 363.624 370.02 363.163 369.773 362.635C369.536 362.097 369.418 361.518 369.418 360.898C369.418 360.087 369.577 359.376 369.896 358.766C370.225 358.155 370.685 357.649 371.277 357.248C371.87 356.838 372.581 356.533 373.41 356.332C374.249 356.132 375.183 356.031 376.213 356.031H378.975V354.869C378.975 354.423 378.893 354.021 378.729 353.666C378.564 353.311 378.332 353.01 378.031 352.764C377.73 352.508 377.361 352.312 376.924 352.176C376.495 352.039 376.012 351.971 375.475 351.971C374.973 351.971 374.522 352.035 374.121 352.162C373.729 352.29 373.396 352.458 373.123 352.668C372.85 352.878 372.635 353.128 372.48 353.42C372.335 353.702 372.262 353.999 372.262 354.309H369.719C369.728 353.771 369.865 353.242 370.129 352.723C370.402 352.203 370.79 351.738 371.291 351.328C371.801 350.909 372.417 350.572 373.137 350.316C373.866 350.061 374.691 349.934 375.611 349.934C376.45 349.934 377.229 350.038 377.949 350.248C378.669 350.449 379.289 350.758 379.809 351.178C380.337 351.588 380.752 352.103 381.053 352.723C381.354 353.342 381.504 354.067 381.504 354.896V361.773C381.504 362.266 381.549 362.79 381.641 363.346C381.732 363.893 381.859 364.371 382.023 364.781V365H379.385ZM374.914 363.072C375.406 363.072 375.867 363.008 376.295 362.881C376.723 362.753 377.111 362.585 377.457 362.375C377.812 362.165 378.118 361.928 378.373 361.664C378.628 361.391 378.829 361.108 378.975 360.816V357.822H376.623C375.146 357.822 373.998 358.041 373.178 358.479C372.357 358.916 371.947 359.604 371.947 360.543C371.947 360.908 372.007 361.245 372.125 361.555C372.253 361.865 372.439 362.133 372.686 362.361C372.932 362.58 373.242 362.753 373.615 362.881C373.989 363.008 374.422 363.072 374.914 363.072ZM392.469 346.625V350.207H398.102V352.162H392.469V360.201C392.469 360.775 392.542 361.249 392.688 361.623C392.833 361.997 393.034 362.298 393.289 362.525C393.544 362.744 393.836 362.899 394.164 362.99C394.501 363.081 394.857 363.127 395.23 363.127C395.504 363.127 395.786 363.113 396.078 363.086C396.37 363.049 396.652 363.008 396.926 362.963C397.208 362.917 397.468 362.872 397.705 362.826C397.951 362.771 398.152 362.726 398.307 362.689L398.662 364.48C398.452 364.608 398.197 364.722 397.896 364.822C397.596 364.913 397.268 364.991 396.912 365.055C396.557 365.128 396.178 365.182 395.777 365.219C395.385 365.255 394.993 365.273 394.602 365.273C393.945 365.273 393.33 365.182 392.756 365C392.191 364.809 391.699 364.512 391.279 364.111C390.86 363.701 390.527 363.177 390.281 362.539C390.044 361.892 389.926 361.113 389.926 360.201V352.162H386.043V350.207H389.926V346.625H392.469ZM413.018 365C412.917 364.809 412.835 364.572 412.771 364.289C412.717 363.997 412.676 363.697 412.648 363.387C412.393 363.642 412.106 363.883 411.787 364.111C411.477 364.339 411.131 364.54 410.748 364.713C410.374 364.886 409.973 365.023 409.545 365.123C409.117 365.223 408.661 365.273 408.178 365.273C407.394 365.273 406.683 365.16 406.045 364.932C405.416 364.704 404.878 364.398 404.432 364.016C403.994 363.624 403.652 363.163 403.406 362.635C403.169 362.097 403.051 361.518 403.051 360.898C403.051 360.087 403.21 359.376 403.529 358.766C403.857 358.155 404.318 357.649 404.91 357.248C405.503 356.838 406.214 356.533 407.043 356.332C407.882 356.132 408.816 356.031 409.846 356.031H412.607V354.869C412.607 354.423 412.525 354.021 412.361 353.666C412.197 353.311 411.965 353.01 411.664 352.764C411.363 352.508 410.994 352.312 410.557 352.176C410.128 352.039 409.645 351.971 409.107 351.971C408.606 351.971 408.155 352.035 407.754 352.162C407.362 352.29 407.029 352.458 406.756 352.668C406.482 352.878 406.268 353.128 406.113 353.42C405.967 353.702 405.895 353.999 405.895 354.309H403.352C403.361 353.771 403.497 353.242 403.762 352.723C404.035 352.203 404.423 351.738 404.924 351.328C405.434 350.909 406.049 350.572 406.77 350.316C407.499 350.061 408.324 349.934 409.244 349.934C410.083 349.934 410.862 350.038 411.582 350.248C412.302 350.449 412.922 350.758 413.441 351.178C413.97 351.588 414.385 352.103 414.686 352.723C414.986 353.342 415.137 354.067 415.137 354.896V361.773C415.137 362.266 415.182 362.79 415.273 363.346C415.365 363.893 415.492 364.371 415.656 364.781V365H413.018ZM408.547 363.072C409.039 363.072 409.499 363.008 409.928 362.881C410.356 362.753 410.743 362.585 411.09 362.375C411.445 362.165 411.751 361.928 412.006 361.664C412.261 361.391 412.462 361.108 412.607 360.816V357.822H410.256C408.779 357.822 407.631 358.041 406.811 358.479C405.99 358.916 405.58 359.604 405.58 360.543C405.58 360.908 405.639 361.245 405.758 361.555C405.885 361.865 406.072 362.133 406.318 362.361C406.564 362.58 406.874 362.753 407.248 362.881C407.622 363.008 408.055 363.072 408.547 363.072ZM432.65 357.768C432.65 358.825 432.523 359.814 432.268 360.734C432.012 361.646 431.639 362.439 431.146 363.113C430.654 363.788 430.044 364.316 429.314 364.699C428.594 365.082 427.765 365.273 426.826 365.273C425.878 365.273 425.053 365.105 424.352 364.768C423.659 364.43 423.066 363.947 422.574 363.318L422.451 365H420.127V344H422.656V351.793C423.139 351.191 423.723 350.731 424.406 350.412C425.09 350.093 425.887 349.934 426.799 349.934C427.747 349.934 428.585 350.12 429.314 350.494C430.044 350.868 430.654 351.387 431.146 352.053C431.639 352.718 432.012 353.516 432.268 354.445C432.523 355.366 432.65 356.378 432.65 357.48V357.768ZM430.121 357.48C430.121 356.76 430.048 356.077 429.902 355.43C429.766 354.773 429.542 354.199 429.232 353.707C428.923 353.206 428.517 352.809 428.016 352.518C427.514 352.226 426.899 352.08 426.17 352.08C425.732 352.08 425.331 352.139 424.967 352.258C424.602 352.367 424.274 352.527 423.982 352.736C423.7 352.937 423.445 353.178 423.217 353.461C422.998 353.734 422.811 354.035 422.656 354.363V360.83C422.82 361.158 423.012 361.464 423.23 361.746C423.458 362.02 423.718 362.261 424.01 362.471C424.301 362.68 424.63 362.844 424.994 362.963C425.359 363.072 425.76 363.127 426.197 363.127C426.89 363.127 427.482 362.986 427.975 362.703C428.476 362.411 428.882 362.02 429.191 361.527C429.51 361.035 429.743 360.465 429.889 359.818C430.044 359.171 430.121 358.488 430.121 357.768V357.48ZM446.65 365C446.55 364.809 446.468 364.572 446.404 364.289C446.35 363.997 446.309 363.697 446.281 363.387C446.026 363.642 445.739 363.883 445.42 364.111C445.11 364.339 444.764 364.54 444.381 364.713C444.007 364.886 443.606 365.023 443.178 365.123C442.749 365.223 442.294 365.273 441.811 365.273C441.027 365.273 440.316 365.16 439.678 364.932C439.049 364.704 438.511 364.398 438.064 364.016C437.627 363.624 437.285 363.163 437.039 362.635C436.802 362.097 436.684 361.518 436.684 360.898C436.684 360.087 436.843 359.376 437.162 358.766C437.49 358.155 437.951 357.649 438.543 357.248C439.135 356.838 439.846 356.533 440.676 356.332C441.514 356.132 442.449 356.031 443.479 356.031H446.24V354.869C446.24 354.423 446.158 354.021 445.994 353.666C445.83 353.311 445.598 353.01 445.297 352.764C444.996 352.508 444.627 352.312 444.189 352.176C443.761 352.039 443.278 351.971 442.74 351.971C442.239 351.971 441.788 352.035 441.387 352.162C440.995 352.29 440.662 352.458 440.389 352.668C440.115 352.878 439.901 353.128 439.746 353.42C439.6 353.702 439.527 353.999 439.527 354.309H436.984C436.993 353.771 437.13 353.242 437.395 352.723C437.668 352.203 438.055 351.738 438.557 351.328C439.067 350.909 439.682 350.572 440.402 350.316C441.132 350.061 441.956 349.934 442.877 349.934C443.715 349.934 444.495 350.038 445.215 350.248C445.935 350.449 446.555 350.758 447.074 351.178C447.603 351.588 448.018 352.103 448.318 352.723C448.619 353.342 448.77 354.067 448.77 354.896V361.773C448.77 362.266 448.815 362.79 448.906 363.346C448.997 363.893 449.125 364.371 449.289 364.781V365H446.65ZM442.18 363.072C442.672 363.072 443.132 363.008 443.561 362.881C443.989 362.753 444.376 362.585 444.723 362.375C445.078 362.165 445.383 361.928 445.639 361.664C445.894 361.391 446.094 361.108 446.24 360.816V357.822H443.889C442.412 357.822 441.264 358.041 440.443 358.479C439.623 358.916 439.213 359.604 439.213 360.543C439.213 360.908 439.272 361.245 439.391 361.555C439.518 361.865 439.705 362.133 439.951 362.361C440.197 362.58 440.507 362.753 440.881 362.881C441.255 363.008 441.688 363.072 442.18 363.072ZM463.576 361.076C463.576 360.775 463.517 360.507 463.398 360.27C463.28 360.023 463.079 359.8 462.797 359.6C462.514 359.399 462.141 359.217 461.676 359.053C461.211 358.88 460.632 358.725 459.939 358.588C459.092 358.415 458.317 358.205 457.615 357.959C456.923 357.713 456.326 357.421 455.824 357.084C455.332 356.738 454.949 356.337 454.676 355.881C454.402 355.416 454.266 354.878 454.266 354.268C454.266 353.666 454.407 353.105 454.689 352.586C454.972 352.057 455.368 351.597 455.879 351.205C456.389 350.813 456.995 350.503 457.697 350.275C458.408 350.048 459.188 349.934 460.035 349.934C460.947 349.934 461.767 350.052 462.496 350.289C463.225 350.526 463.845 350.854 464.355 351.273C464.866 351.693 465.258 352.185 465.531 352.75C465.814 353.306 465.955 353.908 465.955 354.555H463.426C463.426 354.236 463.344 353.926 463.18 353.625C463.016 353.315 462.788 353.042 462.496 352.805C462.204 352.568 461.849 352.376 461.43 352.23C461.02 352.085 460.555 352.012 460.035 352.012C459.497 352.012 459.023 352.071 458.613 352.189C458.212 352.308 457.875 352.467 457.602 352.668C457.337 352.868 457.137 353.101 457 353.365C456.863 353.63 456.795 353.903 456.795 354.186C456.795 354.477 456.85 354.737 456.959 354.965C457.068 355.193 457.255 355.398 457.52 355.58C457.793 355.762 458.153 355.926 458.6 356.072C459.055 356.218 459.63 356.359 460.322 356.496C461.234 356.688 462.049 356.911 462.77 357.166C463.49 357.412 464.096 357.713 464.588 358.068C465.08 358.415 465.454 358.82 465.709 359.285C465.973 359.75 466.105 360.288 466.105 360.898C466.105 361.555 465.955 362.152 465.654 362.689C465.363 363.227 464.952 363.688 464.424 364.07C463.895 364.453 463.262 364.749 462.523 364.959C461.785 365.169 460.979 365.273 460.104 365.273C459.101 365.273 458.208 365.141 457.424 364.877C456.64 364.604 455.975 364.248 455.428 363.811C454.89 363.364 454.475 362.849 454.184 362.266C453.901 361.682 453.76 361.076 453.76 360.447H456.289C456.326 360.967 456.462 361.404 456.699 361.76C456.945 362.115 457.246 362.402 457.602 362.621C457.966 362.84 458.367 362.995 458.805 363.086C459.242 363.177 459.675 363.223 460.104 363.223C461.17 363.223 462.013 363.027 462.633 362.635C463.253 362.243 463.567 361.723 463.576 361.076ZM477.098 365.273C476.059 365.273 475.102 365.096 474.227 364.74C473.361 364.385 472.618 363.888 471.998 363.25C471.378 362.612 470.895 361.855 470.549 360.98C470.202 360.105 470.029 359.153 470.029 358.123V357.549C470.029 356.355 470.221 355.288 470.604 354.35C470.986 353.402 471.492 352.604 472.121 351.957C472.759 351.301 473.479 350.799 474.281 350.453C475.092 350.107 475.922 349.934 476.77 349.934C477.836 349.934 478.766 350.12 479.559 350.494C480.361 350.859 481.026 351.369 481.555 352.025C482.083 352.673 482.475 353.438 482.73 354.322C482.995 355.206 483.127 356.163 483.127 357.193V358.328H472.559C472.586 359.003 472.714 359.636 472.941 360.229C473.178 360.821 473.497 361.34 473.898 361.787C474.309 362.225 474.796 362.571 475.361 362.826C475.926 363.081 476.551 363.209 477.234 363.209C478.137 363.209 478.939 363.027 479.641 362.662C480.342 362.298 480.926 361.814 481.391 361.213L482.936 362.416C482.689 362.79 482.38 363.15 482.006 363.496C481.641 363.833 481.217 364.134 480.734 364.398C480.251 364.663 479.704 364.872 479.094 365.027C478.483 365.191 477.818 365.273 477.098 365.273ZM476.77 352.012C476.259 352.012 475.776 352.107 475.32 352.299C474.865 352.481 474.454 352.755 474.09 353.119C473.725 353.475 473.415 353.917 473.16 354.445C472.914 354.965 472.741 355.566 472.641 356.25H480.598V356.059C480.57 355.566 480.475 355.079 480.311 354.596C480.156 354.113 479.923 353.68 479.613 353.297C479.303 352.914 478.911 352.604 478.438 352.367C477.973 352.13 477.417 352.012 476.77 352.012Z" fill="white"/>
<path d="M414.527 498.016V506H411.998V486.094H418.451C419.344 486.112 420.188 486.253 420.98 486.518C421.783 486.782 422.484 487.165 423.086 487.666C423.688 488.167 424.161 488.787 424.508 489.525C424.863 490.264 425.041 491.111 425.041 492.068C425.041 493.025 424.863 493.873 424.508 494.611C424.161 495.34 423.688 495.956 423.086 496.457C422.484 496.958 421.783 497.341 420.98 497.605C420.188 497.87 419.344 498.007 418.451 498.016H414.527ZM414.527 495.938H418.451C419.035 495.928 419.572 495.837 420.064 495.664C420.557 495.482 420.985 495.227 421.35 494.898C421.714 494.57 421.997 494.174 422.197 493.709C422.407 493.235 422.512 492.697 422.512 492.096C422.512 491.494 422.407 490.952 422.197 490.469C421.997 489.986 421.714 489.576 421.35 489.238C420.994 488.901 420.566 488.641 420.064 488.459C419.572 488.277 419.035 488.181 418.451 488.172H414.527V495.938ZM438.275 490.934C438.512 490.934 438.758 490.943 439.014 490.961C439.269 490.97 439.51 490.993 439.738 491.029C439.975 491.057 440.189 491.093 440.381 491.139C440.581 491.184 440.745 491.234 440.873 491.289L440.531 493.764C440.039 493.654 439.57 493.577 439.123 493.531C438.686 493.477 438.225 493.449 437.742 493.449C436.557 493.449 435.596 493.718 434.857 494.256C434.128 494.794 433.59 495.546 433.244 496.512V506H430.701V491.207H433.107L433.23 493.559C433.832 492.747 434.552 492.109 435.391 491.645C436.238 491.171 437.2 490.934 438.275 490.934ZM445.795 491.207H453.355V503.812H458.182V506H445.795V503.812H450.826V493.408H445.795V491.207ZM450.498 487.324C450.498 486.905 450.621 486.554 450.867 486.271C451.122 485.98 451.505 485.834 452.016 485.834C452.517 485.834 452.895 485.98 453.15 486.271C453.406 486.554 453.533 486.905 453.533 487.324C453.533 487.734 453.406 488.076 453.15 488.35C452.895 488.623 452.517 488.76 452.016 488.76C451.505 488.76 451.122 488.623 450.867 488.35C450.621 488.076 450.498 487.734 450.498 487.324ZM468.012 502.363L468.244 503.279L468.49 502.363L472.633 491.207H475.217L469.188 506H467.26L461.176 491.207H463.773L468.012 502.363ZM488.752 506C488.652 505.809 488.57 505.572 488.506 505.289C488.451 504.997 488.41 504.697 488.383 504.387C488.128 504.642 487.84 504.883 487.521 505.111C487.212 505.339 486.865 505.54 486.482 505.713C486.109 505.886 485.708 506.023 485.279 506.123C484.851 506.223 484.395 506.273 483.912 506.273C483.128 506.273 482.417 506.16 481.779 505.932C481.15 505.704 480.613 505.398 480.166 505.016C479.729 504.624 479.387 504.163 479.141 503.635C478.904 503.097 478.785 502.518 478.785 501.898C478.785 501.087 478.945 500.376 479.264 499.766C479.592 499.155 480.052 498.649 480.645 498.248C481.237 497.838 481.948 497.533 482.777 497.332C483.616 497.132 484.55 497.031 485.58 497.031H488.342V495.869C488.342 495.423 488.26 495.021 488.096 494.666C487.932 494.311 487.699 494.01 487.398 493.764C487.098 493.508 486.729 493.312 486.291 493.176C485.863 493.039 485.38 492.971 484.842 492.971C484.34 492.971 483.889 493.035 483.488 493.162C483.096 493.29 482.764 493.458 482.49 493.668C482.217 493.878 482.003 494.128 481.848 494.42C481.702 494.702 481.629 494.999 481.629 495.309H479.086C479.095 494.771 479.232 494.242 479.496 493.723C479.77 493.203 480.157 492.738 480.658 492.328C481.169 491.909 481.784 491.572 482.504 491.316C483.233 491.061 484.058 490.934 484.979 490.934C485.817 490.934 486.596 491.038 487.316 491.248C488.036 491.449 488.656 491.758 489.176 492.178C489.704 492.588 490.119 493.103 490.42 493.723C490.721 494.342 490.871 495.067 490.871 495.896V502.773C490.871 503.266 490.917 503.79 491.008 504.346C491.099 504.893 491.227 505.371 491.391 505.781V506H488.752ZM484.281 504.072C484.773 504.072 485.234 504.008 485.662 503.881C486.09 503.753 486.478 503.585 486.824 503.375C487.18 503.165 487.485 502.928 487.74 502.664C487.995 502.391 488.196 502.108 488.342 501.816V498.822H485.99C484.514 498.822 483.365 499.041 482.545 499.479C481.725 499.916 481.314 500.604 481.314 501.543C481.314 501.908 481.374 502.245 481.492 502.555C481.62 502.865 481.807 503.133 482.053 503.361C482.299 503.58 482.609 503.753 482.982 503.881C483.356 504.008 483.789 504.072 484.281 504.072ZM501.836 487.625V491.207H507.469V493.162H501.836V501.201C501.836 501.775 501.909 502.249 502.055 502.623C502.201 502.997 502.401 503.298 502.656 503.525C502.911 503.744 503.203 503.899 503.531 503.99C503.868 504.081 504.224 504.127 504.598 504.127C504.871 504.127 505.154 504.113 505.445 504.086C505.737 504.049 506.02 504.008 506.293 503.963C506.576 503.917 506.835 503.872 507.072 503.826C507.318 503.771 507.519 503.726 507.674 503.689L508.029 505.48C507.82 505.608 507.564 505.722 507.264 505.822C506.963 505.913 506.635 505.991 506.279 506.055C505.924 506.128 505.546 506.182 505.145 506.219C504.753 506.255 504.361 506.273 503.969 506.273C503.312 506.273 502.697 506.182 502.123 506C501.558 505.809 501.066 505.512 500.646 505.111C500.227 504.701 499.895 504.177 499.648 503.539C499.411 502.892 499.293 502.113 499.293 501.201V493.162H495.41V491.207H499.293V487.625H501.836ZM519.199 506.273C518.16 506.273 517.203 506.096 516.328 505.74C515.462 505.385 514.719 504.888 514.1 504.25C513.48 503.612 512.997 502.855 512.65 501.98C512.304 501.105 512.131 500.153 512.131 499.123V498.549C512.131 497.355 512.322 496.288 512.705 495.35C513.088 494.402 513.594 493.604 514.223 492.957C514.861 492.301 515.581 491.799 516.383 491.453C517.194 491.107 518.023 490.934 518.871 490.934C519.938 490.934 520.867 491.12 521.66 491.494C522.462 491.859 523.128 492.369 523.656 493.025C524.185 493.673 524.577 494.438 524.832 495.322C525.096 496.206 525.229 497.163 525.229 498.193V499.328H514.66C514.688 500.003 514.815 500.636 515.043 501.229C515.28 501.821 515.599 502.34 516 502.787C516.41 503.225 516.898 503.571 517.463 503.826C518.028 504.081 518.652 504.209 519.336 504.209C520.238 504.209 521.04 504.027 521.742 503.662C522.444 503.298 523.027 502.814 523.492 502.213L525.037 503.416C524.791 503.79 524.481 504.15 524.107 504.496C523.743 504.833 523.319 505.134 522.836 505.398C522.353 505.663 521.806 505.872 521.195 506.027C520.585 506.191 519.919 506.273 519.199 506.273ZM518.871 493.012C518.361 493.012 517.878 493.107 517.422 493.299C516.966 493.481 516.556 493.755 516.191 494.119C515.827 494.475 515.517 494.917 515.262 495.445C515.016 495.965 514.842 496.566 514.742 497.25H522.699V497.059C522.672 496.566 522.576 496.079 522.412 495.596C522.257 495.113 522.025 494.68 521.715 494.297C521.405 493.914 521.013 493.604 520.539 493.367C520.074 493.13 519.518 493.012 518.871 493.012ZM559.189 500.012C559.071 500.932 558.834 501.78 558.479 502.555C558.123 503.32 557.658 503.981 557.084 504.537C556.519 505.084 555.844 505.512 555.061 505.822C554.286 506.123 553.42 506.273 552.463 506.273C551.643 506.273 550.895 506.16 550.221 505.932C549.555 505.695 548.958 505.371 548.43 504.961C547.91 504.551 547.459 504.068 547.076 503.512C546.702 502.956 546.388 502.35 546.133 501.693C545.887 501.037 545.7 500.349 545.572 499.629C545.454 498.909 545.39 498.18 545.381 497.441V494.666C545.39 493.928 545.454 493.199 545.572 492.479C545.7 491.758 545.887 491.07 546.133 490.414C546.388 489.758 546.702 489.152 547.076 488.596C547.459 488.031 547.91 487.543 548.43 487.133C548.958 486.723 549.555 486.404 550.221 486.176C550.886 485.939 551.633 485.82 552.463 485.82C553.456 485.82 554.345 485.975 555.129 486.285C555.913 486.586 556.587 487.019 557.152 487.584C557.717 488.14 558.169 488.81 558.506 489.594C558.852 490.378 559.08 491.243 559.189 492.191H556.66C556.578 491.59 556.437 491.029 556.236 490.51C556.036 489.99 555.767 489.535 555.43 489.143C555.092 488.751 554.678 488.445 554.186 488.227C553.702 487.999 553.128 487.885 552.463 487.885C551.861 487.885 551.328 487.985 550.863 488.186C550.408 488.377 550.011 488.641 549.674 488.979C549.346 489.316 549.068 489.708 548.84 490.154C548.621 490.601 548.443 491.075 548.307 491.576C548.17 492.077 548.07 492.592 548.006 493.121C547.951 493.641 547.924 494.146 547.924 494.639V497.441C547.924 497.934 547.951 498.444 548.006 498.973C548.07 499.492 548.17 500.007 548.307 500.518C548.443 501.019 548.621 501.493 548.84 501.939C549.059 502.386 549.337 502.783 549.674 503.129C550.011 503.466 550.408 503.735 550.863 503.936C551.319 504.127 551.852 504.223 552.463 504.223C553.128 504.223 553.702 504.118 554.186 503.908C554.678 503.699 555.092 503.407 555.43 503.033C555.767 502.65 556.036 502.204 556.236 501.693C556.437 501.174 556.578 500.613 556.66 500.012H559.189ZM563.51 485H571.07V503.812H575.896V506H563.51V503.812H568.541V487.201H563.51V485ZM579.219 498.467C579.219 497.4 579.374 496.411 579.684 495.5C579.993 494.579 580.436 493.782 581.01 493.107C581.593 492.433 582.299 491.904 583.129 491.521C583.958 491.13 584.893 490.934 585.932 490.934C586.98 490.934 587.919 491.13 588.748 491.521C589.587 491.904 590.293 492.433 590.867 493.107C591.451 493.782 591.897 494.579 592.207 495.5C592.517 496.411 592.672 497.4 592.672 498.467V498.768C592.672 499.834 592.517 500.823 592.207 501.734C591.897 502.646 591.451 503.439 590.867 504.113C590.293 504.788 589.591 505.316 588.762 505.699C587.932 506.082 586.998 506.273 585.959 506.273C584.911 506.273 583.967 506.082 583.129 505.699C582.299 505.316 581.593 504.788 581.01 504.113C580.436 503.439 579.993 502.646 579.684 501.734C579.374 500.823 579.219 499.834 579.219 498.768V498.467ZM581.748 498.768C581.748 499.497 581.835 500.194 582.008 500.859C582.181 501.516 582.441 502.094 582.787 502.596C583.143 503.097 583.585 503.493 584.113 503.785C584.642 504.077 585.257 504.223 585.959 504.223C586.652 504.223 587.258 504.077 587.777 503.785C588.306 503.493 588.743 503.097 589.09 502.596C589.445 502.094 589.71 501.516 589.883 500.859C590.056 500.194 590.143 499.497 590.143 498.768V498.467C590.143 497.747 590.051 497.059 589.869 496.402C589.696 495.737 589.432 495.154 589.076 494.652C588.73 494.151 588.292 493.755 587.764 493.463C587.244 493.162 586.633 493.012 585.932 493.012C585.23 493.012 584.619 493.162 584.1 493.463C583.58 493.755 583.143 494.151 582.787 494.652C582.441 495.154 582.181 495.737 582.008 496.402C581.835 497.059 581.748 497.747 581.748 498.467V498.768ZM606.344 503.963C605.852 504.692 605.236 505.262 604.498 505.672C603.76 506.073 602.908 506.273 601.941 506.273C601.167 506.273 600.465 506.155 599.836 505.918C599.207 505.672 598.669 505.294 598.223 504.783C597.776 504.273 597.43 503.626 597.184 502.842C596.947 502.049 596.828 501.101 596.828 499.998V491.207H599.357V500.025C599.357 500.827 599.421 501.493 599.549 502.021C599.676 502.55 599.868 502.974 600.123 503.293C600.378 503.603 600.688 503.822 601.053 503.949C601.426 504.077 601.855 504.141 602.338 504.141C603.368 504.141 604.197 503.931 604.826 503.512C605.464 503.092 605.938 502.527 606.248 501.816V491.207H608.791V506H606.494L606.344 503.963ZM613.084 498.48C613.084 497.378 613.221 496.366 613.494 495.445C613.777 494.516 614.173 493.718 614.684 493.053C615.203 492.387 615.827 491.868 616.557 491.494C617.286 491.12 618.102 490.934 619.004 490.934C619.888 490.934 620.658 491.084 621.314 491.385C621.98 491.676 622.554 492.105 623.037 492.67V485H625.566V506H623.242L623.133 504.441C622.641 505.043 622.053 505.499 621.369 505.809C620.686 506.118 619.888 506.273 618.977 506.273C618.083 506.273 617.272 506.082 616.543 505.699C615.823 505.316 615.208 504.788 614.697 504.113C614.187 503.439 613.79 502.646 613.508 501.734C613.225 500.814 613.084 499.825 613.084 498.768V498.48ZM615.613 498.768C615.613 499.488 615.691 500.171 615.846 500.818C616.001 501.465 616.238 502.035 616.557 502.527C616.885 503.02 617.299 503.411 617.801 503.703C618.302 503.986 618.904 504.127 619.605 504.127C620.034 504.127 620.421 504.077 620.768 503.977C621.114 503.876 621.428 503.735 621.711 503.553C621.993 503.361 622.244 503.138 622.463 502.883C622.682 502.618 622.873 502.327 623.037 502.008V495.145C622.709 494.543 622.267 494.051 621.711 493.668C621.155 493.276 620.462 493.08 619.633 493.08C618.922 493.08 618.311 493.226 617.801 493.518C617.299 493.809 616.885 494.206 616.557 494.707C616.238 495.199 616.001 495.773 615.846 496.43C615.691 497.077 615.613 497.76 615.613 498.48V498.768Z" fill="white"/>
<path d="M801.438 372.879H797.459V381H794.943V361.094H800.781C801.711 361.112 802.586 361.244 803.406 361.49C804.227 361.736 804.942 362.105 805.553 362.598C806.173 363.09 806.656 363.71 807.002 364.457C807.357 365.195 807.535 366.066 807.535 367.068C807.535 367.715 807.439 368.308 807.248 368.846C807.066 369.383 806.811 369.871 806.482 370.309C806.154 370.746 805.762 371.133 805.307 371.471C804.851 371.808 804.35 372.095 803.803 372.332L808.027 380.836L808.014 381H805.348L801.438 372.879ZM797.459 370.801H800.85C801.415 370.792 801.948 370.705 802.449 370.541C802.951 370.368 803.388 370.122 803.762 369.803C804.145 369.484 804.445 369.096 804.664 368.641C804.883 368.176 804.992 367.643 804.992 367.041C804.992 366.403 804.887 365.847 804.678 365.373C804.468 364.89 804.176 364.489 803.803 364.17C803.429 363.842 802.982 363.596 802.463 363.432C801.952 363.268 801.392 363.181 800.781 363.172H797.459V370.801ZM821.385 381C821.285 380.809 821.202 380.572 821.139 380.289C821.084 379.997 821.043 379.697 821.016 379.387C820.76 379.642 820.473 379.883 820.154 380.111C819.844 380.339 819.498 380.54 819.115 380.713C818.742 380.886 818.34 381.023 817.912 381.123C817.484 381.223 817.028 381.273 816.545 381.273C815.761 381.273 815.05 381.16 814.412 380.932C813.783 380.704 813.245 380.398 812.799 380.016C812.361 379.624 812.02 379.163 811.773 378.635C811.536 378.097 811.418 377.518 811.418 376.898C811.418 376.087 811.577 375.376 811.896 374.766C812.225 374.155 812.685 373.649 813.277 373.248C813.87 372.838 814.581 372.533 815.41 372.332C816.249 372.132 817.183 372.031 818.213 372.031H820.975V370.869C820.975 370.423 820.893 370.021 820.729 369.666C820.564 369.311 820.332 369.01 820.031 368.764C819.73 368.508 819.361 368.312 818.924 368.176C818.495 368.039 818.012 367.971 817.475 367.971C816.973 367.971 816.522 368.035 816.121 368.162C815.729 368.29 815.396 368.458 815.123 368.668C814.85 368.878 814.635 369.128 814.48 369.42C814.335 369.702 814.262 369.999 814.262 370.309H811.719C811.728 369.771 811.865 369.242 812.129 368.723C812.402 368.203 812.79 367.738 813.291 367.328C813.801 366.909 814.417 366.572 815.137 366.316C815.866 366.061 816.691 365.934 817.611 365.934C818.45 365.934 819.229 366.038 819.949 366.248C820.669 366.449 821.289 366.758 821.809 367.178C822.337 367.588 822.752 368.103 823.053 368.723C823.354 369.342 823.504 370.067 823.504 370.896V377.773C823.504 378.266 823.549 378.79 823.641 379.346C823.732 379.893 823.859 380.371 824.023 380.781V381H821.385ZM816.914 379.072C817.406 379.072 817.867 379.008 818.295 378.881C818.723 378.753 819.111 378.585 819.457 378.375C819.812 378.165 820.118 377.928 820.373 377.664C820.628 377.391 820.829 377.108 820.975 376.816V373.822H818.623C817.146 373.822 815.998 374.041 815.178 374.479C814.357 374.916 813.947 375.604 813.947 376.543C813.947 376.908 814.007 377.245 814.125 377.555C814.253 377.865 814.439 378.133 814.686 378.361C814.932 378.58 815.242 378.753 815.615 378.881C815.989 379.008 816.422 379.072 816.914 379.072ZM841.018 373.768C841.018 374.825 840.89 375.814 840.635 376.734C840.38 377.646 840.006 378.439 839.514 379.113C839.021 379.788 838.411 380.316 837.682 380.699C836.962 381.082 836.132 381.273 835.193 381.273C834.245 381.273 833.421 381.105 832.719 380.768C832.026 380.43 831.434 379.947 830.941 379.318L830.818 381H828.494V360H831.023V367.793C831.507 367.191 832.09 366.731 832.773 366.412C833.457 366.093 834.255 365.934 835.166 365.934C836.114 365.934 836.952 366.12 837.682 366.494C838.411 366.868 839.021 367.387 839.514 368.053C840.006 368.718 840.38 369.516 840.635 370.445C840.89 371.366 841.018 372.378 841.018 373.48V373.768ZM838.488 373.48C838.488 372.76 838.415 372.077 838.27 371.43C838.133 370.773 837.91 370.199 837.6 369.707C837.29 369.206 836.884 368.809 836.383 368.518C835.882 368.226 835.266 368.08 834.537 368.08C834.1 368.08 833.699 368.139 833.334 368.258C832.969 368.367 832.641 368.527 832.35 368.736C832.067 368.937 831.812 369.178 831.584 369.461C831.365 369.734 831.178 370.035 831.023 370.363V376.83C831.188 377.158 831.379 377.464 831.598 377.746C831.826 378.02 832.085 378.261 832.377 378.471C832.669 378.68 832.997 378.844 833.361 378.963C833.726 379.072 834.127 379.127 834.564 379.127C835.257 379.127 835.85 378.986 836.342 378.703C836.843 378.411 837.249 378.02 837.559 377.527C837.878 377.035 838.11 376.465 838.256 375.818C838.411 375.171 838.488 374.488 838.488 373.768V373.48ZM857.834 373.768C857.834 374.825 857.706 375.814 857.451 376.734C857.196 377.646 856.822 378.439 856.33 379.113C855.838 379.788 855.227 380.316 854.498 380.699C853.778 381.082 852.949 381.273 852.01 381.273C851.062 381.273 850.237 381.105 849.535 380.768C848.842 380.43 848.25 379.947 847.758 379.318L847.635 381H845.311V360H847.84V367.793C848.323 367.191 848.906 366.731 849.59 366.412C850.273 366.093 851.071 365.934 851.982 365.934C852.93 365.934 853.769 366.12 854.498 366.494C855.227 366.868 855.838 367.387 856.33 368.053C856.822 368.718 857.196 369.516 857.451 370.445C857.706 371.366 857.834 372.378 857.834 373.48V373.768ZM855.305 373.48C855.305 372.76 855.232 372.077 855.086 371.43C854.949 370.773 854.726 370.199 854.416 369.707C854.106 369.206 853.701 368.809 853.199 368.518C852.698 368.226 852.083 368.08 851.354 368.08C850.916 368.08 850.515 368.139 850.15 368.258C849.786 368.367 849.458 368.527 849.166 368.736C848.883 368.937 848.628 369.178 848.4 369.461C848.182 369.734 847.995 370.035 847.84 370.363V376.83C848.004 377.158 848.195 377.464 848.414 377.746C848.642 378.02 848.902 378.261 849.193 378.471C849.485 378.68 849.813 378.844 850.178 378.963C850.542 379.072 850.943 379.127 851.381 379.127C852.074 379.127 852.666 378.986 853.158 378.703C853.66 378.411 854.065 378.02 854.375 377.527C854.694 377.035 854.926 376.465 855.072 375.818C855.227 375.171 855.305 374.488 855.305 373.768V373.48ZM862.51 366.207H870.07V378.812H874.896V381H862.51V378.812H867.541V368.408H862.51V366.207ZM867.213 362.324C867.213 361.905 867.336 361.554 867.582 361.271C867.837 360.98 868.22 360.834 868.73 360.834C869.232 360.834 869.61 360.98 869.865 361.271C870.12 361.554 870.248 361.905 870.248 362.324C870.248 362.734 870.12 363.076 869.865 363.35C869.61 363.623 869.232 363.76 868.73 363.76C868.22 363.76 867.837 363.623 867.582 363.35C867.336 363.076 867.213 362.734 867.213 362.324ZM884.918 362.625V366.207H890.551V368.162H884.918V376.201C884.918 376.775 884.991 377.249 885.137 377.623C885.283 377.997 885.483 378.298 885.738 378.525C885.993 378.744 886.285 378.899 886.613 378.99C886.951 379.081 887.306 379.127 887.68 379.127C887.953 379.127 888.236 379.113 888.527 379.086C888.819 379.049 889.102 379.008 889.375 378.963C889.658 378.917 889.917 378.872 890.154 378.826C890.4 378.771 890.601 378.726 890.756 378.689L891.111 380.48C890.902 380.608 890.646 380.722 890.346 380.822C890.045 380.913 889.717 380.991 889.361 381.055C889.006 381.128 888.628 381.182 888.227 381.219C887.835 381.255 887.443 381.273 887.051 381.273C886.395 381.273 885.779 381.182 885.205 381C884.64 380.809 884.148 380.512 883.729 380.111C883.309 379.701 882.977 379.177 882.73 378.539C882.493 377.892 882.375 377.113 882.375 376.201V368.162H878.492V366.207H882.375V362.625H884.918ZM898.521 361.094L901.762 371.047L905.262 361.094H908.406V381H905.945V373.057L906.15 364.744L902.473 375.463H901.023L897.646 365.031L897.852 373.057V381H895.391V361.094H898.521ZM925.688 371.936C925.678 372.674 925.615 373.417 925.496 374.164C925.378 374.911 925.195 375.632 924.949 376.324C924.712 377.017 924.402 377.669 924.02 378.279C923.646 378.881 923.195 379.405 922.666 379.852L926.098 382.709L924.361 384.363L920.424 381.027C919.859 381.191 919.248 381.273 918.592 381.273C917.744 381.273 916.983 381.146 916.309 380.891C915.634 380.626 915.033 380.271 914.504 379.824C913.984 379.378 913.533 378.854 913.15 378.252C912.768 377.641 912.453 376.99 912.207 376.297C911.961 375.604 911.779 374.889 911.66 374.15C911.542 373.403 911.478 372.665 911.469 371.936V370.186C911.478 369.456 911.542 368.718 911.66 367.971C911.779 367.223 911.961 366.503 912.207 365.811C912.453 365.118 912.763 364.471 913.137 363.869C913.51 363.258 913.957 362.73 914.477 362.283C915.005 361.827 915.607 361.472 916.281 361.217C916.965 360.952 917.73 360.82 918.578 360.82C919.426 360.82 920.187 360.952 920.861 361.217C921.545 361.472 922.146 361.823 922.666 362.27C923.195 362.716 923.646 363.245 924.02 363.855C924.402 364.457 924.712 365.104 924.949 365.797C925.195 366.49 925.378 367.214 925.496 367.971C925.615 368.718 925.678 369.456 925.688 370.186V371.936ZM923.172 370.158C923.163 369.657 923.131 369.137 923.076 368.6C923.031 368.053 922.939 367.52 922.803 367C922.675 366.471 922.497 365.97 922.27 365.496C922.051 365.022 921.773 364.607 921.436 364.252C921.098 363.887 920.693 363.6 920.219 363.391C919.754 363.181 919.207 363.076 918.578 363.076C917.958 363.076 917.416 363.186 916.951 363.404C916.486 363.614 916.085 363.901 915.748 364.266C915.411 364.621 915.128 365.036 914.9 365.51C914.682 365.984 914.504 366.485 914.367 367.014C914.23 367.533 914.13 368.066 914.066 368.613C914.012 369.151 913.984 369.666 913.984 370.158V371.936C913.984 372.428 914.012 372.947 914.066 373.494C914.13 374.032 914.23 374.565 914.367 375.094C914.504 375.622 914.682 376.124 914.9 376.598C915.128 377.072 915.411 377.491 915.748 377.855C916.085 378.22 916.486 378.512 916.951 378.73C917.425 378.94 917.972 379.045 918.592 379.045C919.221 379.045 919.768 378.94 920.232 378.73C920.706 378.512 921.112 378.225 921.449 377.869C921.786 377.505 922.064 377.085 922.283 376.611C922.502 376.137 922.675 375.636 922.803 375.107C922.939 374.579 923.031 374.046 923.076 373.508C923.131 372.961 923.163 372.437 923.172 371.936V370.158Z" fill="white"/>
<rect x="738" y="230" width="42" height="97" fill="white"/>
<rect x="872" y="230" width="42" height="97" fill="white"/>
<rect x="805" y="230" width="42" height="97" fill="white"/>
<rect x="939" y="230" width="42" height="97" fill="white"/>
</svg>
