<svg width="1035" height="530" viewBox="0 0 1035 530" fill="none" xmlns="http://www.w3.org/2000/svg">
<rect x="195" width="310" height="65" fill="#6A61D6"/>
<rect x="530" width="310" height="65" fill="#6A61D6"/>
<rect x="2" y="88" width="1031" height="354" fill="white" stroke="#6A61D6" stroke-width="4"/>
<path d="M298.727 39.3887C297.888 40.373 296.926 41.1022 295.842 41.5762C294.757 42.0501 293.568 42.2826 292.273 42.2734C291.453 42.2643 290.697 42.1413 290.004 41.9043C289.32 41.6582 288.705 41.3255 288.158 40.9062C287.611 40.4779 287.133 39.9766 286.723 39.4023C286.312 38.8281 285.966 38.2083 285.684 37.543C285.41 36.8685 285.201 36.1667 285.055 35.4375C284.918 34.6992 284.845 33.9564 284.836 33.209V30.8984C284.845 30.1602 284.909 29.4264 285.027 28.6973C285.155 27.959 285.346 27.2526 285.602 26.5781C285.857 25.9036 286.176 25.2793 286.559 24.7051C286.941 24.1217 287.397 23.6204 287.926 23.2012C288.464 22.7728 289.07 22.4355 289.744 22.1895C290.419 21.9434 291.175 21.8203 292.014 21.8203C292.943 21.8203 293.8 21.9661 294.584 22.2578C295.368 22.5404 296.051 22.9505 296.635 23.4883C297.218 24.0169 297.688 24.6595 298.043 25.416C298.398 26.1634 298.617 27.002 298.699 27.9316H296.197C296.097 27.3574 295.942 26.8288 295.732 26.3457C295.523 25.8535 295.245 25.4342 294.898 25.0879C294.561 24.7415 294.156 24.4727 293.682 24.2812C293.208 24.0807 292.656 23.9805 292.027 23.9805C291.426 23.9805 290.893 24.0853 290.428 24.2949C289.963 24.4954 289.557 24.7689 289.211 25.1152C288.865 25.4616 288.577 25.8672 288.35 26.332C288.122 26.7878 287.935 27.2708 287.789 27.7812C287.643 28.2917 287.538 28.8112 287.475 29.3398C287.411 29.8685 287.379 30.3789 287.379 30.8711V33.209C287.388 33.7103 287.429 34.2298 287.502 34.7676C287.584 35.2962 287.707 35.8158 287.871 36.3262C288.035 36.8366 288.245 37.3197 288.5 37.7754C288.755 38.2311 289.061 38.6322 289.416 38.9785C289.781 39.3249 290.2 39.6029 290.674 39.8125C291.148 40.013 291.686 40.1178 292.287 40.127C292.633 40.1361 292.993 40.1224 293.367 40.0859C293.75 40.0495 294.119 39.9766 294.475 39.8672C294.83 39.7578 295.163 39.612 295.473 39.4297C295.783 39.2383 296.042 38.9922 296.252 38.6914L296.279 34.2207H292.232V32.0879H298.686L298.727 39.3887ZM312.385 42C312.285 41.8086 312.202 41.5716 312.139 41.2891C312.084 40.9974 312.043 40.6966 312.016 40.3867C311.76 40.6419 311.473 40.8835 311.154 41.1113C310.844 41.3392 310.498 41.5397 310.115 41.7129C309.742 41.8861 309.34 42.0228 308.912 42.123C308.484 42.2233 308.028 42.2734 307.545 42.2734C306.761 42.2734 306.05 42.1595 305.412 41.9316C304.783 41.7038 304.245 41.3984 303.799 41.0156C303.361 40.6237 303.02 40.1634 302.773 39.6348C302.536 39.097 302.418 38.5182 302.418 37.8984C302.418 37.0872 302.577 36.3763 302.896 35.7656C303.225 35.1549 303.685 34.6491 304.277 34.248C304.87 33.8379 305.581 33.5326 306.41 33.332C307.249 33.1315 308.183 33.0312 309.213 33.0312H311.975V31.8691C311.975 31.4225 311.893 31.0215 311.729 30.666C311.564 30.3105 311.332 30.0098 311.031 29.7637C310.73 29.5085 310.361 29.3125 309.924 29.1758C309.495 29.0391 309.012 28.9707 308.475 28.9707C307.973 28.9707 307.522 29.0345 307.121 29.1621C306.729 29.2897 306.396 29.4583 306.123 29.668C305.85 29.8776 305.635 30.1283 305.48 30.4199C305.335 30.7025 305.262 30.9987 305.262 31.3086H302.719C302.728 30.7708 302.865 30.2422 303.129 29.7227C303.402 29.2031 303.79 28.7383 304.291 28.3281C304.801 27.9089 305.417 27.5716 306.137 27.3164C306.866 27.0612 307.691 26.9336 308.611 26.9336C309.45 26.9336 310.229 27.0384 310.949 27.248C311.669 27.4486 312.289 27.7585 312.809 28.1777C313.337 28.5879 313.752 29.1029 314.053 29.7227C314.354 30.3424 314.504 31.0671 314.504 31.8965V38.7734C314.504 39.2656 314.549 39.7897 314.641 40.3457C314.732 40.8926 314.859 41.3711 315.023 41.7812V42H312.385ZM307.914 40.0723C308.406 40.0723 308.867 40.0085 309.295 39.8809C309.723 39.7533 310.111 39.5846 310.457 39.375C310.812 39.1654 311.118 38.9284 311.373 38.6641C311.628 38.3906 311.829 38.1081 311.975 37.8164V34.8223H309.623C308.146 34.8223 306.998 35.041 306.178 35.4785C305.357 35.916 304.947 36.6042 304.947 37.543C304.947 37.9076 305.007 38.2448 305.125 38.5547C305.253 38.8646 305.439 39.1335 305.686 39.3613C305.932 39.5801 306.242 39.7533 306.615 39.8809C306.989 40.0085 307.422 40.0723 307.914 40.0723ZM320.643 27.207L320.711 28.6016C321.012 28.082 321.404 27.6764 321.887 27.3848C322.379 27.0931 322.971 26.9427 323.664 26.9336C325.022 26.9336 325.929 27.4622 326.385 28.5195C326.676 28.0456 327.059 27.6673 327.533 27.3848C328.016 27.0931 328.6 26.9427 329.283 26.9336C330.368 26.9336 331.202 27.2663 331.785 27.9316C332.368 28.597 332.66 29.6042 332.66 30.9531V42H330.254V30.9258C330.254 29.6862 329.684 29.071 328.545 29.0801C328.244 29.0801 327.984 29.1211 327.766 29.2031C327.547 29.2852 327.365 29.3991 327.219 29.5449C327.073 29.6816 326.959 29.8457 326.877 30.0371C326.795 30.2194 326.74 30.4108 326.713 30.6113V42H324.307V30.9121C324.307 30.3197 324.174 29.8639 323.91 29.5449C323.646 29.2259 323.227 29.071 322.652 29.0801C322.124 29.0801 321.714 29.1849 321.422 29.3945C321.13 29.6042 320.916 29.8822 320.779 30.2285V42H318.373V27.207H320.643ZM342.832 42.2734C341.793 42.2734 340.836 42.0957 339.961 41.7402C339.095 41.3848 338.352 40.888 337.732 40.25C337.113 39.612 336.63 38.8555 336.283 37.9805C335.937 37.1055 335.764 36.153 335.764 35.123V34.5488C335.764 33.3548 335.955 32.2884 336.338 31.3496C336.721 30.4017 337.227 29.6042 337.855 28.957C338.493 28.3008 339.214 27.7995 340.016 27.4531C340.827 27.1068 341.656 26.9336 342.504 26.9336C343.57 26.9336 344.5 27.1204 345.293 27.4941C346.095 27.8587 346.76 28.3691 347.289 29.0254C347.818 29.6725 348.21 30.4382 348.465 31.3223C348.729 32.2064 348.861 33.1634 348.861 34.1934V35.3281H338.293C338.32 36.0026 338.448 36.6361 338.676 37.2285C338.913 37.821 339.232 38.3405 339.633 38.7871C340.043 39.2246 340.531 39.571 341.096 39.8262C341.661 40.0814 342.285 40.209 342.969 40.209C343.871 40.209 344.673 40.0267 345.375 39.6621C346.077 39.2975 346.66 38.8145 347.125 38.2129L348.67 39.416C348.424 39.7897 348.114 40.1497 347.74 40.4961C347.376 40.8333 346.952 41.1341 346.469 41.3984C345.986 41.6628 345.439 41.8724 344.828 42.0273C344.217 42.1914 343.552 42.2734 342.832 42.2734ZM342.504 29.0117C341.993 29.0117 341.51 29.1074 341.055 29.2988C340.599 29.4811 340.189 29.7546 339.824 30.1191C339.46 30.4746 339.15 30.9167 338.895 31.4453C338.648 31.9648 338.475 32.5664 338.375 33.25H346.332V33.0586C346.305 32.5664 346.209 32.0788 346.045 31.5957C345.89 31.1126 345.658 30.6797 345.348 30.2969C345.038 29.9141 344.646 29.6042 344.172 29.3672C343.707 29.1302 343.151 29.0117 342.504 29.0117ZM362.943 38.0762C362.943 37.7754 362.884 37.5065 362.766 37.2695C362.647 37.0234 362.447 36.8001 362.164 36.5996C361.882 36.3991 361.508 36.2168 361.043 36.0527C360.578 35.8796 359.999 35.7246 359.307 35.5879C358.459 35.4147 357.684 35.2051 356.982 34.959C356.29 34.7129 355.693 34.4212 355.191 34.084C354.699 33.7376 354.316 33.3366 354.043 32.8809C353.77 32.416 353.633 31.8783 353.633 31.2676C353.633 30.666 353.774 30.1055 354.057 29.5859C354.339 29.0573 354.736 28.597 355.246 28.2051C355.757 27.8132 356.363 27.5033 357.064 27.2754C357.775 27.0475 358.555 26.9336 359.402 26.9336C360.314 26.9336 361.134 27.0521 361.863 27.2891C362.592 27.526 363.212 27.8542 363.723 28.2734C364.233 28.6927 364.625 29.1849 364.898 29.75C365.181 30.306 365.322 30.9076 365.322 31.5547H362.793C362.793 31.2357 362.711 30.9258 362.547 30.625C362.383 30.3151 362.155 30.0417 361.863 29.8047C361.572 29.5677 361.216 29.3763 360.797 29.2305C360.387 29.0846 359.922 29.0117 359.402 29.0117C358.865 29.0117 358.391 29.071 357.98 29.1895C357.579 29.3079 357.242 29.4674 356.969 29.668C356.704 29.8685 356.504 30.1009 356.367 30.3652C356.23 30.6296 356.162 30.903 356.162 31.1855C356.162 31.4772 356.217 31.737 356.326 31.9648C356.436 32.1927 356.622 32.3978 356.887 32.5801C357.16 32.7624 357.52 32.9264 357.967 33.0723C358.423 33.2181 358.997 33.3594 359.689 33.4961C360.601 33.6875 361.417 33.9108 362.137 34.166C362.857 34.4121 363.463 34.7129 363.955 35.0684C364.447 35.4147 364.821 35.8203 365.076 36.2852C365.34 36.75 365.473 37.2878 365.473 37.8984C365.473 38.5547 365.322 39.1517 365.021 39.6895C364.73 40.2272 364.32 40.6875 363.791 41.0703C363.262 41.4531 362.629 41.7493 361.891 41.959C361.152 42.1686 360.346 42.2734 359.471 42.2734C358.468 42.2734 357.575 42.1413 356.791 41.877C356.007 41.6035 355.342 41.248 354.795 40.8105C354.257 40.3639 353.842 39.849 353.551 39.2656C353.268 38.6823 353.127 38.0762 353.127 37.4473H355.656C355.693 37.9668 355.829 38.4043 356.066 38.7598C356.312 39.1152 356.613 39.4023 356.969 39.6211C357.333 39.8398 357.734 39.9948 358.172 40.0859C358.609 40.1771 359.042 40.2227 359.471 40.2227C360.537 40.2227 361.38 40.0267 362 39.6348C362.62 39.2428 362.934 38.7233 362.943 38.0762ZM399.242 22.0938L399.27 35.5742C399.251 36.5039 399.083 37.3743 398.764 38.1855C398.445 38.9967 397.998 39.7077 397.424 40.3184C396.85 40.9199 396.166 41.3984 395.373 41.7539C394.58 42.1003 393.71 42.2734 392.762 42.2734C391.796 42.2734 390.916 42.1003 390.123 41.7539C389.33 41.4076 388.651 40.9336 388.086 40.332C387.521 39.7214 387.079 39.0104 386.76 38.1992C386.441 37.3789 386.277 36.5039 386.268 35.5742L386.295 22.0938H388.701L388.756 35.5742C388.765 36.1667 388.856 36.7363 389.029 37.2832C389.212 37.8301 389.467 38.3132 389.795 38.7324C390.132 39.1517 390.547 39.4889 391.039 39.7441C391.54 39.9993 392.115 40.127 392.762 40.127C393.409 40.127 393.979 40.0039 394.471 39.7578C394.963 39.5026 395.373 39.1654 395.701 38.7461C396.038 38.3177 396.294 37.8301 396.467 37.2832C396.64 36.7363 396.736 36.1667 396.754 35.5742L396.795 22.0938H399.242ZM403.562 22.0938H415.594V24.2949H410.822V39.8125H415.594V42H403.562V39.8125H408.225V24.2949H403.562V22.0938Z" fill="white"/>
<path d="M611.771 42V22.0938H616.379C617.764 22.112 618.999 22.349 620.084 22.8047C621.178 23.2513 622.098 23.8802 622.846 24.6914C623.602 25.4935 624.176 26.4596 624.568 27.5898C624.969 28.7109 625.174 29.9551 625.184 31.3223V32.7852C625.174 34.1523 624.969 35.401 624.568 36.5312C624.176 37.6523 623.602 38.6185 622.846 39.4297C622.098 40.2318 621.178 40.8607 620.084 41.3164C618.999 41.763 617.764 41.9909 616.379 42H611.771ZM614.342 24.1719V39.9355H616.379C617.454 39.9264 618.384 39.7396 619.168 39.375C619.952 39.0013 620.599 38.4954 621.109 37.8574C621.629 37.2194 622.012 36.4674 622.258 35.6016C622.513 34.7357 622.645 33.7969 622.654 32.7852V31.2949C622.645 30.2832 622.513 29.349 622.258 28.4922C622.003 27.6263 621.62 26.8789 621.109 26.25C620.599 25.612 619.952 25.1107 619.168 24.7461C618.384 24.3815 617.454 24.1901 616.379 24.1719H614.342ZM638.568 42C638.468 41.8086 638.386 41.5716 638.322 41.2891C638.268 40.9974 638.227 40.6966 638.199 40.3867C637.944 40.6419 637.657 40.8835 637.338 41.1113C637.028 41.3392 636.682 41.5397 636.299 41.7129C635.925 41.8861 635.524 42.0228 635.096 42.123C634.667 42.2233 634.212 42.2734 633.729 42.2734C632.945 42.2734 632.234 42.1595 631.596 41.9316C630.967 41.7038 630.429 41.3984 629.982 41.0156C629.545 40.6237 629.203 40.1634 628.957 39.6348C628.72 39.097 628.602 38.5182 628.602 37.8984C628.602 37.0872 628.761 36.3763 629.08 35.7656C629.408 35.1549 629.868 34.6491 630.461 34.248C631.053 33.8379 631.764 33.5326 632.594 33.332C633.432 33.1315 634.367 33.0312 635.396 33.0312H638.158V31.8691C638.158 31.4225 638.076 31.0215 637.912 30.666C637.748 30.3105 637.516 30.0098 637.215 29.7637C636.914 29.5085 636.545 29.3125 636.107 29.1758C635.679 29.0391 635.196 28.9707 634.658 28.9707C634.157 28.9707 633.706 29.0345 633.305 29.1621C632.913 29.2897 632.58 29.4583 632.307 29.668C632.033 29.8776 631.819 30.1283 631.664 30.4199C631.518 30.7025 631.445 30.9987 631.445 31.3086H628.902C628.911 30.7708 629.048 30.2422 629.312 29.7227C629.586 29.2031 629.973 28.7383 630.475 28.3281C630.985 27.9089 631.6 27.5716 632.32 27.3164C633.049 27.0612 633.874 26.9336 634.795 26.9336C635.633 26.9336 636.413 27.0384 637.133 27.248C637.853 27.4486 638.473 27.7585 638.992 28.1777C639.521 28.5879 639.936 29.1029 640.236 29.7227C640.537 30.3424 640.688 31.0671 640.688 31.8965V38.7734C640.688 39.2656 640.733 39.7897 640.824 40.3457C640.915 40.8926 641.043 41.3711 641.207 41.7812V42H638.568ZM634.098 40.0723C634.59 40.0723 635.05 40.0085 635.479 39.8809C635.907 39.7533 636.294 39.5846 636.641 39.375C636.996 39.1654 637.301 38.9284 637.557 38.6641C637.812 38.3906 638.012 38.1081 638.158 37.8164V34.8223H635.807C634.33 34.8223 633.182 35.041 632.361 35.4785C631.541 35.916 631.131 36.6042 631.131 37.543C631.131 37.9076 631.19 38.2448 631.309 38.5547C631.436 38.8646 631.623 39.1335 631.869 39.3613C632.115 39.5801 632.425 39.7533 632.799 39.8809C633.173 40.0085 633.605 40.0723 634.098 40.0723ZM655.494 38.0762C655.494 37.7754 655.435 37.5065 655.316 37.2695C655.198 37.0234 654.997 36.8001 654.715 36.5996C654.432 36.3991 654.059 36.2168 653.594 36.0527C653.129 35.8796 652.55 35.7246 651.857 35.5879C651.01 35.4147 650.235 35.2051 649.533 34.959C648.84 34.7129 648.243 34.4212 647.742 34.084C647.25 33.7376 646.867 33.3366 646.594 32.8809C646.32 32.416 646.184 31.8783 646.184 31.2676C646.184 30.666 646.325 30.1055 646.607 29.5859C646.89 29.0573 647.286 28.597 647.797 28.2051C648.307 27.8132 648.913 27.5033 649.615 27.2754C650.326 27.0475 651.105 26.9336 651.953 26.9336C652.865 26.9336 653.685 27.0521 654.414 27.2891C655.143 27.526 655.763 27.8542 656.273 28.2734C656.784 28.6927 657.176 29.1849 657.449 29.75C657.732 30.306 657.873 30.9076 657.873 31.5547H655.344C655.344 31.2357 655.262 30.9258 655.098 30.625C654.934 30.3151 654.706 30.0417 654.414 29.8047C654.122 29.5677 653.767 29.3763 653.348 29.2305C652.938 29.0846 652.473 29.0117 651.953 29.0117C651.415 29.0117 650.941 29.071 650.531 29.1895C650.13 29.3079 649.793 29.4674 649.52 29.668C649.255 29.8685 649.055 30.1009 648.918 30.3652C648.781 30.6296 648.713 30.903 648.713 31.1855C648.713 31.4772 648.768 31.737 648.877 31.9648C648.986 32.1927 649.173 32.3978 649.438 32.5801C649.711 32.7624 650.071 32.9264 650.518 33.0723C650.973 33.2181 651.548 33.3594 652.24 33.4961C653.152 33.6875 653.967 33.9108 654.688 34.166C655.408 34.4121 656.014 34.7129 656.506 35.0684C656.998 35.4147 657.372 35.8203 657.627 36.2852C657.891 36.75 658.023 37.2878 658.023 37.8984C658.023 38.5547 657.873 39.1517 657.572 39.6895C657.281 40.2272 656.87 40.6875 656.342 41.0703C655.813 41.4531 655.18 41.7493 654.441 41.959C653.703 42.1686 652.896 42.2734 652.021 42.2734C651.019 42.2734 650.126 42.1413 649.342 41.877C648.558 41.6035 647.893 41.248 647.346 40.8105C646.808 40.3639 646.393 39.849 646.102 39.2656C645.819 38.6823 645.678 38.0762 645.678 37.4473H648.207C648.243 37.9668 648.38 38.4043 648.617 38.7598C648.863 39.1152 649.164 39.4023 649.52 39.6211C649.884 39.8398 650.285 39.9948 650.723 40.0859C651.16 40.1771 651.593 40.2227 652.021 40.2227C653.088 40.2227 653.931 40.0267 654.551 39.6348C655.171 39.2428 655.485 38.7233 655.494 38.0762ZM665.01 29.4082C665.538 28.6335 666.19 28.0319 666.965 27.6035C667.74 27.166 668.61 26.9427 669.576 26.9336C670.351 26.9336 671.053 27.0475 671.682 27.2754C672.32 27.4941 672.862 27.8405 673.309 28.3145C673.755 28.7884 674.097 29.39 674.334 30.1191C674.58 30.8392 674.703 31.696 674.703 32.6895V42H672.174V32.6621C672.174 31.4499 671.882 30.5475 671.299 29.9551C670.725 29.3626 669.9 29.071 668.824 29.0801C668.013 29.0801 667.275 29.2806 666.609 29.6816C665.953 30.0736 665.42 30.5977 665.01 31.2539V42H662.48V21H665.01V29.4082ZM691.834 34.7676C691.834 35.8249 691.706 36.8138 691.451 37.7344C691.196 38.6458 690.822 39.4388 690.33 40.1133C689.838 40.7878 689.227 41.3164 688.498 41.6992C687.778 42.082 686.949 42.2734 686.01 42.2734C685.062 42.2734 684.237 42.1048 683.535 41.7676C682.842 41.4303 682.25 40.9473 681.758 40.3184L681.635 42H679.311V21H681.84V28.793C682.323 28.1914 682.906 27.7311 683.59 27.4121C684.273 27.0931 685.071 26.9336 685.982 26.9336C686.93 26.9336 687.769 27.1204 688.498 27.4941C689.227 27.8678 689.838 28.3874 690.33 29.0527C690.822 29.7181 691.196 30.5156 691.451 31.4453C691.706 32.3659 691.834 33.3776 691.834 34.4805V34.7676ZM689.305 34.4805C689.305 33.7604 689.232 33.0768 689.086 32.4297C688.949 31.7734 688.726 31.1992 688.416 30.707C688.106 30.2057 687.701 29.8092 687.199 29.5176C686.698 29.2259 686.083 29.0801 685.354 29.0801C684.916 29.0801 684.515 29.1393 684.15 29.2578C683.786 29.3672 683.458 29.5267 683.166 29.7363C682.883 29.9368 682.628 30.1784 682.4 30.4609C682.182 30.7344 681.995 31.0352 681.84 31.3633V37.8301C682.004 38.1582 682.195 38.4635 682.414 38.7461C682.642 39.0195 682.902 39.2611 683.193 39.4707C683.485 39.6803 683.813 39.8444 684.178 39.9629C684.542 40.0723 684.943 40.127 685.381 40.127C686.074 40.127 686.666 39.9857 687.158 39.7031C687.66 39.4115 688.065 39.0195 688.375 38.5273C688.694 38.0352 688.926 37.4655 689.072 36.8184C689.227 36.1712 689.305 35.4876 689.305 34.7676V34.4805ZM695.402 34.4668C695.402 33.4004 695.557 32.4115 695.867 31.5C696.177 30.5794 696.619 29.7819 697.193 29.1074C697.777 28.4329 698.483 27.9043 699.312 27.5215C700.142 27.1296 701.076 26.9336 702.115 26.9336C703.163 26.9336 704.102 27.1296 704.932 27.5215C705.77 27.9043 706.477 28.4329 707.051 29.1074C707.634 29.7819 708.081 30.5794 708.391 31.5C708.701 32.4115 708.855 33.4004 708.855 34.4668V34.7676C708.855 35.834 708.701 36.8229 708.391 37.7344C708.081 38.6458 707.634 39.4388 707.051 40.1133C706.477 40.7878 705.775 41.3164 704.945 41.6992C704.116 42.082 703.182 42.2734 702.143 42.2734C701.094 42.2734 700.151 42.082 699.312 41.6992C698.483 41.3164 697.777 40.7878 697.193 40.1133C696.619 39.4388 696.177 38.6458 695.867 37.7344C695.557 36.8229 695.402 35.834 695.402 34.7676V34.4668ZM697.932 34.7676C697.932 35.4967 698.018 36.194 698.191 36.8594C698.365 37.5156 698.624 38.0944 698.971 38.5957C699.326 39.097 699.768 39.4935 700.297 39.7852C700.826 40.0768 701.441 40.2227 702.143 40.2227C702.835 40.2227 703.441 40.0768 703.961 39.7852C704.49 39.4935 704.927 39.097 705.273 38.5957C705.629 38.0944 705.893 37.5156 706.066 36.8594C706.24 36.194 706.326 35.4967 706.326 34.7676V34.4668C706.326 33.7467 706.235 33.0586 706.053 32.4023C705.88 31.737 705.615 31.1536 705.26 30.6523C704.913 30.151 704.476 29.7546 703.947 29.4629C703.428 29.1621 702.817 29.0117 702.115 29.0117C701.413 29.0117 700.803 29.1621 700.283 29.4629C699.764 29.7546 699.326 30.151 698.971 30.6523C698.624 31.1536 698.365 31.737 698.191 32.4023C698.018 33.0586 697.932 33.7467 697.932 34.4668V34.7676ZM722.65 42C722.55 41.8086 722.468 41.5716 722.404 41.2891C722.35 40.9974 722.309 40.6966 722.281 40.3867C722.026 40.6419 721.739 40.8835 721.42 41.1113C721.11 41.3392 720.764 41.5397 720.381 41.7129C720.007 41.8861 719.606 42.0228 719.178 42.123C718.749 42.2233 718.294 42.2734 717.811 42.2734C717.027 42.2734 716.316 42.1595 715.678 41.9316C715.049 41.7038 714.511 41.3984 714.064 41.0156C713.627 40.6237 713.285 40.1634 713.039 39.6348C712.802 39.097 712.684 38.5182 712.684 37.8984C712.684 37.0872 712.843 36.3763 713.162 35.7656C713.49 35.1549 713.951 34.6491 714.543 34.248C715.135 33.8379 715.846 33.5326 716.676 33.332C717.514 33.1315 718.449 33.0312 719.479 33.0312H722.24V31.8691C722.24 31.4225 722.158 31.0215 721.994 30.666C721.83 30.3105 721.598 30.0098 721.297 29.7637C720.996 29.5085 720.627 29.3125 720.189 29.1758C719.761 29.0391 719.278 28.9707 718.74 28.9707C718.239 28.9707 717.788 29.0345 717.387 29.1621C716.995 29.2897 716.662 29.4583 716.389 29.668C716.115 29.8776 715.901 30.1283 715.746 30.4199C715.6 30.7025 715.527 30.9987 715.527 31.3086H712.984C712.993 30.7708 713.13 30.2422 713.395 29.7227C713.668 29.2031 714.055 28.7383 714.557 28.3281C715.067 27.9089 715.682 27.5716 716.402 27.3164C717.132 27.0612 717.956 26.9336 718.877 26.9336C719.715 26.9336 720.495 27.0384 721.215 27.248C721.935 27.4486 722.555 27.7585 723.074 28.1777C723.603 28.5879 724.018 29.1029 724.318 29.7227C724.619 30.3424 724.77 31.0671 724.77 31.8965V38.7734C724.77 39.2656 724.815 39.7897 724.906 40.3457C724.997 40.8926 725.125 41.3711 725.289 41.7812V42H722.65ZM718.18 40.0723C718.672 40.0723 719.132 40.0085 719.561 39.8809C719.989 39.7533 720.376 39.5846 720.723 39.375C721.078 39.1654 721.383 38.9284 721.639 38.6641C721.894 38.3906 722.094 38.1081 722.24 37.8164V34.8223H719.889C718.412 34.8223 717.264 35.041 716.443 35.4785C715.623 35.916 715.213 36.6042 715.213 37.543C715.213 37.9076 715.272 38.2448 715.391 38.5547C715.518 38.8646 715.705 39.1335 715.951 39.3613C716.197 39.5801 716.507 39.7533 716.881 39.8809C717.255 40.0085 717.688 40.0723 718.18 40.0723ZM739.439 26.9336C739.676 26.9336 739.923 26.9427 740.178 26.9609C740.433 26.9701 740.674 26.9928 740.902 27.0293C741.139 27.0566 741.354 27.0931 741.545 27.1387C741.745 27.1842 741.91 27.2344 742.037 27.2891L741.695 29.7637C741.203 29.6543 740.734 29.5768 740.287 29.5312C739.85 29.4766 739.389 29.4492 738.906 29.4492C737.721 29.4492 736.76 29.7181 736.021 30.2559C735.292 30.7936 734.755 31.5456 734.408 32.5117V42H731.865V27.207H734.271L734.395 29.5586C734.996 28.7474 735.716 28.1094 736.555 27.6445C737.402 27.1706 738.364 26.9336 739.439 26.9336ZM746.084 34.4805C746.084 33.3776 746.221 32.3659 746.494 31.4453C746.777 30.5156 747.173 29.7181 747.684 29.0527C748.203 28.3874 748.827 27.8678 749.557 27.4941C750.286 27.1204 751.102 26.9336 752.004 26.9336C752.888 26.9336 753.658 27.084 754.314 27.3848C754.98 27.6764 755.554 28.1048 756.037 28.6699V21H758.566V42H756.242L756.133 40.4414C755.641 41.043 755.053 41.4987 754.369 41.8086C753.686 42.1185 752.888 42.2734 751.977 42.2734C751.083 42.2734 750.272 42.082 749.543 41.6992C748.823 41.3164 748.208 40.7878 747.697 40.1133C747.187 39.4388 746.79 38.6458 746.508 37.7344C746.225 36.8138 746.084 35.8249 746.084 34.7676V34.4805ZM748.613 34.7676C748.613 35.4876 748.691 36.1712 748.846 36.8184C749.001 37.4655 749.238 38.0352 749.557 38.5273C749.885 39.0195 750.299 39.4115 750.801 39.7031C751.302 39.9857 751.904 40.127 752.605 40.127C753.034 40.127 753.421 40.0768 753.768 39.9766C754.114 39.8763 754.428 39.735 754.711 39.5527C754.993 39.3613 755.244 39.138 755.463 38.8828C755.682 38.6185 755.873 38.3268 756.037 38.0078V31.1445C755.709 30.543 755.267 30.0508 754.711 29.668C754.155 29.276 753.462 29.0801 752.633 29.0801C751.922 29.0801 751.311 29.2259 750.801 29.5176C750.299 29.8092 749.885 30.2057 749.557 30.707C749.238 31.1992 749.001 31.7734 748.846 32.4297C748.691 33.0768 748.613 33.7604 748.613 34.4805V34.7676Z" fill="white"/>
<rect x="25" y="115" width="981" height="65" fill="#6A61D6"/>
<rect x="25" y="205" width="310" height="65" fill="#6A61D6"/>
<rect x="360" y="205" width="310" height="65" fill="#6A61D6"/>
<rect x="695" y="205" width="310" height="65" fill="#6A61D6"/>
<path d="M797.439 227.094L800.68 237.047L804.18 227.094H807.324V247H804.863V239.057L805.068 230.744L801.391 241.463H799.941L796.564 231.031L796.77 239.057V247H794.309V227.094H797.439ZM818.016 247.273C816.977 247.273 816.02 247.096 815.145 246.74C814.279 246.385 813.536 245.888 812.916 245.25C812.296 244.612 811.813 243.855 811.467 242.98C811.12 242.105 810.947 241.153 810.947 240.123V239.549C810.947 238.355 811.139 237.288 811.521 236.35C811.904 235.402 812.41 234.604 813.039 233.957C813.677 233.301 814.397 232.799 815.199 232.453C816.01 232.107 816.84 231.934 817.688 231.934C818.754 231.934 819.684 232.12 820.477 232.494C821.279 232.859 821.944 233.369 822.473 234.025C823.001 234.673 823.393 235.438 823.648 236.322C823.913 237.206 824.045 238.163 824.045 239.193V240.328H813.477C813.504 241.003 813.632 241.636 813.859 242.229C814.096 242.821 814.415 243.34 814.816 243.787C815.227 244.225 815.714 244.571 816.279 244.826C816.844 245.081 817.469 245.209 818.152 245.209C819.055 245.209 819.857 245.027 820.559 244.662C821.26 244.298 821.844 243.814 822.309 243.213L823.854 244.416C823.607 244.79 823.298 245.15 822.924 245.496C822.559 245.833 822.135 246.134 821.652 246.398C821.169 246.663 820.622 246.872 820.012 247.027C819.401 247.191 818.736 247.273 818.016 247.273ZM817.688 234.012C817.177 234.012 816.694 234.107 816.238 234.299C815.783 234.481 815.372 234.755 815.008 235.119C814.643 235.475 814.333 235.917 814.078 236.445C813.832 236.965 813.659 237.566 813.559 238.25H821.516V238.059C821.488 237.566 821.393 237.079 821.229 236.596C821.074 236.113 820.841 235.68 820.531 235.297C820.221 234.914 819.829 234.604 819.355 234.367C818.891 234.13 818.335 234.012 817.688 234.012ZM834.285 228.625V232.207H839.918V234.162H834.285V242.201C834.285 242.775 834.358 243.249 834.504 243.623C834.65 243.997 834.85 244.298 835.105 244.525C835.361 244.744 835.652 244.899 835.98 244.99C836.318 245.081 836.673 245.127 837.047 245.127C837.32 245.127 837.603 245.113 837.895 245.086C838.186 245.049 838.469 245.008 838.742 244.963C839.025 244.917 839.285 244.872 839.521 244.826C839.768 244.771 839.968 244.726 840.123 244.689L840.479 246.48C840.269 246.608 840.014 246.722 839.713 246.822C839.412 246.913 839.084 246.991 838.729 247.055C838.373 247.128 837.995 247.182 837.594 247.219C837.202 247.255 836.81 247.273 836.418 247.273C835.762 247.273 835.146 247.182 834.572 247C834.007 246.809 833.515 246.512 833.096 246.111C832.676 245.701 832.344 245.177 832.098 244.539C831.861 243.892 831.742 243.113 831.742 242.201V234.162H827.859V232.207H831.742V228.625H834.285ZM854.807 231.934C855.044 231.934 855.29 231.943 855.545 231.961C855.8 231.97 856.042 231.993 856.27 232.029C856.507 232.057 856.721 232.093 856.912 232.139C857.113 232.184 857.277 232.234 857.404 232.289L857.062 234.764C856.57 234.654 856.101 234.577 855.654 234.531C855.217 234.477 854.757 234.449 854.273 234.449C853.089 234.449 852.127 234.718 851.389 235.256C850.66 235.794 850.122 236.546 849.775 237.512V247H847.232V232.207H849.639L849.762 234.559C850.363 233.747 851.083 233.109 851.922 232.645C852.77 232.171 853.731 231.934 854.807 231.934ZM862.326 232.207H869.887V244.812H874.713V247H862.326V244.812H867.357V234.408H862.326V232.207ZM867.029 228.324C867.029 227.905 867.152 227.554 867.398 227.271C867.654 226.98 868.036 226.834 868.547 226.834C869.048 226.834 869.426 226.98 869.682 227.271C869.937 227.554 870.064 227.905 870.064 228.324C870.064 228.734 869.937 229.076 869.682 229.35C869.426 229.623 869.048 229.76 868.547 229.76C868.036 229.76 867.654 229.623 867.398 229.35C867.152 229.076 867.029 228.734 867.029 228.324ZM885.049 245.223C885.505 245.223 885.947 245.15 886.375 245.004C886.812 244.858 887.2 244.658 887.537 244.402C887.874 244.138 888.143 243.833 888.344 243.486C888.553 243.131 888.663 242.748 888.672 242.338H891.064C891.055 242.994 890.882 243.623 890.545 244.225C890.217 244.817 889.775 245.341 889.219 245.797C888.663 246.243 888.025 246.604 887.305 246.877C886.585 247.141 885.833 247.273 885.049 247.273C883.928 247.273 882.948 247.073 882.109 246.672C881.271 246.271 880.569 245.733 880.004 245.059C879.448 244.375 879.029 243.591 878.746 242.707C878.464 241.814 878.322 240.875 878.322 239.891V239.316C878.322 238.341 878.464 237.407 878.746 236.514C879.029 235.62 879.448 234.837 880.004 234.162C880.569 233.479 881.271 232.936 882.109 232.535C882.948 232.134 883.928 231.934 885.049 231.934C885.924 231.934 886.726 232.075 887.455 232.357C888.193 232.631 888.827 233.009 889.355 233.492C889.893 233.966 890.312 234.531 890.613 235.188C890.914 235.844 891.064 236.546 891.064 237.293H888.672C888.663 236.846 888.562 236.427 888.371 236.035C888.189 235.634 887.938 235.283 887.619 234.982C887.3 234.682 886.917 234.445 886.471 234.271C886.033 234.098 885.559 234.012 885.049 234.012C884.265 234.012 883.604 234.171 883.066 234.49C882.538 234.8 882.109 235.21 881.781 235.721C881.453 236.222 881.216 236.787 881.07 237.416C880.934 238.045 880.865 238.678 880.865 239.316V239.891C880.865 240.538 880.934 241.18 881.07 241.818C881.216 242.447 881.449 243.017 881.768 243.527C882.096 244.029 882.524 244.439 883.053 244.758C883.59 245.068 884.256 245.223 885.049 245.223ZM905.393 243.076C905.393 242.775 905.333 242.507 905.215 242.27C905.096 242.023 904.896 241.8 904.613 241.6C904.331 241.399 903.957 241.217 903.492 241.053C903.027 240.88 902.449 240.725 901.756 240.588C900.908 240.415 900.133 240.205 899.432 239.959C898.739 239.713 898.142 239.421 897.641 239.084C897.148 238.738 896.766 238.337 896.492 237.881C896.219 237.416 896.082 236.878 896.082 236.268C896.082 235.666 896.223 235.105 896.506 234.586C896.788 234.057 897.185 233.597 897.695 233.205C898.206 232.813 898.812 232.503 899.514 232.275C900.225 232.048 901.004 231.934 901.852 231.934C902.763 231.934 903.583 232.052 904.312 232.289C905.042 232.526 905.661 232.854 906.172 233.273C906.682 233.693 907.074 234.185 907.348 234.75C907.63 235.306 907.771 235.908 907.771 236.555H905.242C905.242 236.236 905.16 235.926 904.996 235.625C904.832 235.315 904.604 235.042 904.312 234.805C904.021 234.568 903.665 234.376 903.246 234.23C902.836 234.085 902.371 234.012 901.852 234.012C901.314 234.012 900.84 234.071 900.43 234.189C900.029 234.308 899.691 234.467 899.418 234.668C899.154 234.868 898.953 235.101 898.816 235.365C898.68 235.63 898.611 235.903 898.611 236.186C898.611 236.477 898.666 236.737 898.775 236.965C898.885 237.193 899.072 237.398 899.336 237.58C899.609 237.762 899.969 237.926 900.416 238.072C900.872 238.218 901.446 238.359 902.139 238.496C903.05 238.688 903.866 238.911 904.586 239.166C905.306 239.412 905.912 239.713 906.404 240.068C906.896 240.415 907.27 240.82 907.525 241.285C907.79 241.75 907.922 242.288 907.922 242.898C907.922 243.555 907.771 244.152 907.471 244.689C907.179 245.227 906.769 245.688 906.24 246.07C905.712 246.453 905.078 246.749 904.34 246.959C903.602 247.169 902.795 247.273 901.92 247.273C900.917 247.273 900.024 247.141 899.24 246.877C898.456 246.604 897.791 246.248 897.244 245.811C896.706 245.364 896.292 244.849 896 244.266C895.717 243.682 895.576 243.076 895.576 242.447H898.105C898.142 242.967 898.279 243.404 898.516 243.76C898.762 244.115 899.062 244.402 899.418 244.621C899.783 244.84 900.184 244.995 900.621 245.086C901.059 245.177 901.492 245.223 901.92 245.223C902.986 245.223 903.829 245.027 904.449 244.635C905.069 244.243 905.383 243.723 905.393 243.076Z" fill="white"/>
<rect x="25" y="295" width="980" height="120" fill="#6A61D6"/>
<rect x="25" y="465" width="980" height="65" fill="#6A61D6"/>
<path d="M362.473 157V137.094H368.393C369.213 137.103 370.015 137.212 370.799 137.422C371.583 137.622 372.28 137.937 372.891 138.365C373.501 138.794 373.989 139.34 374.354 140.006C374.718 140.671 374.896 141.469 374.887 142.398C374.878 142.918 374.791 143.392 374.627 143.82C374.472 144.249 374.253 144.636 373.971 144.982C373.697 145.32 373.374 145.616 373 145.871C372.626 146.126 372.23 146.345 371.811 146.527C372.339 146.682 372.822 146.906 373.26 147.197C373.706 147.48 374.089 147.826 374.408 148.236C374.727 148.637 374.973 149.093 375.146 149.604C375.329 150.114 375.42 150.665 375.42 151.258C375.429 152.188 375.251 153.008 374.887 153.719C374.522 154.43 374.035 155.027 373.424 155.51C372.813 155.984 372.107 156.348 371.305 156.604C370.512 156.859 369.691 156.991 368.844 157H362.473ZM365.016 147.689V154.854H368.912C369.441 154.844 369.942 154.758 370.416 154.594C370.89 154.421 371.309 154.184 371.674 153.883C372.038 153.582 372.326 153.213 372.535 152.775C372.754 152.338 372.863 151.841 372.863 151.285C372.872 150.72 372.777 150.219 372.576 149.781C372.385 149.344 372.116 148.975 371.77 148.674C371.423 148.364 371.018 148.127 370.553 147.963C370.088 147.799 369.587 147.708 369.049 147.689H365.016ZM365.016 145.584H368.543C369.017 145.575 369.482 145.502 369.938 145.365C370.393 145.219 370.799 145.014 371.154 144.75C371.51 144.477 371.797 144.144 372.016 143.752C372.234 143.36 372.344 142.904 372.344 142.385C372.344 141.829 372.234 141.355 372.016 140.963C371.806 140.571 371.519 140.252 371.154 140.006C370.799 139.751 370.384 139.564 369.91 139.445C369.445 139.327 368.967 139.263 368.475 139.254H365.016V145.584ZM389.037 157C388.937 156.809 388.855 156.572 388.791 156.289C388.736 155.997 388.695 155.697 388.668 155.387C388.413 155.642 388.126 155.883 387.807 156.111C387.497 156.339 387.15 156.54 386.768 156.713C386.394 156.886 385.993 157.023 385.564 157.123C385.136 157.223 384.68 157.273 384.197 157.273C383.413 157.273 382.702 157.16 382.064 156.932C381.436 156.704 380.898 156.398 380.451 156.016C380.014 155.624 379.672 155.163 379.426 154.635C379.189 154.097 379.07 153.518 379.07 152.898C379.07 152.087 379.23 151.376 379.549 150.766C379.877 150.155 380.337 149.649 380.93 149.248C381.522 148.838 382.233 148.533 383.062 148.332C383.901 148.132 384.835 148.031 385.865 148.031H388.627V146.869C388.627 146.423 388.545 146.021 388.381 145.666C388.217 145.311 387.984 145.01 387.684 144.764C387.383 144.508 387.014 144.312 386.576 144.176C386.148 144.039 385.665 143.971 385.127 143.971C384.626 143.971 384.174 144.035 383.773 144.162C383.382 144.29 383.049 144.458 382.775 144.668C382.502 144.878 382.288 145.128 382.133 145.42C381.987 145.702 381.914 145.999 381.914 146.309H379.371C379.38 145.771 379.517 145.242 379.781 144.723C380.055 144.203 380.442 143.738 380.943 143.328C381.454 142.909 382.069 142.572 382.789 142.316C383.518 142.061 384.343 141.934 385.264 141.934C386.102 141.934 386.882 142.038 387.602 142.248C388.322 142.449 388.941 142.758 389.461 143.178C389.99 143.588 390.404 144.103 390.705 144.723C391.006 145.342 391.156 146.067 391.156 146.896V153.773C391.156 154.266 391.202 154.79 391.293 155.346C391.384 155.893 391.512 156.371 391.676 156.781V157H389.037ZM384.566 155.072C385.059 155.072 385.519 155.008 385.947 154.881C386.376 154.753 386.763 154.585 387.109 154.375C387.465 154.165 387.77 153.928 388.025 153.664C388.281 153.391 388.481 153.108 388.627 152.816V149.822H386.275C384.799 149.822 383.65 150.041 382.83 150.479C382.01 150.916 381.6 151.604 381.6 152.543C381.6 152.908 381.659 153.245 381.777 153.555C381.905 153.865 382.092 154.133 382.338 154.361C382.584 154.58 382.894 154.753 383.268 154.881C383.641 155.008 384.074 155.072 384.566 155.072ZM402.436 155.223C402.891 155.223 403.333 155.15 403.762 155.004C404.199 154.858 404.587 154.658 404.924 154.402C405.261 154.138 405.53 153.833 405.73 153.486C405.94 153.131 406.049 152.748 406.059 152.338H408.451C408.442 152.994 408.269 153.623 407.932 154.225C407.604 154.817 407.161 155.341 406.605 155.797C406.049 156.243 405.411 156.604 404.691 156.877C403.971 157.141 403.219 157.273 402.436 157.273C401.314 157.273 400.335 157.073 399.496 156.672C398.658 156.271 397.956 155.733 397.391 155.059C396.835 154.375 396.415 153.591 396.133 152.707C395.85 151.814 395.709 150.875 395.709 149.891V149.316C395.709 148.341 395.85 147.407 396.133 146.514C396.415 145.62 396.835 144.837 397.391 144.162C397.956 143.479 398.658 142.936 399.496 142.535C400.335 142.134 401.314 141.934 402.436 141.934C403.311 141.934 404.113 142.075 404.842 142.357C405.58 142.631 406.214 143.009 406.742 143.492C407.28 143.966 407.699 144.531 408 145.188C408.301 145.844 408.451 146.546 408.451 147.293H406.059C406.049 146.846 405.949 146.427 405.758 146.035C405.576 145.634 405.325 145.283 405.006 144.982C404.687 144.682 404.304 144.445 403.857 144.271C403.42 144.098 402.946 144.012 402.436 144.012C401.652 144.012 400.991 144.171 400.453 144.49C399.924 144.8 399.496 145.21 399.168 145.721C398.84 146.222 398.603 146.787 398.457 147.416C398.32 148.045 398.252 148.678 398.252 149.316V149.891C398.252 150.538 398.32 151.18 398.457 151.818C398.603 152.447 398.835 153.017 399.154 153.527C399.482 154.029 399.911 154.439 400.439 154.758C400.977 155.068 401.643 155.223 402.436 155.223ZM417.379 150.096L415.52 151.887V157H412.977V136H415.52V148.852L417.174 147.074L422.027 142.207H425.104L419.115 148.373L426.02 157H422.807L417.379 150.096ZM436.301 157.273C435.262 157.273 434.305 157.096 433.43 156.74C432.564 156.385 431.821 155.888 431.201 155.25C430.581 154.612 430.098 153.855 429.752 152.98C429.406 152.105 429.232 151.153 429.232 150.123V149.549C429.232 148.355 429.424 147.288 429.807 146.35C430.189 145.402 430.695 144.604 431.324 143.957C431.962 143.301 432.682 142.799 433.484 142.453C434.296 142.107 435.125 141.934 435.973 141.934C437.039 141.934 437.969 142.12 438.762 142.494C439.564 142.859 440.229 143.369 440.758 144.025C441.286 144.673 441.678 145.438 441.934 146.322C442.198 147.206 442.33 148.163 442.33 149.193V150.328H431.762C431.789 151.003 431.917 151.636 432.145 152.229C432.382 152.821 432.701 153.34 433.102 153.787C433.512 154.225 433.999 154.571 434.564 154.826C435.13 155.081 435.754 155.209 436.438 155.209C437.34 155.209 438.142 155.027 438.844 154.662C439.546 154.298 440.129 153.814 440.594 153.213L442.139 154.416C441.893 154.79 441.583 155.15 441.209 155.496C440.844 155.833 440.421 156.134 439.938 156.398C439.454 156.663 438.908 156.872 438.297 157.027C437.686 157.191 437.021 157.273 436.301 157.273ZM435.973 144.012C435.462 144.012 434.979 144.107 434.523 144.299C434.068 144.481 433.658 144.755 433.293 145.119C432.928 145.475 432.618 145.917 432.363 146.445C432.117 146.965 431.944 147.566 431.844 148.25H439.801V148.059C439.773 147.566 439.678 147.079 439.514 146.596C439.359 146.113 439.126 145.68 438.816 145.297C438.507 144.914 438.115 144.604 437.641 144.367C437.176 144.13 436.62 144.012 435.973 144.012ZM448.852 142.207L449.029 144.395C449.567 143.629 450.228 143.032 451.012 142.604C451.796 142.166 452.671 141.943 453.637 141.934C454.411 141.934 455.113 142.043 455.742 142.262C456.38 142.48 456.923 142.822 457.369 143.287C457.816 143.752 458.158 144.344 458.395 145.064C458.641 145.775 458.764 146.623 458.764 147.607V157H456.234V147.662C456.234 147.006 456.161 146.45 456.016 145.994C455.87 145.538 455.651 145.169 455.359 144.887C455.077 144.604 454.726 144.399 454.307 144.271C453.896 144.144 453.423 144.08 452.885 144.08C452.037 144.08 451.29 144.294 450.643 144.723C450.005 145.142 449.494 145.698 449.111 146.391V157H446.582V142.207H448.852ZM462.92 149.48C462.92 148.378 463.057 147.366 463.33 146.445C463.613 145.516 464.009 144.718 464.52 144.053C465.039 143.387 465.663 142.868 466.393 142.494C467.122 142.12 467.938 141.934 468.84 141.934C469.724 141.934 470.494 142.084 471.15 142.385C471.816 142.676 472.39 143.105 472.873 143.67V136H475.402V157H473.078L472.969 155.441C472.477 156.043 471.889 156.499 471.205 156.809C470.521 157.118 469.724 157.273 468.812 157.273C467.919 157.273 467.108 157.082 466.379 156.699C465.659 156.316 465.044 155.788 464.533 155.113C464.023 154.439 463.626 153.646 463.344 152.734C463.061 151.814 462.92 150.825 462.92 149.768V149.48ZM465.449 149.768C465.449 150.488 465.527 151.171 465.682 151.818C465.837 152.465 466.074 153.035 466.393 153.527C466.721 154.02 467.135 154.411 467.637 154.703C468.138 154.986 468.74 155.127 469.441 155.127C469.87 155.127 470.257 155.077 470.604 154.977C470.95 154.876 471.264 154.735 471.547 154.553C471.829 154.361 472.08 154.138 472.299 153.883C472.518 153.618 472.709 153.327 472.873 153.008V146.145C472.545 145.543 472.103 145.051 471.547 144.668C470.991 144.276 470.298 144.08 469.469 144.08C468.758 144.08 468.147 144.226 467.637 144.518C467.135 144.809 466.721 145.206 466.393 145.707C466.074 146.199 465.837 146.773 465.682 147.43C465.527 148.077 465.449 148.76 465.449 149.48V149.768ZM503.621 148.879H499.643V157H497.127V137.094H502.965C503.895 137.112 504.77 137.244 505.59 137.49C506.41 137.736 507.126 138.105 507.736 138.598C508.356 139.09 508.839 139.71 509.186 140.457C509.541 141.195 509.719 142.066 509.719 143.068C509.719 143.715 509.623 144.308 509.432 144.846C509.249 145.383 508.994 145.871 508.666 146.309C508.338 146.746 507.946 147.133 507.49 147.471C507.035 147.808 506.533 148.095 505.986 148.332L510.211 156.836L510.197 157H507.531L503.621 148.879ZM499.643 146.801H503.033C503.598 146.792 504.132 146.705 504.633 146.541C505.134 146.368 505.572 146.122 505.945 145.803C506.328 145.484 506.629 145.096 506.848 144.641C507.066 144.176 507.176 143.643 507.176 143.041C507.176 142.403 507.071 141.847 506.861 141.373C506.652 140.89 506.36 140.489 505.986 140.17C505.613 139.842 505.166 139.596 504.646 139.432C504.136 139.268 503.576 139.181 502.965 139.172H499.643V146.801ZM524.799 147.799H516.486V154.854H526.18V157H513.957V137.094H526.057V139.254H516.486V145.652H524.799V147.799ZM541.082 151.969C541.082 151.358 540.941 150.843 540.658 150.424C540.385 150.005 540.029 149.654 539.592 149.371C539.154 149.079 538.671 148.838 538.143 148.646C537.623 148.455 537.122 148.282 536.639 148.127C535.937 147.899 535.221 147.626 534.492 147.307C533.772 146.988 533.111 146.596 532.51 146.131C531.917 145.666 531.43 145.119 531.047 144.49C530.673 143.852 530.486 143.105 530.486 142.248C530.486 141.391 530.673 140.626 531.047 139.951C531.43 139.277 531.926 138.707 532.537 138.242C533.148 137.777 533.84 137.426 534.615 137.189C535.39 136.943 536.169 136.82 536.953 136.82C537.819 136.82 538.653 136.966 539.455 137.258C540.257 137.54 540.968 137.941 541.588 138.461C542.208 138.98 542.704 139.609 543.078 140.348C543.452 141.086 543.648 141.911 543.666 142.822H541.068C540.995 142.248 540.854 141.729 540.645 141.264C540.435 140.79 540.157 140.384 539.811 140.047C539.464 139.71 539.049 139.45 538.566 139.268C538.092 139.076 537.555 138.98 536.953 138.98C536.47 138.98 535.996 139.049 535.531 139.186C535.076 139.322 534.665 139.527 534.301 139.801C533.945 140.074 533.658 140.411 533.439 140.812C533.23 141.214 533.125 141.678 533.125 142.207C533.134 142.781 533.28 143.269 533.562 143.67C533.845 144.062 534.201 144.395 534.629 144.668C535.066 144.941 535.536 145.169 536.037 145.352C536.548 145.534 537.026 145.693 537.473 145.83C537.965 145.985 538.462 146.163 538.963 146.363C539.464 146.555 539.947 146.778 540.412 147.033C540.877 147.288 541.31 147.576 541.711 147.895C542.112 148.214 542.463 148.578 542.764 148.988C543.064 149.389 543.297 149.836 543.461 150.328C543.634 150.811 543.721 151.349 543.721 151.941C543.721 152.835 543.52 153.614 543.119 154.279C542.727 154.945 542.217 155.501 541.588 155.947C540.959 156.385 540.248 156.717 539.455 156.945C538.662 157.164 537.869 157.273 537.076 157.273C536.192 157.273 535.326 157.137 534.479 156.863C533.631 156.59 532.87 156.198 532.195 155.688C531.53 155.168 530.988 154.539 530.568 153.801C530.149 153.053 529.926 152.206 529.898 151.258H532.482C532.564 151.878 532.733 152.429 532.988 152.912C533.243 153.386 533.572 153.792 533.973 154.129C534.374 154.457 534.834 154.708 535.354 154.881C535.882 155.045 536.456 155.127 537.076 155.127C537.568 155.127 538.051 155.068 538.525 154.949C539.008 154.822 539.437 154.63 539.811 154.375C540.184 154.111 540.49 153.783 540.727 153.391C540.964 152.99 541.082 152.516 541.082 151.969ZM560.906 139.254H554.754V157H552.293V139.254H546.141V137.094H560.906V139.254ZM590.615 151.846H583.971L582.371 157H579.842L586.268 137.094H588.387L594.703 157H592.188L590.615 151.846ZM584.654 149.645H589.945L587.32 141.004L584.654 149.645ZM600.691 149.016V157H598.162V137.094H604.615C605.508 137.112 606.352 137.253 607.145 137.518C607.947 137.782 608.648 138.165 609.25 138.666C609.852 139.167 610.326 139.787 610.672 140.525C611.027 141.264 611.205 142.111 611.205 143.068C611.205 144.025 611.027 144.873 610.672 145.611C610.326 146.34 609.852 146.956 609.25 147.457C608.648 147.958 607.947 148.341 607.145 148.605C606.352 148.87 605.508 149.007 604.615 149.016H600.691ZM600.691 146.938H604.615C605.199 146.928 605.736 146.837 606.229 146.664C606.721 146.482 607.149 146.227 607.514 145.898C607.878 145.57 608.161 145.174 608.361 144.709C608.571 144.235 608.676 143.697 608.676 143.096C608.676 142.494 608.571 141.952 608.361 141.469C608.161 140.986 607.878 140.576 607.514 140.238C607.158 139.901 606.73 139.641 606.229 139.459C605.736 139.277 605.199 139.181 604.615 139.172H600.691V146.938ZM614.746 137.094H626.777V139.295H622.006V154.812H626.777V157H614.746V154.812H619.408V139.295H614.746V137.094ZM641.393 153.076C641.393 152.775 641.333 152.507 641.215 152.27C641.096 152.023 640.896 151.8 640.613 151.6C640.331 151.399 639.957 151.217 639.492 151.053C639.027 150.88 638.449 150.725 637.756 150.588C636.908 150.415 636.133 150.205 635.432 149.959C634.739 149.713 634.142 149.421 633.641 149.084C633.148 148.738 632.766 148.337 632.492 147.881C632.219 147.416 632.082 146.878 632.082 146.268C632.082 145.666 632.223 145.105 632.506 144.586C632.788 144.057 633.185 143.597 633.695 143.205C634.206 142.813 634.812 142.503 635.514 142.275C636.225 142.048 637.004 141.934 637.852 141.934C638.763 141.934 639.583 142.052 640.312 142.289C641.042 142.526 641.661 142.854 642.172 143.273C642.682 143.693 643.074 144.185 643.348 144.75C643.63 145.306 643.771 145.908 643.771 146.555H641.242C641.242 146.236 641.16 145.926 640.996 145.625C640.832 145.315 640.604 145.042 640.312 144.805C640.021 144.568 639.665 144.376 639.246 144.23C638.836 144.085 638.371 144.012 637.852 144.012C637.314 144.012 636.84 144.071 636.43 144.189C636.029 144.308 635.691 144.467 635.418 144.668C635.154 144.868 634.953 145.101 634.816 145.365C634.68 145.63 634.611 145.903 634.611 146.186C634.611 146.477 634.666 146.737 634.775 146.965C634.885 147.193 635.072 147.398 635.336 147.58C635.609 147.762 635.969 147.926 636.416 148.072C636.872 148.218 637.446 148.359 638.139 148.496C639.05 148.688 639.866 148.911 640.586 149.166C641.306 149.412 641.912 149.713 642.404 150.068C642.896 150.415 643.27 150.82 643.525 151.285C643.79 151.75 643.922 152.288 643.922 152.898C643.922 153.555 643.771 154.152 643.471 154.689C643.179 155.227 642.769 155.688 642.24 156.07C641.712 156.453 641.078 156.749 640.34 156.959C639.602 157.169 638.795 157.273 637.92 157.273C636.917 157.273 636.024 157.141 635.24 156.877C634.456 156.604 633.791 156.248 633.244 155.811C632.706 155.364 632.292 154.849 632 154.266C631.717 153.682 631.576 153.076 631.576 152.447H634.105C634.142 152.967 634.279 153.404 634.516 153.76C634.762 154.115 635.062 154.402 635.418 154.621C635.783 154.84 636.184 154.995 636.621 155.086C637.059 155.177 637.492 155.223 637.92 155.223C638.986 155.223 639.829 155.027 640.449 154.635C641.069 154.243 641.383 153.723 641.393 153.076Z" fill="white"/>
<path d="M93.1719 238.879H89.1934V247H86.6777V227.094H92.5156C93.4453 227.112 94.3203 227.244 95.1406 227.49C95.9609 227.736 96.6764 228.105 97.2871 228.598C97.9069 229.09 98.39 229.71 98.7363 230.457C99.0918 231.195 99.2695 232.066 99.2695 233.068C99.2695 233.715 99.1738 234.308 98.9824 234.846C98.8001 235.383 98.5449 235.871 98.2168 236.309C97.8887 236.746 97.4967 237.133 97.041 237.471C96.5853 237.808 96.084 238.095 95.5371 238.332L99.7617 246.836L99.748 247H97.082L93.1719 238.879ZM89.1934 236.801H92.584C93.1491 236.792 93.6823 236.705 94.1836 236.541C94.6849 236.368 95.1224 236.122 95.4961 235.803C95.8789 235.484 96.1797 235.096 96.3984 234.641C96.6172 234.176 96.7266 233.643 96.7266 233.041C96.7266 232.403 96.6217 231.847 96.4121 231.373C96.2025 230.89 95.9108 230.489 95.5371 230.17C95.1634 229.842 94.7168 229.596 94.1973 229.432C93.6868 229.268 93.1263 229.181 92.5156 229.172H89.1934V236.801ZM112.996 244.963C112.504 245.692 111.889 246.262 111.15 246.672C110.412 247.073 109.56 247.273 108.594 247.273C107.819 247.273 107.117 247.155 106.488 246.918C105.859 246.672 105.322 246.294 104.875 245.783C104.428 245.273 104.082 244.626 103.836 243.842C103.599 243.049 103.48 242.101 103.48 240.998V232.207H106.01V241.025C106.01 241.827 106.074 242.493 106.201 243.021C106.329 243.55 106.52 243.974 106.775 244.293C107.031 244.603 107.34 244.822 107.705 244.949C108.079 245.077 108.507 245.141 108.99 245.141C110.02 245.141 110.85 244.931 111.479 244.512C112.117 244.092 112.59 243.527 112.9 242.816V232.207H115.443V247H113.146L112.996 244.963ZM120.611 226H128.172V244.812H132.998V247H120.611V244.812H125.643V228.201H120.611V226ZM143.566 247.273C142.527 247.273 141.57 247.096 140.695 246.74C139.829 246.385 139.087 245.888 138.467 245.25C137.847 244.612 137.364 243.855 137.018 242.98C136.671 242.105 136.498 241.153 136.498 240.123V239.549C136.498 238.355 136.689 237.288 137.072 236.35C137.455 235.402 137.961 234.604 138.59 233.957C139.228 233.301 139.948 232.799 140.75 232.453C141.561 232.107 142.391 231.934 143.238 231.934C144.305 231.934 145.234 232.12 146.027 232.494C146.829 232.859 147.495 233.369 148.023 234.025C148.552 234.673 148.944 235.438 149.199 236.322C149.464 237.206 149.596 238.163 149.596 239.193V240.328H139.027C139.055 241.003 139.182 241.636 139.41 242.229C139.647 242.821 139.966 243.34 140.367 243.787C140.777 244.225 141.265 244.571 141.83 244.826C142.395 245.081 143.02 245.209 143.703 245.209C144.605 245.209 145.408 245.027 146.109 244.662C146.811 244.298 147.395 243.814 147.859 243.213L149.404 244.416C149.158 244.79 148.848 245.15 148.475 245.496C148.11 245.833 147.686 246.134 147.203 246.398C146.72 246.663 146.173 246.872 145.562 247.027C144.952 247.191 144.286 247.273 143.566 247.273ZM143.238 234.012C142.728 234.012 142.245 234.107 141.789 234.299C141.333 234.481 140.923 234.755 140.559 235.119C140.194 235.475 139.884 235.917 139.629 236.445C139.383 236.965 139.21 237.566 139.109 238.25H147.066V238.059C147.039 237.566 146.943 237.079 146.779 236.596C146.624 236.113 146.392 235.68 146.082 235.297C145.772 234.914 145.38 234.604 144.906 234.367C144.441 234.13 143.885 234.012 143.238 234.012ZM163.678 243.076C163.678 242.775 163.618 242.507 163.5 242.27C163.382 242.023 163.181 241.8 162.898 241.6C162.616 241.399 162.242 241.217 161.777 241.053C161.312 240.88 160.734 240.725 160.041 240.588C159.193 240.415 158.419 240.205 157.717 239.959C157.024 239.713 156.427 239.421 155.926 239.084C155.434 238.738 155.051 238.337 154.777 237.881C154.504 237.416 154.367 236.878 154.367 236.268C154.367 235.666 154.508 235.105 154.791 234.586C155.074 234.057 155.47 233.597 155.98 233.205C156.491 232.813 157.097 232.503 157.799 232.275C158.51 232.048 159.289 231.934 160.137 231.934C161.048 231.934 161.868 232.052 162.598 232.289C163.327 232.526 163.947 232.854 164.457 233.273C164.967 233.693 165.359 234.185 165.633 234.75C165.915 235.306 166.057 235.908 166.057 236.555H163.527C163.527 236.236 163.445 235.926 163.281 235.625C163.117 235.315 162.889 235.042 162.598 234.805C162.306 234.568 161.951 234.376 161.531 234.23C161.121 234.085 160.656 234.012 160.137 234.012C159.599 234.012 159.125 234.071 158.715 234.189C158.314 234.308 157.977 234.467 157.703 234.668C157.439 234.868 157.238 235.101 157.102 235.365C156.965 235.63 156.896 235.903 156.896 236.186C156.896 236.477 156.951 236.737 157.061 236.965C157.17 237.193 157.357 237.398 157.621 237.58C157.895 237.762 158.255 237.926 158.701 238.072C159.157 238.218 159.731 238.359 160.424 238.496C161.335 238.688 162.151 238.911 162.871 239.166C163.591 239.412 164.197 239.713 164.689 240.068C165.182 240.415 165.555 240.82 165.811 241.285C166.075 241.75 166.207 242.288 166.207 242.898C166.207 243.555 166.057 244.152 165.756 244.689C165.464 245.227 165.054 245.688 164.525 246.07C163.997 246.453 163.363 246.749 162.625 246.959C161.887 247.169 161.08 247.273 160.205 247.273C159.202 247.273 158.309 247.141 157.525 246.877C156.742 246.604 156.076 246.248 155.529 245.811C154.992 245.364 154.577 244.849 154.285 244.266C154.003 243.682 153.861 243.076 153.861 242.447H156.391C156.427 242.967 156.564 243.404 156.801 243.76C157.047 244.115 157.348 244.402 157.703 244.621C158.068 244.84 158.469 244.995 158.906 245.086C159.344 245.177 159.777 245.223 160.205 245.223C161.271 245.223 162.115 245.027 162.734 244.635C163.354 244.243 163.669 243.723 163.678 243.076ZM198.432 237.799H190.119V244.854H199.812V247H187.59V227.094H199.689V229.254H190.119V235.652H198.432V237.799ZM206.566 232.207L206.744 234.395C207.282 233.629 207.943 233.032 208.727 232.604C209.51 232.166 210.385 231.943 211.352 231.934C212.126 231.934 212.828 232.043 213.457 232.262C214.095 232.48 214.637 232.822 215.084 233.287C215.531 233.752 215.872 234.344 216.109 235.064C216.355 235.775 216.479 236.623 216.479 237.607V247H213.949V237.662C213.949 237.006 213.876 236.45 213.73 235.994C213.585 235.538 213.366 235.169 213.074 234.887C212.792 234.604 212.441 234.399 212.021 234.271C211.611 234.144 211.137 234.08 210.6 234.08C209.752 234.08 209.005 234.294 208.357 234.723C207.719 235.142 207.209 235.698 206.826 236.391V247H204.297V232.207H206.566ZM220.648 239.48C220.648 238.378 220.781 237.366 221.045 236.445C221.318 235.516 221.71 234.718 222.221 234.053C222.731 233.387 223.351 232.868 224.08 232.494C224.809 232.12 225.634 231.934 226.555 231.934C227.466 231.934 228.264 232.098 228.947 232.426C229.64 232.745 230.228 233.21 230.711 233.82L230.834 232.207H233.131V246.686C233.131 247.661 232.976 248.527 232.666 249.283C232.365 250.04 231.937 250.682 231.381 251.211C230.834 251.74 230.178 252.141 229.412 252.414C228.646 252.688 227.799 252.824 226.869 252.824C226.486 252.824 226.049 252.779 225.557 252.688C225.064 252.605 224.563 252.464 224.053 252.264C223.551 252.072 223.064 251.812 222.59 251.484C222.125 251.156 221.724 250.751 221.387 250.268L222.699 248.75C223.009 249.124 223.328 249.438 223.656 249.693C223.984 249.958 224.317 250.167 224.654 250.322C224.992 250.477 225.329 250.587 225.666 250.65C226.003 250.723 226.34 250.76 226.678 250.76C227.279 250.76 227.822 250.673 228.305 250.5C228.788 250.327 229.198 250.072 229.535 249.734C229.882 249.406 230.146 248.996 230.328 248.504C230.51 248.012 230.602 247.447 230.602 246.809V245.537C230.109 246.102 229.526 246.535 228.852 246.836C228.186 247.128 227.411 247.273 226.527 247.273C225.625 247.273 224.809 247.082 224.08 246.699C223.351 246.316 222.731 245.788 222.221 245.113C221.719 244.439 221.332 243.646 221.059 242.734C220.785 241.814 220.648 240.825 220.648 239.768V239.48ZM223.178 239.768C223.178 240.488 223.251 241.171 223.396 241.818C223.551 242.465 223.788 243.035 224.107 243.527C224.436 244.02 224.85 244.411 225.352 244.703C225.853 244.986 226.454 245.127 227.156 245.127C227.594 245.127 227.986 245.077 228.332 244.977C228.688 244.867 229.002 244.717 229.275 244.525C229.558 244.334 229.809 244.106 230.027 243.842C230.246 243.577 230.438 243.286 230.602 242.967V236.186C230.438 235.876 230.246 235.593 230.027 235.338C229.809 235.083 229.558 234.864 229.275 234.682C228.993 234.49 228.678 234.344 228.332 234.244C227.986 234.135 227.603 234.08 227.184 234.08C226.473 234.08 225.862 234.226 225.352 234.518C224.85 234.809 224.436 235.206 224.107 235.707C223.788 236.199 223.551 236.773 223.396 237.43C223.251 238.077 223.178 238.76 223.178 239.48V239.768ZM238.326 232.207H245.887V244.812H250.713V247H238.326V244.812H243.357V234.408H238.326V232.207ZM243.029 228.324C243.029 227.905 243.152 227.554 243.398 227.271C243.654 226.98 244.036 226.834 244.547 226.834C245.048 226.834 245.426 226.98 245.682 227.271C245.937 227.554 246.064 227.905 246.064 228.324C246.064 228.734 245.937 229.076 245.682 229.35C245.426 229.623 245.048 229.76 244.547 229.76C244.036 229.76 243.654 229.623 243.398 229.35C243.152 229.076 243.029 228.734 243.029 228.324ZM257.016 232.207L257.193 234.395C257.731 233.629 258.392 233.032 259.176 232.604C259.96 232.166 260.835 231.943 261.801 231.934C262.576 231.934 263.277 232.043 263.906 232.262C264.544 232.48 265.087 232.822 265.533 233.287C265.98 233.752 266.322 234.344 266.559 235.064C266.805 235.775 266.928 236.623 266.928 237.607V247H264.398V237.662C264.398 237.006 264.326 236.45 264.18 235.994C264.034 235.538 263.815 235.169 263.523 234.887C263.241 234.604 262.89 234.399 262.471 234.271C262.061 234.144 261.587 234.08 261.049 234.08C260.201 234.08 259.454 234.294 258.807 234.723C258.169 235.142 257.658 235.698 257.275 236.391V247H254.746V232.207H257.016ZM278.098 247.273C277.059 247.273 276.102 247.096 275.227 246.74C274.361 246.385 273.618 245.888 272.998 245.25C272.378 244.612 271.895 243.855 271.549 242.98C271.202 242.105 271.029 241.153 271.029 240.123V239.549C271.029 238.355 271.221 237.288 271.604 236.35C271.986 235.402 272.492 234.604 273.121 233.957C273.759 233.301 274.479 232.799 275.281 232.453C276.092 232.107 276.922 231.934 277.77 231.934C278.836 231.934 279.766 232.12 280.559 232.494C281.361 232.859 282.026 233.369 282.555 234.025C283.083 234.673 283.475 235.438 283.73 236.322C283.995 237.206 284.127 238.163 284.127 239.193V240.328H273.559C273.586 241.003 273.714 241.636 273.941 242.229C274.178 242.821 274.497 243.34 274.898 243.787C275.309 244.225 275.796 244.571 276.361 244.826C276.926 245.081 277.551 245.209 278.234 245.209C279.137 245.209 279.939 245.027 280.641 244.662C281.342 244.298 281.926 243.814 282.391 243.213L283.936 244.416C283.689 244.79 283.38 245.15 283.006 245.496C282.641 245.833 282.217 246.134 281.734 246.398C281.251 246.663 280.704 246.872 280.094 247.027C279.483 247.191 278.818 247.273 278.098 247.273ZM277.77 234.012C277.259 234.012 276.776 234.107 276.32 234.299C275.865 234.481 275.454 234.755 275.09 235.119C274.725 235.475 274.415 235.917 274.16 236.445C273.914 236.965 273.741 237.566 273.641 238.25H281.598V238.059C281.57 237.566 281.475 237.079 281.311 236.596C281.156 236.113 280.923 235.68 280.613 235.297C280.303 234.914 279.911 234.604 279.438 234.367C278.973 234.13 278.417 234.012 277.77 234.012Z" fill="white"/>
<path d="M411.766 227.094H423.797V229.295H419.025V244.812H423.797V247H411.766V244.812H416.428V229.295H411.766V227.094ZM429.744 232.207L429.812 233.602C430.113 233.082 430.505 232.676 430.988 232.385C431.48 232.093 432.073 231.943 432.766 231.934C434.124 231.934 435.031 232.462 435.486 233.52C435.778 233.046 436.161 232.667 436.635 232.385C437.118 232.093 437.701 231.943 438.385 231.934C439.469 231.934 440.303 232.266 440.887 232.932C441.47 233.597 441.762 234.604 441.762 235.953V247H439.355V235.926C439.355 234.686 438.786 234.071 437.646 234.08C437.346 234.08 437.086 234.121 436.867 234.203C436.648 234.285 436.466 234.399 436.32 234.545C436.174 234.682 436.061 234.846 435.979 235.037C435.896 235.219 435.842 235.411 435.814 235.611V247H433.408V235.912C433.408 235.32 433.276 234.864 433.012 234.545C432.747 234.226 432.328 234.071 431.754 234.08C431.225 234.08 430.815 234.185 430.523 234.395C430.232 234.604 430.018 234.882 429.881 235.229V247H427.475V232.207H429.744ZM455.119 247C455.019 246.809 454.937 246.572 454.873 246.289C454.818 245.997 454.777 245.697 454.75 245.387C454.495 245.642 454.208 245.883 453.889 246.111C453.579 246.339 453.232 246.54 452.85 246.713C452.476 246.886 452.075 247.023 451.646 247.123C451.218 247.223 450.762 247.273 450.279 247.273C449.495 247.273 448.785 247.16 448.146 246.932C447.518 246.704 446.98 246.398 446.533 246.016C446.096 245.624 445.754 245.163 445.508 244.635C445.271 244.097 445.152 243.518 445.152 242.898C445.152 242.087 445.312 241.376 445.631 240.766C445.959 240.155 446.419 239.649 447.012 239.248C447.604 238.838 448.315 238.533 449.145 238.332C449.983 238.132 450.917 238.031 451.947 238.031H454.709V236.869C454.709 236.423 454.627 236.021 454.463 235.666C454.299 235.311 454.066 235.01 453.766 234.764C453.465 234.508 453.096 234.312 452.658 234.176C452.23 234.039 451.747 233.971 451.209 233.971C450.708 233.971 450.257 234.035 449.855 234.162C449.464 234.29 449.131 234.458 448.857 234.668C448.584 234.878 448.37 235.128 448.215 235.42C448.069 235.702 447.996 235.999 447.996 236.309H445.453C445.462 235.771 445.599 235.242 445.863 234.723C446.137 234.203 446.524 233.738 447.025 233.328C447.536 232.909 448.151 232.572 448.871 232.316C449.6 232.061 450.425 231.934 451.346 231.934C452.184 231.934 452.964 232.038 453.684 232.248C454.404 232.449 455.023 232.758 455.543 233.178C456.072 233.588 456.486 234.103 456.787 234.723C457.088 235.342 457.238 236.067 457.238 236.896V243.773C457.238 244.266 457.284 244.79 457.375 245.346C457.466 245.893 457.594 246.371 457.758 246.781V247H455.119ZM450.648 245.072C451.141 245.072 451.601 245.008 452.029 244.881C452.458 244.753 452.845 244.585 453.191 244.375C453.547 244.165 453.852 243.928 454.107 243.664C454.363 243.391 454.563 243.108 454.709 242.816V239.822H452.357C450.881 239.822 449.732 240.041 448.912 240.479C448.092 240.916 447.682 241.604 447.682 242.543C447.682 242.908 447.741 243.245 447.859 243.555C447.987 243.865 448.174 244.133 448.42 244.361C448.666 244.58 448.976 244.753 449.35 244.881C449.723 245.008 450.156 245.072 450.648 245.072ZM461.75 239.48C461.75 238.378 461.882 237.366 462.146 236.445C462.42 235.516 462.812 234.718 463.322 234.053C463.833 233.387 464.452 232.868 465.182 232.494C465.911 232.12 466.736 231.934 467.656 231.934C468.568 231.934 469.365 232.098 470.049 232.426C470.742 232.745 471.329 233.21 471.812 233.82L471.936 232.207H474.232V246.686C474.232 247.661 474.077 248.527 473.768 249.283C473.467 250.04 473.038 250.682 472.482 251.211C471.936 251.74 471.279 252.141 470.514 252.414C469.748 252.688 468.9 252.824 467.971 252.824C467.588 252.824 467.15 252.779 466.658 252.688C466.166 252.605 465.665 252.464 465.154 252.264C464.653 252.072 464.165 251.812 463.691 251.484C463.227 251.156 462.826 250.751 462.488 250.268L463.801 248.75C464.111 249.124 464.43 249.438 464.758 249.693C465.086 249.958 465.419 250.167 465.756 250.322C466.093 250.477 466.43 250.587 466.768 250.65C467.105 250.723 467.442 250.76 467.779 250.76C468.381 250.76 468.923 250.673 469.406 250.5C469.889 250.327 470.299 250.072 470.637 249.734C470.983 249.406 471.247 248.996 471.43 248.504C471.612 248.012 471.703 247.447 471.703 246.809V245.537C471.211 246.102 470.628 246.535 469.953 246.836C469.288 247.128 468.513 247.273 467.629 247.273C466.727 247.273 465.911 247.082 465.182 246.699C464.452 246.316 463.833 245.788 463.322 245.113C462.821 244.439 462.434 243.646 462.16 242.734C461.887 241.814 461.75 240.825 461.75 239.768V239.48ZM464.279 239.768C464.279 240.488 464.352 241.171 464.498 241.818C464.653 242.465 464.89 243.035 465.209 243.527C465.537 244.02 465.952 244.411 466.453 244.703C466.954 244.986 467.556 245.127 468.258 245.127C468.695 245.127 469.087 245.077 469.434 244.977C469.789 244.867 470.104 244.717 470.377 244.525C470.66 244.334 470.91 244.106 471.129 243.842C471.348 243.577 471.539 243.286 471.703 242.967V236.186C471.539 235.876 471.348 235.593 471.129 235.338C470.91 235.083 470.66 234.864 470.377 234.682C470.094 234.49 469.78 234.344 469.434 234.244C469.087 234.135 468.704 234.08 468.285 234.08C467.574 234.08 466.964 234.226 466.453 234.518C465.952 234.809 465.537 235.206 465.209 235.707C464.89 236.199 464.653 236.773 464.498 237.43C464.352 238.077 464.279 238.76 464.279 239.48V239.768ZM485.566 247.273C484.527 247.273 483.57 247.096 482.695 246.74C481.829 246.385 481.087 245.888 480.467 245.25C479.847 244.612 479.364 243.855 479.018 242.98C478.671 242.105 478.498 241.153 478.498 240.123V239.549C478.498 238.355 478.689 237.288 479.072 236.35C479.455 235.402 479.961 234.604 480.59 233.957C481.228 233.301 481.948 232.799 482.75 232.453C483.561 232.107 484.391 231.934 485.238 231.934C486.305 231.934 487.234 232.12 488.027 232.494C488.829 232.859 489.495 233.369 490.023 234.025C490.552 234.673 490.944 235.438 491.199 236.322C491.464 237.206 491.596 238.163 491.596 239.193V240.328H481.027C481.055 241.003 481.182 241.636 481.41 242.229C481.647 242.821 481.966 243.34 482.367 243.787C482.777 244.225 483.265 244.571 483.83 244.826C484.395 245.081 485.02 245.209 485.703 245.209C486.605 245.209 487.408 245.027 488.109 244.662C488.811 244.298 489.395 243.814 489.859 243.213L491.404 244.416C491.158 244.79 490.848 245.15 490.475 245.496C490.11 245.833 489.686 246.134 489.203 246.398C488.72 246.663 488.173 246.872 487.562 247.027C486.952 247.191 486.286 247.273 485.566 247.273ZM485.238 234.012C484.728 234.012 484.245 234.107 483.789 234.299C483.333 234.481 482.923 234.755 482.559 235.119C482.194 235.475 481.884 235.917 481.629 236.445C481.383 236.965 481.21 237.566 481.109 238.25H489.066V238.059C489.039 237.566 488.943 237.079 488.779 236.596C488.624 236.113 488.392 235.68 488.082 235.297C487.772 234.914 487.38 234.604 486.906 234.367C486.441 234.13 485.885 234.012 485.238 234.012ZM505.678 243.076C505.678 242.775 505.618 242.507 505.5 242.27C505.382 242.023 505.181 241.8 504.898 241.6C504.616 241.399 504.242 241.217 503.777 241.053C503.312 240.88 502.734 240.725 502.041 240.588C501.193 240.415 500.419 240.205 499.717 239.959C499.024 239.713 498.427 239.421 497.926 239.084C497.434 238.738 497.051 238.337 496.777 237.881C496.504 237.416 496.367 236.878 496.367 236.268C496.367 235.666 496.508 235.105 496.791 234.586C497.074 234.057 497.47 233.597 497.98 233.205C498.491 232.813 499.097 232.503 499.799 232.275C500.51 232.048 501.289 231.934 502.137 231.934C503.048 231.934 503.868 232.052 504.598 232.289C505.327 232.526 505.947 232.854 506.457 233.273C506.967 233.693 507.359 234.185 507.633 234.75C507.915 235.306 508.057 235.908 508.057 236.555H505.527C505.527 236.236 505.445 235.926 505.281 235.625C505.117 235.315 504.889 235.042 504.598 234.805C504.306 234.568 503.951 234.376 503.531 234.23C503.121 234.085 502.656 234.012 502.137 234.012C501.599 234.012 501.125 234.071 500.715 234.189C500.314 234.308 499.977 234.467 499.703 234.668C499.439 234.868 499.238 235.101 499.102 235.365C498.965 235.63 498.896 235.903 498.896 236.186C498.896 236.477 498.951 236.737 499.061 236.965C499.17 237.193 499.357 237.398 499.621 237.58C499.895 237.762 500.255 237.926 500.701 238.072C501.157 238.218 501.731 238.359 502.424 238.496C503.335 238.688 504.151 238.911 504.871 239.166C505.591 239.412 506.197 239.713 506.689 240.068C507.182 240.415 507.555 240.82 507.811 241.285C508.075 241.75 508.207 242.288 508.207 242.898C508.207 243.555 508.057 244.152 507.756 244.689C507.464 245.227 507.054 245.688 506.525 246.07C505.997 246.453 505.363 246.749 504.625 246.959C503.887 247.169 503.08 247.273 502.205 247.273C501.202 247.273 500.309 247.141 499.525 246.877C498.742 246.604 498.076 246.248 497.529 245.811C496.992 245.364 496.577 244.849 496.285 244.266C496.003 243.682 495.861 243.076 495.861 242.447H498.391C498.427 242.967 498.564 243.404 498.801 243.76C499.047 244.115 499.348 244.402 499.703 244.621C500.068 244.84 500.469 244.995 500.906 245.086C501.344 245.177 501.777 245.223 502.205 245.223C503.271 245.223 504.115 245.027 504.734 244.635C505.354 244.243 505.669 243.723 505.678 243.076ZM540.432 237.799H532.119V244.854H541.812V247H529.59V227.094H541.689V229.254H532.119V235.652H540.432V237.799ZM548.566 232.207L548.744 234.395C549.282 233.629 549.943 233.032 550.727 232.604C551.51 232.166 552.385 231.943 553.352 231.934C554.126 231.934 554.828 232.043 555.457 232.262C556.095 232.48 556.637 232.822 557.084 233.287C557.531 233.752 557.872 234.344 558.109 235.064C558.355 235.775 558.479 236.623 558.479 237.607V247H555.949V237.662C555.949 237.006 555.876 236.45 555.73 235.994C555.585 235.538 555.366 235.169 555.074 234.887C554.792 234.604 554.441 234.399 554.021 234.271C553.611 234.144 553.137 234.08 552.6 234.08C551.752 234.08 551.005 234.294 550.357 234.723C549.719 235.142 549.209 235.698 548.826 236.391V247H546.297V232.207H548.566ZM562.648 239.48C562.648 238.378 562.781 237.366 563.045 236.445C563.318 235.516 563.71 234.718 564.221 234.053C564.731 233.387 565.351 232.868 566.08 232.494C566.809 232.12 567.634 231.934 568.555 231.934C569.466 231.934 570.264 232.098 570.947 232.426C571.64 232.745 572.228 233.21 572.711 233.82L572.834 232.207H575.131V246.686C575.131 247.661 574.976 248.527 574.666 249.283C574.365 250.04 573.937 250.682 573.381 251.211C572.834 251.74 572.178 252.141 571.412 252.414C570.646 252.688 569.799 252.824 568.869 252.824C568.486 252.824 568.049 252.779 567.557 252.688C567.064 252.605 566.563 252.464 566.053 252.264C565.551 252.072 565.064 251.812 564.59 251.484C564.125 251.156 563.724 250.751 563.387 250.268L564.699 248.75C565.009 249.124 565.328 249.438 565.656 249.693C565.984 249.958 566.317 250.167 566.654 250.322C566.992 250.477 567.329 250.587 567.666 250.65C568.003 250.723 568.34 250.76 568.678 250.76C569.279 250.76 569.822 250.673 570.305 250.5C570.788 250.327 571.198 250.072 571.535 249.734C571.882 249.406 572.146 248.996 572.328 248.504C572.51 248.012 572.602 247.447 572.602 246.809V245.537C572.109 246.102 571.526 246.535 570.852 246.836C570.186 247.128 569.411 247.273 568.527 247.273C567.625 247.273 566.809 247.082 566.08 246.699C565.351 246.316 564.731 245.788 564.221 245.113C563.719 244.439 563.332 243.646 563.059 242.734C562.785 241.814 562.648 240.825 562.648 239.768V239.48ZM565.178 239.768C565.178 240.488 565.251 241.171 565.396 241.818C565.551 242.465 565.788 243.035 566.107 243.527C566.436 244.02 566.85 244.411 567.352 244.703C567.853 244.986 568.454 245.127 569.156 245.127C569.594 245.127 569.986 245.077 570.332 244.977C570.688 244.867 571.002 244.717 571.275 244.525C571.558 244.334 571.809 244.106 572.027 243.842C572.246 243.577 572.438 243.286 572.602 242.967V236.186C572.438 235.876 572.246 235.593 572.027 235.338C571.809 235.083 571.558 234.864 571.275 234.682C570.993 234.49 570.678 234.344 570.332 234.244C569.986 234.135 569.603 234.08 569.184 234.08C568.473 234.08 567.862 234.226 567.352 234.518C566.85 234.809 566.436 235.206 566.107 235.707C565.788 236.199 565.551 236.773 565.396 237.43C565.251 238.077 565.178 238.76 565.178 239.48V239.768ZM580.326 232.207H587.887V244.812H592.713V247H580.326V244.812H585.357V234.408H580.326V232.207ZM585.029 228.324C585.029 227.905 585.152 227.554 585.398 227.271C585.654 226.98 586.036 226.834 586.547 226.834C587.048 226.834 587.426 226.98 587.682 227.271C587.937 227.554 588.064 227.905 588.064 228.324C588.064 228.734 587.937 229.076 587.682 229.35C587.426 229.623 587.048 229.76 586.547 229.76C586.036 229.76 585.654 229.623 585.398 229.35C585.152 229.076 585.029 228.734 585.029 228.324ZM599.016 232.207L599.193 234.395C599.731 233.629 600.392 233.032 601.176 232.604C601.96 232.166 602.835 231.943 603.801 231.934C604.576 231.934 605.277 232.043 605.906 232.262C606.544 232.48 607.087 232.822 607.533 233.287C607.98 233.752 608.322 234.344 608.559 235.064C608.805 235.775 608.928 236.623 608.928 237.607V247H606.398V237.662C606.398 237.006 606.326 236.45 606.18 235.994C606.034 235.538 605.815 235.169 605.523 234.887C605.241 234.604 604.89 234.399 604.471 234.271C604.061 234.144 603.587 234.08 603.049 234.08C602.201 234.08 601.454 234.294 600.807 234.723C600.169 235.142 599.658 235.698 599.275 236.391V247H596.746V232.207H599.016ZM620.098 247.273C619.059 247.273 618.102 247.096 617.227 246.74C616.361 246.385 615.618 245.888 614.998 245.25C614.378 244.612 613.895 243.855 613.549 242.98C613.202 242.105 613.029 241.153 613.029 240.123V239.549C613.029 238.355 613.221 237.288 613.604 236.35C613.986 235.402 614.492 234.604 615.121 233.957C615.759 233.301 616.479 232.799 617.281 232.453C618.092 232.107 618.922 231.934 619.77 231.934C620.836 231.934 621.766 232.12 622.559 232.494C623.361 232.859 624.026 233.369 624.555 234.025C625.083 234.673 625.475 235.438 625.73 236.322C625.995 237.206 626.127 238.163 626.127 239.193V240.328H615.559C615.586 241.003 615.714 241.636 615.941 242.229C616.178 242.821 616.497 243.34 616.898 243.787C617.309 244.225 617.796 244.571 618.361 244.826C618.926 245.081 619.551 245.209 620.234 245.209C621.137 245.209 621.939 245.027 622.641 244.662C623.342 244.298 623.926 243.814 624.391 243.213L625.936 244.416C625.689 244.79 625.38 245.15 625.006 245.496C624.641 245.833 624.217 246.134 623.734 246.398C623.251 246.663 622.704 246.872 622.094 247.027C621.483 247.191 620.818 247.273 620.098 247.273ZM619.77 234.012C619.259 234.012 618.776 234.107 618.32 234.299C617.865 234.481 617.454 234.755 617.09 235.119C616.725 235.475 616.415 235.917 616.16 236.445C615.914 236.965 615.741 237.566 615.641 238.25H623.598V238.059C623.57 237.566 623.475 237.079 623.311 236.596C623.156 236.113 622.923 235.68 622.613 235.297C622.303 234.914 621.911 234.604 621.438 234.367C620.973 234.13 620.417 234.012 619.77 234.012Z" fill="white"/>
<path d="M453.588 365V345.094H458.195C459.581 345.112 460.816 345.349 461.9 345.805C462.994 346.251 463.915 346.88 464.662 347.691C465.419 348.493 465.993 349.46 466.385 350.59C466.786 351.711 466.991 352.955 467 354.322V355.785C466.991 357.152 466.786 358.401 466.385 359.531C465.993 360.652 465.419 361.618 464.662 362.43C463.915 363.232 462.994 363.861 461.9 364.316C460.816 364.763 459.581 364.991 458.195 365H453.588ZM456.158 347.172V362.936H458.195C459.271 362.926 460.201 362.74 460.984 362.375C461.768 362.001 462.415 361.495 462.926 360.857C463.445 360.219 463.828 359.467 464.074 358.602C464.329 357.736 464.462 356.797 464.471 355.785V354.295C464.462 353.283 464.329 352.349 464.074 351.492C463.819 350.626 463.436 349.879 462.926 349.25C462.415 348.612 461.768 348.111 460.984 347.746C460.201 347.382 459.271 347.19 458.195 347.172H456.158ZM480.385 365C480.285 364.809 480.202 364.572 480.139 364.289C480.084 363.997 480.043 363.697 480.016 363.387C479.76 363.642 479.473 363.883 479.154 364.111C478.844 364.339 478.498 364.54 478.115 364.713C477.742 364.886 477.34 365.023 476.912 365.123C476.484 365.223 476.028 365.273 475.545 365.273C474.761 365.273 474.05 365.16 473.412 364.932C472.783 364.704 472.245 364.398 471.799 364.016C471.361 363.624 471.02 363.163 470.773 362.635C470.536 362.097 470.418 361.518 470.418 360.898C470.418 360.087 470.577 359.376 470.896 358.766C471.225 358.155 471.685 357.649 472.277 357.248C472.87 356.838 473.581 356.533 474.41 356.332C475.249 356.132 476.183 356.031 477.213 356.031H479.975V354.869C479.975 354.423 479.893 354.021 479.729 353.666C479.564 353.311 479.332 353.01 479.031 352.764C478.73 352.508 478.361 352.312 477.924 352.176C477.495 352.039 477.012 351.971 476.475 351.971C475.973 351.971 475.522 352.035 475.121 352.162C474.729 352.29 474.396 352.458 474.123 352.668C473.85 352.878 473.635 353.128 473.48 353.42C473.335 353.702 473.262 353.999 473.262 354.309H470.719C470.728 353.771 470.865 353.242 471.129 352.723C471.402 352.203 471.79 351.738 472.291 351.328C472.801 350.909 473.417 350.572 474.137 350.316C474.866 350.061 475.691 349.934 476.611 349.934C477.45 349.934 478.229 350.038 478.949 350.248C479.669 350.449 480.289 350.758 480.809 351.178C481.337 351.588 481.752 352.103 482.053 352.723C482.354 353.342 482.504 354.067 482.504 354.896V361.773C482.504 362.266 482.549 362.79 482.641 363.346C482.732 363.893 482.859 364.371 483.023 364.781V365H480.385ZM475.914 363.072C476.406 363.072 476.867 363.008 477.295 362.881C477.723 362.753 478.111 362.585 478.457 362.375C478.812 362.165 479.118 361.928 479.373 361.664C479.628 361.391 479.829 361.108 479.975 360.816V357.822H477.623C476.146 357.822 474.998 358.041 474.178 358.479C473.357 358.916 472.947 359.604 472.947 360.543C472.947 360.908 473.007 361.245 473.125 361.555C473.253 361.865 473.439 362.133 473.686 362.361C473.932 362.58 474.242 362.753 474.615 362.881C474.989 363.008 475.422 363.072 475.914 363.072ZM493.469 346.625V350.207H499.102V352.162H493.469V360.201C493.469 360.775 493.542 361.249 493.688 361.623C493.833 361.997 494.034 362.298 494.289 362.525C494.544 362.744 494.836 362.899 495.164 362.99C495.501 363.081 495.857 363.127 496.23 363.127C496.504 363.127 496.786 363.113 497.078 363.086C497.37 363.049 497.652 363.008 497.926 362.963C498.208 362.917 498.468 362.872 498.705 362.826C498.951 362.771 499.152 362.726 499.307 362.689L499.662 364.48C499.452 364.608 499.197 364.722 498.896 364.822C498.596 364.913 498.268 364.991 497.912 365.055C497.557 365.128 497.178 365.182 496.777 365.219C496.385 365.255 495.993 365.273 495.602 365.273C494.945 365.273 494.33 365.182 493.756 365C493.191 364.809 492.699 364.512 492.279 364.111C491.86 363.701 491.527 363.177 491.281 362.539C491.044 361.892 490.926 361.113 490.926 360.201V352.162H487.043V350.207H490.926V346.625H493.469ZM514.018 365C513.917 364.809 513.835 364.572 513.771 364.289C513.717 363.997 513.676 363.697 513.648 363.387C513.393 363.642 513.106 363.883 512.787 364.111C512.477 364.339 512.131 364.54 511.748 364.713C511.374 364.886 510.973 365.023 510.545 365.123C510.117 365.223 509.661 365.273 509.178 365.273C508.394 365.273 507.683 365.16 507.045 364.932C506.416 364.704 505.878 364.398 505.432 364.016C504.994 363.624 504.652 363.163 504.406 362.635C504.169 362.097 504.051 361.518 504.051 360.898C504.051 360.087 504.21 359.376 504.529 358.766C504.857 358.155 505.318 357.649 505.91 357.248C506.503 356.838 507.214 356.533 508.043 356.332C508.882 356.132 509.816 356.031 510.846 356.031H513.607V354.869C513.607 354.423 513.525 354.021 513.361 353.666C513.197 353.311 512.965 353.01 512.664 352.764C512.363 352.508 511.994 352.312 511.557 352.176C511.128 352.039 510.645 351.971 510.107 351.971C509.606 351.971 509.155 352.035 508.754 352.162C508.362 352.29 508.029 352.458 507.756 352.668C507.482 352.878 507.268 353.128 507.113 353.42C506.967 353.702 506.895 353.999 506.895 354.309H504.352C504.361 353.771 504.497 353.242 504.762 352.723C505.035 352.203 505.423 351.738 505.924 351.328C506.434 350.909 507.049 350.572 507.77 350.316C508.499 350.061 509.324 349.934 510.244 349.934C511.083 349.934 511.862 350.038 512.582 350.248C513.302 350.449 513.922 350.758 514.441 351.178C514.97 351.588 515.385 352.103 515.686 352.723C515.986 353.342 516.137 354.067 516.137 354.896V361.773C516.137 362.266 516.182 362.79 516.273 363.346C516.365 363.893 516.492 364.371 516.656 364.781V365H514.018ZM509.547 363.072C510.039 363.072 510.499 363.008 510.928 362.881C511.356 362.753 511.743 362.585 512.09 362.375C512.445 362.165 512.751 361.928 513.006 361.664C513.261 361.391 513.462 361.108 513.607 360.816V357.822H511.256C509.779 357.822 508.631 358.041 507.811 358.479C506.99 358.916 506.58 359.604 506.58 360.543C506.58 360.908 506.639 361.245 506.758 361.555C506.885 361.865 507.072 362.133 507.318 362.361C507.564 362.58 507.874 362.753 508.248 362.881C508.622 363.008 509.055 363.072 509.547 363.072ZM533.65 357.768C533.65 358.825 533.523 359.814 533.268 360.734C533.012 361.646 532.639 362.439 532.146 363.113C531.654 363.788 531.044 364.316 530.314 364.699C529.594 365.082 528.765 365.273 527.826 365.273C526.878 365.273 526.053 365.105 525.352 364.768C524.659 364.43 524.066 363.947 523.574 363.318L523.451 365H521.127V344H523.656V351.793C524.139 351.191 524.723 350.731 525.406 350.412C526.09 350.093 526.887 349.934 527.799 349.934C528.747 349.934 529.585 350.12 530.314 350.494C531.044 350.868 531.654 351.387 532.146 352.053C532.639 352.718 533.012 353.516 533.268 354.445C533.523 355.366 533.65 356.378 533.65 357.48V357.768ZM531.121 357.48C531.121 356.76 531.048 356.077 530.902 355.43C530.766 354.773 530.542 354.199 530.232 353.707C529.923 353.206 529.517 352.809 529.016 352.518C528.514 352.226 527.899 352.08 527.17 352.08C526.732 352.08 526.331 352.139 525.967 352.258C525.602 352.367 525.274 352.527 524.982 352.736C524.7 352.937 524.445 353.178 524.217 353.461C523.998 353.734 523.811 354.035 523.656 354.363V360.83C523.82 361.158 524.012 361.464 524.23 361.746C524.458 362.02 524.718 362.261 525.01 362.471C525.301 362.68 525.63 362.844 525.994 362.963C526.359 363.072 526.76 363.127 527.197 363.127C527.89 363.127 528.482 362.986 528.975 362.703C529.476 362.411 529.882 362.02 530.191 361.527C530.51 361.035 530.743 360.465 530.889 359.818C531.044 359.171 531.121 358.488 531.121 357.768V357.48ZM547.65 365C547.55 364.809 547.468 364.572 547.404 364.289C547.35 363.997 547.309 363.697 547.281 363.387C547.026 363.642 546.739 363.883 546.42 364.111C546.11 364.339 545.764 364.54 545.381 364.713C545.007 364.886 544.606 365.023 544.178 365.123C543.749 365.223 543.294 365.273 542.811 365.273C542.027 365.273 541.316 365.16 540.678 364.932C540.049 364.704 539.511 364.398 539.064 364.016C538.627 363.624 538.285 363.163 538.039 362.635C537.802 362.097 537.684 361.518 537.684 360.898C537.684 360.087 537.843 359.376 538.162 358.766C538.49 358.155 538.951 357.649 539.543 357.248C540.135 356.838 540.846 356.533 541.676 356.332C542.514 356.132 543.449 356.031 544.479 356.031H547.24V354.869C547.24 354.423 547.158 354.021 546.994 353.666C546.83 353.311 546.598 353.01 546.297 352.764C545.996 352.508 545.627 352.312 545.189 352.176C544.761 352.039 544.278 351.971 543.74 351.971C543.239 351.971 542.788 352.035 542.387 352.162C541.995 352.29 541.662 352.458 541.389 352.668C541.115 352.878 540.901 353.128 540.746 353.42C540.6 353.702 540.527 353.999 540.527 354.309H537.984C537.993 353.771 538.13 353.242 538.395 352.723C538.668 352.203 539.055 351.738 539.557 351.328C540.067 350.909 540.682 350.572 541.402 350.316C542.132 350.061 542.956 349.934 543.877 349.934C544.715 349.934 545.495 350.038 546.215 350.248C546.935 350.449 547.555 350.758 548.074 351.178C548.603 351.588 549.018 352.103 549.318 352.723C549.619 353.342 549.77 354.067 549.77 354.896V361.773C549.77 362.266 549.815 362.79 549.906 363.346C549.997 363.893 550.125 364.371 550.289 364.781V365H547.65ZM543.18 363.072C543.672 363.072 544.132 363.008 544.561 362.881C544.989 362.753 545.376 362.585 545.723 362.375C546.078 362.165 546.383 361.928 546.639 361.664C546.894 361.391 547.094 361.108 547.24 360.816V357.822H544.889C543.412 357.822 542.264 358.041 541.443 358.479C540.623 358.916 540.213 359.604 540.213 360.543C540.213 360.908 540.272 361.245 540.391 361.555C540.518 361.865 540.705 362.133 540.951 362.361C541.197 362.58 541.507 362.753 541.881 362.881C542.255 363.008 542.688 363.072 543.18 363.072ZM564.576 361.076C564.576 360.775 564.517 360.507 564.398 360.27C564.28 360.023 564.079 359.8 563.797 359.6C563.514 359.399 563.141 359.217 562.676 359.053C562.211 358.88 561.632 358.725 560.939 358.588C560.092 358.415 559.317 358.205 558.615 357.959C557.923 357.713 557.326 357.421 556.824 357.084C556.332 356.738 555.949 356.337 555.676 355.881C555.402 355.416 555.266 354.878 555.266 354.268C555.266 353.666 555.407 353.105 555.689 352.586C555.972 352.057 556.368 351.597 556.879 351.205C557.389 350.813 557.995 350.503 558.697 350.275C559.408 350.048 560.188 349.934 561.035 349.934C561.947 349.934 562.767 350.052 563.496 350.289C564.225 350.526 564.845 350.854 565.355 351.273C565.866 351.693 566.258 352.185 566.531 352.75C566.814 353.306 566.955 353.908 566.955 354.555H564.426C564.426 354.236 564.344 353.926 564.18 353.625C564.016 353.315 563.788 353.042 563.496 352.805C563.204 352.568 562.849 352.376 562.43 352.23C562.02 352.085 561.555 352.012 561.035 352.012C560.497 352.012 560.023 352.071 559.613 352.189C559.212 352.308 558.875 352.467 558.602 352.668C558.337 352.868 558.137 353.101 558 353.365C557.863 353.63 557.795 353.903 557.795 354.186C557.795 354.477 557.85 354.737 557.959 354.965C558.068 355.193 558.255 355.398 558.52 355.58C558.793 355.762 559.153 355.926 559.6 356.072C560.055 356.218 560.63 356.359 561.322 356.496C562.234 356.688 563.049 356.911 563.77 357.166C564.49 357.412 565.096 357.713 565.588 358.068C566.08 358.415 566.454 358.82 566.709 359.285C566.973 359.75 567.105 360.288 567.105 360.898C567.105 361.555 566.955 362.152 566.654 362.689C566.363 363.227 565.952 363.688 565.424 364.07C564.895 364.453 564.262 364.749 563.523 364.959C562.785 365.169 561.979 365.273 561.104 365.273C560.101 365.273 559.208 365.141 558.424 364.877C557.64 364.604 556.975 364.248 556.428 363.811C555.89 363.364 555.475 362.849 555.184 362.266C554.901 361.682 554.76 361.076 554.76 360.447H557.289C557.326 360.967 557.462 361.404 557.699 361.76C557.945 362.115 558.246 362.402 558.602 362.621C558.966 362.84 559.367 362.995 559.805 363.086C560.242 363.177 560.675 363.223 561.104 363.223C562.17 363.223 563.013 363.027 563.633 362.635C564.253 362.243 564.567 361.723 564.576 361.076ZM578.098 365.273C577.059 365.273 576.102 365.096 575.227 364.74C574.361 364.385 573.618 363.888 572.998 363.25C572.378 362.612 571.895 361.855 571.549 360.98C571.202 360.105 571.029 359.153 571.029 358.123V357.549C571.029 356.355 571.221 355.288 571.604 354.35C571.986 353.402 572.492 352.604 573.121 351.957C573.759 351.301 574.479 350.799 575.281 350.453C576.092 350.107 576.922 349.934 577.77 349.934C578.836 349.934 579.766 350.12 580.559 350.494C581.361 350.859 582.026 351.369 582.555 352.025C583.083 352.673 583.475 353.438 583.73 354.322C583.995 355.206 584.127 356.163 584.127 357.193V358.328H573.559C573.586 359.003 573.714 359.636 573.941 360.229C574.178 360.821 574.497 361.34 574.898 361.787C575.309 362.225 575.796 362.571 576.361 362.826C576.926 363.081 577.551 363.209 578.234 363.209C579.137 363.209 579.939 363.027 580.641 362.662C581.342 362.298 581.926 361.814 582.391 361.213L583.936 362.416C583.689 362.79 583.38 363.15 583.006 363.496C582.641 363.833 582.217 364.134 581.734 364.398C581.251 364.663 580.704 364.872 580.094 365.027C579.483 365.191 578.818 365.273 578.098 365.273ZM577.77 352.012C577.259 352.012 576.776 352.107 576.32 352.299C575.865 352.481 575.454 352.755 575.09 353.119C574.725 353.475 574.415 353.917 574.16 354.445C573.914 354.965 573.741 355.566 573.641 356.25H581.598V356.059C581.57 355.566 581.475 355.079 581.311 354.596C581.156 354.113 580.923 353.68 580.613 353.297C580.303 352.914 579.911 352.604 579.438 352.367C578.973 352.13 578.417 352.012 577.77 352.012Z" fill="white"/>
<path d="M414.527 498.016V506H411.998V486.094H418.451C419.344 486.112 420.188 486.253 420.98 486.518C421.783 486.782 422.484 487.165 423.086 487.666C423.688 488.167 424.161 488.787 424.508 489.525C424.863 490.264 425.041 491.111 425.041 492.068C425.041 493.025 424.863 493.873 424.508 494.611C424.161 495.34 423.688 495.956 423.086 496.457C422.484 496.958 421.783 497.341 420.98 497.605C420.188 497.87 419.344 498.007 418.451 498.016H414.527ZM414.527 495.938H418.451C419.035 495.928 419.572 495.837 420.064 495.664C420.557 495.482 420.985 495.227 421.35 494.898C421.714 494.57 421.997 494.174 422.197 493.709C422.407 493.235 422.512 492.697 422.512 492.096C422.512 491.494 422.407 490.952 422.197 490.469C421.997 489.986 421.714 489.576 421.35 489.238C420.994 488.901 420.566 488.641 420.064 488.459C419.572 488.277 419.035 488.181 418.451 488.172H414.527V495.938ZM438.275 490.934C438.512 490.934 438.758 490.943 439.014 490.961C439.269 490.97 439.51 490.993 439.738 491.029C439.975 491.057 440.189 491.093 440.381 491.139C440.581 491.184 440.745 491.234 440.873 491.289L440.531 493.764C440.039 493.654 439.57 493.577 439.123 493.531C438.686 493.477 438.225 493.449 437.742 493.449C436.557 493.449 435.596 493.718 434.857 494.256C434.128 494.794 433.59 495.546 433.244 496.512V506H430.701V491.207H433.107L433.23 493.559C433.832 492.747 434.552 492.109 435.391 491.645C436.238 491.171 437.2 490.934 438.275 490.934ZM445.795 491.207H453.355V503.812H458.182V506H445.795V503.812H450.826V493.408H445.795V491.207ZM450.498 487.324C450.498 486.905 450.621 486.554 450.867 486.271C451.122 485.98 451.505 485.834 452.016 485.834C452.517 485.834 452.895 485.98 453.15 486.271C453.406 486.554 453.533 486.905 453.533 487.324C453.533 487.734 453.406 488.076 453.15 488.35C452.895 488.623 452.517 488.76 452.016 488.76C451.505 488.76 451.122 488.623 450.867 488.35C450.621 488.076 450.498 487.734 450.498 487.324ZM468.012 502.363L468.244 503.279L468.49 502.363L472.633 491.207H475.217L469.188 506H467.26L461.176 491.207H463.773L468.012 502.363ZM488.752 506C488.652 505.809 488.57 505.572 488.506 505.289C488.451 504.997 488.41 504.697 488.383 504.387C488.128 504.642 487.84 504.883 487.521 505.111C487.212 505.339 486.865 505.54 486.482 505.713C486.109 505.886 485.708 506.023 485.279 506.123C484.851 506.223 484.395 506.273 483.912 506.273C483.128 506.273 482.417 506.16 481.779 505.932C481.15 505.704 480.613 505.398 480.166 505.016C479.729 504.624 479.387 504.163 479.141 503.635C478.904 503.097 478.785 502.518 478.785 501.898C478.785 501.087 478.945 500.376 479.264 499.766C479.592 499.155 480.052 498.649 480.645 498.248C481.237 497.838 481.948 497.533 482.777 497.332C483.616 497.132 484.55 497.031 485.58 497.031H488.342V495.869C488.342 495.423 488.26 495.021 488.096 494.666C487.932 494.311 487.699 494.01 487.398 493.764C487.098 493.508 486.729 493.312 486.291 493.176C485.863 493.039 485.38 492.971 484.842 492.971C484.34 492.971 483.889 493.035 483.488 493.162C483.096 493.29 482.764 493.458 482.49 493.668C482.217 493.878 482.003 494.128 481.848 494.42C481.702 494.702 481.629 494.999 481.629 495.309H479.086C479.095 494.771 479.232 494.242 479.496 493.723C479.77 493.203 480.157 492.738 480.658 492.328C481.169 491.909 481.784 491.572 482.504 491.316C483.233 491.061 484.058 490.934 484.979 490.934C485.817 490.934 486.596 491.038 487.316 491.248C488.036 491.449 488.656 491.758 489.176 492.178C489.704 492.588 490.119 493.103 490.42 493.723C490.721 494.342 490.871 495.067 490.871 495.896V502.773C490.871 503.266 490.917 503.79 491.008 504.346C491.099 504.893 491.227 505.371 491.391 505.781V506H488.752ZM484.281 504.072C484.773 504.072 485.234 504.008 485.662 503.881C486.09 503.753 486.478 503.585 486.824 503.375C487.18 503.165 487.485 502.928 487.74 502.664C487.995 502.391 488.196 502.108 488.342 501.816V498.822H485.99C484.514 498.822 483.365 499.041 482.545 499.479C481.725 499.916 481.314 500.604 481.314 501.543C481.314 501.908 481.374 502.245 481.492 502.555C481.62 502.865 481.807 503.133 482.053 503.361C482.299 503.58 482.609 503.753 482.982 503.881C483.356 504.008 483.789 504.072 484.281 504.072ZM501.836 487.625V491.207H507.469V493.162H501.836V501.201C501.836 501.775 501.909 502.249 502.055 502.623C502.201 502.997 502.401 503.298 502.656 503.525C502.911 503.744 503.203 503.899 503.531 503.99C503.868 504.081 504.224 504.127 504.598 504.127C504.871 504.127 505.154 504.113 505.445 504.086C505.737 504.049 506.02 504.008 506.293 503.963C506.576 503.917 506.835 503.872 507.072 503.826C507.318 503.771 507.519 503.726 507.674 503.689L508.029 505.48C507.82 505.608 507.564 505.722 507.264 505.822C506.963 505.913 506.635 505.991 506.279 506.055C505.924 506.128 505.546 506.182 505.145 506.219C504.753 506.255 504.361 506.273 503.969 506.273C503.312 506.273 502.697 506.182 502.123 506C501.558 505.809 501.066 505.512 500.646 505.111C500.227 504.701 499.895 504.177 499.648 503.539C499.411 502.892 499.293 502.113 499.293 501.201V493.162H495.41V491.207H499.293V487.625H501.836ZM519.199 506.273C518.16 506.273 517.203 506.096 516.328 505.74C515.462 505.385 514.719 504.888 514.1 504.25C513.48 503.612 512.997 502.855 512.65 501.98C512.304 501.105 512.131 500.153 512.131 499.123V498.549C512.131 497.355 512.322 496.288 512.705 495.35C513.088 494.402 513.594 493.604 514.223 492.957C514.861 492.301 515.581 491.799 516.383 491.453C517.194 491.107 518.023 490.934 518.871 490.934C519.938 490.934 520.867 491.12 521.66 491.494C522.462 491.859 523.128 492.369 523.656 493.025C524.185 493.673 524.577 494.438 524.832 495.322C525.096 496.206 525.229 497.163 525.229 498.193V499.328H514.66C514.688 500.003 514.815 500.636 515.043 501.229C515.28 501.821 515.599 502.34 516 502.787C516.41 503.225 516.898 503.571 517.463 503.826C518.028 504.081 518.652 504.209 519.336 504.209C520.238 504.209 521.04 504.027 521.742 503.662C522.444 503.298 523.027 502.814 523.492 502.213L525.037 503.416C524.791 503.79 524.481 504.15 524.107 504.496C523.743 504.833 523.319 505.134 522.836 505.398C522.353 505.663 521.806 505.872 521.195 506.027C520.585 506.191 519.919 506.273 519.199 506.273ZM518.871 493.012C518.361 493.012 517.878 493.107 517.422 493.299C516.966 493.481 516.556 493.755 516.191 494.119C515.827 494.475 515.517 494.917 515.262 495.445C515.016 495.965 514.842 496.566 514.742 497.25H522.699V497.059C522.672 496.566 522.576 496.079 522.412 495.596C522.257 495.113 522.025 494.68 521.715 494.297C521.405 493.914 521.013 493.604 520.539 493.367C520.074 493.13 519.518 493.012 518.871 493.012ZM559.189 500.012C559.071 500.932 558.834 501.78 558.479 502.555C558.123 503.32 557.658 503.981 557.084 504.537C556.519 505.084 555.844 505.512 555.061 505.822C554.286 506.123 553.42 506.273 552.463 506.273C551.643 506.273 550.895 506.16 550.221 505.932C549.555 505.695 548.958 505.371 548.43 504.961C547.91 504.551 547.459 504.068 547.076 503.512C546.702 502.956 546.388 502.35 546.133 501.693C545.887 501.037 545.7 500.349 545.572 499.629C545.454 498.909 545.39 498.18 545.381 497.441V494.666C545.39 493.928 545.454 493.199 545.572 492.479C545.7 491.758 545.887 491.07 546.133 490.414C546.388 489.758 546.702 489.152 547.076 488.596C547.459 488.031 547.91 487.543 548.43 487.133C548.958 486.723 549.555 486.404 550.221 486.176C550.886 485.939 551.633 485.82 552.463 485.82C553.456 485.82 554.345 485.975 555.129 486.285C555.913 486.586 556.587 487.019 557.152 487.584C557.717 488.14 558.169 488.81 558.506 489.594C558.852 490.378 559.08 491.243 559.189 492.191H556.66C556.578 491.59 556.437 491.029 556.236 490.51C556.036 489.99 555.767 489.535 555.43 489.143C555.092 488.751 554.678 488.445 554.186 488.227C553.702 487.999 553.128 487.885 552.463 487.885C551.861 487.885 551.328 487.985 550.863 488.186C550.408 488.377 550.011 488.641 549.674 488.979C549.346 489.316 549.068 489.708 548.84 490.154C548.621 490.601 548.443 491.075 548.307 491.576C548.17 492.077 548.07 492.592 548.006 493.121C547.951 493.641 547.924 494.146 547.924 494.639V497.441C547.924 497.934 547.951 498.444 548.006 498.973C548.07 499.492 548.17 500.007 548.307 500.518C548.443 501.019 548.621 501.493 548.84 501.939C549.059 502.386 549.337 502.783 549.674 503.129C550.011 503.466 550.408 503.735 550.863 503.936C551.319 504.127 551.852 504.223 552.463 504.223C553.128 504.223 553.702 504.118 554.186 503.908C554.678 503.699 555.092 503.407 555.43 503.033C555.767 502.65 556.036 502.204 556.236 501.693C556.437 501.174 556.578 500.613 556.66 500.012H559.189ZM563.51 485H571.07V503.812H575.896V506H563.51V503.812H568.541V487.201H563.51V485ZM579.219 498.467C579.219 497.4 579.374 496.411 579.684 495.5C579.993 494.579 580.436 493.782 581.01 493.107C581.593 492.433 582.299 491.904 583.129 491.521C583.958 491.13 584.893 490.934 585.932 490.934C586.98 490.934 587.919 491.13 588.748 491.521C589.587 491.904 590.293 492.433 590.867 493.107C591.451 493.782 591.897 494.579 592.207 495.5C592.517 496.411 592.672 497.4 592.672 498.467V498.768C592.672 499.834 592.517 500.823 592.207 501.734C591.897 502.646 591.451 503.439 590.867 504.113C590.293 504.788 589.591 505.316 588.762 505.699C587.932 506.082 586.998 506.273 585.959 506.273C584.911 506.273 583.967 506.082 583.129 505.699C582.299 505.316 581.593 504.788 581.01 504.113C580.436 503.439 579.993 502.646 579.684 501.734C579.374 500.823 579.219 499.834 579.219 498.768V498.467ZM581.748 498.768C581.748 499.497 581.835 500.194 582.008 500.859C582.181 501.516 582.441 502.094 582.787 502.596C583.143 503.097 583.585 503.493 584.113 503.785C584.642 504.077 585.257 504.223 585.959 504.223C586.652 504.223 587.258 504.077 587.777 503.785C588.306 503.493 588.743 503.097 589.09 502.596C589.445 502.094 589.71 501.516 589.883 500.859C590.056 500.194 590.143 499.497 590.143 498.768V498.467C590.143 497.747 590.051 497.059 589.869 496.402C589.696 495.737 589.432 495.154 589.076 494.652C588.73 494.151 588.292 493.755 587.764 493.463C587.244 493.162 586.633 493.012 585.932 493.012C585.23 493.012 584.619 493.162 584.1 493.463C583.58 493.755 583.143 494.151 582.787 494.652C582.441 495.154 582.181 495.737 582.008 496.402C581.835 497.059 581.748 497.747 581.748 498.467V498.768ZM606.344 503.963C605.852 504.692 605.236 505.262 604.498 505.672C603.76 506.073 602.908 506.273 601.941 506.273C601.167 506.273 600.465 506.155 599.836 505.918C599.207 505.672 598.669 505.294 598.223 504.783C597.776 504.273 597.43 503.626 597.184 502.842C596.947 502.049 596.828 501.101 596.828 499.998V491.207H599.357V500.025C599.357 500.827 599.421 501.493 599.549 502.021C599.676 502.55 599.868 502.974 600.123 503.293C600.378 503.603 600.688 503.822 601.053 503.949C601.426 504.077 601.855 504.141 602.338 504.141C603.368 504.141 604.197 503.931 604.826 503.512C605.464 503.092 605.938 502.527 606.248 501.816V491.207H608.791V506H606.494L606.344 503.963ZM613.084 498.48C613.084 497.378 613.221 496.366 613.494 495.445C613.777 494.516 614.173 493.718 614.684 493.053C615.203 492.387 615.827 491.868 616.557 491.494C617.286 491.12 618.102 490.934 619.004 490.934C619.888 490.934 620.658 491.084 621.314 491.385C621.98 491.676 622.554 492.105 623.037 492.67V485H625.566V506H623.242L623.133 504.441C622.641 505.043 622.053 505.499 621.369 505.809C620.686 506.118 619.888 506.273 618.977 506.273C618.083 506.273 617.272 506.082 616.543 505.699C615.823 505.316 615.208 504.788 614.697 504.113C614.187 503.439 613.79 502.646 613.508 501.734C613.225 500.814 613.084 499.825 613.084 498.768V498.48ZM615.613 498.768C615.613 499.488 615.691 500.171 615.846 500.818C616.001 501.465 616.238 502.035 616.557 502.527C616.885 503.02 617.299 503.411 617.801 503.703C618.302 503.986 618.904 504.127 619.605 504.127C620.034 504.127 620.421 504.077 620.768 503.977C621.114 503.876 621.428 503.735 621.711 503.553C621.993 503.361 622.244 503.138 622.463 502.883C622.682 502.618 622.873 502.327 623.037 502.008V495.145C622.709 494.543 622.267 494.051 621.711 493.668C621.155 493.276 620.462 493.08 619.633 493.08C618.922 493.08 618.311 493.226 617.801 493.518C617.299 493.809 616.885 494.206 616.557 494.707C616.238 495.199 616.001 495.773 615.846 496.43C615.691 497.077 615.613 497.76 615.613 498.48V498.768Z" fill="white"/>
</svg>
